%TF.GenerationSoftware,KiCad,Pcbnew,9.0.2+dfsg-1*%
%TF.CreationDate,2026-03-26T03:25:24-04:00*%
%TF.ProjectId,Main_Board,4d61696e-5f42-46f6-9172-642e6b696361,rev?*%
%TF.SameCoordinates,Original*%
%TF.FileFunction,Drillmap*%
%TF.FilePolarity,Positive*%
%FSLAX45Y45*%
G04 Gerber Fmt 4.5, Leading zero omitted, Abs format (unit mm)*
G04 Created by KiCad (PCBNEW 9.0.2+dfsg-1) date 2026-03-26 03:25:24*
%MOMM*%
%LPD*%
G01*
G04 APERTURE LIST*
%ADD10C,0.050000*%
%ADD11C,0.200000*%
%ADD12C,0.100000*%
%ADD13C,0.102000*%
%ADD14C,0.152000*%
%ADD15C,0.250000*%
G04 APERTURE END LIST*
D10*
X5345000Y-5435000D02*
G75*
G02*
X5745000Y-5035000I400000J0D01*
G01*
X5745000Y-13920000D02*
G75*
G02*
X5345000Y-13520000I0J400000D01*
G01*
X24975000Y-5035000D02*
G75*
G02*
X25375000Y-5435000I0J-400000D01*
G01*
X25375000Y-13520000D02*
G75*
G02*
X24975000Y-13920000I-400000J0D01*
G01*
X5745000Y-5035000D02*
X24975000Y-5035000D01*
X5345000Y-13520000D02*
X5345000Y-5435000D01*
X24975000Y-13920000D02*
X5745000Y-13920000D01*
X25375000Y-5435000D02*
X25375000Y-13520000D01*
D11*
D12*
X11762500Y-12537500D02*
X11797500Y-12572500D01*
X11797500Y-12537500D02*
X11762500Y-12572500D01*
X12027500Y-12537500D02*
X12062500Y-12572500D01*
X12062500Y-12537500D02*
X12027500Y-12572500D01*
X12232500Y-5807500D02*
X12267500Y-5842500D01*
X12267500Y-5807500D02*
X12232500Y-5842500D01*
X12232500Y-5952500D02*
X12267500Y-5987500D01*
X12267500Y-5952500D02*
X12232500Y-5987500D01*
X12232500Y-6092500D02*
X12267500Y-6127500D01*
X12267500Y-6092500D02*
X12232500Y-6127500D01*
X12347500Y-12537500D02*
X12382500Y-12572500D01*
X12382500Y-12537500D02*
X12347500Y-12572500D01*
X12422500Y-5487500D02*
X12457500Y-5522500D01*
X12457500Y-5487500D02*
X12422500Y-5522500D01*
X12587500Y-13187500D02*
X12622500Y-13222500D01*
X12622500Y-13187500D02*
X12587500Y-13222500D01*
X12737500Y-12727500D02*
X12772500Y-12762500D01*
X12772500Y-12727500D02*
X12737500Y-12762500D01*
X13102500Y-8402500D02*
X13137500Y-8437500D01*
X13137500Y-8402500D02*
X13102500Y-8437500D01*
X13160000Y-8460000D02*
X13195000Y-8495000D01*
X13195000Y-8460000D02*
X13160000Y-8495000D01*
X14032500Y-8312500D02*
X14067500Y-8347500D01*
X14067500Y-8312500D02*
X14032500Y-8347500D01*
X11640000Y-12710000D02*
G75*
G02*
X11580000Y-12710000I-30000J0D01*
G01*
X11580000Y-12710000D02*
G75*
G02*
X11640000Y-12710000I30000J0D01*
G01*
X11640000Y-12860000D02*
G75*
G02*
X11580000Y-12860000I-30000J0D01*
G01*
X11580000Y-12860000D02*
G75*
G02*
X11640000Y-12860000I30000J0D01*
G01*
X6320000Y-6636000D02*
X6320000Y-6736000D01*
X6270000Y-6686000D02*
X6370000Y-6686000D01*
X6320000Y-6890000D02*
X6320000Y-6990000D01*
X6270000Y-6940000D02*
X6370000Y-6940000D01*
X6320000Y-7144000D02*
X6320000Y-7244000D01*
X6270000Y-7194000D02*
X6370000Y-7194000D01*
X6320000Y-7398000D02*
X6320000Y-7498000D01*
X6270000Y-7448000D02*
X6370000Y-7448000D01*
X6320000Y-7652000D02*
X6320000Y-7752000D01*
X6270000Y-7702000D02*
X6370000Y-7702000D01*
X6320000Y-7906000D02*
X6320000Y-8006000D01*
X6270000Y-7956000D02*
X6370000Y-7956000D01*
X6320000Y-8160000D02*
X6320000Y-8260000D01*
X6270000Y-8210000D02*
X6370000Y-8210000D01*
X6320000Y-8414000D02*
X6320000Y-8514000D01*
X6270000Y-8464000D02*
X6370000Y-8464000D01*
X6320000Y-8668000D02*
X6320000Y-8768000D01*
X6270000Y-8718000D02*
X6370000Y-8718000D01*
X6320000Y-8922000D02*
X6320000Y-9022000D01*
X6270000Y-8972000D02*
X6370000Y-8972000D01*
X6320000Y-9176000D02*
X6320000Y-9276000D01*
X6270000Y-9226000D02*
X6370000Y-9226000D01*
X6320000Y-9430000D02*
X6320000Y-9530000D01*
X6270000Y-9480000D02*
X6370000Y-9480000D01*
X6320000Y-9684000D02*
X6320000Y-9784000D01*
X6270000Y-9734000D02*
X6370000Y-9734000D01*
X6320000Y-9938000D02*
X6320000Y-10038000D01*
X6270000Y-9988000D02*
X6370000Y-9988000D01*
X6320000Y-10192000D02*
X6320000Y-10292000D01*
X6270000Y-10242000D02*
X6370000Y-10242000D01*
X6320000Y-10446000D02*
X6320000Y-10546000D01*
X6270000Y-10496000D02*
X6370000Y-10496000D01*
X6320000Y-10700000D02*
X6320000Y-10800000D01*
X6270000Y-10750000D02*
X6370000Y-10750000D01*
X6320000Y-10954000D02*
X6320000Y-11054000D01*
X6270000Y-11004000D02*
X6370000Y-11004000D01*
X6320000Y-11208000D02*
X6320000Y-11308000D01*
X6270000Y-11258000D02*
X6370000Y-11258000D01*
X6320000Y-11462000D02*
X6320000Y-11562000D01*
X6270000Y-11512000D02*
X6370000Y-11512000D01*
X6320000Y-11716000D02*
X6320000Y-11816000D01*
X6270000Y-11766000D02*
X6370000Y-11766000D01*
X6320000Y-11970000D02*
X6320000Y-12070000D01*
X6270000Y-12020000D02*
X6370000Y-12020000D01*
X7358000Y-13450000D02*
X7358000Y-13550000D01*
X7308000Y-13500000D02*
X7408000Y-13500000D01*
X7612000Y-13450000D02*
X7612000Y-13550000D01*
X7562000Y-13500000D02*
X7662000Y-13500000D01*
X7866000Y-13450000D02*
X7866000Y-13550000D01*
X7816000Y-13500000D02*
X7916000Y-13500000D01*
X8120000Y-13450000D02*
X8120000Y-13550000D01*
X8070000Y-13500000D02*
X8170000Y-13500000D01*
X8374000Y-13450000D02*
X8374000Y-13550000D01*
X8324000Y-13500000D02*
X8424000Y-13500000D01*
X9730000Y-6631000D02*
X9730000Y-6731000D01*
X9680000Y-6681000D02*
X9780000Y-6681000D01*
X9730000Y-6885000D02*
X9730000Y-6985000D01*
X9680000Y-6935000D02*
X9780000Y-6935000D01*
X9730000Y-7139000D02*
X9730000Y-7239000D01*
X9680000Y-7189000D02*
X9780000Y-7189000D01*
X9730000Y-7393000D02*
X9730000Y-7493000D01*
X9680000Y-7443000D02*
X9780000Y-7443000D01*
X9730000Y-7647000D02*
X9730000Y-7747000D01*
X9680000Y-7697000D02*
X9780000Y-7697000D01*
X9730000Y-7901000D02*
X9730000Y-8001000D01*
X9680000Y-7951000D02*
X9780000Y-7951000D01*
X9730000Y-8155000D02*
X9730000Y-8255000D01*
X9680000Y-8205000D02*
X9780000Y-8205000D01*
X9730000Y-8409000D02*
X9730000Y-8509000D01*
X9680000Y-8459000D02*
X9780000Y-8459000D01*
X9730000Y-8663000D02*
X9730000Y-8763000D01*
X9680000Y-8713000D02*
X9780000Y-8713000D01*
X9730000Y-8917000D02*
X9730000Y-9017000D01*
X9680000Y-8967000D02*
X9780000Y-8967000D01*
X9730000Y-9171000D02*
X9730000Y-9271000D01*
X9680000Y-9221000D02*
X9780000Y-9221000D01*
X9730000Y-9425000D02*
X9730000Y-9525000D01*
X9680000Y-9475000D02*
X9780000Y-9475000D01*
X9730000Y-9679000D02*
X9730000Y-9779000D01*
X9680000Y-9729000D02*
X9780000Y-9729000D01*
X9730000Y-9933000D02*
X9730000Y-10033000D01*
X9680000Y-9983000D02*
X9780000Y-9983000D01*
X9730000Y-10187000D02*
X9730000Y-10287000D01*
X9680000Y-10237000D02*
X9780000Y-10237000D01*
X9730000Y-10441000D02*
X9730000Y-10541000D01*
X9680000Y-10491000D02*
X9780000Y-10491000D01*
X9730000Y-10695000D02*
X9730000Y-10795000D01*
X9680000Y-10745000D02*
X9780000Y-10745000D01*
X9730000Y-10949000D02*
X9730000Y-11049000D01*
X9680000Y-10999000D02*
X9780000Y-10999000D01*
X9730000Y-11203000D02*
X9730000Y-11303000D01*
X9680000Y-11253000D02*
X9780000Y-11253000D01*
X9730000Y-11457000D02*
X9730000Y-11557000D01*
X9680000Y-11507000D02*
X9780000Y-11507000D01*
X9730000Y-11711000D02*
X9730000Y-11811000D01*
X9680000Y-11761000D02*
X9780000Y-11761000D01*
X9730000Y-11965000D02*
X9730000Y-12065000D01*
X9680000Y-12015000D02*
X9780000Y-12015000D01*
X11165000Y-5750000D02*
X11165000Y-5850000D01*
X11115000Y-5800000D02*
X11215000Y-5800000D01*
X11165000Y-6004000D02*
X11165000Y-6104000D01*
X11115000Y-6054000D02*
X11215000Y-6054000D01*
X11165000Y-6258000D02*
X11165000Y-6358000D01*
X11115000Y-6308000D02*
X11215000Y-6308000D01*
X11165000Y-6512000D02*
X11165000Y-6612000D01*
X11115000Y-6562000D02*
X11215000Y-6562000D01*
X11165000Y-6766000D02*
X11165000Y-6866000D01*
X11115000Y-6816000D02*
X11215000Y-6816000D01*
X11165000Y-7020000D02*
X11165000Y-7120000D01*
X11115000Y-7070000D02*
X11215000Y-7070000D01*
X11165000Y-7274000D02*
X11165000Y-7374000D01*
X11115000Y-7324000D02*
X11215000Y-7324000D01*
X11165000Y-7528000D02*
X11165000Y-7628000D01*
X11115000Y-7578000D02*
X11215000Y-7578000D01*
X14165000Y-5750000D02*
X14165000Y-5850000D01*
X14115000Y-5800000D02*
X14215000Y-5800000D01*
X14165000Y-6004000D02*
X14165000Y-6104000D01*
X14115000Y-6054000D02*
X14215000Y-6054000D01*
X14165000Y-6258000D02*
X14165000Y-6358000D01*
X14115000Y-6308000D02*
X14215000Y-6308000D01*
X14165000Y-6512000D02*
X14165000Y-6612000D01*
X14115000Y-6562000D02*
X14215000Y-6562000D01*
X14165000Y-6766000D02*
X14165000Y-6866000D01*
X14115000Y-6816000D02*
X14215000Y-6816000D01*
X14165000Y-7020000D02*
X14165000Y-7120000D01*
X14115000Y-7070000D02*
X14215000Y-7070000D01*
X14165000Y-7274000D02*
X14165000Y-7374000D01*
X14115000Y-7324000D02*
X14215000Y-7324000D01*
X14165000Y-7528000D02*
X14165000Y-7628000D01*
X14115000Y-7578000D02*
X14215000Y-7578000D01*
X17122900Y-7759000D02*
X17122900Y-7859000D01*
X17072900Y-7809000D02*
X17172900Y-7809000D01*
X17122900Y-8013000D02*
X17122900Y-8113000D01*
X17072900Y-8063000D02*
X17172900Y-8063000D01*
X17122900Y-8267000D02*
X17122900Y-8367000D01*
X17072900Y-8317000D02*
X17172900Y-8317000D01*
X17122900Y-8521000D02*
X17122900Y-8621000D01*
X17072900Y-8571000D02*
X17172900Y-8571000D01*
X17122900Y-8775000D02*
X17122900Y-8875000D01*
X17072900Y-8825000D02*
X17172900Y-8825000D01*
X17122900Y-9029000D02*
X17122900Y-9129000D01*
X17072900Y-9079000D02*
X17172900Y-9079000D01*
X17122900Y-9283000D02*
X17122900Y-9383000D01*
X17072900Y-9333000D02*
X17172900Y-9333000D01*
X17122900Y-9537000D02*
X17122900Y-9637000D01*
X17072900Y-9587000D02*
X17172900Y-9587000D01*
X17122900Y-9791000D02*
X17122900Y-9891000D01*
X17072900Y-9841000D02*
X17172900Y-9841000D01*
X17122900Y-10045000D02*
X17122900Y-10145000D01*
X17072900Y-10095000D02*
X17172900Y-10095000D01*
X17122900Y-10299000D02*
X17122900Y-10399000D01*
X17072900Y-10349000D02*
X17172900Y-10349000D01*
X17122900Y-10553000D02*
X17122900Y-10653000D01*
X17072900Y-10603000D02*
X17172900Y-10603000D01*
X17122900Y-10807000D02*
X17122900Y-10907000D01*
X17072900Y-10857000D02*
X17172900Y-10857000D01*
X17122900Y-11061000D02*
X17122900Y-11161000D01*
X17072900Y-11111000D02*
X17172900Y-11111000D01*
X17122900Y-11315000D02*
X17122900Y-11415000D01*
X17072900Y-11365000D02*
X17172900Y-11365000D01*
X17122900Y-11569000D02*
X17122900Y-11669000D01*
X17072900Y-11619000D02*
X17172900Y-11619000D01*
X17122900Y-11823000D02*
X17122900Y-11923000D01*
X17072900Y-11873000D02*
X17172900Y-11873000D01*
X17122900Y-12077000D02*
X17122900Y-12177000D01*
X17072900Y-12127000D02*
X17172900Y-12127000D01*
X23127100Y-7759000D02*
X23127100Y-7859000D01*
X23077100Y-7809000D02*
X23177100Y-7809000D01*
X23127100Y-8013000D02*
X23127100Y-8113000D01*
X23077100Y-8063000D02*
X23177100Y-8063000D01*
X23127100Y-8267000D02*
X23127100Y-8367000D01*
X23077100Y-8317000D02*
X23177100Y-8317000D01*
X23127100Y-8521000D02*
X23127100Y-8621000D01*
X23077100Y-8571000D02*
X23177100Y-8571000D01*
X23127100Y-8775000D02*
X23127100Y-8875000D01*
X23077100Y-8825000D02*
X23177100Y-8825000D01*
X23127100Y-9029000D02*
X23127100Y-9129000D01*
X23077100Y-9079000D02*
X23177100Y-9079000D01*
X23127100Y-9283000D02*
X23127100Y-9383000D01*
X23077100Y-9333000D02*
X23177100Y-9333000D01*
X23127100Y-9537000D02*
X23127100Y-9637000D01*
X23077100Y-9587000D02*
X23177100Y-9587000D01*
X23127100Y-9791000D02*
X23127100Y-9891000D01*
X23077100Y-9841000D02*
X23177100Y-9841000D01*
X23127100Y-10045000D02*
X23127100Y-10145000D01*
X23077100Y-10095000D02*
X23177100Y-10095000D01*
X23127100Y-10299000D02*
X23127100Y-10399000D01*
X23077100Y-10349000D02*
X23177100Y-10349000D01*
X23127100Y-10553000D02*
X23127100Y-10653000D01*
X23077100Y-10603000D02*
X23177100Y-10603000D01*
X23127100Y-10807000D02*
X23127100Y-10907000D01*
X23077100Y-10857000D02*
X23177100Y-10857000D01*
X23127100Y-11061000D02*
X23127100Y-11161000D01*
X23077100Y-11111000D02*
X23177100Y-11111000D01*
X23127100Y-11315000D02*
X23127100Y-11415000D01*
X23077100Y-11365000D02*
X23177100Y-11365000D01*
X23127100Y-11569000D02*
X23127100Y-11669000D01*
X23077100Y-11619000D02*
X23177100Y-11619000D01*
X23127100Y-11823000D02*
X23127100Y-11923000D01*
X23077100Y-11873000D02*
X23177100Y-11873000D01*
X23127100Y-12077000D02*
X23127100Y-12177000D01*
X23077100Y-12127000D02*
X23177100Y-12127000D01*
D13*
X6905063Y-6726063D02*
X6905063Y-6653937D01*
X6832937Y-6653937D01*
X6832937Y-6726063D01*
X6905063Y-6726063D01*
X6905063Y-6980063D02*
X6905063Y-6907937D01*
X6832937Y-6907937D01*
X6832937Y-6980063D01*
X6905063Y-6980063D01*
X6905063Y-7234063D02*
X6905063Y-7161937D01*
X6832937Y-7161937D01*
X6832937Y-7234063D01*
X6905063Y-7234063D01*
X6905063Y-7488063D02*
X6905063Y-7415937D01*
X6832937Y-7415937D01*
X6832937Y-7488063D01*
X6905063Y-7488063D01*
X6905063Y-7742063D02*
X6905063Y-7669937D01*
X6832937Y-7669937D01*
X6832937Y-7742063D01*
X6905063Y-7742063D01*
X6905063Y-7996063D02*
X6905063Y-7923937D01*
X6832937Y-7923937D01*
X6832937Y-7996063D01*
X6905063Y-7996063D01*
X6905063Y-8250063D02*
X6905063Y-8177937D01*
X6832937Y-8177937D01*
X6832937Y-8250063D01*
X6905063Y-8250063D01*
X6905063Y-8504063D02*
X6905063Y-8431937D01*
X6832937Y-8431937D01*
X6832937Y-8504063D01*
X6905063Y-8504063D01*
X6905063Y-8758063D02*
X6905063Y-8685937D01*
X6832937Y-8685937D01*
X6832937Y-8758063D01*
X6905063Y-8758063D01*
X6905063Y-9012063D02*
X6905063Y-8939937D01*
X6832937Y-8939937D01*
X6832937Y-9012063D01*
X6905063Y-9012063D01*
X6905063Y-9266063D02*
X6905063Y-9193937D01*
X6832937Y-9193937D01*
X6832937Y-9266063D01*
X6905063Y-9266063D01*
X6905063Y-9520063D02*
X6905063Y-9447937D01*
X6832937Y-9447937D01*
X6832937Y-9520063D01*
X6905063Y-9520063D01*
X6905063Y-9774063D02*
X6905063Y-9701937D01*
X6832937Y-9701937D01*
X6832937Y-9774063D01*
X6905063Y-9774063D01*
X6905063Y-10028063D02*
X6905063Y-9955937D01*
X6832937Y-9955937D01*
X6832937Y-10028063D01*
X6905063Y-10028063D01*
X6905063Y-10282063D02*
X6905063Y-10209937D01*
X6832937Y-10209937D01*
X6832937Y-10282063D01*
X6905063Y-10282063D01*
X6905063Y-10536063D02*
X6905063Y-10463937D01*
X6832937Y-10463937D01*
X6832937Y-10536063D01*
X6905063Y-10536063D01*
X6905063Y-10790063D02*
X6905063Y-10717937D01*
X6832937Y-10717937D01*
X6832937Y-10790063D01*
X6905063Y-10790063D01*
X6905063Y-11044063D02*
X6905063Y-10971937D01*
X6832937Y-10971937D01*
X6832937Y-11044063D01*
X6905063Y-11044063D01*
X6905063Y-11298063D02*
X6905063Y-11225937D01*
X6832937Y-11225937D01*
X6832937Y-11298063D01*
X6905063Y-11298063D01*
X6905063Y-11552063D02*
X6905063Y-11479937D01*
X6832937Y-11479937D01*
X6832937Y-11552063D01*
X6905063Y-11552063D01*
X6905063Y-11806063D02*
X6905063Y-11733937D01*
X6832937Y-11733937D01*
X6832937Y-11806063D01*
X6905063Y-11806063D01*
X6905063Y-12060063D02*
X6905063Y-11987937D01*
X6832937Y-11987937D01*
X6832937Y-12060063D01*
X6905063Y-12060063D01*
X9191063Y-6726063D02*
X9191063Y-6653937D01*
X9118937Y-6653937D01*
X9118937Y-6726063D01*
X9191063Y-6726063D01*
X9191063Y-6980063D02*
X9191063Y-6907937D01*
X9118937Y-6907937D01*
X9118937Y-6980063D01*
X9191063Y-6980063D01*
X9191063Y-7234063D02*
X9191063Y-7161937D01*
X9118937Y-7161937D01*
X9118937Y-7234063D01*
X9191063Y-7234063D01*
X9191063Y-7488063D02*
X9191063Y-7415937D01*
X9118937Y-7415937D01*
X9118937Y-7488063D01*
X9191063Y-7488063D01*
X9191063Y-7742063D02*
X9191063Y-7669937D01*
X9118937Y-7669937D01*
X9118937Y-7742063D01*
X9191063Y-7742063D01*
X9191063Y-7996063D02*
X9191063Y-7923937D01*
X9118937Y-7923937D01*
X9118937Y-7996063D01*
X9191063Y-7996063D01*
X9191063Y-8250063D02*
X9191063Y-8177937D01*
X9118937Y-8177937D01*
X9118937Y-8250063D01*
X9191063Y-8250063D01*
X9191063Y-8504063D02*
X9191063Y-8431937D01*
X9118937Y-8431937D01*
X9118937Y-8504063D01*
X9191063Y-8504063D01*
X9191063Y-8758063D02*
X9191063Y-8685937D01*
X9118937Y-8685937D01*
X9118937Y-8758063D01*
X9191063Y-8758063D01*
X9191063Y-9012063D02*
X9191063Y-8939937D01*
X9118937Y-8939937D01*
X9118937Y-9012063D01*
X9191063Y-9012063D01*
X9191063Y-9266063D02*
X9191063Y-9193937D01*
X9118937Y-9193937D01*
X9118937Y-9266063D01*
X9191063Y-9266063D01*
X9191063Y-9520063D02*
X9191063Y-9447937D01*
X9118937Y-9447937D01*
X9118937Y-9520063D01*
X9191063Y-9520063D01*
X9191063Y-9774063D02*
X9191063Y-9701937D01*
X9118937Y-9701937D01*
X9118937Y-9774063D01*
X9191063Y-9774063D01*
X9191063Y-10028063D02*
X9191063Y-9955937D01*
X9118937Y-9955937D01*
X9118937Y-10028063D01*
X9191063Y-10028063D01*
X9191063Y-10282063D02*
X9191063Y-10209937D01*
X9118937Y-10209937D01*
X9118937Y-10282063D01*
X9191063Y-10282063D01*
X9191063Y-10536063D02*
X9191063Y-10463937D01*
X9118937Y-10463937D01*
X9118937Y-10536063D01*
X9191063Y-10536063D01*
X9191063Y-10790063D02*
X9191063Y-10717937D01*
X9118937Y-10717937D01*
X9118937Y-10790063D01*
X9191063Y-10790063D01*
X9191063Y-11044063D02*
X9191063Y-10971937D01*
X9118937Y-10971937D01*
X9118937Y-11044063D01*
X9191063Y-11044063D01*
X9191063Y-11298063D02*
X9191063Y-11225937D01*
X9118937Y-11225937D01*
X9118937Y-11298063D01*
X9191063Y-11298063D01*
X9191063Y-11552063D02*
X9191063Y-11479937D01*
X9118937Y-11479937D01*
X9118937Y-11552063D01*
X9191063Y-11552063D01*
X9191063Y-11806063D02*
X9191063Y-11733937D01*
X9118937Y-11733937D01*
X9118937Y-11806063D01*
X9191063Y-11806063D01*
X9191063Y-12060063D02*
X9191063Y-11987937D01*
X9118937Y-11987937D01*
X9118937Y-12060063D01*
X9191063Y-12060063D01*
D14*
X9852000Y-13591000D02*
X9928000Y-13515000D01*
X9852000Y-13439000D01*
X9776000Y-13515000D01*
X9852000Y-13591000D01*
X10360000Y-13591000D02*
X10436000Y-13515000D01*
X10360000Y-13439000D01*
X10284000Y-13515000D01*
X10360000Y-13591000D01*
D15*
X5620000Y-5310000D02*
X5870000Y-5560000D01*
X5870000Y-5310000D02*
X5620000Y-5560000D01*
X5870000Y-5435000D02*
G75*
G02*
X5620000Y-5435000I-125000J0D01*
G01*
X5620000Y-5435000D02*
G75*
G02*
X5870000Y-5435000I125000J0D01*
G01*
X5620000Y-13395000D02*
X5870000Y-13645000D01*
X5870000Y-13395000D02*
X5620000Y-13645000D01*
X5870000Y-13520000D02*
G75*
G02*
X5620000Y-13520000I-125000J0D01*
G01*
X5620000Y-13520000D02*
G75*
G02*
X5870000Y-13520000I125000J0D01*
G01*
X16287900Y-5958000D02*
X16537900Y-6208000D01*
X16537900Y-5958000D02*
X16287900Y-6208000D01*
X16537900Y-6083000D02*
G75*
G02*
X16287900Y-6083000I-125000J0D01*
G01*
X16287900Y-6083000D02*
G75*
G02*
X16537900Y-6083000I125000J0D01*
G01*
X16287900Y-13032000D02*
X16537900Y-13282000D01*
X16537900Y-13032000D02*
X16287900Y-13282000D01*
X16537900Y-13157000D02*
G75*
G02*
X16287900Y-13157000I-125000J0D01*
G01*
X16287900Y-13157000D02*
G75*
G02*
X16537900Y-13157000I125000J0D01*
G01*
X23692100Y-5958000D02*
X23942100Y-6208000D01*
X23942100Y-5958000D02*
X23692100Y-6208000D01*
X23942100Y-6083000D02*
G75*
G02*
X23692100Y-6083000I-125000J0D01*
G01*
X23692100Y-6083000D02*
G75*
G02*
X23942100Y-6083000I125000J0D01*
G01*
X23692100Y-13032000D02*
X23942100Y-13282000D01*
X23942100Y-13032000D02*
X23692100Y-13282000D01*
X23942100Y-13157000D02*
G75*
G02*
X23692100Y-13157000I-125000J0D01*
G01*
X23692100Y-13157000D02*
G75*
G02*
X23942100Y-13157000I125000J0D01*
G01*
X24850000Y-5310000D02*
X25100000Y-5560000D01*
X25100000Y-5310000D02*
X24850000Y-5560000D01*
X25100000Y-5435000D02*
G75*
G02*
X24850000Y-5435000I-125000J0D01*
G01*
X24850000Y-5435000D02*
G75*
G02*
X25100000Y-5435000I125000J0D01*
G01*
X24850000Y-13395000D02*
X25100000Y-13645000D01*
X25100000Y-13395000D02*
X24850000Y-13645000D01*
X25100000Y-13520000D02*
G75*
G02*
X24850000Y-13520000I-125000J0D01*
G01*
X24850000Y-13520000D02*
G75*
G02*
X25100000Y-13520000I125000J0D01*
G01*
D11*
X5603277Y-14233984D02*
X5603277Y-14033984D01*
X5603277Y-14033984D02*
X5650896Y-14033984D01*
X5650896Y-14033984D02*
X5679467Y-14043508D01*
X5679467Y-14043508D02*
X5698515Y-14062555D01*
X5698515Y-14062555D02*
X5708039Y-14081603D01*
X5708039Y-14081603D02*
X5717562Y-14119698D01*
X5717562Y-14119698D02*
X5717562Y-14148269D01*
X5717562Y-14148269D02*
X5708039Y-14186365D01*
X5708039Y-14186365D02*
X5698515Y-14205412D01*
X5698515Y-14205412D02*
X5679467Y-14224460D01*
X5679467Y-14224460D02*
X5650896Y-14233984D01*
X5650896Y-14233984D02*
X5603277Y-14233984D01*
X5803277Y-14233984D02*
X5803277Y-14100650D01*
X5803277Y-14138746D02*
X5812801Y-14119698D01*
X5812801Y-14119698D02*
X5822324Y-14110174D01*
X5822324Y-14110174D02*
X5841372Y-14100650D01*
X5841372Y-14100650D02*
X5860420Y-14100650D01*
X5927086Y-14233984D02*
X5927086Y-14100650D01*
X5927086Y-14033984D02*
X5917562Y-14043508D01*
X5917562Y-14043508D02*
X5927086Y-14053031D01*
X5927086Y-14053031D02*
X5936610Y-14043508D01*
X5936610Y-14043508D02*
X5927086Y-14033984D01*
X5927086Y-14033984D02*
X5927086Y-14053031D01*
X6050896Y-14233984D02*
X6031848Y-14224460D01*
X6031848Y-14224460D02*
X6022324Y-14205412D01*
X6022324Y-14205412D02*
X6022324Y-14033984D01*
X6155658Y-14233984D02*
X6136610Y-14224460D01*
X6136610Y-14224460D02*
X6127086Y-14205412D01*
X6127086Y-14205412D02*
X6127086Y-14033984D01*
X6384229Y-14233984D02*
X6384229Y-14033984D01*
X6384229Y-14033984D02*
X6450896Y-14176841D01*
X6450896Y-14176841D02*
X6517562Y-14033984D01*
X6517562Y-14033984D02*
X6517562Y-14233984D01*
X6698515Y-14233984D02*
X6698515Y-14129222D01*
X6698515Y-14129222D02*
X6688991Y-14110174D01*
X6688991Y-14110174D02*
X6669943Y-14100650D01*
X6669943Y-14100650D02*
X6631848Y-14100650D01*
X6631848Y-14100650D02*
X6612801Y-14110174D01*
X6698515Y-14224460D02*
X6679467Y-14233984D01*
X6679467Y-14233984D02*
X6631848Y-14233984D01*
X6631848Y-14233984D02*
X6612801Y-14224460D01*
X6612801Y-14224460D02*
X6603277Y-14205412D01*
X6603277Y-14205412D02*
X6603277Y-14186365D01*
X6603277Y-14186365D02*
X6612801Y-14167317D01*
X6612801Y-14167317D02*
X6631848Y-14157793D01*
X6631848Y-14157793D02*
X6679467Y-14157793D01*
X6679467Y-14157793D02*
X6698515Y-14148269D01*
X6793753Y-14100650D02*
X6793753Y-14300650D01*
X6793753Y-14110174D02*
X6812801Y-14100650D01*
X6812801Y-14100650D02*
X6850896Y-14100650D01*
X6850896Y-14100650D02*
X6869943Y-14110174D01*
X6869943Y-14110174D02*
X6879467Y-14119698D01*
X6879467Y-14119698D02*
X6888991Y-14138746D01*
X6888991Y-14138746D02*
X6888991Y-14195888D01*
X6888991Y-14195888D02*
X6879467Y-14214936D01*
X6879467Y-14214936D02*
X6869943Y-14224460D01*
X6869943Y-14224460D02*
X6850896Y-14233984D01*
X6850896Y-14233984D02*
X6812801Y-14233984D01*
X6812801Y-14233984D02*
X6793753Y-14224460D01*
X6974705Y-14214936D02*
X6984229Y-14224460D01*
X6984229Y-14224460D02*
X6974705Y-14233984D01*
X6974705Y-14233984D02*
X6965182Y-14224460D01*
X6965182Y-14224460D02*
X6974705Y-14214936D01*
X6974705Y-14214936D02*
X6974705Y-14233984D01*
X6974705Y-14110174D02*
X6984229Y-14119698D01*
X6984229Y-14119698D02*
X6974705Y-14129222D01*
X6974705Y-14129222D02*
X6965182Y-14119698D01*
X6965182Y-14119698D02*
X6974705Y-14110174D01*
X6974705Y-14110174D02*
X6974705Y-14129222D01*
D12*
X5307500Y-14545000D02*
X5342500Y-14580000D01*
X5342500Y-14545000D02*
X5307500Y-14580000D01*
D11*
X5641372Y-14453984D02*
X5660420Y-14453984D01*
X5660420Y-14453984D02*
X5679467Y-14463508D01*
X5679467Y-14463508D02*
X5688991Y-14473031D01*
X5688991Y-14473031D02*
X5698515Y-14492079D01*
X5698515Y-14492079D02*
X5708039Y-14530174D01*
X5708039Y-14530174D02*
X5708039Y-14577793D01*
X5708039Y-14577793D02*
X5698515Y-14615888D01*
X5698515Y-14615888D02*
X5688991Y-14634936D01*
X5688991Y-14634936D02*
X5679467Y-14644460D01*
X5679467Y-14644460D02*
X5660420Y-14653984D01*
X5660420Y-14653984D02*
X5641372Y-14653984D01*
X5641372Y-14653984D02*
X5622324Y-14644460D01*
X5622324Y-14644460D02*
X5612801Y-14634936D01*
X5612801Y-14634936D02*
X5603277Y-14615888D01*
X5603277Y-14615888D02*
X5593753Y-14577793D01*
X5593753Y-14577793D02*
X5593753Y-14530174D01*
X5593753Y-14530174D02*
X5603277Y-14492079D01*
X5603277Y-14492079D02*
X5612801Y-14473031D01*
X5612801Y-14473031D02*
X5622324Y-14463508D01*
X5622324Y-14463508D02*
X5641372Y-14453984D01*
X5793753Y-14634936D02*
X5803277Y-14644460D01*
X5803277Y-14644460D02*
X5793753Y-14653984D01*
X5793753Y-14653984D02*
X5784229Y-14644460D01*
X5784229Y-14644460D02*
X5793753Y-14634936D01*
X5793753Y-14634936D02*
X5793753Y-14653984D01*
X5869943Y-14453984D02*
X5993753Y-14453984D01*
X5993753Y-14453984D02*
X5927086Y-14530174D01*
X5927086Y-14530174D02*
X5955658Y-14530174D01*
X5955658Y-14530174D02*
X5974705Y-14539698D01*
X5974705Y-14539698D02*
X5984229Y-14549222D01*
X5984229Y-14549222D02*
X5993753Y-14568269D01*
X5993753Y-14568269D02*
X5993753Y-14615888D01*
X5993753Y-14615888D02*
X5984229Y-14634936D01*
X5984229Y-14634936D02*
X5974705Y-14644460D01*
X5974705Y-14644460D02*
X5955658Y-14653984D01*
X5955658Y-14653984D02*
X5898515Y-14653984D01*
X5898515Y-14653984D02*
X5879467Y-14644460D01*
X5879467Y-14644460D02*
X5869943Y-14634936D01*
X6174705Y-14453984D02*
X6079467Y-14453984D01*
X6079467Y-14453984D02*
X6069943Y-14549222D01*
X6069943Y-14549222D02*
X6079467Y-14539698D01*
X6079467Y-14539698D02*
X6098515Y-14530174D01*
X6098515Y-14530174D02*
X6146134Y-14530174D01*
X6146134Y-14530174D02*
X6165182Y-14539698D01*
X6165182Y-14539698D02*
X6174705Y-14549222D01*
X6174705Y-14549222D02*
X6184229Y-14568269D01*
X6184229Y-14568269D02*
X6184229Y-14615888D01*
X6184229Y-14615888D02*
X6174705Y-14634936D01*
X6174705Y-14634936D02*
X6165182Y-14644460D01*
X6165182Y-14644460D02*
X6146134Y-14653984D01*
X6146134Y-14653984D02*
X6098515Y-14653984D01*
X6098515Y-14653984D02*
X6079467Y-14644460D01*
X6079467Y-14644460D02*
X6069943Y-14634936D01*
X6308039Y-14453984D02*
X6327086Y-14453984D01*
X6327086Y-14453984D02*
X6346134Y-14463508D01*
X6346134Y-14463508D02*
X6355658Y-14473031D01*
X6355658Y-14473031D02*
X6365182Y-14492079D01*
X6365182Y-14492079D02*
X6374705Y-14530174D01*
X6374705Y-14530174D02*
X6374705Y-14577793D01*
X6374705Y-14577793D02*
X6365182Y-14615888D01*
X6365182Y-14615888D02*
X6355658Y-14634936D01*
X6355658Y-14634936D02*
X6346134Y-14644460D01*
X6346134Y-14644460D02*
X6327086Y-14653984D01*
X6327086Y-14653984D02*
X6308039Y-14653984D01*
X6308039Y-14653984D02*
X6288991Y-14644460D01*
X6288991Y-14644460D02*
X6279467Y-14634936D01*
X6279467Y-14634936D02*
X6269943Y-14615888D01*
X6269943Y-14615888D02*
X6260420Y-14577793D01*
X6260420Y-14577793D02*
X6260420Y-14530174D01*
X6260420Y-14530174D02*
X6269943Y-14492079D01*
X6269943Y-14492079D02*
X6279467Y-14473031D01*
X6279467Y-14473031D02*
X6288991Y-14463508D01*
X6288991Y-14463508D02*
X6308039Y-14453984D01*
X6460420Y-14653984D02*
X6460420Y-14520650D01*
X6460420Y-14539698D02*
X6469943Y-14530174D01*
X6469943Y-14530174D02*
X6488991Y-14520650D01*
X6488991Y-14520650D02*
X6517563Y-14520650D01*
X6517563Y-14520650D02*
X6536610Y-14530174D01*
X6536610Y-14530174D02*
X6546134Y-14549222D01*
X6546134Y-14549222D02*
X6546134Y-14653984D01*
X6546134Y-14549222D02*
X6555658Y-14530174D01*
X6555658Y-14530174D02*
X6574705Y-14520650D01*
X6574705Y-14520650D02*
X6603277Y-14520650D01*
X6603277Y-14520650D02*
X6622324Y-14530174D01*
X6622324Y-14530174D02*
X6631848Y-14549222D01*
X6631848Y-14549222D02*
X6631848Y-14653984D01*
X6727086Y-14653984D02*
X6727086Y-14520650D01*
X6727086Y-14539698D02*
X6736610Y-14530174D01*
X6736610Y-14530174D02*
X6755658Y-14520650D01*
X6755658Y-14520650D02*
X6784229Y-14520650D01*
X6784229Y-14520650D02*
X6803277Y-14530174D01*
X6803277Y-14530174D02*
X6812801Y-14549222D01*
X6812801Y-14549222D02*
X6812801Y-14653984D01*
X6812801Y-14549222D02*
X6822324Y-14530174D01*
X6822324Y-14530174D02*
X6841372Y-14520650D01*
X6841372Y-14520650D02*
X6869943Y-14520650D01*
X6869943Y-14520650D02*
X6888991Y-14530174D01*
X6888991Y-14530174D02*
X6898515Y-14549222D01*
X6898515Y-14549222D02*
X6898515Y-14653984D01*
X7288991Y-14444460D02*
X7117563Y-14701603D01*
X7546134Y-14453984D02*
X7565182Y-14453984D01*
X7565182Y-14453984D02*
X7584229Y-14463508D01*
X7584229Y-14463508D02*
X7593753Y-14473031D01*
X7593753Y-14473031D02*
X7603277Y-14492079D01*
X7603277Y-14492079D02*
X7612801Y-14530174D01*
X7612801Y-14530174D02*
X7612801Y-14577793D01*
X7612801Y-14577793D02*
X7603277Y-14615888D01*
X7603277Y-14615888D02*
X7593753Y-14634936D01*
X7593753Y-14634936D02*
X7584229Y-14644460D01*
X7584229Y-14644460D02*
X7565182Y-14653984D01*
X7565182Y-14653984D02*
X7546134Y-14653984D01*
X7546134Y-14653984D02*
X7527086Y-14644460D01*
X7527086Y-14644460D02*
X7517563Y-14634936D01*
X7517563Y-14634936D02*
X7508039Y-14615888D01*
X7508039Y-14615888D02*
X7498515Y-14577793D01*
X7498515Y-14577793D02*
X7498515Y-14530174D01*
X7498515Y-14530174D02*
X7508039Y-14492079D01*
X7508039Y-14492079D02*
X7517563Y-14473031D01*
X7517563Y-14473031D02*
X7527086Y-14463508D01*
X7527086Y-14463508D02*
X7546134Y-14453984D01*
X7698515Y-14634936D02*
X7708039Y-14644460D01*
X7708039Y-14644460D02*
X7698515Y-14653984D01*
X7698515Y-14653984D02*
X7688991Y-14644460D01*
X7688991Y-14644460D02*
X7698515Y-14634936D01*
X7698515Y-14634936D02*
X7698515Y-14653984D01*
X7831848Y-14453984D02*
X7850896Y-14453984D01*
X7850896Y-14453984D02*
X7869944Y-14463508D01*
X7869944Y-14463508D02*
X7879467Y-14473031D01*
X7879467Y-14473031D02*
X7888991Y-14492079D01*
X7888991Y-14492079D02*
X7898515Y-14530174D01*
X7898515Y-14530174D02*
X7898515Y-14577793D01*
X7898515Y-14577793D02*
X7888991Y-14615888D01*
X7888991Y-14615888D02*
X7879467Y-14634936D01*
X7879467Y-14634936D02*
X7869944Y-14644460D01*
X7869944Y-14644460D02*
X7850896Y-14653984D01*
X7850896Y-14653984D02*
X7831848Y-14653984D01*
X7831848Y-14653984D02*
X7812801Y-14644460D01*
X7812801Y-14644460D02*
X7803277Y-14634936D01*
X7803277Y-14634936D02*
X7793753Y-14615888D01*
X7793753Y-14615888D02*
X7784229Y-14577793D01*
X7784229Y-14577793D02*
X7784229Y-14530174D01*
X7784229Y-14530174D02*
X7793753Y-14492079D01*
X7793753Y-14492079D02*
X7803277Y-14473031D01*
X7803277Y-14473031D02*
X7812801Y-14463508D01*
X7812801Y-14463508D02*
X7831848Y-14453984D01*
X8088991Y-14653984D02*
X7974706Y-14653984D01*
X8031848Y-14653984D02*
X8031848Y-14453984D01*
X8031848Y-14453984D02*
X8012801Y-14482555D01*
X8012801Y-14482555D02*
X7993753Y-14501603D01*
X7993753Y-14501603D02*
X7974706Y-14511127D01*
X8155658Y-14453984D02*
X8279467Y-14453984D01*
X8279467Y-14453984D02*
X8212801Y-14530174D01*
X8212801Y-14530174D02*
X8241372Y-14530174D01*
X8241372Y-14530174D02*
X8260420Y-14539698D01*
X8260420Y-14539698D02*
X8269944Y-14549222D01*
X8269944Y-14549222D02*
X8279467Y-14568269D01*
X8279467Y-14568269D02*
X8279467Y-14615888D01*
X8279467Y-14615888D02*
X8269944Y-14634936D01*
X8269944Y-14634936D02*
X8260420Y-14644460D01*
X8260420Y-14644460D02*
X8241372Y-14653984D01*
X8241372Y-14653984D02*
X8184229Y-14653984D01*
X8184229Y-14653984D02*
X8165182Y-14644460D01*
X8165182Y-14644460D02*
X8155658Y-14634936D01*
X8393753Y-14539698D02*
X8374706Y-14530174D01*
X8374706Y-14530174D02*
X8365182Y-14520650D01*
X8365182Y-14520650D02*
X8355658Y-14501603D01*
X8355658Y-14501603D02*
X8355658Y-14492079D01*
X8355658Y-14492079D02*
X8365182Y-14473031D01*
X8365182Y-14473031D02*
X8374706Y-14463508D01*
X8374706Y-14463508D02*
X8393753Y-14453984D01*
X8393753Y-14453984D02*
X8431849Y-14453984D01*
X8431849Y-14453984D02*
X8450896Y-14463508D01*
X8450896Y-14463508D02*
X8460420Y-14473031D01*
X8460420Y-14473031D02*
X8469944Y-14492079D01*
X8469944Y-14492079D02*
X8469944Y-14501603D01*
X8469944Y-14501603D02*
X8460420Y-14520650D01*
X8460420Y-14520650D02*
X8450896Y-14530174D01*
X8450896Y-14530174D02*
X8431849Y-14539698D01*
X8431849Y-14539698D02*
X8393753Y-14539698D01*
X8393753Y-14539698D02*
X8374706Y-14549222D01*
X8374706Y-14549222D02*
X8365182Y-14558746D01*
X8365182Y-14558746D02*
X8355658Y-14577793D01*
X8355658Y-14577793D02*
X8355658Y-14615888D01*
X8355658Y-14615888D02*
X8365182Y-14634936D01*
X8365182Y-14634936D02*
X8374706Y-14644460D01*
X8374706Y-14644460D02*
X8393753Y-14653984D01*
X8393753Y-14653984D02*
X8431849Y-14653984D01*
X8431849Y-14653984D02*
X8450896Y-14644460D01*
X8450896Y-14644460D02*
X8460420Y-14634936D01*
X8460420Y-14634936D02*
X8469944Y-14615888D01*
X8469944Y-14615888D02*
X8469944Y-14577793D01*
X8469944Y-14577793D02*
X8460420Y-14558746D01*
X8460420Y-14558746D02*
X8450896Y-14549222D01*
X8450896Y-14549222D02*
X8431849Y-14539698D01*
X8546134Y-14453984D02*
X8546134Y-14492079D01*
X8622325Y-14453984D02*
X8622325Y-14492079D01*
X8917563Y-14730174D02*
X8908039Y-14720650D01*
X8908039Y-14720650D02*
X8888991Y-14692079D01*
X8888991Y-14692079D02*
X8879468Y-14673031D01*
X8879468Y-14673031D02*
X8869944Y-14644460D01*
X8869944Y-14644460D02*
X8860420Y-14596841D01*
X8860420Y-14596841D02*
X8860420Y-14558746D01*
X8860420Y-14558746D02*
X8869944Y-14511127D01*
X8869944Y-14511127D02*
X8879468Y-14482555D01*
X8879468Y-14482555D02*
X8888991Y-14463508D01*
X8888991Y-14463508D02*
X8908039Y-14434936D01*
X8908039Y-14434936D02*
X8917563Y-14425412D01*
X9098515Y-14653984D02*
X8984230Y-14653984D01*
X9041372Y-14653984D02*
X9041372Y-14453984D01*
X9041372Y-14453984D02*
X9022325Y-14482555D01*
X9022325Y-14482555D02*
X9003277Y-14501603D01*
X9003277Y-14501603D02*
X8984230Y-14511127D01*
X9174706Y-14473031D02*
X9184230Y-14463508D01*
X9184230Y-14463508D02*
X9203277Y-14453984D01*
X9203277Y-14453984D02*
X9250896Y-14453984D01*
X9250896Y-14453984D02*
X9269944Y-14463508D01*
X9269944Y-14463508D02*
X9279468Y-14473031D01*
X9279468Y-14473031D02*
X9288991Y-14492079D01*
X9288991Y-14492079D02*
X9288991Y-14511127D01*
X9288991Y-14511127D02*
X9279468Y-14539698D01*
X9279468Y-14539698D02*
X9165182Y-14653984D01*
X9165182Y-14653984D02*
X9288991Y-14653984D01*
X9527087Y-14653984D02*
X9527087Y-14453984D01*
X9612801Y-14653984D02*
X9612801Y-14549222D01*
X9612801Y-14549222D02*
X9603277Y-14530174D01*
X9603277Y-14530174D02*
X9584230Y-14520650D01*
X9584230Y-14520650D02*
X9555658Y-14520650D01*
X9555658Y-14520650D02*
X9536611Y-14530174D01*
X9536611Y-14530174D02*
X9527087Y-14539698D01*
X9736611Y-14653984D02*
X9717563Y-14644460D01*
X9717563Y-14644460D02*
X9708039Y-14634936D01*
X9708039Y-14634936D02*
X9698515Y-14615888D01*
X9698515Y-14615888D02*
X9698515Y-14558746D01*
X9698515Y-14558746D02*
X9708039Y-14539698D01*
X9708039Y-14539698D02*
X9717563Y-14530174D01*
X9717563Y-14530174D02*
X9736611Y-14520650D01*
X9736611Y-14520650D02*
X9765182Y-14520650D01*
X9765182Y-14520650D02*
X9784230Y-14530174D01*
X9784230Y-14530174D02*
X9793753Y-14539698D01*
X9793753Y-14539698D02*
X9803277Y-14558746D01*
X9803277Y-14558746D02*
X9803277Y-14615888D01*
X9803277Y-14615888D02*
X9793753Y-14634936D01*
X9793753Y-14634936D02*
X9784230Y-14644460D01*
X9784230Y-14644460D02*
X9765182Y-14653984D01*
X9765182Y-14653984D02*
X9736611Y-14653984D01*
X9917563Y-14653984D02*
X9898515Y-14644460D01*
X9898515Y-14644460D02*
X9888992Y-14625412D01*
X9888992Y-14625412D02*
X9888992Y-14453984D01*
X10069944Y-14644460D02*
X10050896Y-14653984D01*
X10050896Y-14653984D02*
X10012801Y-14653984D01*
X10012801Y-14653984D02*
X9993753Y-14644460D01*
X9993753Y-14644460D02*
X9984230Y-14625412D01*
X9984230Y-14625412D02*
X9984230Y-14549222D01*
X9984230Y-14549222D02*
X9993753Y-14530174D01*
X9993753Y-14530174D02*
X10012801Y-14520650D01*
X10012801Y-14520650D02*
X10050896Y-14520650D01*
X10050896Y-14520650D02*
X10069944Y-14530174D01*
X10069944Y-14530174D02*
X10079468Y-14549222D01*
X10079468Y-14549222D02*
X10079468Y-14568269D01*
X10079468Y-14568269D02*
X9984230Y-14587317D01*
X10155658Y-14644460D02*
X10174706Y-14653984D01*
X10174706Y-14653984D02*
X10212801Y-14653984D01*
X10212801Y-14653984D02*
X10231849Y-14644460D01*
X10231849Y-14644460D02*
X10241373Y-14625412D01*
X10241373Y-14625412D02*
X10241373Y-14615888D01*
X10241373Y-14615888D02*
X10231849Y-14596841D01*
X10231849Y-14596841D02*
X10212801Y-14587317D01*
X10212801Y-14587317D02*
X10184230Y-14587317D01*
X10184230Y-14587317D02*
X10165182Y-14577793D01*
X10165182Y-14577793D02*
X10155658Y-14558746D01*
X10155658Y-14558746D02*
X10155658Y-14549222D01*
X10155658Y-14549222D02*
X10165182Y-14530174D01*
X10165182Y-14530174D02*
X10184230Y-14520650D01*
X10184230Y-14520650D02*
X10212801Y-14520650D01*
X10212801Y-14520650D02*
X10231849Y-14530174D01*
X10308039Y-14730174D02*
X10317563Y-14720650D01*
X10317563Y-14720650D02*
X10336611Y-14692079D01*
X10336611Y-14692079D02*
X10346134Y-14673031D01*
X10346134Y-14673031D02*
X10355658Y-14644460D01*
X10355658Y-14644460D02*
X10365182Y-14596841D01*
X10365182Y-14596841D02*
X10365182Y-14558746D01*
X10365182Y-14558746D02*
X10355658Y-14511127D01*
X10355658Y-14511127D02*
X10346134Y-14482555D01*
X10346134Y-14482555D02*
X10336611Y-14463508D01*
X10336611Y-14463508D02*
X10317563Y-14434936D01*
X10317563Y-14434936D02*
X10308039Y-14425412D01*
D12*
X5342500Y-14826500D02*
G75*
G02*
X5282500Y-14826500I-30000J0D01*
G01*
X5282500Y-14826500D02*
G75*
G02*
X5342500Y-14826500I30000J0D01*
G01*
D11*
X5641372Y-14717984D02*
X5660420Y-14717984D01*
X5660420Y-14717984D02*
X5679467Y-14727508D01*
X5679467Y-14727508D02*
X5688991Y-14737031D01*
X5688991Y-14737031D02*
X5698515Y-14756079D01*
X5698515Y-14756079D02*
X5708039Y-14794174D01*
X5708039Y-14794174D02*
X5708039Y-14841793D01*
X5708039Y-14841793D02*
X5698515Y-14879888D01*
X5698515Y-14879888D02*
X5688991Y-14898936D01*
X5688991Y-14898936D02*
X5679467Y-14908460D01*
X5679467Y-14908460D02*
X5660420Y-14917984D01*
X5660420Y-14917984D02*
X5641372Y-14917984D01*
X5641372Y-14917984D02*
X5622324Y-14908460D01*
X5622324Y-14908460D02*
X5612801Y-14898936D01*
X5612801Y-14898936D02*
X5603277Y-14879888D01*
X5603277Y-14879888D02*
X5593753Y-14841793D01*
X5593753Y-14841793D02*
X5593753Y-14794174D01*
X5593753Y-14794174D02*
X5603277Y-14756079D01*
X5603277Y-14756079D02*
X5612801Y-14737031D01*
X5612801Y-14737031D02*
X5622324Y-14727508D01*
X5622324Y-14727508D02*
X5641372Y-14717984D01*
X5793753Y-14898936D02*
X5803277Y-14908460D01*
X5803277Y-14908460D02*
X5793753Y-14917984D01*
X5793753Y-14917984D02*
X5784229Y-14908460D01*
X5784229Y-14908460D02*
X5793753Y-14898936D01*
X5793753Y-14898936D02*
X5793753Y-14917984D01*
X5974705Y-14717984D02*
X5936610Y-14717984D01*
X5936610Y-14717984D02*
X5917562Y-14727508D01*
X5917562Y-14727508D02*
X5908039Y-14737031D01*
X5908039Y-14737031D02*
X5888991Y-14765603D01*
X5888991Y-14765603D02*
X5879467Y-14803698D01*
X5879467Y-14803698D02*
X5879467Y-14879888D01*
X5879467Y-14879888D02*
X5888991Y-14898936D01*
X5888991Y-14898936D02*
X5898515Y-14908460D01*
X5898515Y-14908460D02*
X5917562Y-14917984D01*
X5917562Y-14917984D02*
X5955658Y-14917984D01*
X5955658Y-14917984D02*
X5974705Y-14908460D01*
X5974705Y-14908460D02*
X5984229Y-14898936D01*
X5984229Y-14898936D02*
X5993753Y-14879888D01*
X5993753Y-14879888D02*
X5993753Y-14832269D01*
X5993753Y-14832269D02*
X5984229Y-14813222D01*
X5984229Y-14813222D02*
X5974705Y-14803698D01*
X5974705Y-14803698D02*
X5955658Y-14794174D01*
X5955658Y-14794174D02*
X5917562Y-14794174D01*
X5917562Y-14794174D02*
X5898515Y-14803698D01*
X5898515Y-14803698D02*
X5888991Y-14813222D01*
X5888991Y-14813222D02*
X5879467Y-14832269D01*
X6117562Y-14717984D02*
X6136610Y-14717984D01*
X6136610Y-14717984D02*
X6155658Y-14727508D01*
X6155658Y-14727508D02*
X6165182Y-14737031D01*
X6165182Y-14737031D02*
X6174705Y-14756079D01*
X6174705Y-14756079D02*
X6184229Y-14794174D01*
X6184229Y-14794174D02*
X6184229Y-14841793D01*
X6184229Y-14841793D02*
X6174705Y-14879888D01*
X6174705Y-14879888D02*
X6165182Y-14898936D01*
X6165182Y-14898936D02*
X6155658Y-14908460D01*
X6155658Y-14908460D02*
X6136610Y-14917984D01*
X6136610Y-14917984D02*
X6117562Y-14917984D01*
X6117562Y-14917984D02*
X6098515Y-14908460D01*
X6098515Y-14908460D02*
X6088991Y-14898936D01*
X6088991Y-14898936D02*
X6079467Y-14879888D01*
X6079467Y-14879888D02*
X6069943Y-14841793D01*
X6069943Y-14841793D02*
X6069943Y-14794174D01*
X6069943Y-14794174D02*
X6079467Y-14756079D01*
X6079467Y-14756079D02*
X6088991Y-14737031D01*
X6088991Y-14737031D02*
X6098515Y-14727508D01*
X6098515Y-14727508D02*
X6117562Y-14717984D01*
X6308039Y-14717984D02*
X6327086Y-14717984D01*
X6327086Y-14717984D02*
X6346134Y-14727508D01*
X6346134Y-14727508D02*
X6355658Y-14737031D01*
X6355658Y-14737031D02*
X6365182Y-14756079D01*
X6365182Y-14756079D02*
X6374705Y-14794174D01*
X6374705Y-14794174D02*
X6374705Y-14841793D01*
X6374705Y-14841793D02*
X6365182Y-14879888D01*
X6365182Y-14879888D02*
X6355658Y-14898936D01*
X6355658Y-14898936D02*
X6346134Y-14908460D01*
X6346134Y-14908460D02*
X6327086Y-14917984D01*
X6327086Y-14917984D02*
X6308039Y-14917984D01*
X6308039Y-14917984D02*
X6288991Y-14908460D01*
X6288991Y-14908460D02*
X6279467Y-14898936D01*
X6279467Y-14898936D02*
X6269943Y-14879888D01*
X6269943Y-14879888D02*
X6260420Y-14841793D01*
X6260420Y-14841793D02*
X6260420Y-14794174D01*
X6260420Y-14794174D02*
X6269943Y-14756079D01*
X6269943Y-14756079D02*
X6279467Y-14737031D01*
X6279467Y-14737031D02*
X6288991Y-14727508D01*
X6288991Y-14727508D02*
X6308039Y-14717984D01*
X6460420Y-14917984D02*
X6460420Y-14784650D01*
X6460420Y-14803698D02*
X6469943Y-14794174D01*
X6469943Y-14794174D02*
X6488991Y-14784650D01*
X6488991Y-14784650D02*
X6517563Y-14784650D01*
X6517563Y-14784650D02*
X6536610Y-14794174D01*
X6536610Y-14794174D02*
X6546134Y-14813222D01*
X6546134Y-14813222D02*
X6546134Y-14917984D01*
X6546134Y-14813222D02*
X6555658Y-14794174D01*
X6555658Y-14794174D02*
X6574705Y-14784650D01*
X6574705Y-14784650D02*
X6603277Y-14784650D01*
X6603277Y-14784650D02*
X6622324Y-14794174D01*
X6622324Y-14794174D02*
X6631848Y-14813222D01*
X6631848Y-14813222D02*
X6631848Y-14917984D01*
X6727086Y-14917984D02*
X6727086Y-14784650D01*
X6727086Y-14803698D02*
X6736610Y-14794174D01*
X6736610Y-14794174D02*
X6755658Y-14784650D01*
X6755658Y-14784650D02*
X6784229Y-14784650D01*
X6784229Y-14784650D02*
X6803277Y-14794174D01*
X6803277Y-14794174D02*
X6812801Y-14813222D01*
X6812801Y-14813222D02*
X6812801Y-14917984D01*
X6812801Y-14813222D02*
X6822324Y-14794174D01*
X6822324Y-14794174D02*
X6841372Y-14784650D01*
X6841372Y-14784650D02*
X6869943Y-14784650D01*
X6869943Y-14784650D02*
X6888991Y-14794174D01*
X6888991Y-14794174D02*
X6898515Y-14813222D01*
X6898515Y-14813222D02*
X6898515Y-14917984D01*
X7288991Y-14708460D02*
X7117563Y-14965603D01*
X7546134Y-14717984D02*
X7565182Y-14717984D01*
X7565182Y-14717984D02*
X7584229Y-14727508D01*
X7584229Y-14727508D02*
X7593753Y-14737031D01*
X7593753Y-14737031D02*
X7603277Y-14756079D01*
X7603277Y-14756079D02*
X7612801Y-14794174D01*
X7612801Y-14794174D02*
X7612801Y-14841793D01*
X7612801Y-14841793D02*
X7603277Y-14879888D01*
X7603277Y-14879888D02*
X7593753Y-14898936D01*
X7593753Y-14898936D02*
X7584229Y-14908460D01*
X7584229Y-14908460D02*
X7565182Y-14917984D01*
X7565182Y-14917984D02*
X7546134Y-14917984D01*
X7546134Y-14917984D02*
X7527086Y-14908460D01*
X7527086Y-14908460D02*
X7517563Y-14898936D01*
X7517563Y-14898936D02*
X7508039Y-14879888D01*
X7508039Y-14879888D02*
X7498515Y-14841793D01*
X7498515Y-14841793D02*
X7498515Y-14794174D01*
X7498515Y-14794174D02*
X7508039Y-14756079D01*
X7508039Y-14756079D02*
X7517563Y-14737031D01*
X7517563Y-14737031D02*
X7527086Y-14727508D01*
X7527086Y-14727508D02*
X7546134Y-14717984D01*
X7698515Y-14898936D02*
X7708039Y-14908460D01*
X7708039Y-14908460D02*
X7698515Y-14917984D01*
X7698515Y-14917984D02*
X7688991Y-14908460D01*
X7688991Y-14908460D02*
X7698515Y-14898936D01*
X7698515Y-14898936D02*
X7698515Y-14917984D01*
X7831848Y-14717984D02*
X7850896Y-14717984D01*
X7850896Y-14717984D02*
X7869944Y-14727508D01*
X7869944Y-14727508D02*
X7879467Y-14737031D01*
X7879467Y-14737031D02*
X7888991Y-14756079D01*
X7888991Y-14756079D02*
X7898515Y-14794174D01*
X7898515Y-14794174D02*
X7898515Y-14841793D01*
X7898515Y-14841793D02*
X7888991Y-14879888D01*
X7888991Y-14879888D02*
X7879467Y-14898936D01*
X7879467Y-14898936D02*
X7869944Y-14908460D01*
X7869944Y-14908460D02*
X7850896Y-14917984D01*
X7850896Y-14917984D02*
X7831848Y-14917984D01*
X7831848Y-14917984D02*
X7812801Y-14908460D01*
X7812801Y-14908460D02*
X7803277Y-14898936D01*
X7803277Y-14898936D02*
X7793753Y-14879888D01*
X7793753Y-14879888D02*
X7784229Y-14841793D01*
X7784229Y-14841793D02*
X7784229Y-14794174D01*
X7784229Y-14794174D02*
X7793753Y-14756079D01*
X7793753Y-14756079D02*
X7803277Y-14737031D01*
X7803277Y-14737031D02*
X7812801Y-14727508D01*
X7812801Y-14727508D02*
X7831848Y-14717984D01*
X7974706Y-14737031D02*
X7984229Y-14727508D01*
X7984229Y-14727508D02*
X8003277Y-14717984D01*
X8003277Y-14717984D02*
X8050896Y-14717984D01*
X8050896Y-14717984D02*
X8069944Y-14727508D01*
X8069944Y-14727508D02*
X8079467Y-14737031D01*
X8079467Y-14737031D02*
X8088991Y-14756079D01*
X8088991Y-14756079D02*
X8088991Y-14775127D01*
X8088991Y-14775127D02*
X8079467Y-14803698D01*
X8079467Y-14803698D02*
X7965182Y-14917984D01*
X7965182Y-14917984D02*
X8088991Y-14917984D01*
X8155658Y-14717984D02*
X8279467Y-14717984D01*
X8279467Y-14717984D02*
X8212801Y-14794174D01*
X8212801Y-14794174D02*
X8241372Y-14794174D01*
X8241372Y-14794174D02*
X8260420Y-14803698D01*
X8260420Y-14803698D02*
X8269944Y-14813222D01*
X8269944Y-14813222D02*
X8279467Y-14832269D01*
X8279467Y-14832269D02*
X8279467Y-14879888D01*
X8279467Y-14879888D02*
X8269944Y-14898936D01*
X8269944Y-14898936D02*
X8260420Y-14908460D01*
X8260420Y-14908460D02*
X8241372Y-14917984D01*
X8241372Y-14917984D02*
X8184229Y-14917984D01*
X8184229Y-14917984D02*
X8165182Y-14908460D01*
X8165182Y-14908460D02*
X8155658Y-14898936D01*
X8450896Y-14717984D02*
X8412801Y-14717984D01*
X8412801Y-14717984D02*
X8393753Y-14727508D01*
X8393753Y-14727508D02*
X8384229Y-14737031D01*
X8384229Y-14737031D02*
X8365182Y-14765603D01*
X8365182Y-14765603D02*
X8355658Y-14803698D01*
X8355658Y-14803698D02*
X8355658Y-14879888D01*
X8355658Y-14879888D02*
X8365182Y-14898936D01*
X8365182Y-14898936D02*
X8374706Y-14908460D01*
X8374706Y-14908460D02*
X8393753Y-14917984D01*
X8393753Y-14917984D02*
X8431849Y-14917984D01*
X8431849Y-14917984D02*
X8450896Y-14908460D01*
X8450896Y-14908460D02*
X8460420Y-14898936D01*
X8460420Y-14898936D02*
X8469944Y-14879888D01*
X8469944Y-14879888D02*
X8469944Y-14832269D01*
X8469944Y-14832269D02*
X8460420Y-14813222D01*
X8460420Y-14813222D02*
X8450896Y-14803698D01*
X8450896Y-14803698D02*
X8431849Y-14794174D01*
X8431849Y-14794174D02*
X8393753Y-14794174D01*
X8393753Y-14794174D02*
X8374706Y-14803698D01*
X8374706Y-14803698D02*
X8365182Y-14813222D01*
X8365182Y-14813222D02*
X8355658Y-14832269D01*
X8546134Y-14717984D02*
X8546134Y-14756079D01*
X8622325Y-14717984D02*
X8622325Y-14756079D01*
X8917563Y-14994174D02*
X8908039Y-14984650D01*
X8908039Y-14984650D02*
X8888991Y-14956079D01*
X8888991Y-14956079D02*
X8879468Y-14937031D01*
X8879468Y-14937031D02*
X8869944Y-14908460D01*
X8869944Y-14908460D02*
X8860420Y-14860841D01*
X8860420Y-14860841D02*
X8860420Y-14822746D01*
X8860420Y-14822746D02*
X8869944Y-14775127D01*
X8869944Y-14775127D02*
X8879468Y-14746555D01*
X8879468Y-14746555D02*
X8888991Y-14727508D01*
X8888991Y-14727508D02*
X8908039Y-14698936D01*
X8908039Y-14698936D02*
X8917563Y-14689412D01*
X8984230Y-14737031D02*
X8993753Y-14727508D01*
X8993753Y-14727508D02*
X9012801Y-14717984D01*
X9012801Y-14717984D02*
X9060420Y-14717984D01*
X9060420Y-14717984D02*
X9079468Y-14727508D01*
X9079468Y-14727508D02*
X9088991Y-14737031D01*
X9088991Y-14737031D02*
X9098515Y-14756079D01*
X9098515Y-14756079D02*
X9098515Y-14775127D01*
X9098515Y-14775127D02*
X9088991Y-14803698D01*
X9088991Y-14803698D02*
X8974706Y-14917984D01*
X8974706Y-14917984D02*
X9098515Y-14917984D01*
X9336611Y-14917984D02*
X9336611Y-14717984D01*
X9422325Y-14917984D02*
X9422325Y-14813222D01*
X9422325Y-14813222D02*
X9412801Y-14794174D01*
X9412801Y-14794174D02*
X9393753Y-14784650D01*
X9393753Y-14784650D02*
X9365182Y-14784650D01*
X9365182Y-14784650D02*
X9346134Y-14794174D01*
X9346134Y-14794174D02*
X9336611Y-14803698D01*
X9546134Y-14917984D02*
X9527087Y-14908460D01*
X9527087Y-14908460D02*
X9517563Y-14898936D01*
X9517563Y-14898936D02*
X9508039Y-14879888D01*
X9508039Y-14879888D02*
X9508039Y-14822746D01*
X9508039Y-14822746D02*
X9517563Y-14803698D01*
X9517563Y-14803698D02*
X9527087Y-14794174D01*
X9527087Y-14794174D02*
X9546134Y-14784650D01*
X9546134Y-14784650D02*
X9574706Y-14784650D01*
X9574706Y-14784650D02*
X9593753Y-14794174D01*
X9593753Y-14794174D02*
X9603277Y-14803698D01*
X9603277Y-14803698D02*
X9612801Y-14822746D01*
X9612801Y-14822746D02*
X9612801Y-14879888D01*
X9612801Y-14879888D02*
X9603277Y-14898936D01*
X9603277Y-14898936D02*
X9593753Y-14908460D01*
X9593753Y-14908460D02*
X9574706Y-14917984D01*
X9574706Y-14917984D02*
X9546134Y-14917984D01*
X9727087Y-14917984D02*
X9708039Y-14908460D01*
X9708039Y-14908460D02*
X9698515Y-14889412D01*
X9698515Y-14889412D02*
X9698515Y-14717984D01*
X9879468Y-14908460D02*
X9860420Y-14917984D01*
X9860420Y-14917984D02*
X9822325Y-14917984D01*
X9822325Y-14917984D02*
X9803277Y-14908460D01*
X9803277Y-14908460D02*
X9793753Y-14889412D01*
X9793753Y-14889412D02*
X9793753Y-14813222D01*
X9793753Y-14813222D02*
X9803277Y-14794174D01*
X9803277Y-14794174D02*
X9822325Y-14784650D01*
X9822325Y-14784650D02*
X9860420Y-14784650D01*
X9860420Y-14784650D02*
X9879468Y-14794174D01*
X9879468Y-14794174D02*
X9888992Y-14813222D01*
X9888992Y-14813222D02*
X9888992Y-14832269D01*
X9888992Y-14832269D02*
X9793753Y-14851317D01*
X9965182Y-14908460D02*
X9984230Y-14917984D01*
X9984230Y-14917984D02*
X10022325Y-14917984D01*
X10022325Y-14917984D02*
X10041373Y-14908460D01*
X10041373Y-14908460D02*
X10050896Y-14889412D01*
X10050896Y-14889412D02*
X10050896Y-14879888D01*
X10050896Y-14879888D02*
X10041373Y-14860841D01*
X10041373Y-14860841D02*
X10022325Y-14851317D01*
X10022325Y-14851317D02*
X9993753Y-14851317D01*
X9993753Y-14851317D02*
X9974706Y-14841793D01*
X9974706Y-14841793D02*
X9965182Y-14822746D01*
X9965182Y-14822746D02*
X9965182Y-14813222D01*
X9965182Y-14813222D02*
X9974706Y-14794174D01*
X9974706Y-14794174D02*
X9993753Y-14784650D01*
X9993753Y-14784650D02*
X10022325Y-14784650D01*
X10022325Y-14784650D02*
X10041373Y-14794174D01*
X10117563Y-14994174D02*
X10127087Y-14984650D01*
X10127087Y-14984650D02*
X10146134Y-14956079D01*
X10146134Y-14956079D02*
X10155658Y-14937031D01*
X10155658Y-14937031D02*
X10165182Y-14908460D01*
X10165182Y-14908460D02*
X10174706Y-14860841D01*
X10174706Y-14860841D02*
X10174706Y-14822746D01*
X10174706Y-14822746D02*
X10165182Y-14775127D01*
X10165182Y-14775127D02*
X10155658Y-14746555D01*
X10155658Y-14746555D02*
X10146134Y-14727508D01*
X10146134Y-14727508D02*
X10127087Y-14698936D01*
X10127087Y-14698936D02*
X10117563Y-14689412D01*
D12*
X5292500Y-15040500D02*
X5292500Y-15140500D01*
X5242500Y-15090500D02*
X5342500Y-15090500D01*
D11*
X5708039Y-15181984D02*
X5593753Y-15181984D01*
X5650896Y-15181984D02*
X5650896Y-14981984D01*
X5650896Y-14981984D02*
X5631848Y-15010555D01*
X5631848Y-15010555D02*
X5612801Y-15029603D01*
X5612801Y-15029603D02*
X5593753Y-15039127D01*
X5793753Y-15162936D02*
X5803277Y-15172460D01*
X5803277Y-15172460D02*
X5793753Y-15181984D01*
X5793753Y-15181984D02*
X5784229Y-15172460D01*
X5784229Y-15172460D02*
X5793753Y-15162936D01*
X5793753Y-15162936D02*
X5793753Y-15181984D01*
X5927086Y-14981984D02*
X5946134Y-14981984D01*
X5946134Y-14981984D02*
X5965182Y-14991508D01*
X5965182Y-14991508D02*
X5974705Y-15001031D01*
X5974705Y-15001031D02*
X5984229Y-15020079D01*
X5984229Y-15020079D02*
X5993753Y-15058174D01*
X5993753Y-15058174D02*
X5993753Y-15105793D01*
X5993753Y-15105793D02*
X5984229Y-15143888D01*
X5984229Y-15143888D02*
X5974705Y-15162936D01*
X5974705Y-15162936D02*
X5965182Y-15172460D01*
X5965182Y-15172460D02*
X5946134Y-15181984D01*
X5946134Y-15181984D02*
X5927086Y-15181984D01*
X5927086Y-15181984D02*
X5908039Y-15172460D01*
X5908039Y-15172460D02*
X5898515Y-15162936D01*
X5898515Y-15162936D02*
X5888991Y-15143888D01*
X5888991Y-15143888D02*
X5879467Y-15105793D01*
X5879467Y-15105793D02*
X5879467Y-15058174D01*
X5879467Y-15058174D02*
X5888991Y-15020079D01*
X5888991Y-15020079D02*
X5898515Y-15001031D01*
X5898515Y-15001031D02*
X5908039Y-14991508D01*
X5908039Y-14991508D02*
X5927086Y-14981984D01*
X6117562Y-14981984D02*
X6136610Y-14981984D01*
X6136610Y-14981984D02*
X6155658Y-14991508D01*
X6155658Y-14991508D02*
X6165182Y-15001031D01*
X6165182Y-15001031D02*
X6174705Y-15020079D01*
X6174705Y-15020079D02*
X6184229Y-15058174D01*
X6184229Y-15058174D02*
X6184229Y-15105793D01*
X6184229Y-15105793D02*
X6174705Y-15143888D01*
X6174705Y-15143888D02*
X6165182Y-15162936D01*
X6165182Y-15162936D02*
X6155658Y-15172460D01*
X6155658Y-15172460D02*
X6136610Y-15181984D01*
X6136610Y-15181984D02*
X6117562Y-15181984D01*
X6117562Y-15181984D02*
X6098515Y-15172460D01*
X6098515Y-15172460D02*
X6088991Y-15162936D01*
X6088991Y-15162936D02*
X6079467Y-15143888D01*
X6079467Y-15143888D02*
X6069943Y-15105793D01*
X6069943Y-15105793D02*
X6069943Y-15058174D01*
X6069943Y-15058174D02*
X6079467Y-15020079D01*
X6079467Y-15020079D02*
X6088991Y-15001031D01*
X6088991Y-15001031D02*
X6098515Y-14991508D01*
X6098515Y-14991508D02*
X6117562Y-14981984D01*
X6308039Y-14981984D02*
X6327086Y-14981984D01*
X6327086Y-14981984D02*
X6346134Y-14991508D01*
X6346134Y-14991508D02*
X6355658Y-15001031D01*
X6355658Y-15001031D02*
X6365182Y-15020079D01*
X6365182Y-15020079D02*
X6374705Y-15058174D01*
X6374705Y-15058174D02*
X6374705Y-15105793D01*
X6374705Y-15105793D02*
X6365182Y-15143888D01*
X6365182Y-15143888D02*
X6355658Y-15162936D01*
X6355658Y-15162936D02*
X6346134Y-15172460D01*
X6346134Y-15172460D02*
X6327086Y-15181984D01*
X6327086Y-15181984D02*
X6308039Y-15181984D01*
X6308039Y-15181984D02*
X6288991Y-15172460D01*
X6288991Y-15172460D02*
X6279467Y-15162936D01*
X6279467Y-15162936D02*
X6269943Y-15143888D01*
X6269943Y-15143888D02*
X6260420Y-15105793D01*
X6260420Y-15105793D02*
X6260420Y-15058174D01*
X6260420Y-15058174D02*
X6269943Y-15020079D01*
X6269943Y-15020079D02*
X6279467Y-15001031D01*
X6279467Y-15001031D02*
X6288991Y-14991508D01*
X6288991Y-14991508D02*
X6308039Y-14981984D01*
X6460420Y-15181984D02*
X6460420Y-15048650D01*
X6460420Y-15067698D02*
X6469943Y-15058174D01*
X6469943Y-15058174D02*
X6488991Y-15048650D01*
X6488991Y-15048650D02*
X6517563Y-15048650D01*
X6517563Y-15048650D02*
X6536610Y-15058174D01*
X6536610Y-15058174D02*
X6546134Y-15077222D01*
X6546134Y-15077222D02*
X6546134Y-15181984D01*
X6546134Y-15077222D02*
X6555658Y-15058174D01*
X6555658Y-15058174D02*
X6574705Y-15048650D01*
X6574705Y-15048650D02*
X6603277Y-15048650D01*
X6603277Y-15048650D02*
X6622324Y-15058174D01*
X6622324Y-15058174D02*
X6631848Y-15077222D01*
X6631848Y-15077222D02*
X6631848Y-15181984D01*
X6727086Y-15181984D02*
X6727086Y-15048650D01*
X6727086Y-15067698D02*
X6736610Y-15058174D01*
X6736610Y-15058174D02*
X6755658Y-15048650D01*
X6755658Y-15048650D02*
X6784229Y-15048650D01*
X6784229Y-15048650D02*
X6803277Y-15058174D01*
X6803277Y-15058174D02*
X6812801Y-15077222D01*
X6812801Y-15077222D02*
X6812801Y-15181984D01*
X6812801Y-15077222D02*
X6822324Y-15058174D01*
X6822324Y-15058174D02*
X6841372Y-15048650D01*
X6841372Y-15048650D02*
X6869943Y-15048650D01*
X6869943Y-15048650D02*
X6888991Y-15058174D01*
X6888991Y-15058174D02*
X6898515Y-15077222D01*
X6898515Y-15077222D02*
X6898515Y-15181984D01*
X7288991Y-14972460D02*
X7117563Y-15229603D01*
X7546134Y-14981984D02*
X7565182Y-14981984D01*
X7565182Y-14981984D02*
X7584229Y-14991508D01*
X7584229Y-14991508D02*
X7593753Y-15001031D01*
X7593753Y-15001031D02*
X7603277Y-15020079D01*
X7603277Y-15020079D02*
X7612801Y-15058174D01*
X7612801Y-15058174D02*
X7612801Y-15105793D01*
X7612801Y-15105793D02*
X7603277Y-15143888D01*
X7603277Y-15143888D02*
X7593753Y-15162936D01*
X7593753Y-15162936D02*
X7584229Y-15172460D01*
X7584229Y-15172460D02*
X7565182Y-15181984D01*
X7565182Y-15181984D02*
X7546134Y-15181984D01*
X7546134Y-15181984D02*
X7527086Y-15172460D01*
X7527086Y-15172460D02*
X7517563Y-15162936D01*
X7517563Y-15162936D02*
X7508039Y-15143888D01*
X7508039Y-15143888D02*
X7498515Y-15105793D01*
X7498515Y-15105793D02*
X7498515Y-15058174D01*
X7498515Y-15058174D02*
X7508039Y-15020079D01*
X7508039Y-15020079D02*
X7517563Y-15001031D01*
X7517563Y-15001031D02*
X7527086Y-14991508D01*
X7527086Y-14991508D02*
X7546134Y-14981984D01*
X7698515Y-15162936D02*
X7708039Y-15172460D01*
X7708039Y-15172460D02*
X7698515Y-15181984D01*
X7698515Y-15181984D02*
X7688991Y-15172460D01*
X7688991Y-15172460D02*
X7698515Y-15162936D01*
X7698515Y-15162936D02*
X7698515Y-15181984D01*
X7831848Y-14981984D02*
X7850896Y-14981984D01*
X7850896Y-14981984D02*
X7869944Y-14991508D01*
X7869944Y-14991508D02*
X7879467Y-15001031D01*
X7879467Y-15001031D02*
X7888991Y-15020079D01*
X7888991Y-15020079D02*
X7898515Y-15058174D01*
X7898515Y-15058174D02*
X7898515Y-15105793D01*
X7898515Y-15105793D02*
X7888991Y-15143888D01*
X7888991Y-15143888D02*
X7879467Y-15162936D01*
X7879467Y-15162936D02*
X7869944Y-15172460D01*
X7869944Y-15172460D02*
X7850896Y-15181984D01*
X7850896Y-15181984D02*
X7831848Y-15181984D01*
X7831848Y-15181984D02*
X7812801Y-15172460D01*
X7812801Y-15172460D02*
X7803277Y-15162936D01*
X7803277Y-15162936D02*
X7793753Y-15143888D01*
X7793753Y-15143888D02*
X7784229Y-15105793D01*
X7784229Y-15105793D02*
X7784229Y-15058174D01*
X7784229Y-15058174D02*
X7793753Y-15020079D01*
X7793753Y-15020079D02*
X7803277Y-15001031D01*
X7803277Y-15001031D02*
X7812801Y-14991508D01*
X7812801Y-14991508D02*
X7831848Y-14981984D01*
X7965182Y-14981984D02*
X8088991Y-14981984D01*
X8088991Y-14981984D02*
X8022325Y-15058174D01*
X8022325Y-15058174D02*
X8050896Y-15058174D01*
X8050896Y-15058174D02*
X8069944Y-15067698D01*
X8069944Y-15067698D02*
X8079467Y-15077222D01*
X8079467Y-15077222D02*
X8088991Y-15096269D01*
X8088991Y-15096269D02*
X8088991Y-15143888D01*
X8088991Y-15143888D02*
X8079467Y-15162936D01*
X8079467Y-15162936D02*
X8069944Y-15172460D01*
X8069944Y-15172460D02*
X8050896Y-15181984D01*
X8050896Y-15181984D02*
X7993753Y-15181984D01*
X7993753Y-15181984D02*
X7974706Y-15172460D01*
X7974706Y-15172460D02*
X7965182Y-15162936D01*
X8184229Y-15181984D02*
X8222325Y-15181984D01*
X8222325Y-15181984D02*
X8241372Y-15172460D01*
X8241372Y-15172460D02*
X8250896Y-15162936D01*
X8250896Y-15162936D02*
X8269944Y-15134365D01*
X8269944Y-15134365D02*
X8279467Y-15096269D01*
X8279467Y-15096269D02*
X8279467Y-15020079D01*
X8279467Y-15020079D02*
X8269944Y-15001031D01*
X8269944Y-15001031D02*
X8260420Y-14991508D01*
X8260420Y-14991508D02*
X8241372Y-14981984D01*
X8241372Y-14981984D02*
X8203277Y-14981984D01*
X8203277Y-14981984D02*
X8184229Y-14991508D01*
X8184229Y-14991508D02*
X8174706Y-15001031D01*
X8174706Y-15001031D02*
X8165182Y-15020079D01*
X8165182Y-15020079D02*
X8165182Y-15067698D01*
X8165182Y-15067698D02*
X8174706Y-15086746D01*
X8174706Y-15086746D02*
X8184229Y-15096269D01*
X8184229Y-15096269D02*
X8203277Y-15105793D01*
X8203277Y-15105793D02*
X8241372Y-15105793D01*
X8241372Y-15105793D02*
X8260420Y-15096269D01*
X8260420Y-15096269D02*
X8269944Y-15086746D01*
X8269944Y-15086746D02*
X8279467Y-15067698D01*
X8450896Y-15048650D02*
X8450896Y-15181984D01*
X8403277Y-14972460D02*
X8355658Y-15115317D01*
X8355658Y-15115317D02*
X8479468Y-15115317D01*
X8546134Y-14981984D02*
X8546134Y-15020079D01*
X8622325Y-14981984D02*
X8622325Y-15020079D01*
X8917563Y-15258174D02*
X8908039Y-15248650D01*
X8908039Y-15248650D02*
X8888991Y-15220079D01*
X8888991Y-15220079D02*
X8879468Y-15201031D01*
X8879468Y-15201031D02*
X8869944Y-15172460D01*
X8869944Y-15172460D02*
X8860420Y-15124841D01*
X8860420Y-15124841D02*
X8860420Y-15086746D01*
X8860420Y-15086746D02*
X8869944Y-15039127D01*
X8869944Y-15039127D02*
X8879468Y-15010555D01*
X8879468Y-15010555D02*
X8888991Y-14991508D01*
X8888991Y-14991508D02*
X8908039Y-14962936D01*
X8908039Y-14962936D02*
X8917563Y-14953412D01*
X9098515Y-15181984D02*
X8984230Y-15181984D01*
X9041372Y-15181984D02*
X9041372Y-14981984D01*
X9041372Y-14981984D02*
X9022325Y-15010555D01*
X9022325Y-15010555D02*
X9003277Y-15029603D01*
X9003277Y-15029603D02*
X8984230Y-15039127D01*
X9222325Y-14981984D02*
X9241372Y-14981984D01*
X9241372Y-14981984D02*
X9260420Y-14991508D01*
X9260420Y-14991508D02*
X9269944Y-15001031D01*
X9269944Y-15001031D02*
X9279468Y-15020079D01*
X9279468Y-15020079D02*
X9288991Y-15058174D01*
X9288991Y-15058174D02*
X9288991Y-15105793D01*
X9288991Y-15105793D02*
X9279468Y-15143888D01*
X9279468Y-15143888D02*
X9269944Y-15162936D01*
X9269944Y-15162936D02*
X9260420Y-15172460D01*
X9260420Y-15172460D02*
X9241372Y-15181984D01*
X9241372Y-15181984D02*
X9222325Y-15181984D01*
X9222325Y-15181984D02*
X9203277Y-15172460D01*
X9203277Y-15172460D02*
X9193753Y-15162936D01*
X9193753Y-15162936D02*
X9184230Y-15143888D01*
X9184230Y-15143888D02*
X9174706Y-15105793D01*
X9174706Y-15105793D02*
X9174706Y-15058174D01*
X9174706Y-15058174D02*
X9184230Y-15020079D01*
X9184230Y-15020079D02*
X9193753Y-15001031D01*
X9193753Y-15001031D02*
X9203277Y-14991508D01*
X9203277Y-14991508D02*
X9222325Y-14981984D01*
X9479468Y-15181984D02*
X9365182Y-15181984D01*
X9422325Y-15181984D02*
X9422325Y-14981984D01*
X9422325Y-14981984D02*
X9403277Y-15010555D01*
X9403277Y-15010555D02*
X9384230Y-15029603D01*
X9384230Y-15029603D02*
X9365182Y-15039127D01*
X9717563Y-15181984D02*
X9717563Y-14981984D01*
X9803277Y-15181984D02*
X9803277Y-15077222D01*
X9803277Y-15077222D02*
X9793753Y-15058174D01*
X9793753Y-15058174D02*
X9774706Y-15048650D01*
X9774706Y-15048650D02*
X9746134Y-15048650D01*
X9746134Y-15048650D02*
X9727087Y-15058174D01*
X9727087Y-15058174D02*
X9717563Y-15067698D01*
X9927087Y-15181984D02*
X9908039Y-15172460D01*
X9908039Y-15172460D02*
X9898515Y-15162936D01*
X9898515Y-15162936D02*
X9888992Y-15143888D01*
X9888992Y-15143888D02*
X9888992Y-15086746D01*
X9888992Y-15086746D02*
X9898515Y-15067698D01*
X9898515Y-15067698D02*
X9908039Y-15058174D01*
X9908039Y-15058174D02*
X9927087Y-15048650D01*
X9927087Y-15048650D02*
X9955658Y-15048650D01*
X9955658Y-15048650D02*
X9974706Y-15058174D01*
X9974706Y-15058174D02*
X9984230Y-15067698D01*
X9984230Y-15067698D02*
X9993753Y-15086746D01*
X9993753Y-15086746D02*
X9993753Y-15143888D01*
X9993753Y-15143888D02*
X9984230Y-15162936D01*
X9984230Y-15162936D02*
X9974706Y-15172460D01*
X9974706Y-15172460D02*
X9955658Y-15181984D01*
X9955658Y-15181984D02*
X9927087Y-15181984D01*
X10108039Y-15181984D02*
X10088992Y-15172460D01*
X10088992Y-15172460D02*
X10079468Y-15153412D01*
X10079468Y-15153412D02*
X10079468Y-14981984D01*
X10260420Y-15172460D02*
X10241373Y-15181984D01*
X10241373Y-15181984D02*
X10203277Y-15181984D01*
X10203277Y-15181984D02*
X10184230Y-15172460D01*
X10184230Y-15172460D02*
X10174706Y-15153412D01*
X10174706Y-15153412D02*
X10174706Y-15077222D01*
X10174706Y-15077222D02*
X10184230Y-15058174D01*
X10184230Y-15058174D02*
X10203277Y-15048650D01*
X10203277Y-15048650D02*
X10241373Y-15048650D01*
X10241373Y-15048650D02*
X10260420Y-15058174D01*
X10260420Y-15058174D02*
X10269944Y-15077222D01*
X10269944Y-15077222D02*
X10269944Y-15096269D01*
X10269944Y-15096269D02*
X10174706Y-15115317D01*
X10346134Y-15172460D02*
X10365182Y-15181984D01*
X10365182Y-15181984D02*
X10403277Y-15181984D01*
X10403277Y-15181984D02*
X10422325Y-15172460D01*
X10422325Y-15172460D02*
X10431849Y-15153412D01*
X10431849Y-15153412D02*
X10431849Y-15143888D01*
X10431849Y-15143888D02*
X10422325Y-15124841D01*
X10422325Y-15124841D02*
X10403277Y-15115317D01*
X10403277Y-15115317D02*
X10374706Y-15115317D01*
X10374706Y-15115317D02*
X10355658Y-15105793D01*
X10355658Y-15105793D02*
X10346134Y-15086746D01*
X10346134Y-15086746D02*
X10346134Y-15077222D01*
X10346134Y-15077222D02*
X10355658Y-15058174D01*
X10355658Y-15058174D02*
X10374706Y-15048650D01*
X10374706Y-15048650D02*
X10403277Y-15048650D01*
X10403277Y-15048650D02*
X10422325Y-15058174D01*
X10498515Y-15258174D02*
X10508039Y-15248650D01*
X10508039Y-15248650D02*
X10527087Y-15220079D01*
X10527087Y-15220079D02*
X10536611Y-15201031D01*
X10536611Y-15201031D02*
X10546134Y-15172460D01*
X10546134Y-15172460D02*
X10555658Y-15124841D01*
X10555658Y-15124841D02*
X10555658Y-15086746D01*
X10555658Y-15086746D02*
X10546134Y-15039127D01*
X10546134Y-15039127D02*
X10536611Y-15010555D01*
X10536611Y-15010555D02*
X10527087Y-14991508D01*
X10527087Y-14991508D02*
X10508039Y-14962936D01*
X10508039Y-14962936D02*
X10498515Y-14953412D01*
D13*
X5327563Y-15390563D02*
X5327563Y-15318437D01*
X5255437Y-15318437D01*
X5255437Y-15390563D01*
X5327563Y-15390563D01*
D11*
X5708039Y-15445984D02*
X5593753Y-15445984D01*
X5650896Y-15445984D02*
X5650896Y-15245984D01*
X5650896Y-15245984D02*
X5631848Y-15274555D01*
X5631848Y-15274555D02*
X5612801Y-15293603D01*
X5612801Y-15293603D02*
X5593753Y-15303127D01*
X5793753Y-15426936D02*
X5803277Y-15436460D01*
X5803277Y-15436460D02*
X5793753Y-15445984D01*
X5793753Y-15445984D02*
X5784229Y-15436460D01*
X5784229Y-15436460D02*
X5793753Y-15426936D01*
X5793753Y-15426936D02*
X5793753Y-15445984D01*
X5927086Y-15245984D02*
X5946134Y-15245984D01*
X5946134Y-15245984D02*
X5965182Y-15255508D01*
X5965182Y-15255508D02*
X5974705Y-15265031D01*
X5974705Y-15265031D02*
X5984229Y-15284079D01*
X5984229Y-15284079D02*
X5993753Y-15322174D01*
X5993753Y-15322174D02*
X5993753Y-15369793D01*
X5993753Y-15369793D02*
X5984229Y-15407888D01*
X5984229Y-15407888D02*
X5974705Y-15426936D01*
X5974705Y-15426936D02*
X5965182Y-15436460D01*
X5965182Y-15436460D02*
X5946134Y-15445984D01*
X5946134Y-15445984D02*
X5927086Y-15445984D01*
X5927086Y-15445984D02*
X5908039Y-15436460D01*
X5908039Y-15436460D02*
X5898515Y-15426936D01*
X5898515Y-15426936D02*
X5888991Y-15407888D01*
X5888991Y-15407888D02*
X5879467Y-15369793D01*
X5879467Y-15369793D02*
X5879467Y-15322174D01*
X5879467Y-15322174D02*
X5888991Y-15284079D01*
X5888991Y-15284079D02*
X5898515Y-15265031D01*
X5898515Y-15265031D02*
X5908039Y-15255508D01*
X5908039Y-15255508D02*
X5927086Y-15245984D01*
X6069943Y-15265031D02*
X6079467Y-15255508D01*
X6079467Y-15255508D02*
X6098515Y-15245984D01*
X6098515Y-15245984D02*
X6146134Y-15245984D01*
X6146134Y-15245984D02*
X6165182Y-15255508D01*
X6165182Y-15255508D02*
X6174705Y-15265031D01*
X6174705Y-15265031D02*
X6184229Y-15284079D01*
X6184229Y-15284079D02*
X6184229Y-15303127D01*
X6184229Y-15303127D02*
X6174705Y-15331698D01*
X6174705Y-15331698D02*
X6060420Y-15445984D01*
X6060420Y-15445984D02*
X6184229Y-15445984D01*
X6308039Y-15245984D02*
X6327086Y-15245984D01*
X6327086Y-15245984D02*
X6346134Y-15255508D01*
X6346134Y-15255508D02*
X6355658Y-15265031D01*
X6355658Y-15265031D02*
X6365182Y-15284079D01*
X6365182Y-15284079D02*
X6374705Y-15322174D01*
X6374705Y-15322174D02*
X6374705Y-15369793D01*
X6374705Y-15369793D02*
X6365182Y-15407888D01*
X6365182Y-15407888D02*
X6355658Y-15426936D01*
X6355658Y-15426936D02*
X6346134Y-15436460D01*
X6346134Y-15436460D02*
X6327086Y-15445984D01*
X6327086Y-15445984D02*
X6308039Y-15445984D01*
X6308039Y-15445984D02*
X6288991Y-15436460D01*
X6288991Y-15436460D02*
X6279467Y-15426936D01*
X6279467Y-15426936D02*
X6269943Y-15407888D01*
X6269943Y-15407888D02*
X6260420Y-15369793D01*
X6260420Y-15369793D02*
X6260420Y-15322174D01*
X6260420Y-15322174D02*
X6269943Y-15284079D01*
X6269943Y-15284079D02*
X6279467Y-15265031D01*
X6279467Y-15265031D02*
X6288991Y-15255508D01*
X6288991Y-15255508D02*
X6308039Y-15245984D01*
X6460420Y-15445984D02*
X6460420Y-15312650D01*
X6460420Y-15331698D02*
X6469943Y-15322174D01*
X6469943Y-15322174D02*
X6488991Y-15312650D01*
X6488991Y-15312650D02*
X6517563Y-15312650D01*
X6517563Y-15312650D02*
X6536610Y-15322174D01*
X6536610Y-15322174D02*
X6546134Y-15341222D01*
X6546134Y-15341222D02*
X6546134Y-15445984D01*
X6546134Y-15341222D02*
X6555658Y-15322174D01*
X6555658Y-15322174D02*
X6574705Y-15312650D01*
X6574705Y-15312650D02*
X6603277Y-15312650D01*
X6603277Y-15312650D02*
X6622324Y-15322174D01*
X6622324Y-15322174D02*
X6631848Y-15341222D01*
X6631848Y-15341222D02*
X6631848Y-15445984D01*
X6727086Y-15445984D02*
X6727086Y-15312650D01*
X6727086Y-15331698D02*
X6736610Y-15322174D01*
X6736610Y-15322174D02*
X6755658Y-15312650D01*
X6755658Y-15312650D02*
X6784229Y-15312650D01*
X6784229Y-15312650D02*
X6803277Y-15322174D01*
X6803277Y-15322174D02*
X6812801Y-15341222D01*
X6812801Y-15341222D02*
X6812801Y-15445984D01*
X6812801Y-15341222D02*
X6822324Y-15322174D01*
X6822324Y-15322174D02*
X6841372Y-15312650D01*
X6841372Y-15312650D02*
X6869943Y-15312650D01*
X6869943Y-15312650D02*
X6888991Y-15322174D01*
X6888991Y-15322174D02*
X6898515Y-15341222D01*
X6898515Y-15341222D02*
X6898515Y-15445984D01*
X7288991Y-15236460D02*
X7117563Y-15493603D01*
X7546134Y-15245984D02*
X7565182Y-15245984D01*
X7565182Y-15245984D02*
X7584229Y-15255508D01*
X7584229Y-15255508D02*
X7593753Y-15265031D01*
X7593753Y-15265031D02*
X7603277Y-15284079D01*
X7603277Y-15284079D02*
X7612801Y-15322174D01*
X7612801Y-15322174D02*
X7612801Y-15369793D01*
X7612801Y-15369793D02*
X7603277Y-15407888D01*
X7603277Y-15407888D02*
X7593753Y-15426936D01*
X7593753Y-15426936D02*
X7584229Y-15436460D01*
X7584229Y-15436460D02*
X7565182Y-15445984D01*
X7565182Y-15445984D02*
X7546134Y-15445984D01*
X7546134Y-15445984D02*
X7527086Y-15436460D01*
X7527086Y-15436460D02*
X7517563Y-15426936D01*
X7517563Y-15426936D02*
X7508039Y-15407888D01*
X7508039Y-15407888D02*
X7498515Y-15369793D01*
X7498515Y-15369793D02*
X7498515Y-15322174D01*
X7498515Y-15322174D02*
X7508039Y-15284079D01*
X7508039Y-15284079D02*
X7517563Y-15265031D01*
X7517563Y-15265031D02*
X7527086Y-15255508D01*
X7527086Y-15255508D02*
X7546134Y-15245984D01*
X7698515Y-15426936D02*
X7708039Y-15436460D01*
X7708039Y-15436460D02*
X7698515Y-15445984D01*
X7698515Y-15445984D02*
X7688991Y-15436460D01*
X7688991Y-15436460D02*
X7698515Y-15426936D01*
X7698515Y-15426936D02*
X7698515Y-15445984D01*
X7831848Y-15245984D02*
X7850896Y-15245984D01*
X7850896Y-15245984D02*
X7869944Y-15255508D01*
X7869944Y-15255508D02*
X7879467Y-15265031D01*
X7879467Y-15265031D02*
X7888991Y-15284079D01*
X7888991Y-15284079D02*
X7898515Y-15322174D01*
X7898515Y-15322174D02*
X7898515Y-15369793D01*
X7898515Y-15369793D02*
X7888991Y-15407888D01*
X7888991Y-15407888D02*
X7879467Y-15426936D01*
X7879467Y-15426936D02*
X7869944Y-15436460D01*
X7869944Y-15436460D02*
X7850896Y-15445984D01*
X7850896Y-15445984D02*
X7831848Y-15445984D01*
X7831848Y-15445984D02*
X7812801Y-15436460D01*
X7812801Y-15436460D02*
X7803277Y-15426936D01*
X7803277Y-15426936D02*
X7793753Y-15407888D01*
X7793753Y-15407888D02*
X7784229Y-15369793D01*
X7784229Y-15369793D02*
X7784229Y-15322174D01*
X7784229Y-15322174D02*
X7793753Y-15284079D01*
X7793753Y-15284079D02*
X7803277Y-15265031D01*
X7803277Y-15265031D02*
X7812801Y-15255508D01*
X7812801Y-15255508D02*
X7831848Y-15245984D01*
X8069944Y-15312650D02*
X8069944Y-15445984D01*
X8022325Y-15236460D02*
X7974706Y-15379317D01*
X7974706Y-15379317D02*
X8098515Y-15379317D01*
X8212801Y-15245984D02*
X8231848Y-15245984D01*
X8231848Y-15245984D02*
X8250896Y-15255508D01*
X8250896Y-15255508D02*
X8260420Y-15265031D01*
X8260420Y-15265031D02*
X8269944Y-15284079D01*
X8269944Y-15284079D02*
X8279467Y-15322174D01*
X8279467Y-15322174D02*
X8279467Y-15369793D01*
X8279467Y-15369793D02*
X8269944Y-15407888D01*
X8269944Y-15407888D02*
X8260420Y-15426936D01*
X8260420Y-15426936D02*
X8250896Y-15436460D01*
X8250896Y-15436460D02*
X8231848Y-15445984D01*
X8231848Y-15445984D02*
X8212801Y-15445984D01*
X8212801Y-15445984D02*
X8193753Y-15436460D01*
X8193753Y-15436460D02*
X8184229Y-15426936D01*
X8184229Y-15426936D02*
X8174706Y-15407888D01*
X8174706Y-15407888D02*
X8165182Y-15369793D01*
X8165182Y-15369793D02*
X8165182Y-15322174D01*
X8165182Y-15322174D02*
X8174706Y-15284079D01*
X8174706Y-15284079D02*
X8184229Y-15265031D01*
X8184229Y-15265031D02*
X8193753Y-15255508D01*
X8193753Y-15255508D02*
X8212801Y-15245984D01*
X8355658Y-15265031D02*
X8365182Y-15255508D01*
X8365182Y-15255508D02*
X8384229Y-15245984D01*
X8384229Y-15245984D02*
X8431849Y-15245984D01*
X8431849Y-15245984D02*
X8450896Y-15255508D01*
X8450896Y-15255508D02*
X8460420Y-15265031D01*
X8460420Y-15265031D02*
X8469944Y-15284079D01*
X8469944Y-15284079D02*
X8469944Y-15303127D01*
X8469944Y-15303127D02*
X8460420Y-15331698D01*
X8460420Y-15331698D02*
X8346134Y-15445984D01*
X8346134Y-15445984D02*
X8469944Y-15445984D01*
X8546134Y-15245984D02*
X8546134Y-15284079D01*
X8622325Y-15245984D02*
X8622325Y-15284079D01*
X8917563Y-15522174D02*
X8908039Y-15512650D01*
X8908039Y-15512650D02*
X8888991Y-15484079D01*
X8888991Y-15484079D02*
X8879468Y-15465031D01*
X8879468Y-15465031D02*
X8869944Y-15436460D01*
X8869944Y-15436460D02*
X8860420Y-15388841D01*
X8860420Y-15388841D02*
X8860420Y-15350746D01*
X8860420Y-15350746D02*
X8869944Y-15303127D01*
X8869944Y-15303127D02*
X8879468Y-15274555D01*
X8879468Y-15274555D02*
X8888991Y-15255508D01*
X8888991Y-15255508D02*
X8908039Y-15226936D01*
X8908039Y-15226936D02*
X8917563Y-15217412D01*
X9079468Y-15312650D02*
X9079468Y-15445984D01*
X9031849Y-15236460D02*
X8984230Y-15379317D01*
X8984230Y-15379317D02*
X9108039Y-15379317D01*
X9269944Y-15312650D02*
X9269944Y-15445984D01*
X9222325Y-15236460D02*
X9174706Y-15379317D01*
X9174706Y-15379317D02*
X9298515Y-15379317D01*
X9527087Y-15445984D02*
X9527087Y-15245984D01*
X9612801Y-15445984D02*
X9612801Y-15341222D01*
X9612801Y-15341222D02*
X9603277Y-15322174D01*
X9603277Y-15322174D02*
X9584230Y-15312650D01*
X9584230Y-15312650D02*
X9555658Y-15312650D01*
X9555658Y-15312650D02*
X9536611Y-15322174D01*
X9536611Y-15322174D02*
X9527087Y-15331698D01*
X9736611Y-15445984D02*
X9717563Y-15436460D01*
X9717563Y-15436460D02*
X9708039Y-15426936D01*
X9708039Y-15426936D02*
X9698515Y-15407888D01*
X9698515Y-15407888D02*
X9698515Y-15350746D01*
X9698515Y-15350746D02*
X9708039Y-15331698D01*
X9708039Y-15331698D02*
X9717563Y-15322174D01*
X9717563Y-15322174D02*
X9736611Y-15312650D01*
X9736611Y-15312650D02*
X9765182Y-15312650D01*
X9765182Y-15312650D02*
X9784230Y-15322174D01*
X9784230Y-15322174D02*
X9793753Y-15331698D01*
X9793753Y-15331698D02*
X9803277Y-15350746D01*
X9803277Y-15350746D02*
X9803277Y-15407888D01*
X9803277Y-15407888D02*
X9793753Y-15426936D01*
X9793753Y-15426936D02*
X9784230Y-15436460D01*
X9784230Y-15436460D02*
X9765182Y-15445984D01*
X9765182Y-15445984D02*
X9736611Y-15445984D01*
X9917563Y-15445984D02*
X9898515Y-15436460D01*
X9898515Y-15436460D02*
X9888992Y-15417412D01*
X9888992Y-15417412D02*
X9888992Y-15245984D01*
X10069944Y-15436460D02*
X10050896Y-15445984D01*
X10050896Y-15445984D02*
X10012801Y-15445984D01*
X10012801Y-15445984D02*
X9993753Y-15436460D01*
X9993753Y-15436460D02*
X9984230Y-15417412D01*
X9984230Y-15417412D02*
X9984230Y-15341222D01*
X9984230Y-15341222D02*
X9993753Y-15322174D01*
X9993753Y-15322174D02*
X10012801Y-15312650D01*
X10012801Y-15312650D02*
X10050896Y-15312650D01*
X10050896Y-15312650D02*
X10069944Y-15322174D01*
X10069944Y-15322174D02*
X10079468Y-15341222D01*
X10079468Y-15341222D02*
X10079468Y-15360269D01*
X10079468Y-15360269D02*
X9984230Y-15379317D01*
X10155658Y-15436460D02*
X10174706Y-15445984D01*
X10174706Y-15445984D02*
X10212801Y-15445984D01*
X10212801Y-15445984D02*
X10231849Y-15436460D01*
X10231849Y-15436460D02*
X10241373Y-15417412D01*
X10241373Y-15417412D02*
X10241373Y-15407888D01*
X10241373Y-15407888D02*
X10231849Y-15388841D01*
X10231849Y-15388841D02*
X10212801Y-15379317D01*
X10212801Y-15379317D02*
X10184230Y-15379317D01*
X10184230Y-15379317D02*
X10165182Y-15369793D01*
X10165182Y-15369793D02*
X10155658Y-15350746D01*
X10155658Y-15350746D02*
X10155658Y-15341222D01*
X10155658Y-15341222D02*
X10165182Y-15322174D01*
X10165182Y-15322174D02*
X10184230Y-15312650D01*
X10184230Y-15312650D02*
X10212801Y-15312650D01*
X10212801Y-15312650D02*
X10231849Y-15322174D01*
X10308039Y-15522174D02*
X10317563Y-15512650D01*
X10317563Y-15512650D02*
X10336611Y-15484079D01*
X10336611Y-15484079D02*
X10346134Y-15465031D01*
X10346134Y-15465031D02*
X10355658Y-15436460D01*
X10355658Y-15436460D02*
X10365182Y-15388841D01*
X10365182Y-15388841D02*
X10365182Y-15350746D01*
X10365182Y-15350746D02*
X10355658Y-15303127D01*
X10355658Y-15303127D02*
X10346134Y-15274555D01*
X10346134Y-15274555D02*
X10336611Y-15255508D01*
X10336611Y-15255508D02*
X10317563Y-15226936D01*
X10317563Y-15226936D02*
X10308039Y-15217412D01*
D14*
X5266500Y-15694500D02*
X5342500Y-15618500D01*
X5266500Y-15542500D01*
X5190500Y-15618500D01*
X5266500Y-15694500D01*
D11*
X5708039Y-15709984D02*
X5593753Y-15709984D01*
X5650896Y-15709984D02*
X5650896Y-15509984D01*
X5650896Y-15509984D02*
X5631848Y-15538555D01*
X5631848Y-15538555D02*
X5612801Y-15557603D01*
X5612801Y-15557603D02*
X5593753Y-15567127D01*
X5793753Y-15690936D02*
X5803277Y-15700460D01*
X5803277Y-15700460D02*
X5793753Y-15709984D01*
X5793753Y-15709984D02*
X5784229Y-15700460D01*
X5784229Y-15700460D02*
X5793753Y-15690936D01*
X5793753Y-15690936D02*
X5793753Y-15709984D01*
X5984229Y-15509984D02*
X5888991Y-15509984D01*
X5888991Y-15509984D02*
X5879467Y-15605222D01*
X5879467Y-15605222D02*
X5888991Y-15595698D01*
X5888991Y-15595698D02*
X5908039Y-15586174D01*
X5908039Y-15586174D02*
X5955658Y-15586174D01*
X5955658Y-15586174D02*
X5974705Y-15595698D01*
X5974705Y-15595698D02*
X5984229Y-15605222D01*
X5984229Y-15605222D02*
X5993753Y-15624269D01*
X5993753Y-15624269D02*
X5993753Y-15671888D01*
X5993753Y-15671888D02*
X5984229Y-15690936D01*
X5984229Y-15690936D02*
X5974705Y-15700460D01*
X5974705Y-15700460D02*
X5955658Y-15709984D01*
X5955658Y-15709984D02*
X5908039Y-15709984D01*
X5908039Y-15709984D02*
X5888991Y-15700460D01*
X5888991Y-15700460D02*
X5879467Y-15690936D01*
X6069943Y-15529031D02*
X6079467Y-15519508D01*
X6079467Y-15519508D02*
X6098515Y-15509984D01*
X6098515Y-15509984D02*
X6146134Y-15509984D01*
X6146134Y-15509984D02*
X6165182Y-15519508D01*
X6165182Y-15519508D02*
X6174705Y-15529031D01*
X6174705Y-15529031D02*
X6184229Y-15548079D01*
X6184229Y-15548079D02*
X6184229Y-15567127D01*
X6184229Y-15567127D02*
X6174705Y-15595698D01*
X6174705Y-15595698D02*
X6060420Y-15709984D01*
X6060420Y-15709984D02*
X6184229Y-15709984D01*
X6308039Y-15509984D02*
X6327086Y-15509984D01*
X6327086Y-15509984D02*
X6346134Y-15519508D01*
X6346134Y-15519508D02*
X6355658Y-15529031D01*
X6355658Y-15529031D02*
X6365182Y-15548079D01*
X6365182Y-15548079D02*
X6374705Y-15586174D01*
X6374705Y-15586174D02*
X6374705Y-15633793D01*
X6374705Y-15633793D02*
X6365182Y-15671888D01*
X6365182Y-15671888D02*
X6355658Y-15690936D01*
X6355658Y-15690936D02*
X6346134Y-15700460D01*
X6346134Y-15700460D02*
X6327086Y-15709984D01*
X6327086Y-15709984D02*
X6308039Y-15709984D01*
X6308039Y-15709984D02*
X6288991Y-15700460D01*
X6288991Y-15700460D02*
X6279467Y-15690936D01*
X6279467Y-15690936D02*
X6269943Y-15671888D01*
X6269943Y-15671888D02*
X6260420Y-15633793D01*
X6260420Y-15633793D02*
X6260420Y-15586174D01*
X6260420Y-15586174D02*
X6269943Y-15548079D01*
X6269943Y-15548079D02*
X6279467Y-15529031D01*
X6279467Y-15529031D02*
X6288991Y-15519508D01*
X6288991Y-15519508D02*
X6308039Y-15509984D01*
X6460420Y-15709984D02*
X6460420Y-15576650D01*
X6460420Y-15595698D02*
X6469943Y-15586174D01*
X6469943Y-15586174D02*
X6488991Y-15576650D01*
X6488991Y-15576650D02*
X6517563Y-15576650D01*
X6517563Y-15576650D02*
X6536610Y-15586174D01*
X6536610Y-15586174D02*
X6546134Y-15605222D01*
X6546134Y-15605222D02*
X6546134Y-15709984D01*
X6546134Y-15605222D02*
X6555658Y-15586174D01*
X6555658Y-15586174D02*
X6574705Y-15576650D01*
X6574705Y-15576650D02*
X6603277Y-15576650D01*
X6603277Y-15576650D02*
X6622324Y-15586174D01*
X6622324Y-15586174D02*
X6631848Y-15605222D01*
X6631848Y-15605222D02*
X6631848Y-15709984D01*
X6727086Y-15709984D02*
X6727086Y-15576650D01*
X6727086Y-15595698D02*
X6736610Y-15586174D01*
X6736610Y-15586174D02*
X6755658Y-15576650D01*
X6755658Y-15576650D02*
X6784229Y-15576650D01*
X6784229Y-15576650D02*
X6803277Y-15586174D01*
X6803277Y-15586174D02*
X6812801Y-15605222D01*
X6812801Y-15605222D02*
X6812801Y-15709984D01*
X6812801Y-15605222D02*
X6822324Y-15586174D01*
X6822324Y-15586174D02*
X6841372Y-15576650D01*
X6841372Y-15576650D02*
X6869943Y-15576650D01*
X6869943Y-15576650D02*
X6888991Y-15586174D01*
X6888991Y-15586174D02*
X6898515Y-15605222D01*
X6898515Y-15605222D02*
X6898515Y-15709984D01*
X7288991Y-15500460D02*
X7117563Y-15757603D01*
X7546134Y-15509984D02*
X7565182Y-15509984D01*
X7565182Y-15509984D02*
X7584229Y-15519508D01*
X7584229Y-15519508D02*
X7593753Y-15529031D01*
X7593753Y-15529031D02*
X7603277Y-15548079D01*
X7603277Y-15548079D02*
X7612801Y-15586174D01*
X7612801Y-15586174D02*
X7612801Y-15633793D01*
X7612801Y-15633793D02*
X7603277Y-15671888D01*
X7603277Y-15671888D02*
X7593753Y-15690936D01*
X7593753Y-15690936D02*
X7584229Y-15700460D01*
X7584229Y-15700460D02*
X7565182Y-15709984D01*
X7565182Y-15709984D02*
X7546134Y-15709984D01*
X7546134Y-15709984D02*
X7527086Y-15700460D01*
X7527086Y-15700460D02*
X7517563Y-15690936D01*
X7517563Y-15690936D02*
X7508039Y-15671888D01*
X7508039Y-15671888D02*
X7498515Y-15633793D01*
X7498515Y-15633793D02*
X7498515Y-15586174D01*
X7498515Y-15586174D02*
X7508039Y-15548079D01*
X7508039Y-15548079D02*
X7517563Y-15529031D01*
X7517563Y-15529031D02*
X7527086Y-15519508D01*
X7527086Y-15519508D02*
X7546134Y-15509984D01*
X7698515Y-15690936D02*
X7708039Y-15700460D01*
X7708039Y-15700460D02*
X7698515Y-15709984D01*
X7698515Y-15709984D02*
X7688991Y-15700460D01*
X7688991Y-15700460D02*
X7698515Y-15690936D01*
X7698515Y-15690936D02*
X7698515Y-15709984D01*
X7831848Y-15509984D02*
X7850896Y-15509984D01*
X7850896Y-15509984D02*
X7869944Y-15519508D01*
X7869944Y-15519508D02*
X7879467Y-15529031D01*
X7879467Y-15529031D02*
X7888991Y-15548079D01*
X7888991Y-15548079D02*
X7898515Y-15586174D01*
X7898515Y-15586174D02*
X7898515Y-15633793D01*
X7898515Y-15633793D02*
X7888991Y-15671888D01*
X7888991Y-15671888D02*
X7879467Y-15690936D01*
X7879467Y-15690936D02*
X7869944Y-15700460D01*
X7869944Y-15700460D02*
X7850896Y-15709984D01*
X7850896Y-15709984D02*
X7831848Y-15709984D01*
X7831848Y-15709984D02*
X7812801Y-15700460D01*
X7812801Y-15700460D02*
X7803277Y-15690936D01*
X7803277Y-15690936D02*
X7793753Y-15671888D01*
X7793753Y-15671888D02*
X7784229Y-15633793D01*
X7784229Y-15633793D02*
X7784229Y-15586174D01*
X7784229Y-15586174D02*
X7793753Y-15548079D01*
X7793753Y-15548079D02*
X7803277Y-15529031D01*
X7803277Y-15529031D02*
X7812801Y-15519508D01*
X7812801Y-15519508D02*
X7831848Y-15509984D01*
X8079467Y-15509984D02*
X7984229Y-15509984D01*
X7984229Y-15509984D02*
X7974706Y-15605222D01*
X7974706Y-15605222D02*
X7984229Y-15595698D01*
X7984229Y-15595698D02*
X8003277Y-15586174D01*
X8003277Y-15586174D02*
X8050896Y-15586174D01*
X8050896Y-15586174D02*
X8069944Y-15595698D01*
X8069944Y-15595698D02*
X8079467Y-15605222D01*
X8079467Y-15605222D02*
X8088991Y-15624269D01*
X8088991Y-15624269D02*
X8088991Y-15671888D01*
X8088991Y-15671888D02*
X8079467Y-15690936D01*
X8079467Y-15690936D02*
X8069944Y-15700460D01*
X8069944Y-15700460D02*
X8050896Y-15709984D01*
X8050896Y-15709984D02*
X8003277Y-15709984D01*
X8003277Y-15709984D02*
X7984229Y-15700460D01*
X7984229Y-15700460D02*
X7974706Y-15690936D01*
X8184229Y-15709984D02*
X8222325Y-15709984D01*
X8222325Y-15709984D02*
X8241372Y-15700460D01*
X8241372Y-15700460D02*
X8250896Y-15690936D01*
X8250896Y-15690936D02*
X8269944Y-15662365D01*
X8269944Y-15662365D02*
X8279467Y-15624269D01*
X8279467Y-15624269D02*
X8279467Y-15548079D01*
X8279467Y-15548079D02*
X8269944Y-15529031D01*
X8269944Y-15529031D02*
X8260420Y-15519508D01*
X8260420Y-15519508D02*
X8241372Y-15509984D01*
X8241372Y-15509984D02*
X8203277Y-15509984D01*
X8203277Y-15509984D02*
X8184229Y-15519508D01*
X8184229Y-15519508D02*
X8174706Y-15529031D01*
X8174706Y-15529031D02*
X8165182Y-15548079D01*
X8165182Y-15548079D02*
X8165182Y-15595698D01*
X8165182Y-15595698D02*
X8174706Y-15614746D01*
X8174706Y-15614746D02*
X8184229Y-15624269D01*
X8184229Y-15624269D02*
X8203277Y-15633793D01*
X8203277Y-15633793D02*
X8241372Y-15633793D01*
X8241372Y-15633793D02*
X8260420Y-15624269D01*
X8260420Y-15624269D02*
X8269944Y-15614746D01*
X8269944Y-15614746D02*
X8279467Y-15595698D01*
X8393753Y-15595698D02*
X8374706Y-15586174D01*
X8374706Y-15586174D02*
X8365182Y-15576650D01*
X8365182Y-15576650D02*
X8355658Y-15557603D01*
X8355658Y-15557603D02*
X8355658Y-15548079D01*
X8355658Y-15548079D02*
X8365182Y-15529031D01*
X8365182Y-15529031D02*
X8374706Y-15519508D01*
X8374706Y-15519508D02*
X8393753Y-15509984D01*
X8393753Y-15509984D02*
X8431849Y-15509984D01*
X8431849Y-15509984D02*
X8450896Y-15519508D01*
X8450896Y-15519508D02*
X8460420Y-15529031D01*
X8460420Y-15529031D02*
X8469944Y-15548079D01*
X8469944Y-15548079D02*
X8469944Y-15557603D01*
X8469944Y-15557603D02*
X8460420Y-15576650D01*
X8460420Y-15576650D02*
X8450896Y-15586174D01*
X8450896Y-15586174D02*
X8431849Y-15595698D01*
X8431849Y-15595698D02*
X8393753Y-15595698D01*
X8393753Y-15595698D02*
X8374706Y-15605222D01*
X8374706Y-15605222D02*
X8365182Y-15614746D01*
X8365182Y-15614746D02*
X8355658Y-15633793D01*
X8355658Y-15633793D02*
X8355658Y-15671888D01*
X8355658Y-15671888D02*
X8365182Y-15690936D01*
X8365182Y-15690936D02*
X8374706Y-15700460D01*
X8374706Y-15700460D02*
X8393753Y-15709984D01*
X8393753Y-15709984D02*
X8431849Y-15709984D01*
X8431849Y-15709984D02*
X8450896Y-15700460D01*
X8450896Y-15700460D02*
X8460420Y-15690936D01*
X8460420Y-15690936D02*
X8469944Y-15671888D01*
X8469944Y-15671888D02*
X8469944Y-15633793D01*
X8469944Y-15633793D02*
X8460420Y-15614746D01*
X8460420Y-15614746D02*
X8450896Y-15605222D01*
X8450896Y-15605222D02*
X8431849Y-15595698D01*
X8546134Y-15509984D02*
X8546134Y-15548079D01*
X8622325Y-15509984D02*
X8622325Y-15548079D01*
X8917563Y-15786174D02*
X8908039Y-15776650D01*
X8908039Y-15776650D02*
X8888991Y-15748079D01*
X8888991Y-15748079D02*
X8879468Y-15729031D01*
X8879468Y-15729031D02*
X8869944Y-15700460D01*
X8869944Y-15700460D02*
X8860420Y-15652841D01*
X8860420Y-15652841D02*
X8860420Y-15614746D01*
X8860420Y-15614746D02*
X8869944Y-15567127D01*
X8869944Y-15567127D02*
X8879468Y-15538555D01*
X8879468Y-15538555D02*
X8888991Y-15519508D01*
X8888991Y-15519508D02*
X8908039Y-15490936D01*
X8908039Y-15490936D02*
X8917563Y-15481412D01*
X8984230Y-15529031D02*
X8993753Y-15519508D01*
X8993753Y-15519508D02*
X9012801Y-15509984D01*
X9012801Y-15509984D02*
X9060420Y-15509984D01*
X9060420Y-15509984D02*
X9079468Y-15519508D01*
X9079468Y-15519508D02*
X9088991Y-15529031D01*
X9088991Y-15529031D02*
X9098515Y-15548079D01*
X9098515Y-15548079D02*
X9098515Y-15567127D01*
X9098515Y-15567127D02*
X9088991Y-15595698D01*
X9088991Y-15595698D02*
X8974706Y-15709984D01*
X8974706Y-15709984D02*
X9098515Y-15709984D01*
X9336611Y-15709984D02*
X9336611Y-15509984D01*
X9422325Y-15709984D02*
X9422325Y-15605222D01*
X9422325Y-15605222D02*
X9412801Y-15586174D01*
X9412801Y-15586174D02*
X9393753Y-15576650D01*
X9393753Y-15576650D02*
X9365182Y-15576650D01*
X9365182Y-15576650D02*
X9346134Y-15586174D01*
X9346134Y-15586174D02*
X9336611Y-15595698D01*
X9546134Y-15709984D02*
X9527087Y-15700460D01*
X9527087Y-15700460D02*
X9517563Y-15690936D01*
X9517563Y-15690936D02*
X9508039Y-15671888D01*
X9508039Y-15671888D02*
X9508039Y-15614746D01*
X9508039Y-15614746D02*
X9517563Y-15595698D01*
X9517563Y-15595698D02*
X9527087Y-15586174D01*
X9527087Y-15586174D02*
X9546134Y-15576650D01*
X9546134Y-15576650D02*
X9574706Y-15576650D01*
X9574706Y-15576650D02*
X9593753Y-15586174D01*
X9593753Y-15586174D02*
X9603277Y-15595698D01*
X9603277Y-15595698D02*
X9612801Y-15614746D01*
X9612801Y-15614746D02*
X9612801Y-15671888D01*
X9612801Y-15671888D02*
X9603277Y-15690936D01*
X9603277Y-15690936D02*
X9593753Y-15700460D01*
X9593753Y-15700460D02*
X9574706Y-15709984D01*
X9574706Y-15709984D02*
X9546134Y-15709984D01*
X9727087Y-15709984D02*
X9708039Y-15700460D01*
X9708039Y-15700460D02*
X9698515Y-15681412D01*
X9698515Y-15681412D02*
X9698515Y-15509984D01*
X9879468Y-15700460D02*
X9860420Y-15709984D01*
X9860420Y-15709984D02*
X9822325Y-15709984D01*
X9822325Y-15709984D02*
X9803277Y-15700460D01*
X9803277Y-15700460D02*
X9793753Y-15681412D01*
X9793753Y-15681412D02*
X9793753Y-15605222D01*
X9793753Y-15605222D02*
X9803277Y-15586174D01*
X9803277Y-15586174D02*
X9822325Y-15576650D01*
X9822325Y-15576650D02*
X9860420Y-15576650D01*
X9860420Y-15576650D02*
X9879468Y-15586174D01*
X9879468Y-15586174D02*
X9888992Y-15605222D01*
X9888992Y-15605222D02*
X9888992Y-15624269D01*
X9888992Y-15624269D02*
X9793753Y-15643317D01*
X9965182Y-15700460D02*
X9984230Y-15709984D01*
X9984230Y-15709984D02*
X10022325Y-15709984D01*
X10022325Y-15709984D02*
X10041373Y-15700460D01*
X10041373Y-15700460D02*
X10050896Y-15681412D01*
X10050896Y-15681412D02*
X10050896Y-15671888D01*
X10050896Y-15671888D02*
X10041373Y-15652841D01*
X10041373Y-15652841D02*
X10022325Y-15643317D01*
X10022325Y-15643317D02*
X9993753Y-15643317D01*
X9993753Y-15643317D02*
X9974706Y-15633793D01*
X9974706Y-15633793D02*
X9965182Y-15614746D01*
X9965182Y-15614746D02*
X9965182Y-15605222D01*
X9965182Y-15605222D02*
X9974706Y-15586174D01*
X9974706Y-15586174D02*
X9993753Y-15576650D01*
X9993753Y-15576650D02*
X10022325Y-15576650D01*
X10022325Y-15576650D02*
X10041373Y-15586174D01*
X10117563Y-15786174D02*
X10127087Y-15776650D01*
X10127087Y-15776650D02*
X10146134Y-15748079D01*
X10146134Y-15748079D02*
X10155658Y-15729031D01*
X10155658Y-15729031D02*
X10165182Y-15700460D01*
X10165182Y-15700460D02*
X10174706Y-15652841D01*
X10174706Y-15652841D02*
X10174706Y-15614746D01*
X10174706Y-15614746D02*
X10165182Y-15567127D01*
X10165182Y-15567127D02*
X10155658Y-15538555D01*
X10155658Y-15538555D02*
X10146134Y-15519508D01*
X10146134Y-15519508D02*
X10127087Y-15490936D01*
X10127087Y-15490936D02*
X10117563Y-15481412D01*
X5142500Y-15790500D02*
X5342500Y-15990500D01*
X5342500Y-15790500D02*
X5142500Y-15990500D01*
X5342500Y-15890500D02*
G75*
G02*
X5142500Y-15890500I-100000J0D01*
G01*
X5142500Y-15890500D02*
G75*
G02*
X5342500Y-15890500I100000J0D01*
G01*
X5593753Y-15801031D02*
X5603277Y-15791508D01*
X5603277Y-15791508D02*
X5622324Y-15781984D01*
X5622324Y-15781984D02*
X5669943Y-15781984D01*
X5669943Y-15781984D02*
X5688991Y-15791508D01*
X5688991Y-15791508D02*
X5698515Y-15801031D01*
X5698515Y-15801031D02*
X5708039Y-15820079D01*
X5708039Y-15820079D02*
X5708039Y-15839127D01*
X5708039Y-15839127D02*
X5698515Y-15867698D01*
X5698515Y-15867698D02*
X5584229Y-15981984D01*
X5584229Y-15981984D02*
X5708039Y-15981984D01*
X5793753Y-15962936D02*
X5803277Y-15972460D01*
X5803277Y-15972460D02*
X5793753Y-15981984D01*
X5793753Y-15981984D02*
X5784229Y-15972460D01*
X5784229Y-15972460D02*
X5793753Y-15962936D01*
X5793753Y-15962936D02*
X5793753Y-15981984D01*
X5984229Y-15781984D02*
X5888991Y-15781984D01*
X5888991Y-15781984D02*
X5879467Y-15877222D01*
X5879467Y-15877222D02*
X5888991Y-15867698D01*
X5888991Y-15867698D02*
X5908039Y-15858174D01*
X5908039Y-15858174D02*
X5955658Y-15858174D01*
X5955658Y-15858174D02*
X5974705Y-15867698D01*
X5974705Y-15867698D02*
X5984229Y-15877222D01*
X5984229Y-15877222D02*
X5993753Y-15896269D01*
X5993753Y-15896269D02*
X5993753Y-15943888D01*
X5993753Y-15943888D02*
X5984229Y-15962936D01*
X5984229Y-15962936D02*
X5974705Y-15972460D01*
X5974705Y-15972460D02*
X5955658Y-15981984D01*
X5955658Y-15981984D02*
X5908039Y-15981984D01*
X5908039Y-15981984D02*
X5888991Y-15972460D01*
X5888991Y-15972460D02*
X5879467Y-15962936D01*
X6117562Y-15781984D02*
X6136610Y-15781984D01*
X6136610Y-15781984D02*
X6155658Y-15791508D01*
X6155658Y-15791508D02*
X6165182Y-15801031D01*
X6165182Y-15801031D02*
X6174705Y-15820079D01*
X6174705Y-15820079D02*
X6184229Y-15858174D01*
X6184229Y-15858174D02*
X6184229Y-15905793D01*
X6184229Y-15905793D02*
X6174705Y-15943888D01*
X6174705Y-15943888D02*
X6165182Y-15962936D01*
X6165182Y-15962936D02*
X6155658Y-15972460D01*
X6155658Y-15972460D02*
X6136610Y-15981984D01*
X6136610Y-15981984D02*
X6117562Y-15981984D01*
X6117562Y-15981984D02*
X6098515Y-15972460D01*
X6098515Y-15972460D02*
X6088991Y-15962936D01*
X6088991Y-15962936D02*
X6079467Y-15943888D01*
X6079467Y-15943888D02*
X6069943Y-15905793D01*
X6069943Y-15905793D02*
X6069943Y-15858174D01*
X6069943Y-15858174D02*
X6079467Y-15820079D01*
X6079467Y-15820079D02*
X6088991Y-15801031D01*
X6088991Y-15801031D02*
X6098515Y-15791508D01*
X6098515Y-15791508D02*
X6117562Y-15781984D01*
X6308039Y-15781984D02*
X6327086Y-15781984D01*
X6327086Y-15781984D02*
X6346134Y-15791508D01*
X6346134Y-15791508D02*
X6355658Y-15801031D01*
X6355658Y-15801031D02*
X6365182Y-15820079D01*
X6365182Y-15820079D02*
X6374705Y-15858174D01*
X6374705Y-15858174D02*
X6374705Y-15905793D01*
X6374705Y-15905793D02*
X6365182Y-15943888D01*
X6365182Y-15943888D02*
X6355658Y-15962936D01*
X6355658Y-15962936D02*
X6346134Y-15972460D01*
X6346134Y-15972460D02*
X6327086Y-15981984D01*
X6327086Y-15981984D02*
X6308039Y-15981984D01*
X6308039Y-15981984D02*
X6288991Y-15972460D01*
X6288991Y-15972460D02*
X6279467Y-15962936D01*
X6279467Y-15962936D02*
X6269943Y-15943888D01*
X6269943Y-15943888D02*
X6260420Y-15905793D01*
X6260420Y-15905793D02*
X6260420Y-15858174D01*
X6260420Y-15858174D02*
X6269943Y-15820079D01*
X6269943Y-15820079D02*
X6279467Y-15801031D01*
X6279467Y-15801031D02*
X6288991Y-15791508D01*
X6288991Y-15791508D02*
X6308039Y-15781984D01*
X6460420Y-15981984D02*
X6460420Y-15848650D01*
X6460420Y-15867698D02*
X6469943Y-15858174D01*
X6469943Y-15858174D02*
X6488991Y-15848650D01*
X6488991Y-15848650D02*
X6517563Y-15848650D01*
X6517563Y-15848650D02*
X6536610Y-15858174D01*
X6536610Y-15858174D02*
X6546134Y-15877222D01*
X6546134Y-15877222D02*
X6546134Y-15981984D01*
X6546134Y-15877222D02*
X6555658Y-15858174D01*
X6555658Y-15858174D02*
X6574705Y-15848650D01*
X6574705Y-15848650D02*
X6603277Y-15848650D01*
X6603277Y-15848650D02*
X6622324Y-15858174D01*
X6622324Y-15858174D02*
X6631848Y-15877222D01*
X6631848Y-15877222D02*
X6631848Y-15981984D01*
X6727086Y-15981984D02*
X6727086Y-15848650D01*
X6727086Y-15867698D02*
X6736610Y-15858174D01*
X6736610Y-15858174D02*
X6755658Y-15848650D01*
X6755658Y-15848650D02*
X6784229Y-15848650D01*
X6784229Y-15848650D02*
X6803277Y-15858174D01*
X6803277Y-15858174D02*
X6812801Y-15877222D01*
X6812801Y-15877222D02*
X6812801Y-15981984D01*
X6812801Y-15877222D02*
X6822324Y-15858174D01*
X6822324Y-15858174D02*
X6841372Y-15848650D01*
X6841372Y-15848650D02*
X6869943Y-15848650D01*
X6869943Y-15848650D02*
X6888991Y-15858174D01*
X6888991Y-15858174D02*
X6898515Y-15877222D01*
X6898515Y-15877222D02*
X6898515Y-15981984D01*
X7288991Y-15772460D02*
X7117563Y-16029603D01*
X7546134Y-15781984D02*
X7565182Y-15781984D01*
X7565182Y-15781984D02*
X7584229Y-15791508D01*
X7584229Y-15791508D02*
X7593753Y-15801031D01*
X7593753Y-15801031D02*
X7603277Y-15820079D01*
X7603277Y-15820079D02*
X7612801Y-15858174D01*
X7612801Y-15858174D02*
X7612801Y-15905793D01*
X7612801Y-15905793D02*
X7603277Y-15943888D01*
X7603277Y-15943888D02*
X7593753Y-15962936D01*
X7593753Y-15962936D02*
X7584229Y-15972460D01*
X7584229Y-15972460D02*
X7565182Y-15981984D01*
X7565182Y-15981984D02*
X7546134Y-15981984D01*
X7546134Y-15981984D02*
X7527086Y-15972460D01*
X7527086Y-15972460D02*
X7517563Y-15962936D01*
X7517563Y-15962936D02*
X7508039Y-15943888D01*
X7508039Y-15943888D02*
X7498515Y-15905793D01*
X7498515Y-15905793D02*
X7498515Y-15858174D01*
X7498515Y-15858174D02*
X7508039Y-15820079D01*
X7508039Y-15820079D02*
X7517563Y-15801031D01*
X7517563Y-15801031D02*
X7527086Y-15791508D01*
X7527086Y-15791508D02*
X7546134Y-15781984D01*
X7698515Y-15962936D02*
X7708039Y-15972460D01*
X7708039Y-15972460D02*
X7698515Y-15981984D01*
X7698515Y-15981984D02*
X7688991Y-15972460D01*
X7688991Y-15972460D02*
X7698515Y-15962936D01*
X7698515Y-15962936D02*
X7698515Y-15981984D01*
X7831848Y-15781984D02*
X7850896Y-15781984D01*
X7850896Y-15781984D02*
X7869944Y-15791508D01*
X7869944Y-15791508D02*
X7879467Y-15801031D01*
X7879467Y-15801031D02*
X7888991Y-15820079D01*
X7888991Y-15820079D02*
X7898515Y-15858174D01*
X7898515Y-15858174D02*
X7898515Y-15905793D01*
X7898515Y-15905793D02*
X7888991Y-15943888D01*
X7888991Y-15943888D02*
X7879467Y-15962936D01*
X7879467Y-15962936D02*
X7869944Y-15972460D01*
X7869944Y-15972460D02*
X7850896Y-15981984D01*
X7850896Y-15981984D02*
X7831848Y-15981984D01*
X7831848Y-15981984D02*
X7812801Y-15972460D01*
X7812801Y-15972460D02*
X7803277Y-15962936D01*
X7803277Y-15962936D02*
X7793753Y-15943888D01*
X7793753Y-15943888D02*
X7784229Y-15905793D01*
X7784229Y-15905793D02*
X7784229Y-15858174D01*
X7784229Y-15858174D02*
X7793753Y-15820079D01*
X7793753Y-15820079D02*
X7803277Y-15801031D01*
X7803277Y-15801031D02*
X7812801Y-15791508D01*
X7812801Y-15791508D02*
X7831848Y-15781984D01*
X7993753Y-15981984D02*
X8031848Y-15981984D01*
X8031848Y-15981984D02*
X8050896Y-15972460D01*
X8050896Y-15972460D02*
X8060420Y-15962936D01*
X8060420Y-15962936D02*
X8079467Y-15934365D01*
X8079467Y-15934365D02*
X8088991Y-15896269D01*
X8088991Y-15896269D02*
X8088991Y-15820079D01*
X8088991Y-15820079D02*
X8079467Y-15801031D01*
X8079467Y-15801031D02*
X8069944Y-15791508D01*
X8069944Y-15791508D02*
X8050896Y-15781984D01*
X8050896Y-15781984D02*
X8012801Y-15781984D01*
X8012801Y-15781984D02*
X7993753Y-15791508D01*
X7993753Y-15791508D02*
X7984229Y-15801031D01*
X7984229Y-15801031D02*
X7974706Y-15820079D01*
X7974706Y-15820079D02*
X7974706Y-15867698D01*
X7974706Y-15867698D02*
X7984229Y-15886746D01*
X7984229Y-15886746D02*
X7993753Y-15896269D01*
X7993753Y-15896269D02*
X8012801Y-15905793D01*
X8012801Y-15905793D02*
X8050896Y-15905793D01*
X8050896Y-15905793D02*
X8069944Y-15896269D01*
X8069944Y-15896269D02*
X8079467Y-15886746D01*
X8079467Y-15886746D02*
X8088991Y-15867698D01*
X8203277Y-15867698D02*
X8184229Y-15858174D01*
X8184229Y-15858174D02*
X8174706Y-15848650D01*
X8174706Y-15848650D02*
X8165182Y-15829603D01*
X8165182Y-15829603D02*
X8165182Y-15820079D01*
X8165182Y-15820079D02*
X8174706Y-15801031D01*
X8174706Y-15801031D02*
X8184229Y-15791508D01*
X8184229Y-15791508D02*
X8203277Y-15781984D01*
X8203277Y-15781984D02*
X8241372Y-15781984D01*
X8241372Y-15781984D02*
X8260420Y-15791508D01*
X8260420Y-15791508D02*
X8269944Y-15801031D01*
X8269944Y-15801031D02*
X8279467Y-15820079D01*
X8279467Y-15820079D02*
X8279467Y-15829603D01*
X8279467Y-15829603D02*
X8269944Y-15848650D01*
X8269944Y-15848650D02*
X8260420Y-15858174D01*
X8260420Y-15858174D02*
X8241372Y-15867698D01*
X8241372Y-15867698D02*
X8203277Y-15867698D01*
X8203277Y-15867698D02*
X8184229Y-15877222D01*
X8184229Y-15877222D02*
X8174706Y-15886746D01*
X8174706Y-15886746D02*
X8165182Y-15905793D01*
X8165182Y-15905793D02*
X8165182Y-15943888D01*
X8165182Y-15943888D02*
X8174706Y-15962936D01*
X8174706Y-15962936D02*
X8184229Y-15972460D01*
X8184229Y-15972460D02*
X8203277Y-15981984D01*
X8203277Y-15981984D02*
X8241372Y-15981984D01*
X8241372Y-15981984D02*
X8260420Y-15972460D01*
X8260420Y-15972460D02*
X8269944Y-15962936D01*
X8269944Y-15962936D02*
X8279467Y-15943888D01*
X8279467Y-15943888D02*
X8279467Y-15905793D01*
X8279467Y-15905793D02*
X8269944Y-15886746D01*
X8269944Y-15886746D02*
X8260420Y-15877222D01*
X8260420Y-15877222D02*
X8241372Y-15867698D01*
X8450896Y-15848650D02*
X8450896Y-15981984D01*
X8403277Y-15772460D02*
X8355658Y-15915317D01*
X8355658Y-15915317D02*
X8479468Y-15915317D01*
X8546134Y-15781984D02*
X8546134Y-15820079D01*
X8622325Y-15781984D02*
X8622325Y-15820079D01*
X8917563Y-16058174D02*
X8908039Y-16048650D01*
X8908039Y-16048650D02*
X8888991Y-16020079D01*
X8888991Y-16020079D02*
X8879468Y-16001031D01*
X8879468Y-16001031D02*
X8869944Y-15972460D01*
X8869944Y-15972460D02*
X8860420Y-15924841D01*
X8860420Y-15924841D02*
X8860420Y-15886746D01*
X8860420Y-15886746D02*
X8869944Y-15839127D01*
X8869944Y-15839127D02*
X8879468Y-15810555D01*
X8879468Y-15810555D02*
X8888991Y-15791508D01*
X8888991Y-15791508D02*
X8908039Y-15762936D01*
X8908039Y-15762936D02*
X8917563Y-15753412D01*
X9022325Y-15867698D02*
X9003277Y-15858174D01*
X9003277Y-15858174D02*
X8993753Y-15848650D01*
X8993753Y-15848650D02*
X8984230Y-15829603D01*
X8984230Y-15829603D02*
X8984230Y-15820079D01*
X8984230Y-15820079D02*
X8993753Y-15801031D01*
X8993753Y-15801031D02*
X9003277Y-15791508D01*
X9003277Y-15791508D02*
X9022325Y-15781984D01*
X9022325Y-15781984D02*
X9060420Y-15781984D01*
X9060420Y-15781984D02*
X9079468Y-15791508D01*
X9079468Y-15791508D02*
X9088991Y-15801031D01*
X9088991Y-15801031D02*
X9098515Y-15820079D01*
X9098515Y-15820079D02*
X9098515Y-15829603D01*
X9098515Y-15829603D02*
X9088991Y-15848650D01*
X9088991Y-15848650D02*
X9079468Y-15858174D01*
X9079468Y-15858174D02*
X9060420Y-15867698D01*
X9060420Y-15867698D02*
X9022325Y-15867698D01*
X9022325Y-15867698D02*
X9003277Y-15877222D01*
X9003277Y-15877222D02*
X8993753Y-15886746D01*
X8993753Y-15886746D02*
X8984230Y-15905793D01*
X8984230Y-15905793D02*
X8984230Y-15943888D01*
X8984230Y-15943888D02*
X8993753Y-15962936D01*
X8993753Y-15962936D02*
X9003277Y-15972460D01*
X9003277Y-15972460D02*
X9022325Y-15981984D01*
X9022325Y-15981984D02*
X9060420Y-15981984D01*
X9060420Y-15981984D02*
X9079468Y-15972460D01*
X9079468Y-15972460D02*
X9088991Y-15962936D01*
X9088991Y-15962936D02*
X9098515Y-15943888D01*
X9098515Y-15943888D02*
X9098515Y-15905793D01*
X9098515Y-15905793D02*
X9088991Y-15886746D01*
X9088991Y-15886746D02*
X9079468Y-15877222D01*
X9079468Y-15877222D02*
X9060420Y-15867698D01*
X9336611Y-15981984D02*
X9336611Y-15781984D01*
X9422325Y-15981984D02*
X9422325Y-15877222D01*
X9422325Y-15877222D02*
X9412801Y-15858174D01*
X9412801Y-15858174D02*
X9393753Y-15848650D01*
X9393753Y-15848650D02*
X9365182Y-15848650D01*
X9365182Y-15848650D02*
X9346134Y-15858174D01*
X9346134Y-15858174D02*
X9336611Y-15867698D01*
X9546134Y-15981984D02*
X9527087Y-15972460D01*
X9527087Y-15972460D02*
X9517563Y-15962936D01*
X9517563Y-15962936D02*
X9508039Y-15943888D01*
X9508039Y-15943888D02*
X9508039Y-15886746D01*
X9508039Y-15886746D02*
X9517563Y-15867698D01*
X9517563Y-15867698D02*
X9527087Y-15858174D01*
X9527087Y-15858174D02*
X9546134Y-15848650D01*
X9546134Y-15848650D02*
X9574706Y-15848650D01*
X9574706Y-15848650D02*
X9593753Y-15858174D01*
X9593753Y-15858174D02*
X9603277Y-15867698D01*
X9603277Y-15867698D02*
X9612801Y-15886746D01*
X9612801Y-15886746D02*
X9612801Y-15943888D01*
X9612801Y-15943888D02*
X9603277Y-15962936D01*
X9603277Y-15962936D02*
X9593753Y-15972460D01*
X9593753Y-15972460D02*
X9574706Y-15981984D01*
X9574706Y-15981984D02*
X9546134Y-15981984D01*
X9727087Y-15981984D02*
X9708039Y-15972460D01*
X9708039Y-15972460D02*
X9698515Y-15953412D01*
X9698515Y-15953412D02*
X9698515Y-15781984D01*
X9879468Y-15972460D02*
X9860420Y-15981984D01*
X9860420Y-15981984D02*
X9822325Y-15981984D01*
X9822325Y-15981984D02*
X9803277Y-15972460D01*
X9803277Y-15972460D02*
X9793753Y-15953412D01*
X9793753Y-15953412D02*
X9793753Y-15877222D01*
X9793753Y-15877222D02*
X9803277Y-15858174D01*
X9803277Y-15858174D02*
X9822325Y-15848650D01*
X9822325Y-15848650D02*
X9860420Y-15848650D01*
X9860420Y-15848650D02*
X9879468Y-15858174D01*
X9879468Y-15858174D02*
X9888992Y-15877222D01*
X9888992Y-15877222D02*
X9888992Y-15896269D01*
X9888992Y-15896269D02*
X9793753Y-15915317D01*
X9965182Y-15972460D02*
X9984230Y-15981984D01*
X9984230Y-15981984D02*
X10022325Y-15981984D01*
X10022325Y-15981984D02*
X10041373Y-15972460D01*
X10041373Y-15972460D02*
X10050896Y-15953412D01*
X10050896Y-15953412D02*
X10050896Y-15943888D01*
X10050896Y-15943888D02*
X10041373Y-15924841D01*
X10041373Y-15924841D02*
X10022325Y-15915317D01*
X10022325Y-15915317D02*
X9993753Y-15915317D01*
X9993753Y-15915317D02*
X9974706Y-15905793D01*
X9974706Y-15905793D02*
X9965182Y-15886746D01*
X9965182Y-15886746D02*
X9965182Y-15877222D01*
X9965182Y-15877222D02*
X9974706Y-15858174D01*
X9974706Y-15858174D02*
X9993753Y-15848650D01*
X9993753Y-15848650D02*
X10022325Y-15848650D01*
X10022325Y-15848650D02*
X10041373Y-15858174D01*
X10117563Y-16058174D02*
X10127087Y-16048650D01*
X10127087Y-16048650D02*
X10146134Y-16020079D01*
X10146134Y-16020079D02*
X10155658Y-16001031D01*
X10155658Y-16001031D02*
X10165182Y-15972460D01*
X10165182Y-15972460D02*
X10174706Y-15924841D01*
X10174706Y-15924841D02*
X10174706Y-15886746D01*
X10174706Y-15886746D02*
X10165182Y-15839127D01*
X10165182Y-15839127D02*
X10155658Y-15810555D01*
X10155658Y-15810555D02*
X10146134Y-15791508D01*
X10146134Y-15791508D02*
X10127087Y-15762936D01*
X10127087Y-15762936D02*
X10117563Y-15753412D01*
M02*
