G04 #@! TF.GenerationSoftware,KiCad,Pcbnew,9.0.2+dfsg-1*
G04 #@! TF.CreationDate,2026-03-26T03:25:10-04:00*
G04 #@! TF.ProjectId,Main_Board,4d61696e-5f42-46f6-9172-642e6b696361,rev?*
G04 #@! TF.SameCoordinates,Original*
G04 #@! TF.FileFunction,Soldermask,Top*
G04 #@! TF.FilePolarity,Negative*
%FSLAX46Y46*%
G04 Gerber Fmt 4.6, Leading zero omitted, Abs format (unit mm)*
G04 Created by KiCad (PCBNEW 9.0.2+dfsg-1) date 2026-03-26 03:25:10*
%MOMM*%
%LPD*%
G01*
G04 APERTURE LIST*
G04 Aperture macros list*
%AMRoundRect*
0 Rectangle with rounded corners*
0 $1 Rounding radius*
0 $2 $3 $4 $5 $6 $7 $8 $9 X,Y pos of 4 corners*
0 Add a 4 corners polygon primitive as box body*
4,1,4,$2,$3,$4,$5,$6,$7,$8,$9,$2,$3,0*
0 Add four circle primitives for the rounded corners*
1,1,$1+$1,$2,$3*
1,1,$1+$1,$4,$5*
1,1,$1+$1,$6,$7*
1,1,$1+$1,$8,$9*
0 Add four rect primitives between the rounded corners*
20,1,$1+$1,$2,$3,$4,$5,0*
20,1,$1+$1,$4,$5,$6,$7,0*
20,1,$1+$1,$6,$7,$8,$9,0*
20,1,$1+$1,$8,$9,$2,$3,0*%
G04 Aperture macros list end*
%ADD10C,5.000000*%
%ADD11RoundRect,0.218750X0.218750X0.381250X-0.218750X0.381250X-0.218750X-0.381250X0.218750X-0.381250X0*%
%ADD12R,1.700000X1.700000*%
%ADD13C,1.700000*%
%ADD14RoundRect,0.102000X-1.525000X-0.508000X1.525000X-0.508000X1.525000X0.508000X-1.525000X0.508000X0*%
%ADD15RoundRect,0.102000X-4.190000X-5.330000X4.190000X-5.330000X4.190000X5.330000X-4.190000X5.330000X0*%
%ADD16C,3.000000*%
%ADD17R,3.000000X3.000000*%
%ADD18RoundRect,0.250000X-0.350000X0.350000X-0.350000X-0.350000X0.350000X-0.350000X0.350000X0.350000X0*%
%ADD19C,1.200000*%
%ADD20RoundRect,0.250000X0.475000X-0.250000X0.475000X0.250000X-0.475000X0.250000X-0.475000X-0.250000X0*%
%ADD21RoundRect,0.200000X0.275000X-0.200000X0.275000X0.200000X-0.275000X0.200000X-0.275000X-0.200000X0*%
%ADD22C,1.734000*%
%ADD23RoundRect,0.102000X0.765000X0.765000X-0.765000X0.765000X-0.765000X-0.765000X0.765000X-0.765000X0*%
%ADD24RoundRect,0.150000X0.512500X0.150000X-0.512500X0.150000X-0.512500X-0.150000X0.512500X-0.150000X0*%
%ADD25RoundRect,0.200000X-0.275000X0.200000X-0.275000X-0.200000X0.275000X-0.200000X0.275000X0.200000X0*%
%ADD26RoundRect,0.100000X-0.900000X-0.400000X0.900000X-0.400000X0.900000X0.400000X-0.900000X0.400000X0*%
%ADD27RoundRect,0.100000X0.400000X-0.900000X0.400000X0.900000X-0.400000X0.900000X-0.400000X-0.900000X0*%
G04 APERTURE END LIST*
D10*
X57450000Y-135200000D03*
X249750000Y-135200000D03*
X249750000Y-54350000D03*
X57450000Y-54350000D03*
D11*
X127162500Y-125550000D03*
X125037500Y-125550000D03*
D12*
X111650000Y-58000000D03*
D13*
X111650000Y-60540000D03*
X111650000Y-63080000D03*
X111650000Y-65620000D03*
X111650000Y-68160000D03*
X111650000Y-70700000D03*
X111650000Y-73240000D03*
X111650000Y-75780000D03*
X97300000Y-120150000D03*
X97300000Y-117610000D03*
X97300000Y-115070000D03*
X97300000Y-112530000D03*
X97300000Y-109990000D03*
X97300000Y-107450000D03*
X97300000Y-104910000D03*
X97300000Y-102370000D03*
X97300000Y-99830000D03*
X97300000Y-97290000D03*
X97300000Y-94750000D03*
X97300000Y-92210000D03*
X97300000Y-89670000D03*
X97300000Y-87130000D03*
X97300000Y-84590000D03*
X97300000Y-82050000D03*
X97300000Y-79510000D03*
X97300000Y-76970000D03*
X97300000Y-74430000D03*
X97300000Y-71890000D03*
X97300000Y-69350000D03*
D12*
X97300000Y-66810000D03*
D13*
X63200000Y-120200000D03*
X63200000Y-117660000D03*
X63200000Y-115120000D03*
X63200000Y-112580000D03*
X63200000Y-110040000D03*
X63200000Y-107500000D03*
X63200000Y-104960000D03*
X63200000Y-102420000D03*
X63200000Y-99880000D03*
X63200000Y-97340000D03*
X63200000Y-94800000D03*
X63200000Y-92260000D03*
X63200000Y-89720000D03*
X63200000Y-87180000D03*
X63200000Y-84640000D03*
X63200000Y-82100000D03*
X63200000Y-79560000D03*
X63200000Y-77020000D03*
X63200000Y-74480000D03*
X63200000Y-71940000D03*
X63200000Y-69400000D03*
D12*
X63200000Y-66860000D03*
X73580000Y-135000000D03*
D13*
X76120000Y-135000000D03*
X78660000Y-135000000D03*
X81200000Y-135000000D03*
X83740000Y-135000000D03*
D14*
X130902500Y-123896000D03*
X130902500Y-125598000D03*
X130902500Y-127300000D03*
X130902500Y-129002000D03*
X130902500Y-130704000D03*
D15*
X141207500Y-127300000D03*
D16*
X103600000Y-135150000D03*
D17*
X98520000Y-135150000D03*
D18*
X116100000Y-127100000D03*
D19*
X116100000Y-128600000D03*
D13*
X171229000Y-78090000D03*
X171229000Y-80630000D03*
X171229000Y-83170000D03*
X171229000Y-85710000D03*
X171229000Y-88250000D03*
X171229000Y-90790000D03*
X171229000Y-93330000D03*
X171229000Y-95870000D03*
X171229000Y-98410000D03*
X171229000Y-100950000D03*
X171229000Y-103490000D03*
X171229000Y-106030000D03*
X171229000Y-108570000D03*
X171229000Y-111110000D03*
X171229000Y-113650000D03*
X171229000Y-116190000D03*
X171229000Y-118730000D03*
X171229000Y-121270000D03*
X231271000Y-121270000D03*
X231271000Y-118730000D03*
X231271000Y-116190000D03*
X231271000Y-113650000D03*
X231271000Y-111110000D03*
X231271000Y-108570000D03*
X231271000Y-106030000D03*
X231271000Y-103490000D03*
X231271000Y-100950000D03*
X231271000Y-98410000D03*
X231271000Y-95870000D03*
X231271000Y-93330000D03*
X231271000Y-90790000D03*
X231271000Y-88250000D03*
X231271000Y-85710000D03*
X231271000Y-83170000D03*
X231271000Y-80630000D03*
X231271000Y-78090000D03*
D10*
X164129000Y-60830000D03*
X238171000Y-60830000D03*
X238171000Y-131570000D03*
X164129000Y-131570000D03*
D20*
X129900000Y-84150000D03*
X129900000Y-82250000D03*
D21*
X122250000Y-130700000D03*
X122250000Y-129050000D03*
D12*
X141650000Y-58000000D03*
D13*
X141650000Y-60540000D03*
X141650000Y-63080000D03*
X141650000Y-65620000D03*
X141650000Y-68160000D03*
X141650000Y-70700000D03*
X141650000Y-73240000D03*
X141650000Y-75780000D03*
D22*
X68690000Y-66900000D03*
X68690000Y-69440000D03*
X68690000Y-71980000D03*
X68690000Y-74520000D03*
X68690000Y-77060000D03*
X68690000Y-79600000D03*
X68690000Y-82140000D03*
X68690000Y-84680000D03*
X68690000Y-87220000D03*
X68690000Y-89760000D03*
X68690000Y-92300000D03*
X68690000Y-94840000D03*
X68690000Y-97380000D03*
X68690000Y-99920000D03*
X68690000Y-102460000D03*
X68690000Y-105000000D03*
X68690000Y-107540000D03*
X68690000Y-110080000D03*
X68690000Y-112620000D03*
X68690000Y-115160000D03*
X68690000Y-117700000D03*
X68690000Y-120240000D03*
X91550000Y-66900000D03*
X91550000Y-69440000D03*
X91550000Y-71980000D03*
X91550000Y-74520000D03*
X91550000Y-77060000D03*
X91550000Y-79600000D03*
X91550000Y-82140000D03*
X91550000Y-84680000D03*
X91550000Y-87220000D03*
X91550000Y-89760000D03*
X91550000Y-92300000D03*
X91550000Y-94840000D03*
X91550000Y-97380000D03*
X91550000Y-99920000D03*
X91550000Y-102460000D03*
X91550000Y-105000000D03*
X91550000Y-107540000D03*
X91550000Y-110080000D03*
X91550000Y-112620000D03*
X91550000Y-115160000D03*
X91550000Y-117700000D03*
D23*
X91550000Y-120240000D03*
D24*
X139025000Y-84200000D03*
X139025000Y-83250000D03*
X139025000Y-82300000D03*
X136750000Y-82300000D03*
X136750000Y-84200000D03*
D25*
X133250000Y-80400000D03*
X133250000Y-82050000D03*
D21*
X122250000Y-127200000D03*
X122250000Y-125550000D03*
D25*
X133250000Y-84200000D03*
X133250000Y-85850000D03*
D26*
X120450000Y-52700000D03*
X120450000Y-54100000D03*
X120450000Y-55500000D03*
X120450000Y-56900000D03*
X120450000Y-58300000D03*
X120450000Y-59700000D03*
X120450000Y-61100000D03*
X120450000Y-62500000D03*
D27*
X121750000Y-64750000D03*
X123150000Y-64750000D03*
X124550000Y-64750000D03*
X125950000Y-64750000D03*
X127350000Y-64750000D03*
X128750000Y-64750000D03*
X130150000Y-64750000D03*
X131550000Y-64750000D03*
D26*
X132850000Y-62500000D03*
X132850000Y-61100000D03*
X132850000Y-59700000D03*
X132850000Y-58300000D03*
X132850000Y-56900000D03*
X132850000Y-55500000D03*
X132850000Y-54100000D03*
X132850000Y-52700000D03*
M02*
