M48
; DRILL file {KiCad 9.0.2+dfsg-1} date 2026-03-26T03:25:24-0400
; FORMAT={-:-/ absolute / metric / decimal}
; #@! TF.CreationDate,2026-03-26T03:25:24-04:00
; #@! TF.GenerationSoftware,Kicad,Pcbnew,9.0.2+dfsg-1
; #@! TF.FileFunction,Plated,1,2,PTH
FMAT,2
METRIC
; #@! TA.AperFunction,Plated,PTH,ViaDrill
T1C0.350
; #@! TA.AperFunction,Plated,PTH,ComponentDrill
T2C0.600
; #@! TA.AperFunction,Plated,PTH,ComponentDrill
T3C1.000
; #@! TA.AperFunction,Plated,PTH,ComponentDrill
T4C1.020
; #@! TA.AperFunction,Plated,PTH,ComponentDrill
T5C1.520
; #@! TA.AperFunction,Plated,PTH,ComponentDrill
T6C2.500
%
G90
G05
T1
X117.8Y-125.55
X120.45Y-125.55
X122.5Y-58.25
X122.5Y-59.7
X122.5Y-61.1
X123.65Y-125.55
X124.4Y-55.05
X126.05Y-132.05
X127.55Y-127.45
X131.2Y-84.2
X131.775Y-84.775
X140.5Y-83.3
T2
X116.1Y-127.1
X116.1Y-128.6
T3
X63.2Y-66.86
X63.2Y-69.4
X63.2Y-71.94
X63.2Y-74.48
X63.2Y-77.02
X63.2Y-79.56
X63.2Y-82.1
X63.2Y-84.64
X63.2Y-87.18
X63.2Y-89.72
X63.2Y-92.26
X63.2Y-94.8
X63.2Y-97.34
X63.2Y-99.88
X63.2Y-102.42
X63.2Y-104.96
X63.2Y-107.5
X63.2Y-110.04
X63.2Y-112.58
X63.2Y-115.12
X63.2Y-117.66
X63.2Y-120.2
X73.58Y-135.0
X76.12Y-135.0
X78.66Y-135.0
X81.2Y-135.0
X83.74Y-135.0
X97.3Y-66.81
X97.3Y-69.35
X97.3Y-71.89
X97.3Y-74.43
X97.3Y-76.97
X97.3Y-79.51
X97.3Y-82.05
X97.3Y-84.59
X97.3Y-87.13
X97.3Y-89.67
X97.3Y-92.21
X97.3Y-94.75
X97.3Y-97.29
X97.3Y-99.83
X97.3Y-102.37
X97.3Y-104.91
X97.3Y-107.45
X97.3Y-109.99
X97.3Y-112.53
X97.3Y-115.07
X97.3Y-117.61
X97.3Y-120.15
X111.65Y-58.0
X111.65Y-60.54
X111.65Y-63.08
X111.65Y-65.62
X111.65Y-68.16
X111.65Y-70.7
X111.65Y-73.24
X111.65Y-75.78
X141.65Y-58.0
X141.65Y-60.54
X141.65Y-63.08
X141.65Y-65.62
X141.65Y-68.16
X141.65Y-70.7
X141.65Y-73.24
X141.65Y-75.78
X171.229Y-78.09
X171.229Y-80.63
X171.229Y-83.17
X171.229Y-85.71
X171.229Y-88.25
X171.229Y-90.79
X171.229Y-93.33
X171.229Y-95.87
X171.229Y-98.41
X171.229Y-100.95
X171.229Y-103.49
X171.229Y-106.03
X171.229Y-108.57
X171.229Y-111.11
X171.229Y-113.65
X171.229Y-116.19
X171.229Y-118.73
X171.229Y-121.27
X231.271Y-78.09
X231.271Y-80.63
X231.271Y-83.17
X231.271Y-85.71
X231.271Y-88.25
X231.271Y-90.79
X231.271Y-93.33
X231.271Y-95.87
X231.271Y-98.41
X231.271Y-100.95
X231.271Y-103.49
X231.271Y-106.03
X231.271Y-108.57
X231.271Y-111.11
X231.271Y-113.65
X231.271Y-116.19
X231.271Y-118.73
X231.271Y-121.27
T4
X68.69Y-66.9
X68.69Y-69.44
X68.69Y-71.98
X68.69Y-74.52
X68.69Y-77.06
X68.69Y-79.6
X68.69Y-82.14
X68.69Y-84.68
X68.69Y-87.22
X68.69Y-89.76
X68.69Y-92.3
X68.69Y-94.84
X68.69Y-97.38
X68.69Y-99.92
X68.69Y-102.46
X68.69Y-105.0
X68.69Y-107.54
X68.69Y-110.08
X68.69Y-112.62
X68.69Y-115.16
X68.69Y-117.7
X68.69Y-120.24
X91.55Y-66.9
X91.55Y-69.44
X91.55Y-71.98
X91.55Y-74.52
X91.55Y-77.06
X91.55Y-79.6
X91.55Y-82.14
X91.55Y-84.68
X91.55Y-87.22
X91.55Y-89.76
X91.55Y-92.3
X91.55Y-94.84
X91.55Y-97.38
X91.55Y-99.92
X91.55Y-102.46
X91.55Y-105.0
X91.55Y-107.54
X91.55Y-110.08
X91.55Y-112.62
X91.55Y-115.16
X91.55Y-117.7
X91.55Y-120.24
T5
X98.52Y-135.15
X103.6Y-135.15
T6
X57.45Y-54.35
X57.45Y-135.2
X164.129Y-60.83
X164.129Y-131.57
X238.171Y-60.83
X238.171Y-131.57
X249.75Y-54.35
X249.75Y-135.2
M30
