G04 #@! TF.GenerationSoftware,KiCad,Pcbnew,9.0.2*
G04 #@! TF.CreationDate,2026-03-23T01:34:51-04:00*
G04 #@! TF.ProjectId,STM32N6_Board,53544d33-324e-4365-9f42-6f6172642e6b,rev?*
G04 #@! TF.SameCoordinates,Original*
G04 #@! TF.FileFunction,Paste,Top*
G04 #@! TF.FilePolarity,Positive*
%FSLAX46Y46*%
G04 Gerber Fmt 4.6, Leading zero omitted, Abs format (unit mm)*
G04 Created by KiCad (PCBNEW 9.0.2) date 2026-03-23 01:34:51*
%MOMM*%
%LPD*%
G01*
G04 APERTURE LIST*
G04 Aperture macros list*
%AMRoundRect*
0 Rectangle with rounded corners*
0 $1 Rounding radius*
0 $2 $3 $4 $5 $6 $7 $8 $9 X,Y pos of 4 corners*
0 Add a 4 corners polygon primitive as box body*
4,1,4,$2,$3,$4,$5,$6,$7,$8,$9,$2,$3,0*
0 Add four circle primitives for the rounded corners*
1,1,$1+$1,$2,$3*
1,1,$1+$1,$4,$5*
1,1,$1+$1,$6,$7*
1,1,$1+$1,$8,$9*
0 Add four rect primitives between the rounded corners*
20,1,$1+$1,$2,$3,$4,$5,0*
20,1,$1+$1,$4,$5,$6,$7,0*
20,1,$1+$1,$6,$7,$8,$9,0*
20,1,$1+$1,$8,$9,$2,$3,0*%
G04 Aperture macros list end*
%ADD10RoundRect,0.135000X-0.185000X0.135000X-0.185000X-0.135000X0.185000X-0.135000X0.185000X0.135000X0*%
%ADD11RoundRect,0.250000X0.475000X-0.337500X0.475000X0.337500X-0.475000X0.337500X-0.475000X-0.337500X0*%
%ADD12RoundRect,0.150000X0.150000X-0.512500X0.150000X0.512500X-0.150000X0.512500X-0.150000X-0.512500X0*%
%ADD13RoundRect,0.155000X0.040659X0.259862X-0.259862X-0.040659X-0.040659X-0.259862X0.259862X0.040659X0*%
%ADD14RoundRect,0.100000X-0.100000X0.125000X-0.100000X-0.125000X0.100000X-0.125000X0.100000X0.125000X0*%
%ADD15RoundRect,0.250000X0.450000X-0.325000X0.450000X0.325000X-0.450000X0.325000X-0.450000X-0.325000X0*%
%ADD16RoundRect,0.250000X-0.350000X-0.450000X0.350000X-0.450000X0.350000X0.450000X-0.350000X0.450000X0*%
%ADD17RoundRect,0.140000X-0.170000X0.140000X-0.170000X-0.140000X0.170000X-0.140000X0.170000X0.140000X0*%
%ADD18RoundRect,0.135000X0.135000X0.185000X-0.135000X0.185000X-0.135000X-0.185000X0.135000X-0.185000X0*%
%ADD19RoundRect,0.250000X-0.450000X0.350000X-0.450000X-0.350000X0.450000X-0.350000X0.450000X0.350000X0*%
%ADD20RoundRect,0.135000X0.185000X-0.135000X0.185000X0.135000X-0.185000X0.135000X-0.185000X-0.135000X0*%
%ADD21RoundRect,0.250001X-0.624999X0.462499X-0.624999X-0.462499X0.624999X-0.462499X0.624999X0.462499X0*%
%ADD22RoundRect,0.140000X-0.140000X-0.170000X0.140000X-0.170000X0.140000X0.170000X-0.140000X0.170000X0*%
%ADD23RoundRect,0.100000X0.100000X-0.125000X0.100000X0.125000X-0.100000X0.125000X-0.100000X-0.125000X0*%
%ADD24RoundRect,0.140000X0.170000X-0.140000X0.170000X0.140000X-0.170000X0.140000X-0.170000X-0.140000X0*%
%ADD25RoundRect,0.155000X-0.259862X0.040659X0.040659X-0.259862X0.259862X-0.040659X-0.040659X0.259862X0*%
%ADD26RoundRect,0.250000X0.325000X0.450000X-0.325000X0.450000X-0.325000X-0.450000X0.325000X-0.450000X0*%
%ADD27RoundRect,0.062500X0.062500X-0.350000X0.062500X0.350000X-0.062500X0.350000X-0.062500X-0.350000X0*%
%ADD28RoundRect,0.237500X0.287500X0.237500X-0.287500X0.237500X-0.287500X-0.237500X0.287500X-0.237500X0*%
%ADD29C,0.400000*%
%ADD30RoundRect,0.135000X-0.135000X-0.185000X0.135000X-0.185000X0.135000X0.185000X-0.135000X0.185000X0*%
%ADD31RoundRect,0.237500X-0.287500X-0.237500X0.287500X-0.237500X0.287500X0.237500X-0.287500X0.237500X0*%
%ADD32RoundRect,0.250000X-0.450000X0.325000X-0.450000X-0.325000X0.450000X-0.325000X0.450000X0.325000X0*%
%ADD33RoundRect,0.140000X0.140000X0.170000X-0.140000X0.170000X-0.140000X-0.170000X0.140000X-0.170000X0*%
%ADD34RoundRect,0.212500X0.335876X-0.035355X-0.035355X0.335876X-0.335876X0.035355X0.035355X-0.335876X0*%
%ADD35R,0.600000X2.000000*%
%ADD36R,0.700000X4.200000*%
%ADD37R,1.600000X1.400000*%
%ADD38R,0.600000X1.150000*%
%ADD39R,0.300000X1.150000*%
%ADD40RoundRect,0.237500X-0.237500X0.287500X-0.237500X-0.287500X0.237500X-0.287500X0.237500X0.287500X0*%
%ADD41C,0.370000*%
%ADD42RoundRect,0.250000X0.337500X0.475000X-0.337500X0.475000X-0.337500X-0.475000X0.337500X-0.475000X0*%
G04 APERTURE END LIST*
D10*
X196114000Y-112281000D03*
X196114000Y-113301000D03*
D11*
X180950000Y-101537500D03*
X180950000Y-99462500D03*
D12*
X172100000Y-101575000D03*
X173050000Y-101575000D03*
X174000000Y-101575000D03*
X174000000Y-99300000D03*
X172100000Y-99300000D03*
D13*
X202151283Y-132498717D03*
X201348717Y-133301283D03*
D14*
X157900000Y-146105000D03*
X157100000Y-146105000D03*
X157500000Y-147255000D03*
D12*
X172137500Y-90987500D03*
X173087500Y-90987500D03*
X174037500Y-90987500D03*
X174037500Y-88712500D03*
X172137500Y-88712500D03*
D15*
X198750000Y-151875000D03*
X198750000Y-149825000D03*
D16*
X184420000Y-95482500D03*
X186420000Y-95482500D03*
D17*
X182750000Y-133840000D03*
X182750000Y-134800000D03*
X183850000Y-133840000D03*
X183850000Y-134800000D03*
D18*
X158670000Y-124200000D03*
X157650000Y-124200000D03*
D19*
X178550000Y-153150000D03*
X178550000Y-155150000D03*
D11*
X193950000Y-90637500D03*
X193950000Y-88562500D03*
D20*
X203802000Y-105400000D03*
X203802000Y-104380000D03*
D16*
X167402000Y-95482500D03*
X169402000Y-95482500D03*
D14*
X222900000Y-146105000D03*
X222100000Y-146105000D03*
X222500000Y-147255000D03*
D21*
X210600000Y-122162500D03*
X210600000Y-125137500D03*
D22*
X209516000Y-128936000D03*
X210476000Y-128936000D03*
D20*
X191800000Y-113950000D03*
X191800000Y-112930000D03*
D23*
X222100000Y-96575000D03*
X222900000Y-96575000D03*
X222500000Y-95425000D03*
D24*
X201000000Y-114780000D03*
X201000000Y-113820000D03*
D12*
X197150000Y-147537500D03*
X198100000Y-147537500D03*
X199050000Y-147537500D03*
X199050000Y-145262500D03*
X197150000Y-145262500D03*
D22*
X209516000Y-127842000D03*
X210476000Y-127842000D03*
D16*
X179848000Y-95482500D03*
X181848000Y-95482500D03*
D20*
X199484000Y-105402000D03*
X199484000Y-104382000D03*
D12*
X197700000Y-90837500D03*
X198650000Y-90837500D03*
X199600000Y-90837500D03*
X199600000Y-88562500D03*
X197700000Y-88562500D03*
D25*
X198448717Y-132348717D03*
X199251283Y-133151283D03*
D26*
X177175000Y-109800000D03*
X175125000Y-109800000D03*
D27*
X202750000Y-108500000D03*
X203250000Y-108500000D03*
X203750000Y-108500000D03*
X203750000Y-107125000D03*
X203250000Y-107125000D03*
X202750000Y-107125000D03*
D16*
X171990000Y-84328000D03*
X173990000Y-84328000D03*
D27*
X199550000Y-108500000D03*
X200050000Y-108500000D03*
X200550000Y-108500000D03*
X200550000Y-107125000D03*
X200050000Y-107125000D03*
X199550000Y-107125000D03*
D11*
X180900000Y-90137500D03*
X180900000Y-88062500D03*
D22*
X209516000Y-130150000D03*
X210476000Y-130150000D03*
D16*
X179862000Y-84328000D03*
X181862000Y-84328000D03*
D27*
X191650000Y-147650000D03*
X192150000Y-147650000D03*
X192650000Y-147650000D03*
X192650000Y-146275000D03*
X192150000Y-146275000D03*
X191650000Y-146275000D03*
D28*
X203975000Y-90650000D03*
X202225000Y-90650000D03*
D16*
X167402000Y-84328000D03*
X169402000Y-84328000D03*
X197628000Y-84328000D03*
X199628000Y-84328000D03*
D11*
X178550000Y-150113000D03*
X178550000Y-148038000D03*
D29*
X176100000Y-124800000D03*
X176900000Y-124800000D03*
X177700000Y-124800000D03*
X180900000Y-124800000D03*
X181700000Y-124800000D03*
X182500000Y-124800000D03*
X176100000Y-125600000D03*
X176900000Y-125600000D03*
X177700000Y-125600000D03*
X180900000Y-125600000D03*
X181700000Y-125600000D03*
X182500000Y-125600000D03*
X176100000Y-126400000D03*
X176900000Y-126400000D03*
X177700000Y-126400000D03*
X180900000Y-126400000D03*
X181700000Y-126400000D03*
X182500000Y-126400000D03*
X176100000Y-127200000D03*
X176900000Y-127200000D03*
X177700000Y-127200000D03*
X180900000Y-127200000D03*
X181700000Y-127200000D03*
X182500000Y-127200000D03*
X176100000Y-128000000D03*
X176900000Y-128000000D03*
X177700000Y-128000000D03*
X180900000Y-128000000D03*
X181700000Y-128000000D03*
X182500000Y-128000000D03*
X176100000Y-128800000D03*
X176900000Y-128800000D03*
X177700000Y-128800000D03*
X180900000Y-128800000D03*
X181700000Y-128800000D03*
X182500000Y-128800000D03*
X176100000Y-129600000D03*
X176900000Y-129600000D03*
X177700000Y-129600000D03*
X180900000Y-129600000D03*
X181700000Y-129600000D03*
X182500000Y-129600000D03*
X176100000Y-130400000D03*
X176900000Y-130400000D03*
X177700000Y-130400000D03*
X180900000Y-130400000D03*
X181700000Y-130400000D03*
X182500000Y-130400000D03*
X176100000Y-131200000D03*
X176900000Y-131200000D03*
X177700000Y-131200000D03*
X180900000Y-131200000D03*
X181700000Y-131200000D03*
X182500000Y-131200000D03*
D20*
X202532000Y-105402000D03*
X202532000Y-104382000D03*
D30*
X221380000Y-124200000D03*
X222400000Y-124200000D03*
D22*
X209516000Y-126750000D03*
X210476000Y-126750000D03*
D31*
X203725000Y-130200000D03*
X205475000Y-130200000D03*
D30*
X221380000Y-126740000D03*
X222400000Y-126740000D03*
D11*
X168500000Y-101237500D03*
X168500000Y-99162500D03*
D30*
X205950000Y-114850000D03*
X206970000Y-114850000D03*
D20*
X200754000Y-105400000D03*
X200754000Y-104380000D03*
D16*
X184434000Y-84328000D03*
X186434000Y-84328000D03*
D32*
X195000000Y-145375000D03*
X195000000Y-147425000D03*
D33*
X208250000Y-124900000D03*
X207290000Y-124900000D03*
D11*
X168300000Y-90937500D03*
X168300000Y-88862500D03*
D12*
X184350000Y-101737500D03*
X185300000Y-101737500D03*
X186250000Y-101737500D03*
X186250000Y-99462500D03*
X184350000Y-99462500D03*
D34*
X201169239Y-131506066D03*
X200143934Y-130480761D03*
X199330761Y-131293934D03*
X200356066Y-132319239D03*
D35*
X207550000Y-102150000D03*
X206550000Y-102150000D03*
X205550000Y-102150000D03*
X204550000Y-102150000D03*
X203550000Y-102150000D03*
X202550000Y-102150000D03*
X201550000Y-102150000D03*
X200550000Y-102150000D03*
X199550000Y-102150000D03*
X198550000Y-102150000D03*
X197550000Y-102150000D03*
X196550000Y-102150000D03*
X195550000Y-102150000D03*
X194550000Y-102150000D03*
X193550000Y-102150000D03*
D36*
X208550000Y-100050000D03*
X192550000Y-100050000D03*
D18*
X158670000Y-126740000D03*
X157650000Y-126740000D03*
X190079250Y-145891000D03*
X189059250Y-145891000D03*
D29*
X205200000Y-127700000D03*
X204400000Y-127700000D03*
X203600000Y-127700000D03*
X202800000Y-127700000D03*
X202000000Y-127700000D03*
X201200000Y-127700000D03*
X200400000Y-127700000D03*
X199600000Y-127700000D03*
X198800000Y-127700000D03*
X198000000Y-127700000D03*
X197200000Y-127700000D03*
X196400000Y-127700000D03*
X195600000Y-127700000D03*
X194800000Y-127700000D03*
X205200000Y-126900000D03*
X204400000Y-126900000D03*
X203600000Y-126900000D03*
X202800000Y-126900000D03*
X202000000Y-126900000D03*
X201200000Y-126900000D03*
X200400000Y-126900000D03*
X199600000Y-126900000D03*
X198800000Y-126900000D03*
X198000000Y-126900000D03*
X197200000Y-126900000D03*
X196400000Y-126900000D03*
X195600000Y-126900000D03*
X194800000Y-126900000D03*
X205200000Y-126100000D03*
X204400000Y-126100000D03*
X203600000Y-126100000D03*
X202800000Y-126100000D03*
X202000000Y-126100000D03*
X201200000Y-126100000D03*
X200400000Y-126100000D03*
X199600000Y-126100000D03*
X198800000Y-126100000D03*
X198000000Y-126100000D03*
X197200000Y-126100000D03*
X196400000Y-126100000D03*
X195600000Y-126100000D03*
X194800000Y-126100000D03*
X205200000Y-125300000D03*
X204400000Y-125300000D03*
X203600000Y-125300000D03*
X202800000Y-125300000D03*
X202000000Y-125300000D03*
X201200000Y-125300000D03*
X200400000Y-125300000D03*
X199600000Y-125300000D03*
X198800000Y-125300000D03*
X198000000Y-125300000D03*
X197200000Y-125300000D03*
X196400000Y-125300000D03*
X195600000Y-125300000D03*
X194800000Y-125300000D03*
X205200000Y-124500000D03*
X204400000Y-124500000D03*
X203600000Y-124500000D03*
X202800000Y-124500000D03*
X202000000Y-124500000D03*
X201200000Y-124500000D03*
X200400000Y-124500000D03*
X199600000Y-124500000D03*
X198800000Y-124500000D03*
X198000000Y-124500000D03*
X197200000Y-124500000D03*
X196400000Y-124500000D03*
X195600000Y-124500000D03*
X194800000Y-124500000D03*
X205200000Y-123700000D03*
X204400000Y-123700000D03*
X203600000Y-123700000D03*
X202800000Y-123700000D03*
X202000000Y-123700000D03*
X198000000Y-123700000D03*
X197200000Y-123700000D03*
X196400000Y-123700000D03*
X195600000Y-123700000D03*
X194800000Y-123700000D03*
X205200000Y-122900000D03*
X204400000Y-122900000D03*
X203600000Y-122900000D03*
X202800000Y-122900000D03*
X198000000Y-122900000D03*
X197200000Y-122900000D03*
X196400000Y-122900000D03*
X195600000Y-122900000D03*
X194800000Y-122900000D03*
X205200000Y-122100000D03*
X204400000Y-122100000D03*
X203600000Y-122100000D03*
X202800000Y-122100000D03*
X198000000Y-122100000D03*
X197200000Y-122100000D03*
X196400000Y-122100000D03*
X195600000Y-122100000D03*
X194800000Y-122100000D03*
X205200000Y-121300000D03*
X204400000Y-121300000D03*
X203600000Y-121300000D03*
X202800000Y-121300000D03*
X202000000Y-121300000D03*
X198000000Y-121300000D03*
X197200000Y-121300000D03*
X196400000Y-121300000D03*
X195600000Y-121300000D03*
X194800000Y-121300000D03*
X205200000Y-120500000D03*
X204400000Y-120500000D03*
X203600000Y-120500000D03*
X202800000Y-120500000D03*
X202000000Y-120500000D03*
X201200000Y-120500000D03*
X200400000Y-120500000D03*
X199600000Y-120500000D03*
X198800000Y-120500000D03*
X198000000Y-120500000D03*
X197200000Y-120500000D03*
X196400000Y-120500000D03*
X195600000Y-120500000D03*
X194800000Y-120500000D03*
X205200000Y-119700000D03*
X204400000Y-119700000D03*
X203600000Y-119700000D03*
X202800000Y-119700000D03*
X202000000Y-119700000D03*
X201200000Y-119700000D03*
X200400000Y-119700000D03*
X199600000Y-119700000D03*
X198800000Y-119700000D03*
X198000000Y-119700000D03*
X197200000Y-119700000D03*
X196400000Y-119700000D03*
X195600000Y-119700000D03*
X194800000Y-119700000D03*
X205200000Y-118900000D03*
X204400000Y-118900000D03*
X203600000Y-118900000D03*
X202800000Y-118900000D03*
X202000000Y-118900000D03*
X201200000Y-118900000D03*
X200400000Y-118900000D03*
X199600000Y-118900000D03*
X198800000Y-118900000D03*
X198000000Y-118900000D03*
X197200000Y-118900000D03*
X196400000Y-118900000D03*
X195600000Y-118900000D03*
X194800000Y-118900000D03*
X205200000Y-118100000D03*
X204400000Y-118100000D03*
X203600000Y-118100000D03*
X202800000Y-118100000D03*
X202000000Y-118100000D03*
X201200000Y-118100000D03*
X200400000Y-118100000D03*
X199600000Y-118100000D03*
X198800000Y-118100000D03*
X198000000Y-118100000D03*
X197200000Y-118100000D03*
X196400000Y-118100000D03*
X195600000Y-118100000D03*
X194800000Y-118100000D03*
X205200000Y-117300000D03*
X204400000Y-117300000D03*
X203600000Y-117300000D03*
X202800000Y-117300000D03*
X202000000Y-117300000D03*
X201200000Y-117300000D03*
X200400000Y-117300000D03*
X199600000Y-117300000D03*
X198800000Y-117300000D03*
X198000000Y-117300000D03*
X197200000Y-117300000D03*
X196400000Y-117300000D03*
X195600000Y-117300000D03*
X194800000Y-117300000D03*
D23*
X157100000Y-96575000D03*
X157900000Y-96575000D03*
X157500000Y-95425000D03*
D37*
X165978000Y-149126000D03*
X173978000Y-149126000D03*
X165978000Y-153626000D03*
X173978000Y-153626000D03*
D16*
X171974000Y-95482500D03*
X173974000Y-95482500D03*
D12*
X184600000Y-90437500D03*
X185550000Y-90437500D03*
X186500000Y-90437500D03*
X186500000Y-88162500D03*
X184600000Y-88162500D03*
D18*
X190600000Y-113950000D03*
X189580000Y-113950000D03*
D38*
X187050000Y-150880000D03*
X187850000Y-150880000D03*
D39*
X189000000Y-150880000D03*
X190000000Y-150880000D03*
X190500000Y-150880000D03*
X191500000Y-150880000D03*
D38*
X193450000Y-150880000D03*
X192650000Y-150880000D03*
D39*
X192000000Y-150880000D03*
X191000000Y-150880000D03*
X189500000Y-150880000D03*
X188500000Y-150880000D03*
D40*
X198400000Y-111900000D03*
X198400000Y-113650000D03*
D16*
X193040000Y-84328000D03*
X195040000Y-84328000D03*
D18*
X203710000Y-89150000D03*
X202690000Y-89150000D03*
D41*
X181356000Y-114808000D03*
X181356000Y-115808000D03*
X181356000Y-116808000D03*
X181356000Y-117808000D03*
X180356000Y-113808000D03*
X180356000Y-114808000D03*
X180356000Y-115808000D03*
X180356000Y-116808000D03*
X180356000Y-117808000D03*
X179356000Y-113808000D03*
X179356000Y-114808000D03*
X179356000Y-115808000D03*
X179356000Y-116808000D03*
X179356000Y-117808000D03*
X178356000Y-113808000D03*
X178356000Y-114808000D03*
X178356000Y-115808000D03*
X178356000Y-116808000D03*
X178356000Y-117808000D03*
X177356000Y-113808000D03*
X177356000Y-114808000D03*
X177356000Y-115808000D03*
X177356000Y-116808000D03*
X177356000Y-117808000D03*
D42*
X161787500Y-92100000D03*
X159712500Y-92100000D03*
M02*
