G04 #@! TF.GenerationSoftware,KiCad,Pcbnew,9.0.2*
G04 #@! TF.CreationDate,2026-03-23T01:34:51-04:00*
G04 #@! TF.ProjectId,STM32N6_Board,53544d33-324e-4365-9f42-6f6172642e6b,rev?*
G04 #@! TF.SameCoordinates,Original*
G04 #@! TF.FileFunction,Soldermask,Bot*
G04 #@! TF.FilePolarity,Negative*
%FSLAX46Y46*%
G04 Gerber Fmt 4.6, Leading zero omitted, Abs format (unit mm)*
G04 Created by KiCad (PCBNEW 9.0.2) date 2026-03-23 01:34:51*
%MOMM*%
%LPD*%
G01*
G04 APERTURE LIST*
G04 Aperture macros list*
%AMRoundRect*
0 Rectangle with rounded corners*
0 $1 Rounding radius*
0 $2 $3 $4 $5 $6 $7 $8 $9 X,Y pos of 4 corners*
0 Add a 4 corners polygon primitive as box body*
4,1,4,$2,$3,$4,$5,$6,$7,$8,$9,$2,$3,0*
0 Add four circle primitives for the rounded corners*
1,1,$1+$1,$2,$3*
1,1,$1+$1,$4,$5*
1,1,$1+$1,$6,$7*
1,1,$1+$1,$8,$9*
0 Add four rect primitives between the rounded corners*
20,1,$1+$1,$2,$3,$4,$5,0*
20,1,$1+$1,$4,$5,$6,$7,0*
20,1,$1+$1,$6,$7,$8,$9,0*
20,1,$1+$1,$8,$9,$2,$3,0*%
G04 Aperture macros list end*
%ADD10R,1.700000X1.700000*%
%ADD11C,1.700000*%
%ADD12C,5.000000*%
%ADD13C,0.650000*%
%ADD14O,1.204000X2.004000*%
%ADD15O,1.204000X2.304000*%
%ADD16RoundRect,0.250001X0.624999X-0.462499X0.624999X0.462499X-0.624999X0.462499X-0.624999X-0.462499X0*%
%ADD17RoundRect,0.140000X-0.140000X-0.170000X0.140000X-0.170000X0.140000X0.170000X-0.140000X0.170000X0*%
%ADD18RoundRect,0.140000X0.170000X-0.140000X0.170000X0.140000X-0.170000X0.140000X-0.170000X-0.140000X0*%
%ADD19RoundRect,0.062500X0.062500X-0.350000X0.062500X0.350000X-0.062500X0.350000X-0.062500X-0.350000X0*%
%ADD20RoundRect,0.140000X0.140000X0.170000X-0.140000X0.170000X-0.140000X-0.170000X0.140000X-0.170000X0*%
%ADD21RoundRect,0.250000X-0.350000X-0.450000X0.350000X-0.450000X0.350000X0.450000X-0.350000X0.450000X0*%
%ADD22RoundRect,0.140000X-0.170000X0.140000X-0.170000X-0.140000X0.170000X-0.140000X0.170000X0.140000X0*%
%ADD23RoundRect,0.238095X-0.461905X0.261905X-0.461905X-0.261905X0.461905X-0.261905X0.461905X0.261905X0*%
%ADD24RoundRect,0.135000X0.185000X-0.135000X0.185000X0.135000X-0.185000X0.135000X-0.185000X-0.135000X0*%
%ADD25RoundRect,0.140000X-0.219203X-0.021213X-0.021213X-0.219203X0.219203X0.021213X0.021213X0.219203X0*%
%ADD26RoundRect,0.135000X-0.185000X0.135000X-0.185000X-0.135000X0.185000X-0.135000X0.185000X0.135000X0*%
%ADD27RoundRect,0.250000X-0.337500X-0.475000X0.337500X-0.475000X0.337500X0.475000X-0.337500X0.475000X0*%
%ADD28RoundRect,0.135000X-0.135000X-0.185000X0.135000X-0.185000X0.135000X0.185000X-0.135000X0.185000X0*%
%ADD29RoundRect,0.155000X-0.212500X-0.155000X0.212500X-0.155000X0.212500X0.155000X-0.212500X0.155000X0*%
%ADD30RoundRect,0.250000X-0.450000X0.350000X-0.450000X-0.350000X0.450000X-0.350000X0.450000X0.350000X0*%
%ADD31RoundRect,0.250000X-0.475000X0.337500X-0.475000X-0.337500X0.475000X-0.337500X0.475000X0.337500X0*%
%ADD32RoundRect,0.135000X0.135000X0.185000X-0.135000X0.185000X-0.135000X-0.185000X0.135000X-0.185000X0*%
%ADD33RoundRect,0.102000X0.750000X-1.060000X0.750000X1.060000X-0.750000X1.060000X-0.750000X-1.060000X0*%
%ADD34RoundRect,0.140000X0.219203X0.021213X0.021213X0.219203X-0.219203X-0.021213X-0.021213X-0.219203X0*%
%ADD35RoundRect,0.150000X-0.725000X-0.150000X0.725000X-0.150000X0.725000X0.150000X-0.725000X0.150000X0*%
G04 APERTURE END LIST*
D10*
X186920000Y-105910000D03*
D11*
X189460000Y-105910000D03*
X192000000Y-105910000D03*
D12*
X226886000Y-153480000D03*
D10*
X155000000Y-100000000D03*
D11*
X155000000Y-102540000D03*
X155000000Y-105080000D03*
X155000000Y-107620000D03*
X155000000Y-110160000D03*
X155000000Y-112700000D03*
X155000000Y-115240000D03*
X155000000Y-117780000D03*
X155000000Y-120320000D03*
X155000000Y-122860000D03*
X155000000Y-125400000D03*
X155000000Y-127940000D03*
X155000000Y-130480000D03*
X155000000Y-133020000D03*
X155000000Y-135560000D03*
X155000000Y-138100000D03*
X155000000Y-140640000D03*
X155000000Y-143180000D03*
D10*
X186920000Y-110500000D03*
D11*
X189460000Y-110500000D03*
X192000000Y-110500000D03*
D10*
X225000000Y-100000000D03*
D11*
X225000000Y-102540000D03*
X225000000Y-105080000D03*
X225000000Y-107620000D03*
X225000000Y-110160000D03*
X225000000Y-112700000D03*
X225000000Y-115240000D03*
X225000000Y-117780000D03*
X225000000Y-120320000D03*
X225000000Y-122860000D03*
X225000000Y-125400000D03*
X225000000Y-127940000D03*
X225000000Y-130480000D03*
X225000000Y-133020000D03*
X225000000Y-135560000D03*
X225000000Y-138100000D03*
X225000000Y-140640000D03*
X225000000Y-143180000D03*
D10*
X215000000Y-100000000D03*
D11*
X215000000Y-102540000D03*
X215000000Y-105080000D03*
X215000000Y-107620000D03*
X215000000Y-110160000D03*
D10*
X212400000Y-116000000D03*
D11*
X209860000Y-116000000D03*
D12*
X152844000Y-82740000D03*
X226886000Y-82740000D03*
X152844000Y-153480000D03*
D10*
X168350000Y-143150000D03*
D11*
X168350000Y-140610000D03*
X168350000Y-138070000D03*
X168350000Y-135530000D03*
X168350000Y-132990000D03*
X168350000Y-130450000D03*
X168350000Y-127910000D03*
X168350000Y-125370000D03*
D13*
X187360000Y-151945000D03*
X193140000Y-151945000D03*
D14*
X185930000Y-155625000D03*
X194570000Y-155625000D03*
D15*
X185930000Y-151445000D03*
X194570000Y-151445000D03*
D16*
X212000000Y-124237500D03*
X212000000Y-121262500D03*
D17*
X206290000Y-129250000D03*
X207250000Y-129250000D03*
D18*
X193850000Y-123400000D03*
X193850000Y-122440000D03*
D17*
X205570000Y-119649999D03*
X206530000Y-119650001D03*
D19*
X206750000Y-108500000D03*
X206250000Y-108500000D03*
X205750000Y-108500000D03*
X205750000Y-107125000D03*
X206250000Y-107125000D03*
X206750000Y-107125000D03*
D20*
X177360000Y-126200000D03*
X176400000Y-126200000D03*
D21*
X199930000Y-81436000D03*
X201930000Y-81436000D03*
D20*
X179880000Y-118650000D03*
X178920000Y-118650000D03*
X179780000Y-127750000D03*
X178820000Y-127750000D03*
D22*
X176150000Y-116820000D03*
X176150000Y-117780000D03*
D17*
X178870000Y-112050000D03*
X179830000Y-112050000D03*
X199590000Y-122100000D03*
X200550000Y-122100000D03*
D10*
X160000000Y-100000000D03*
D11*
X160000000Y-102540000D03*
X160000000Y-105080000D03*
X160000000Y-107620000D03*
X160000000Y-110160000D03*
X160000000Y-112700000D03*
X160000000Y-115240000D03*
X160000000Y-117780000D03*
X160000000Y-120320000D03*
X160000000Y-122860000D03*
X160000000Y-125400000D03*
X160000000Y-127940000D03*
X160000000Y-130480000D03*
X160000000Y-133020000D03*
X160000000Y-135560000D03*
X160000000Y-138100000D03*
X160000000Y-140640000D03*
X160000000Y-143180000D03*
D20*
X179780000Y-124750000D03*
X178820000Y-124750000D03*
D23*
X207182368Y-126250000D03*
X207182368Y-127750000D03*
D20*
X179880000Y-119650000D03*
X178920000Y-119650000D03*
X177360000Y-125200000D03*
X176400000Y-125200000D03*
D18*
X203962000Y-87828000D03*
X203962000Y-86868000D03*
D17*
X201550000Y-122000000D03*
X202510000Y-122000000D03*
D22*
X210100000Y-122290000D03*
X210100000Y-123250000D03*
D18*
X181250000Y-127630000D03*
X181250000Y-126670000D03*
D17*
X201550000Y-123050000D03*
X202510000Y-123050000D03*
D22*
X205900000Y-122640000D03*
X205900000Y-123600000D03*
D24*
X205580000Y-105400000D03*
X205580000Y-104380000D03*
D25*
X202210589Y-117360589D03*
X202889411Y-118039411D03*
D18*
X205900000Y-121610000D03*
X205900000Y-120650000D03*
D26*
X182600000Y-116930000D03*
X182600000Y-117950000D03*
D27*
X197925000Y-94150000D03*
X200000000Y-94150000D03*
D18*
X206704000Y-117920666D03*
X206704000Y-116960666D03*
X179400000Y-122450000D03*
X179400000Y-121490000D03*
D16*
X199644000Y-87847500D03*
X199644000Y-84872500D03*
D28*
X204140000Y-130200000D03*
X205160000Y-130200000D03*
D20*
X203962000Y-84836000D03*
X203002000Y-84836000D03*
D18*
X194950000Y-123400000D03*
X194950000Y-122440000D03*
D26*
X190928000Y-152640000D03*
X190928000Y-153660000D03*
D17*
X201550000Y-120950000D03*
X202510000Y-120950000D03*
D29*
X208882500Y-126250000D03*
X210017500Y-126250000D03*
D30*
X216408000Y-85630000D03*
X216408000Y-87630000D03*
D20*
X179780000Y-125750000D03*
X178820000Y-125750000D03*
D31*
X199700000Y-128412500D03*
X199700000Y-130487500D03*
D32*
X182120000Y-118950000D03*
X181100000Y-118950000D03*
D20*
X177360000Y-128200000D03*
X176400000Y-128200000D03*
D17*
X203970000Y-124450000D03*
X204930000Y-124450000D03*
D16*
X215450000Y-124237500D03*
X215450000Y-121262500D03*
D33*
X194580000Y-85935000D03*
X194580000Y-81705000D03*
D18*
X208100000Y-121610000D03*
X208100000Y-120650000D03*
D17*
X204690000Y-118550000D03*
X205650000Y-118550000D03*
D34*
X196650000Y-121000000D03*
X195971178Y-120321178D03*
D20*
X179780000Y-126750000D03*
X178820000Y-126750000D03*
D17*
X199570000Y-121100000D03*
X200530000Y-121100000D03*
D22*
X175150000Y-116820000D03*
X175150000Y-117780000D03*
D18*
X207000000Y-121610000D03*
X207000000Y-120650000D03*
D20*
X177360000Y-127200000D03*
X176400000Y-127200000D03*
D18*
X201500000Y-119980000D03*
X201500000Y-119020000D03*
X207750000Y-117920666D03*
X207750000Y-116960666D03*
D22*
X208100000Y-122640000D03*
X208100000Y-123600000D03*
X207000000Y-122640000D03*
X207000000Y-123600000D03*
D24*
X206650000Y-105400000D03*
X206650000Y-104380000D03*
D35*
X207229000Y-88519000D03*
X207229000Y-87249000D03*
X207229000Y-85979000D03*
X207229000Y-84709000D03*
X212379000Y-84709000D03*
X212379000Y-85979000D03*
X212379000Y-87249000D03*
X212379000Y-88519000D03*
D17*
X178870000Y-111050000D03*
X179830000Y-111050000D03*
D18*
X198600000Y-123050000D03*
X198600000Y-122090000D03*
D10*
X220000000Y-100000000D03*
D11*
X220000000Y-102540000D03*
X220000000Y-105080000D03*
X220000000Y-107620000D03*
X220000000Y-110160000D03*
X220000000Y-112700000D03*
X220000000Y-115240000D03*
X220000000Y-117780000D03*
X220000000Y-120320000D03*
X220000000Y-122860000D03*
X220000000Y-125400000D03*
X220000000Y-127940000D03*
X220000000Y-130480000D03*
X220000000Y-133020000D03*
X220000000Y-135560000D03*
X220000000Y-138100000D03*
X220000000Y-140640000D03*
X220000000Y-143180000D03*
D18*
X180500000Y-122450000D03*
X180500000Y-121490000D03*
D26*
X203000000Y-129950000D03*
X203000000Y-130970000D03*
X189150000Y-152640000D03*
X189150000Y-153660000D03*
D17*
X199590000Y-123200000D03*
X200550000Y-123200000D03*
D21*
X204756000Y-81534000D03*
X206756000Y-81534000D03*
D18*
X198350000Y-121010000D03*
X198350000Y-120050000D03*
D29*
X208932500Y-127800000D03*
X210067500Y-127800000D03*
D20*
X179780000Y-123750000D03*
X178820000Y-123750000D03*
M02*
