M48
; DRILL file {KiCad 9.0.2} date 2026-03-23T01:35:30-0400
; FORMAT={-:-/ absolute / metric / decimal}
; #@! TF.CreationDate,2026-03-23T01:35:30-04:00
; #@! TF.GenerationSoftware,Kicad,Pcbnew,9.0.2
; #@! TF.FileFunction,Plated,1,6,PTH
FMAT,2
METRIC
; #@! TA.AperFunction,Plated,PTH,ViaDrill
T1C0.200
; #@! TA.AperFunction,Plated,PTH,ViaDrill
T2C0.300
; #@! TA.AperFunction,Plated,PTH,ComponentDrill
T3C0.600
; #@! TA.AperFunction,Plated,PTH,ComponentDrill
T4C1.000
; #@! TA.AperFunction,Plated,PTH,ComponentDrill
T5C2.500
%
G90
G05
T1
X151.25Y-124.2
X151.25Y-126.74
X157.4Y-92.1
X158.1Y-92.1
X163.6Y-146.1
X165.8Y-91.1
X165.8Y-92.15
X169.85Y-105.65
X170.1Y-150.75
X170.5Y-144.05
X170.75Y-105.65
X172.1Y-119.3
X172.35Y-92.5
X172.65Y-121.5
X172.65Y-130.9
X172.75Y-112.1
X172.85Y-109.8
X172.9Y-112.75
X173.05Y-100.4
X173.088Y-89.763
X173.2Y-111.05
X173.3Y-130.1
X173.4Y-121.15
X173.55Y-111.85
X173.65Y-118.2
X173.85Y-130.65
X173.95Y-109.8
X174.0Y-103.2
X174.05Y-118.8
X174.05Y-121.5
X174.35Y-132.55
X174.75Y-106.35
X174.8Y-120.75
X174.9Y-111.9
X174.9Y-118.9
X174.95Y-119.65
X175.2Y-121.2
X175.6Y-129.95
X175.75Y-106.35
X175.85Y-120.85
X175.95Y-119.7
X176.1Y-124.3
X176.1Y-131.7
X176.4Y-121.15
X176.4Y-122.257
X176.8Y-117.8
X176.85Y-116.8
X177.222Y-121.472
X177.3Y-130.0
X177.35Y-129.201
X177.85Y-116.3
X178.1Y-129.2
X178.2Y-124.8
X178.2Y-125.6
X178.2Y-126.4
X178.2Y-127.2
X178.2Y-130.4
X178.25Y-118.65
X178.25Y-128.0
X178.45Y-89.4
X178.45Y-90.6
X178.45Y-91.7
X178.7Y-132.9
X178.807Y-129.893
X178.85Y-113.503
X178.85Y-114.3
X178.85Y-115.3
X178.85Y-117.3
X179.4Y-132.295
X179.65Y-129.6
X179.8Y-133.275
X179.85Y-113.5
X179.85Y-114.287
X179.85Y-117.3
X179.85Y-128.797
X179.854Y-114.85
X179.9Y-116.15
X180.1Y-131.0
X180.25Y-131.682
X180.35Y-130.4
X180.4Y-124.8
X180.4Y-125.6
X180.4Y-126.4
X180.4Y-127.2
X180.4Y-128.0
X180.85Y-117.3
X180.85Y-118.25
X180.85Y-124.0
X180.9Y-91.25
X181.0Y-104.7
X181.243Y-115.3
X181.3Y-125.2
X181.3Y-130.8
X181.7Y-124.3
X181.75Y-118.2
X181.8Y-117.05
X181.8Y-138.5
X182.1Y-104.7
X182.1Y-125.2
X182.1Y-126.0
X182.1Y-126.8
X182.503Y-124.275
X182.6Y-116.3
X182.9Y-126.0
X182.9Y-126.8
X183.0Y-131.2
X183.05Y-104.7
X183.053Y-114.847
X183.128Y-113.622
X183.15Y-129.6
X183.3Y-133.84
X183.975Y-128.8
X184.05Y-113.9
X184.8Y-134.4
X185.222Y-125.722
X185.3Y-100.55
X185.519Y-131.275
X185.55Y-89.15
X185.75Y-144.0
X185.8Y-134.5
X186.05Y-125.7
X186.162Y-131.188
X186.45Y-94.1
X186.45Y-115.397
X186.55Y-130.45
X186.92Y-107.3
X187.05Y-149.8
X187.1Y-132.825
X187.25Y-115.4
X187.25Y-127.975
X187.303Y-131.228
X187.85Y-149.8
X188.0Y-132.425
X188.203Y-127.947
X188.391Y-145.891
X189.0Y-149.8
X189.0Y-151.9
X189.65Y-115.85
X189.65Y-120.728
X189.95Y-112.1
X190.076Y-130.382
X190.25Y-123.701
X190.95Y-112.75
X191.0Y-130.35
X191.525Y-145.05
X191.8Y-112.2
X192.0Y-107.3
X192.0Y-109.15
X192.0Y-151.85
X192.275Y-145.05
X192.625Y-124.9
X192.65Y-149.8
X192.875Y-148.875
X193.3Y-124.5
X193.4Y-146.25
X193.45Y-149.8
X193.5Y-147.65
X193.55Y-125.298
X194.1Y-100.35
X194.35Y-128.15
X194.45Y-117.65
X195.0Y-148.55
X195.2Y-126.5
X195.35Y-113.3
X195.5Y-144.4
X195.7Y-113.95
X195.85Y-98.15
X195.95Y-87.65
X195.95Y-88.5
X195.95Y-136.75
X195.972Y-120.943
X196.0Y-117.7
X196.0Y-118.5
X196.0Y-119.3
X196.0Y-121.75
X196.0Y-124.1
X196.0Y-125.7
X196.008Y-126.493
X196.025Y-124.875
X196.15Y-131.6
X196.25Y-144.6
X196.35Y-135.35
X196.4Y-116.05
X196.5Y-109.6
X196.5Y-113.957
X196.7Y-136.75
X196.709Y-130.507
X196.8Y-117.7
X196.8Y-118.5
X196.8Y-119.3
X196.8Y-122.9
X196.8Y-124.1
X196.8Y-124.9
X196.8Y-125.7
X196.8Y-126.5
X196.85Y-97.15
X197.1Y-109.1
X197.1Y-135.75
X197.2Y-110.2
X197.2Y-116.05
X197.25Y-113.957
X197.45Y-136.75
X197.6Y-118.5
X197.6Y-119.3
X197.6Y-120.1
X197.6Y-121.3
X197.6Y-122.1
X197.6Y-122.9
X197.6Y-124.1
X197.6Y-124.9
X197.6Y-125.7
X197.6Y-126.5
X197.6Y-132.5
X197.85Y-98.15
X198.0Y-115.7
X198.0Y-128.6
X198.1Y-146.3
X198.4Y-119.3
X198.4Y-125.7
X198.4Y-126.5
X198.45Y-118.5
X198.6Y-141.35
X198.8Y-115.35
X198.85Y-97.15
X198.9Y-89.75
X199.2Y-116.0
X199.2Y-119.3
X199.2Y-120.5
X199.2Y-124.1
X199.2Y-125.7
X199.2Y-126.5
X199.2Y-127.3
X199.2Y-136.0
X199.25Y-136.8
X199.6Y-115.35
X199.7Y-142.8
X199.788Y-132.888
X199.85Y-98.15
X200.0Y-118.5
X200.0Y-125.7
X200.0Y-126.5
X200.05Y-120.5
X200.05Y-136.8
X200.25Y-131.3
X200.4Y-116.25
X200.55Y-121.6
X200.55Y-122.6
X200.55Y-142.4
X200.8Y-106.4
X200.8Y-116.95
X200.8Y-118.5
X200.8Y-119.3
X200.8Y-125.7
X200.8Y-126.5
X200.8Y-127.3
X200.85Y-97.15
X200.9Y-109.25
X200.9Y-120.5
X200.918Y-132.882
X201.2Y-116.25
X201.2Y-123.7
X201.424Y-128.951
X201.55Y-122.55
X201.6Y-117.7
X201.6Y-118.4
X201.6Y-124.9
X201.7Y-94.0
X201.85Y-98.15
X202.0Y-116.3
X202.158Y-129.01
X202.333Y-115.445
X202.35Y-122.5
X202.4Y-119.3
X202.4Y-120.1
X202.45Y-124.15
X202.6Y-137.35
X202.75Y-129.0
X202.81Y-116.488
X202.85Y-97.15
X203.2Y-117.0
X203.2Y-118.5
X203.2Y-119.3
X203.2Y-120.1
X203.2Y-120.9
X203.2Y-122.1
X203.2Y-124.175
X203.2Y-124.9
X203.2Y-125.7
X203.2Y-128.1
X203.85Y-98.15
X204.0Y-91.7
X204.0Y-118.5
X204.0Y-119.3
X204.0Y-120.1
X204.0Y-120.9
X204.0Y-122.1
X204.0Y-126.5
X204.05Y-106.35
X204.05Y-131.2
X204.096Y-113.15
X204.15Y-109.25
X204.8Y-119.3
X204.8Y-120.9
X204.8Y-122.1
X204.8Y-123.7
X204.8Y-126.5
X204.85Y-97.15
X204.858Y-125.676
X204.9Y-112.7
X205.05Y-84.8
X205.2Y-114.95
X205.2Y-117.7
X205.4Y-106.35
X205.45Y-109.25
X205.55Y-103.6
X205.6Y-128.1
X205.9Y-122.1
X206.0Y-126.1
X206.0Y-126.9
X206.4Y-120.65
X206.45Y-123.6
X206.45Y-124.5
X206.55Y-103.6
X206.8Y-130.2
X207.0Y-122.1
X207.3Y-118.9
X207.55Y-120.65
X207.6Y-123.6
X207.95Y-129.25
X208.0Y-81.6
X208.1Y-122.1
X208.35Y-126.9
X208.8Y-121.3
X208.85Y-120.25
X209.75Y-94.95
X210.55Y-120.45
X210.8Y-94.95
X211.151Y-126.899
X211.226Y-127.824
X211.226Y-128.924
X211.226Y-129.624
X212.1Y-126.1
X212.4Y-122.75
X212.575Y-125.45
X213.0Y-118.45
X213.15Y-122.75
X213.3Y-126.1
X213.6Y-85.9
X214.0Y-124.1
X215.1Y-85.15
X215.15Y-86.15
X215.9Y-119.2
X216.427Y-127.473
X216.65Y-114.5
X218.2Y-121.45
X228.75Y-124.2
X228.75Y-126.74
T2
X155.9Y-146.1
X155.95Y-96.55
X172.1Y-102.85
X184.35Y-103.0
X184.6Y-91.85
X197.7Y-92.25
X220.7Y-146.1
X221.0Y-96.55
T4
X155.0Y-100.0
X155.0Y-102.54
X155.0Y-105.08
X155.0Y-107.62
X155.0Y-110.16
X155.0Y-112.7
X155.0Y-115.24
X155.0Y-117.78
X155.0Y-120.32
X155.0Y-122.86
X155.0Y-125.4
X155.0Y-127.94
X155.0Y-130.48
X155.0Y-133.02
X155.0Y-135.56
X155.0Y-138.1
X155.0Y-140.64
X155.0Y-143.18
X160.0Y-100.0
X160.0Y-102.54
X160.0Y-105.08
X160.0Y-107.62
X160.0Y-110.16
X160.0Y-112.7
X160.0Y-115.24
X160.0Y-117.78
X160.0Y-120.32
X160.0Y-122.86
X160.0Y-125.4
X160.0Y-127.94
X160.0Y-130.48
X160.0Y-133.02
X160.0Y-135.56
X160.0Y-138.1
X160.0Y-140.64
X160.0Y-143.18
X168.35Y-125.37
X168.35Y-127.91
X168.35Y-130.45
X168.35Y-132.99
X168.35Y-135.53
X168.35Y-138.07
X168.35Y-140.61
X168.35Y-143.15
X186.92Y-105.91
X186.92Y-110.5
X189.46Y-105.91
X189.46Y-110.5
X192.0Y-105.91
X192.0Y-110.5
X209.86Y-116.0
X212.4Y-116.0
X215.0Y-100.0
X215.0Y-102.54
X215.0Y-105.08
X215.0Y-107.62
X215.0Y-110.16
X220.0Y-100.0
X220.0Y-102.54
X220.0Y-105.08
X220.0Y-107.62
X220.0Y-110.16
X220.0Y-112.7
X220.0Y-115.24
X220.0Y-117.78
X220.0Y-120.32
X220.0Y-122.86
X220.0Y-125.4
X220.0Y-127.94
X220.0Y-130.48
X220.0Y-133.02
X220.0Y-135.56
X220.0Y-138.1
X220.0Y-140.64
X220.0Y-143.18
X225.0Y-100.0
X225.0Y-102.54
X225.0Y-105.08
X225.0Y-107.62
X225.0Y-110.16
X225.0Y-112.7
X225.0Y-115.24
X225.0Y-117.78
X225.0Y-120.32
X225.0Y-122.86
X225.0Y-125.4
X225.0Y-127.94
X225.0Y-130.48
X225.0Y-133.02
X225.0Y-135.56
X225.0Y-138.1
X225.0Y-140.64
X225.0Y-143.18
T5
X152.844Y-82.74
X152.844Y-153.48
X226.886Y-82.74
X226.886Y-153.48
T3
X185.93Y-150.895G85X185.93Y-151.995
G05
X185.93Y-155.225G85X185.93Y-156.025
G05
X194.57Y-150.895G85X194.57Y-151.995
G05
X194.57Y-155.225G85X194.57Y-156.025
G05
M30
