%TF.GenerationSoftware,KiCad,Pcbnew,9.0.2*%
%TF.CreationDate,2026-03-23T01:35:30-04:00*%
%TF.ProjectId,STM32N6_Board,53544d33-324e-4365-9f42-6f6172642e6b,rev?*%
%TF.SameCoordinates,Original*%
%TF.FileFunction,Drillmap*%
%TF.FilePolarity,Positive*%
%FSLAX45Y45*%
G04 Gerber Fmt 4.5, Leading zero omitted, Abs format (unit mm)*
G04 Created by KiCad (PCBNEW 9.0.2) date 2026-03-23 01:35:30*
%MOMM*%
%LPD*%
G01*
G04 APERTURE LIST*
%ADD10C,0.050000*%
%ADD11C,0.200000*%
%ADD12C,0.100000*%
%ADD13C,0.250000*%
G04 APERTURE END LIST*
D10*
X22688600Y-7874000D02*
G75*
G02*
X23088600Y-8274000I0J-400000D01*
G01*
X22688600Y-15748000D02*
X15284400Y-15748000D01*
X15284400Y-7874000D02*
X22688600Y-7874000D01*
X23088600Y-15348000D02*
G75*
G02*
X22688600Y-15748000I-400000J0D01*
G01*
X14884400Y-8274000D02*
G75*
G02*
X15284400Y-7874000I400000J0D01*
G01*
X14884400Y-15348000D02*
X14884400Y-8274000D01*
X15284400Y-15748000D02*
G75*
G02*
X14884400Y-15348000I0J400000D01*
G01*
X23088600Y-8274000D02*
X23088600Y-15348000D01*
D11*
D12*
X15115000Y-12410000D02*
X15135000Y-12430000D01*
X15135000Y-12410000D02*
X15115000Y-12430000D01*
X15115000Y-12664000D02*
X15135000Y-12684000D01*
X15135000Y-12664000D02*
X15115000Y-12684000D01*
X15730000Y-9200000D02*
X15750000Y-9220000D01*
X15750000Y-9200000D02*
X15730000Y-9220000D01*
X15800000Y-9200000D02*
X15820000Y-9220000D01*
X15820000Y-9200000D02*
X15800000Y-9220000D01*
X16350000Y-14600000D02*
X16370000Y-14620000D01*
X16370000Y-14600000D02*
X16350000Y-14620000D01*
X16570000Y-9100000D02*
X16590000Y-9120000D01*
X16590000Y-9100000D02*
X16570000Y-9120000D01*
X16570000Y-9205000D02*
X16590000Y-9225000D01*
X16590000Y-9205000D02*
X16570000Y-9225000D01*
X16975000Y-10555000D02*
X16995000Y-10575000D01*
X16995000Y-10555000D02*
X16975000Y-10575000D01*
X17000000Y-15065000D02*
X17020000Y-15085000D01*
X17020000Y-15065000D02*
X17000000Y-15085000D01*
X17040000Y-14395000D02*
X17060000Y-14415000D01*
X17060000Y-14395000D02*
X17040000Y-14415000D01*
X17065000Y-10555000D02*
X17085000Y-10575000D01*
X17085000Y-10555000D02*
X17065000Y-10575000D01*
X17200000Y-11920000D02*
X17220000Y-11940000D01*
X17220000Y-11920000D02*
X17200000Y-11940000D01*
X17225000Y-9240000D02*
X17245000Y-9260000D01*
X17245000Y-9240000D02*
X17225000Y-9260000D01*
X17255000Y-12140000D02*
X17275000Y-12160000D01*
X17275000Y-12140000D02*
X17255000Y-12160000D01*
X17255000Y-13080000D02*
X17275000Y-13100000D01*
X17275000Y-13080000D02*
X17255000Y-13100000D01*
X17265000Y-11200000D02*
X17285000Y-11220000D01*
X17285000Y-11200000D02*
X17265000Y-11220000D01*
X17275000Y-10970000D02*
X17295000Y-10990000D01*
X17295000Y-10970000D02*
X17275000Y-10990000D01*
X17280000Y-11265000D02*
X17300000Y-11285000D01*
X17300000Y-11265000D02*
X17280000Y-11285000D01*
X17295000Y-10030000D02*
X17315000Y-10050000D01*
X17315000Y-10030000D02*
X17295000Y-10050000D01*
X17298750Y-8966250D02*
X17318750Y-8986250D01*
X17318750Y-8966250D02*
X17298750Y-8986250D01*
X17310000Y-11095000D02*
X17330000Y-11115000D01*
X17330000Y-11095000D02*
X17310000Y-11115000D01*
X17320000Y-13000000D02*
X17340000Y-13020000D01*
X17340000Y-13000000D02*
X17320000Y-13020000D01*
X17330000Y-12105000D02*
X17350000Y-12125000D01*
X17350000Y-12105000D02*
X17330000Y-12125000D01*
X17345000Y-11175000D02*
X17365000Y-11195000D01*
X17365000Y-11175000D02*
X17345000Y-11195000D01*
X17355000Y-11810000D02*
X17375000Y-11830000D01*
X17375000Y-11810000D02*
X17355000Y-11830000D01*
X17375000Y-13055000D02*
X17395000Y-13075000D01*
X17395000Y-13055000D02*
X17375000Y-13075000D01*
X17385000Y-10970000D02*
X17405000Y-10990000D01*
X17405000Y-10970000D02*
X17385000Y-10990000D01*
X17390000Y-10310000D02*
X17410000Y-10330000D01*
X17410000Y-10310000D02*
X17390000Y-10330000D01*
X17395000Y-11870000D02*
X17415000Y-11890000D01*
X17415000Y-11870000D02*
X17395000Y-11890000D01*
X17395000Y-12140000D02*
X17415000Y-12160000D01*
X17415000Y-12140000D02*
X17395000Y-12160000D01*
X17425000Y-13245000D02*
X17445000Y-13265000D01*
X17445000Y-13245000D02*
X17425000Y-13265000D01*
X17465000Y-10625000D02*
X17485000Y-10645000D01*
X17485000Y-10625000D02*
X17465000Y-10645000D01*
X17470000Y-12065000D02*
X17490000Y-12085000D01*
X17490000Y-12065000D02*
X17470000Y-12085000D01*
X17480000Y-11180000D02*
X17500000Y-11200000D01*
X17500000Y-11180000D02*
X17480000Y-11200000D01*
X17480000Y-11880000D02*
X17500000Y-11900000D01*
X17500000Y-11880000D02*
X17480000Y-11900000D01*
X17485000Y-11955000D02*
X17505000Y-11975000D01*
X17505000Y-11955000D02*
X17485000Y-11975000D01*
X17510000Y-12110000D02*
X17530000Y-12130000D01*
X17530000Y-12110000D02*
X17510000Y-12130000D01*
X17550000Y-12985000D02*
X17570000Y-13005000D01*
X17570000Y-12985000D02*
X17550000Y-13005000D01*
X17565000Y-10625000D02*
X17585000Y-10645000D01*
X17585000Y-10625000D02*
X17565000Y-10645000D01*
X17575000Y-12075000D02*
X17595000Y-12095000D01*
X17595000Y-12075000D02*
X17575000Y-12095000D01*
X17585000Y-11960000D02*
X17605000Y-11980000D01*
X17605000Y-11960000D02*
X17585000Y-11980000D01*
X17600000Y-12420000D02*
X17620000Y-12440000D01*
X17620000Y-12420000D02*
X17600000Y-12440000D01*
X17600000Y-13160000D02*
X17620000Y-13180000D01*
X17620000Y-13160000D02*
X17600000Y-13180000D01*
X17630000Y-12105000D02*
X17650000Y-12125000D01*
X17650000Y-12105000D02*
X17630000Y-12125000D01*
X17630000Y-12215675D02*
X17650000Y-12235675D01*
X17650000Y-12215675D02*
X17630000Y-12235675D01*
X17670000Y-11770000D02*
X17690000Y-11790000D01*
X17690000Y-11770000D02*
X17670000Y-11790000D01*
X17675000Y-11670000D02*
X17695000Y-11690000D01*
X17695000Y-11670000D02*
X17675000Y-11690000D01*
X17712193Y-12137193D02*
X17732193Y-12157193D01*
X17732193Y-12137193D02*
X17712193Y-12157193D01*
X17720000Y-12990000D02*
X17740000Y-13010000D01*
X17740000Y-12990000D02*
X17720000Y-13010000D01*
X17725000Y-12910100D02*
X17745000Y-12930100D01*
X17745000Y-12910100D02*
X17725000Y-12930100D01*
X17775000Y-11620000D02*
X17795000Y-11640000D01*
X17795000Y-11620000D02*
X17775000Y-11640000D01*
X17800000Y-12910000D02*
X17820000Y-12930000D01*
X17820000Y-12910000D02*
X17800000Y-12930000D01*
X17810000Y-12470000D02*
X17830000Y-12490000D01*
X17830000Y-12470000D02*
X17810000Y-12490000D01*
X17810000Y-12550000D02*
X17830000Y-12570000D01*
X17830000Y-12550000D02*
X17810000Y-12570000D01*
X17810000Y-12630000D02*
X17830000Y-12650000D01*
X17830000Y-12630000D02*
X17810000Y-12650000D01*
X17810000Y-12710000D02*
X17830000Y-12730000D01*
X17830000Y-12710000D02*
X17810000Y-12730000D01*
X17810000Y-13030000D02*
X17830000Y-13050000D01*
X17830000Y-13030000D02*
X17810000Y-13050000D01*
X17815000Y-11855000D02*
X17835000Y-11875000D01*
X17835000Y-11855000D02*
X17815000Y-11875000D01*
X17815000Y-12790000D02*
X17835000Y-12810000D01*
X17835000Y-12790000D02*
X17815000Y-12810000D01*
X17835000Y-8930000D02*
X17855000Y-8950000D01*
X17855000Y-8930000D02*
X17835000Y-8950000D01*
X17835000Y-9050000D02*
X17855000Y-9070000D01*
X17855000Y-9050000D02*
X17835000Y-9070000D01*
X17835000Y-9160000D02*
X17855000Y-9180000D01*
X17855000Y-9160000D02*
X17835000Y-9180000D01*
X17860000Y-13280000D02*
X17880000Y-13300000D01*
X17880000Y-13280000D02*
X17860000Y-13300000D01*
X17870685Y-12979315D02*
X17890685Y-12999315D01*
X17890685Y-12979315D02*
X17870685Y-12999315D01*
X17875000Y-11340325D02*
X17895000Y-11360325D01*
X17895000Y-11340325D02*
X17875000Y-11360325D01*
X17875000Y-11420000D02*
X17895000Y-11440000D01*
X17895000Y-11420000D02*
X17875000Y-11440000D01*
X17875000Y-11520000D02*
X17895000Y-11540000D01*
X17895000Y-11520000D02*
X17875000Y-11540000D01*
X17875000Y-11720000D02*
X17895000Y-11740000D01*
X17895000Y-11720000D02*
X17875000Y-11740000D01*
X17930000Y-13219500D02*
X17950000Y-13239500D01*
X17950000Y-13219500D02*
X17930000Y-13239500D01*
X17955000Y-12950000D02*
X17975000Y-12970000D01*
X17975000Y-12950000D02*
X17955000Y-12970000D01*
X17970000Y-13317500D02*
X17990000Y-13337500D01*
X17990000Y-13317500D02*
X17970000Y-13337500D01*
X17975000Y-11340000D02*
X17995000Y-11360000D01*
X17995000Y-11340000D02*
X17975000Y-11360000D01*
X17975000Y-11418750D02*
X17995000Y-11438750D01*
X17995000Y-11418750D02*
X17975000Y-11438750D01*
X17975000Y-11720000D02*
X17995000Y-11740000D01*
X17995000Y-11720000D02*
X17975000Y-11740000D01*
X17975000Y-12869750D02*
X17995000Y-12889750D01*
X17995000Y-12869750D02*
X17975000Y-12889750D01*
X17975421Y-11475036D02*
X17995421Y-11495036D01*
X17995421Y-11475036D02*
X17975421Y-11495036D01*
X17980000Y-11605000D02*
X18000000Y-11625000D01*
X18000000Y-11605000D02*
X17980000Y-11625000D01*
X18000000Y-13090000D02*
X18020000Y-13110000D01*
X18020000Y-13090000D02*
X18000000Y-13110000D01*
X18015000Y-13158175D02*
X18035000Y-13178175D01*
X18035000Y-13158175D02*
X18015000Y-13178175D01*
X18025000Y-13030000D02*
X18045000Y-13050000D01*
X18045000Y-13030000D02*
X18025000Y-13050000D01*
X18030000Y-12470000D02*
X18050000Y-12490000D01*
X18050000Y-12470000D02*
X18030000Y-12490000D01*
X18030000Y-12550000D02*
X18050000Y-12570000D01*
X18050000Y-12550000D02*
X18030000Y-12570000D01*
X18030000Y-12630000D02*
X18050000Y-12650000D01*
X18050000Y-12630000D02*
X18030000Y-12650000D01*
X18030000Y-12710000D02*
X18050000Y-12730000D01*
X18050000Y-12710000D02*
X18030000Y-12730000D01*
X18030000Y-12790000D02*
X18050000Y-12810000D01*
X18050000Y-12790000D02*
X18030000Y-12810000D01*
X18075000Y-11720000D02*
X18095000Y-11740000D01*
X18095000Y-11720000D02*
X18075000Y-11740000D01*
X18075000Y-11815000D02*
X18095000Y-11835000D01*
X18095000Y-11815000D02*
X18075000Y-11835000D01*
X18075000Y-12390000D02*
X18095000Y-12410000D01*
X18095000Y-12390000D02*
X18075000Y-12410000D01*
X18080000Y-9115000D02*
X18100000Y-9135000D01*
X18100000Y-9115000D02*
X18080000Y-9135000D01*
X18090000Y-10460000D02*
X18110000Y-10480000D01*
X18110000Y-10460000D02*
X18090000Y-10480000D01*
X18114324Y-11519975D02*
X18134324Y-11539975D01*
X18134324Y-11519975D02*
X18114324Y-11539975D01*
X18120000Y-12510000D02*
X18140000Y-12530000D01*
X18140000Y-12510000D02*
X18120000Y-12530000D01*
X18120000Y-13070000D02*
X18140000Y-13090000D01*
X18140000Y-13070000D02*
X18120000Y-13090000D01*
X18160000Y-12420000D02*
X18180000Y-12440000D01*
X18180000Y-12420000D02*
X18160000Y-12440000D01*
X18165000Y-11810000D02*
X18185000Y-11830000D01*
X18185000Y-11810000D02*
X18165000Y-11830000D01*
X18170000Y-11695000D02*
X18190000Y-11715000D01*
X18190000Y-11695000D02*
X18170000Y-11715000D01*
X18170000Y-13840000D02*
X18190000Y-13860000D01*
X18190000Y-13840000D02*
X18170000Y-13860000D01*
X18200000Y-10460000D02*
X18220000Y-10480000D01*
X18220000Y-10460000D02*
X18200000Y-10480000D01*
X18200000Y-12510000D02*
X18220000Y-12530000D01*
X18220000Y-12510000D02*
X18200000Y-12530000D01*
X18200000Y-12590000D02*
X18220000Y-12610000D01*
X18220000Y-12590000D02*
X18200000Y-12610000D01*
X18200000Y-12670000D02*
X18220000Y-12690000D01*
X18220000Y-12670000D02*
X18200000Y-12690000D01*
X18240325Y-12417500D02*
X18260325Y-12437500D01*
X18260325Y-12417500D02*
X18240325Y-12437500D01*
X18250000Y-11620000D02*
X18270000Y-11640000D01*
X18270000Y-11620000D02*
X18250000Y-11640000D01*
X18280000Y-12590000D02*
X18300000Y-12610000D01*
X18300000Y-12590000D02*
X18280000Y-12610000D01*
X18280000Y-12670000D02*
X18300000Y-12690000D01*
X18300000Y-12670000D02*
X18280000Y-12690000D01*
X18290000Y-13110000D02*
X18310000Y-13130000D01*
X18310000Y-13110000D02*
X18290000Y-13130000D01*
X18295000Y-10460000D02*
X18315000Y-10480000D01*
X18315000Y-10460000D02*
X18295000Y-10480000D01*
X18295307Y-11474693D02*
X18315307Y-11494693D01*
X18315307Y-11474693D02*
X18295307Y-11494693D01*
X18302807Y-11352193D02*
X18322807Y-11372193D01*
X18322807Y-11352193D02*
X18302807Y-11372193D01*
X18305000Y-12950000D02*
X18325000Y-12970000D01*
X18325000Y-12950000D02*
X18305000Y-12970000D01*
X18320000Y-13374000D02*
X18340000Y-13394000D01*
X18340000Y-13374000D02*
X18320000Y-13394000D01*
X18387500Y-12870000D02*
X18407500Y-12890000D01*
X18407500Y-12870000D02*
X18387500Y-12890000D01*
X18395000Y-11380000D02*
X18415000Y-11400000D01*
X18415000Y-11380000D02*
X18395000Y-11400000D01*
X18470000Y-13430000D02*
X18490000Y-13450000D01*
X18490000Y-13430000D02*
X18470000Y-13450000D01*
X18512193Y-12562193D02*
X18532193Y-12582193D01*
X18532193Y-12562193D02*
X18512193Y-12582193D01*
X18520000Y-10045000D02*
X18540000Y-10065000D01*
X18540000Y-10045000D02*
X18520000Y-10065000D01*
X18541886Y-13117500D02*
X18561886Y-13137500D01*
X18561886Y-13117500D02*
X18541886Y-13137500D01*
X18545000Y-8905000D02*
X18565000Y-8925000D01*
X18565000Y-8905000D02*
X18545000Y-8925000D01*
X18565000Y-14390000D02*
X18585000Y-14410000D01*
X18585000Y-14390000D02*
X18565000Y-14410000D01*
X18570000Y-13440000D02*
X18590000Y-13460000D01*
X18590000Y-13440000D02*
X18570000Y-13460000D01*
X18595000Y-12560000D02*
X18615000Y-12580000D01*
X18615000Y-12560000D02*
X18595000Y-12580000D01*
X18606250Y-13108750D02*
X18626250Y-13128750D01*
X18626250Y-13108750D02*
X18606250Y-13128750D01*
X18635000Y-9400000D02*
X18655000Y-9420000D01*
X18655000Y-9400000D02*
X18635000Y-9420000D01*
X18635000Y-11529675D02*
X18655000Y-11549675D01*
X18655000Y-11529675D02*
X18635000Y-11549675D01*
X18645000Y-13035000D02*
X18665000Y-13055000D01*
X18665000Y-13035000D02*
X18645000Y-13055000D01*
X18682000Y-10720000D02*
X18702000Y-10740000D01*
X18702000Y-10720000D02*
X18682000Y-10740000D01*
X18695000Y-14970000D02*
X18715000Y-14990000D01*
X18715000Y-14970000D02*
X18695000Y-14990000D01*
X18700000Y-13272500D02*
X18720000Y-13292500D01*
X18720000Y-13272500D02*
X18700000Y-13292500D01*
X18715000Y-11530000D02*
X18735000Y-11550000D01*
X18735000Y-11530000D02*
X18715000Y-11550000D01*
X18715000Y-12787500D02*
X18735000Y-12807500D01*
X18735000Y-12787500D02*
X18715000Y-12807500D01*
X18720307Y-13112807D02*
X18740307Y-13132807D01*
X18740307Y-13112807D02*
X18720307Y-13132807D01*
X18775000Y-14970000D02*
X18795000Y-14990000D01*
X18795000Y-14970000D02*
X18775000Y-14990000D01*
X18790000Y-13232500D02*
X18810000Y-13252500D01*
X18810000Y-13232500D02*
X18790000Y-13252500D01*
X18810307Y-12784693D02*
X18830307Y-12804693D01*
X18830307Y-12784693D02*
X18810307Y-12804693D01*
X18829100Y-14579100D02*
X18849100Y-14599100D01*
X18849100Y-14579100D02*
X18829100Y-14599100D01*
X18890000Y-14970000D02*
X18910000Y-14990000D01*
X18910000Y-14970000D02*
X18890000Y-14990000D01*
X18890000Y-15180000D02*
X18910000Y-15200000D01*
X18910000Y-15180000D02*
X18890000Y-15200000D01*
X18955000Y-11575000D02*
X18975000Y-11595000D01*
X18975000Y-11575000D02*
X18955000Y-11595000D01*
X18955000Y-12062807D02*
X18975000Y-12082807D01*
X18975000Y-12062807D02*
X18955000Y-12082807D01*
X18985000Y-11200000D02*
X19005000Y-11220000D01*
X19005000Y-11200000D02*
X18985000Y-11220000D01*
X18997561Y-13028175D02*
X19017561Y-13048175D01*
X19017561Y-13028175D02*
X18997561Y-13048175D01*
X19015000Y-12360100D02*
X19035000Y-12380100D01*
X19035000Y-12360100D02*
X19015000Y-12380100D01*
X19085000Y-11265000D02*
X19105000Y-11285000D01*
X19105000Y-11265000D02*
X19085000Y-11285000D01*
X19090000Y-13025000D02*
X19110000Y-13045000D01*
X19110000Y-13025000D02*
X19090000Y-13045000D01*
X19142500Y-14495000D02*
X19162500Y-14515000D01*
X19162500Y-14495000D02*
X19142500Y-14515000D01*
X19170000Y-11210000D02*
X19190000Y-11230000D01*
X19190000Y-11210000D02*
X19170000Y-11230000D01*
X19190000Y-10720000D02*
X19210000Y-10740000D01*
X19210000Y-10720000D02*
X19190000Y-10740000D01*
X19190000Y-10905000D02*
X19210000Y-10925000D01*
X19210000Y-10905000D02*
X19190000Y-10925000D01*
X19190000Y-15175000D02*
X19210000Y-15195000D01*
X19210000Y-15175000D02*
X19190000Y-15195000D01*
X19217500Y-14495000D02*
X19237500Y-14515000D01*
X19237500Y-14495000D02*
X19217500Y-14515000D01*
X19252500Y-12480000D02*
X19272500Y-12500000D01*
X19272500Y-12480000D02*
X19252500Y-12500000D01*
X19255000Y-14970000D02*
X19275000Y-14990000D01*
X19275000Y-14970000D02*
X19255000Y-14990000D01*
X19277500Y-14877500D02*
X19297500Y-14897500D01*
X19297500Y-14877500D02*
X19277500Y-14897500D01*
X19320000Y-12440000D02*
X19340000Y-12460000D01*
X19340000Y-12440000D02*
X19320000Y-12460000D01*
X19330000Y-14615000D02*
X19350000Y-14635000D01*
X19350000Y-14615000D02*
X19330000Y-14635000D01*
X19335000Y-14970000D02*
X19355000Y-14990000D01*
X19355000Y-14970000D02*
X19335000Y-14990000D01*
X19340000Y-14755000D02*
X19360000Y-14775000D01*
X19360000Y-14755000D02*
X19340000Y-14775000D01*
X19345000Y-12519793D02*
X19365000Y-12539793D01*
X19365000Y-12519793D02*
X19345000Y-12539793D01*
X19400000Y-10025000D02*
X19420000Y-10045000D01*
X19420000Y-10025000D02*
X19400000Y-10045000D01*
X19425000Y-12805000D02*
X19445000Y-12825000D01*
X19445000Y-12805000D02*
X19425000Y-12825000D01*
X19435000Y-11755000D02*
X19455000Y-11775000D01*
X19455000Y-11755000D02*
X19435000Y-11775000D01*
X19490000Y-14845000D02*
X19510000Y-14865000D01*
X19510000Y-14845000D02*
X19490000Y-14865000D01*
X19510000Y-12640000D02*
X19530000Y-12660000D01*
X19530000Y-12640000D02*
X19510000Y-12660000D01*
X19525000Y-11320000D02*
X19545000Y-11340000D01*
X19545000Y-11320000D02*
X19525000Y-11340000D01*
X19540000Y-14430000D02*
X19560000Y-14450000D01*
X19560000Y-14430000D02*
X19540000Y-14450000D01*
X19560000Y-11385000D02*
X19580000Y-11405000D01*
X19580000Y-11385000D02*
X19560000Y-11405000D01*
X19575000Y-9805000D02*
X19595000Y-9825000D01*
X19595000Y-9805000D02*
X19575000Y-9825000D01*
X19585000Y-8755000D02*
X19605000Y-8775000D01*
X19605000Y-8755000D02*
X19585000Y-8775000D01*
X19585000Y-8840000D02*
X19605000Y-8860000D01*
X19605000Y-8840000D02*
X19585000Y-8860000D01*
X19585000Y-13665000D02*
X19605000Y-13685000D01*
X19605000Y-13665000D02*
X19585000Y-13685000D01*
X19587224Y-12084303D02*
X19607224Y-12104303D01*
X19607224Y-12084303D02*
X19587224Y-12104303D01*
X19590000Y-11760000D02*
X19610000Y-11780000D01*
X19610000Y-11760000D02*
X19590000Y-11780000D01*
X19590000Y-11840000D02*
X19610000Y-11860000D01*
X19610000Y-11840000D02*
X19590000Y-11860000D01*
X19590000Y-11920000D02*
X19610000Y-11940000D01*
X19610000Y-11920000D02*
X19590000Y-11940000D01*
X19590000Y-12165000D02*
X19610000Y-12185000D01*
X19610000Y-12165000D02*
X19590000Y-12185000D01*
X19590000Y-12400000D02*
X19610000Y-12420000D01*
X19610000Y-12400000D02*
X19590000Y-12420000D01*
X19590000Y-12560000D02*
X19610000Y-12580000D01*
X19610000Y-12560000D02*
X19590000Y-12580000D01*
X19590817Y-12639325D02*
X19610817Y-12659325D01*
X19610817Y-12639325D02*
X19590817Y-12659325D01*
X19592500Y-12477500D02*
X19612500Y-12497500D01*
X19612500Y-12477500D02*
X19592500Y-12497500D01*
X19605000Y-13150000D02*
X19625000Y-13170000D01*
X19625000Y-13150000D02*
X19605000Y-13170000D01*
X19615000Y-14450000D02*
X19635000Y-14470000D01*
X19635000Y-14450000D02*
X19615000Y-14470000D01*
X19625000Y-13525000D02*
X19645000Y-13545000D01*
X19645000Y-13525000D02*
X19625000Y-13545000D01*
X19630000Y-11595000D02*
X19650000Y-11615000D01*
X19650000Y-11595000D02*
X19630000Y-11615000D01*
X19640000Y-10950000D02*
X19660000Y-10970000D01*
X19660000Y-10950000D02*
X19640000Y-10970000D01*
X19640000Y-11385675D02*
X19660000Y-11405675D01*
X19660000Y-11385675D02*
X19640000Y-11405675D01*
X19660000Y-13665000D02*
X19680000Y-13685000D01*
X19680000Y-13665000D02*
X19660000Y-13685000D01*
X19660943Y-13040675D02*
X19680943Y-13060675D01*
X19680943Y-13040675D02*
X19660943Y-13060675D01*
X19670000Y-11760000D02*
X19690000Y-11780000D01*
X19690000Y-11760000D02*
X19670000Y-11780000D01*
X19670000Y-11840000D02*
X19690000Y-11860000D01*
X19690000Y-11840000D02*
X19670000Y-11860000D01*
X19670000Y-11920000D02*
X19690000Y-11940000D01*
X19690000Y-11920000D02*
X19670000Y-11940000D01*
X19670000Y-12280000D02*
X19690000Y-12300000D01*
X19690000Y-12280000D02*
X19670000Y-12300000D01*
X19670000Y-12400000D02*
X19690000Y-12420000D01*
X19690000Y-12400000D02*
X19670000Y-12420000D01*
X19670000Y-12480000D02*
X19690000Y-12500000D01*
X19690000Y-12480000D02*
X19670000Y-12500000D01*
X19670000Y-12560000D02*
X19690000Y-12580000D01*
X19690000Y-12560000D02*
X19670000Y-12580000D01*
X19670000Y-12640000D02*
X19690000Y-12660000D01*
X19690000Y-12640000D02*
X19670000Y-12660000D01*
X19675000Y-9705000D02*
X19695000Y-9725000D01*
X19695000Y-9705000D02*
X19675000Y-9725000D01*
X19700000Y-10900000D02*
X19720000Y-10920000D01*
X19720000Y-10900000D02*
X19700000Y-10920000D01*
X19700000Y-13565000D02*
X19720000Y-13585000D01*
X19720000Y-13565000D02*
X19700000Y-13585000D01*
X19710000Y-11010000D02*
X19730000Y-11030000D01*
X19730000Y-11010000D02*
X19710000Y-11030000D01*
X19710000Y-11595000D02*
X19730000Y-11615000D01*
X19730000Y-11595000D02*
X19710000Y-11615000D01*
X19715000Y-11385675D02*
X19735000Y-11405675D01*
X19735000Y-11385675D02*
X19715000Y-11405675D01*
X19735000Y-13665000D02*
X19755000Y-13685000D01*
X19755000Y-13665000D02*
X19735000Y-13685000D01*
X19750000Y-11840000D02*
X19770000Y-11860000D01*
X19770000Y-11840000D02*
X19750000Y-11860000D01*
X19750000Y-11920000D02*
X19770000Y-11940000D01*
X19770000Y-11920000D02*
X19750000Y-11940000D01*
X19750000Y-12000000D02*
X19770000Y-12020000D01*
X19770000Y-12000000D02*
X19750000Y-12020000D01*
X19750000Y-12120000D02*
X19770000Y-12140000D01*
X19770000Y-12120000D02*
X19750000Y-12140000D01*
X19750000Y-12200000D02*
X19770000Y-12220000D01*
X19770000Y-12200000D02*
X19750000Y-12220000D01*
X19750000Y-12280000D02*
X19770000Y-12300000D01*
X19770000Y-12280000D02*
X19750000Y-12300000D01*
X19750000Y-12400000D02*
X19770000Y-12420000D01*
X19770000Y-12400000D02*
X19750000Y-12420000D01*
X19750000Y-12480000D02*
X19770000Y-12500000D01*
X19770000Y-12480000D02*
X19750000Y-12500000D01*
X19750000Y-12560000D02*
X19770000Y-12580000D01*
X19770000Y-12560000D02*
X19750000Y-12580000D01*
X19750000Y-12640000D02*
X19770000Y-12660000D01*
X19770000Y-12640000D02*
X19750000Y-12660000D01*
X19750000Y-13240000D02*
X19770000Y-13260000D01*
X19770000Y-13240000D02*
X19750000Y-13260000D01*
X19775000Y-9805000D02*
X19795000Y-9825000D01*
X19795000Y-9805000D02*
X19775000Y-9825000D01*
X19790000Y-11560000D02*
X19810000Y-11580000D01*
X19810000Y-11560000D02*
X19790000Y-11580000D01*
X19790000Y-12850000D02*
X19810000Y-12870000D01*
X19810000Y-12850000D02*
X19790000Y-12870000D01*
X19800000Y-14620000D02*
X19820000Y-14640000D01*
X19820000Y-14620000D02*
X19800000Y-14640000D01*
X19830000Y-11920000D02*
X19850000Y-11940000D01*
X19850000Y-11920000D02*
X19830000Y-11940000D01*
X19830000Y-12560000D02*
X19850000Y-12580000D01*
X19850000Y-12560000D02*
X19830000Y-12580000D01*
X19830000Y-12640000D02*
X19850000Y-12660000D01*
X19850000Y-12640000D02*
X19830000Y-12660000D01*
X19835000Y-11840000D02*
X19855000Y-11860000D01*
X19855000Y-11840000D02*
X19835000Y-11860000D01*
X19850000Y-14125000D02*
X19870000Y-14145000D01*
X19870000Y-14125000D02*
X19850000Y-14145000D01*
X19870000Y-11525000D02*
X19890000Y-11545000D01*
X19890000Y-11525000D02*
X19870000Y-11545000D01*
X19875000Y-9705000D02*
X19895000Y-9725000D01*
X19895000Y-9705000D02*
X19875000Y-9725000D01*
X19880000Y-8965000D02*
X19900000Y-8985000D01*
X19900000Y-8965000D02*
X19880000Y-8985000D01*
X19910000Y-11590000D02*
X19930000Y-11610000D01*
X19930000Y-11590000D02*
X19910000Y-11610000D01*
X19910000Y-11920000D02*
X19930000Y-11940000D01*
X19930000Y-11920000D02*
X19910000Y-11940000D01*
X19910000Y-12040000D02*
X19930000Y-12060000D01*
X19930000Y-12040000D02*
X19910000Y-12060000D01*
X19910000Y-12400000D02*
X19930000Y-12420000D01*
X19930000Y-12400000D02*
X19910000Y-12420000D01*
X19910000Y-12560000D02*
X19930000Y-12580000D01*
X19930000Y-12560000D02*
X19910000Y-12580000D01*
X19910000Y-12640000D02*
X19930000Y-12660000D01*
X19930000Y-12640000D02*
X19910000Y-12660000D01*
X19910000Y-12720000D02*
X19930000Y-12740000D01*
X19930000Y-12720000D02*
X19910000Y-12740000D01*
X19910000Y-13590000D02*
X19930000Y-13610000D01*
X19930000Y-13590000D02*
X19910000Y-13610000D01*
X19915000Y-13670000D02*
X19935000Y-13690000D01*
X19935000Y-13670000D02*
X19915000Y-13690000D01*
X19950000Y-11525000D02*
X19970000Y-11545000D01*
X19970000Y-11525000D02*
X19950000Y-11545000D01*
X19960000Y-14270000D02*
X19980000Y-14290000D01*
X19980000Y-14270000D02*
X19960000Y-14290000D01*
X19968765Y-13278765D02*
X19988765Y-13298765D01*
X19988765Y-13278765D02*
X19968765Y-13298765D01*
X19975000Y-9805000D02*
X19995000Y-9825000D01*
X19995000Y-9805000D02*
X19975000Y-9825000D01*
X19990000Y-11840000D02*
X20010000Y-11860000D01*
X20010000Y-11840000D02*
X19990000Y-11860000D01*
X19990000Y-12560000D02*
X20010000Y-12580000D01*
X20010000Y-12560000D02*
X19990000Y-12580000D01*
X19990000Y-12640000D02*
X20010000Y-12660000D01*
X20010000Y-12640000D02*
X19990000Y-12660000D01*
X19995000Y-12040000D02*
X20015000Y-12060000D01*
X20015000Y-12040000D02*
X19995000Y-12060000D01*
X19995000Y-13670000D02*
X20015000Y-13690000D01*
X20015000Y-13670000D02*
X19995000Y-13690000D01*
X20015000Y-13120000D02*
X20035000Y-13140000D01*
X20035000Y-13120000D02*
X20015000Y-13140000D01*
X20030000Y-11615000D02*
X20050000Y-11635000D01*
X20050000Y-11615000D02*
X20030000Y-11635000D01*
X20045000Y-12150000D02*
X20065000Y-12170000D01*
X20065000Y-12150000D02*
X20045000Y-12170000D01*
X20045000Y-12250000D02*
X20065000Y-12270000D01*
X20065000Y-12250000D02*
X20045000Y-12270000D01*
X20045000Y-14230000D02*
X20065000Y-14250000D01*
X20065000Y-14230000D02*
X20045000Y-14250000D01*
X20070000Y-10630000D02*
X20090000Y-10650000D01*
X20090000Y-10630000D02*
X20070000Y-10650000D01*
X20070000Y-11685000D02*
X20090000Y-11705000D01*
X20090000Y-11685000D02*
X20070000Y-11705000D01*
X20070000Y-11840000D02*
X20090000Y-11860000D01*
X20090000Y-11840000D02*
X20070000Y-11860000D01*
X20070000Y-11920000D02*
X20090000Y-11940000D01*
X20090000Y-11920000D02*
X20070000Y-11940000D01*
X20070000Y-12560000D02*
X20090000Y-12580000D01*
X20090000Y-12560000D02*
X20070000Y-12580000D01*
X20070000Y-12640000D02*
X20090000Y-12660000D01*
X20090000Y-12640000D02*
X20070000Y-12660000D01*
X20070000Y-12720000D02*
X20090000Y-12740000D01*
X20090000Y-12720000D02*
X20070000Y-12740000D01*
X20075000Y-9705000D02*
X20095000Y-9725000D01*
X20095000Y-9705000D02*
X20075000Y-9725000D01*
X20080000Y-10915000D02*
X20100000Y-10935000D01*
X20100000Y-10915000D02*
X20080000Y-10935000D01*
X20080000Y-12040000D02*
X20100000Y-12060000D01*
X20100000Y-12040000D02*
X20080000Y-12060000D01*
X20081841Y-13278159D02*
X20101841Y-13298159D01*
X20101841Y-13278159D02*
X20081841Y-13298159D01*
X20110000Y-11615000D02*
X20130000Y-11635000D01*
X20130000Y-11615000D02*
X20110000Y-11635000D01*
X20110000Y-12360000D02*
X20130000Y-12380000D01*
X20130000Y-12360000D02*
X20110000Y-12380000D01*
X20132400Y-12885077D02*
X20152400Y-12905077D01*
X20152400Y-12885077D02*
X20132400Y-12905077D01*
X20145000Y-12245000D02*
X20165000Y-12265000D01*
X20165000Y-12245000D02*
X20145000Y-12265000D01*
X20150000Y-11760000D02*
X20170000Y-11780000D01*
X20170000Y-11760000D02*
X20150000Y-11780000D01*
X20150000Y-11830000D02*
X20170000Y-11850000D01*
X20170000Y-11830000D02*
X20150000Y-11850000D01*
X20150000Y-12480000D02*
X20170000Y-12500000D01*
X20170000Y-12480000D02*
X20150000Y-12500000D01*
X20160000Y-9390000D02*
X20180000Y-9410000D01*
X20180000Y-9390000D02*
X20160000Y-9410000D01*
X20175000Y-9805000D02*
X20195000Y-9825000D01*
X20195000Y-9805000D02*
X20175000Y-9825000D01*
X20190000Y-11620000D02*
X20210000Y-11640000D01*
X20210000Y-11620000D02*
X20190000Y-11640000D01*
X20205817Y-12890971D02*
X20225817Y-12910971D01*
X20225817Y-12890971D02*
X20205817Y-12910971D01*
X20223277Y-11534451D02*
X20243277Y-11554451D01*
X20243277Y-11534451D02*
X20223277Y-11554451D01*
X20225000Y-12240000D02*
X20245000Y-12260000D01*
X20245000Y-12240000D02*
X20225000Y-12260000D01*
X20230000Y-11920000D02*
X20250000Y-11940000D01*
X20250000Y-11920000D02*
X20230000Y-11940000D01*
X20230000Y-12000000D02*
X20250000Y-12020000D01*
X20250000Y-12000000D02*
X20230000Y-12020000D01*
X20235000Y-12405000D02*
X20255000Y-12425000D01*
X20255000Y-12405000D02*
X20235000Y-12425000D01*
X20250000Y-13725000D02*
X20270000Y-13745000D01*
X20270000Y-13725000D02*
X20250000Y-13745000D01*
X20265000Y-12890000D02*
X20285000Y-12910000D01*
X20285000Y-12890000D02*
X20265000Y-12910000D01*
X20271000Y-11638750D02*
X20291000Y-11658750D01*
X20291000Y-11638750D02*
X20271000Y-11658750D01*
X20275000Y-9705000D02*
X20295000Y-9725000D01*
X20295000Y-9705000D02*
X20275000Y-9725000D01*
X20310000Y-11690000D02*
X20330000Y-11710000D01*
X20330000Y-11690000D02*
X20310000Y-11710000D01*
X20310000Y-11840000D02*
X20330000Y-11860000D01*
X20330000Y-11840000D02*
X20310000Y-11860000D01*
X20310000Y-11920000D02*
X20330000Y-11940000D01*
X20330000Y-11920000D02*
X20310000Y-11940000D01*
X20310000Y-12000000D02*
X20330000Y-12020000D01*
X20330000Y-12000000D02*
X20310000Y-12020000D01*
X20310000Y-12080000D02*
X20330000Y-12100000D01*
X20330000Y-12080000D02*
X20310000Y-12100000D01*
X20310000Y-12200000D02*
X20330000Y-12220000D01*
X20330000Y-12200000D02*
X20310000Y-12220000D01*
X20310000Y-12407500D02*
X20330000Y-12427500D01*
X20330000Y-12407500D02*
X20310000Y-12427500D01*
X20310000Y-12480000D02*
X20330000Y-12500000D01*
X20330000Y-12480000D02*
X20310000Y-12500000D01*
X20310000Y-12560000D02*
X20330000Y-12580000D01*
X20330000Y-12560000D02*
X20310000Y-12580000D01*
X20310000Y-12800000D02*
X20330000Y-12820000D01*
X20330000Y-12800000D02*
X20310000Y-12820000D01*
X20375000Y-9805000D02*
X20395000Y-9825000D01*
X20395000Y-9805000D02*
X20375000Y-9825000D01*
X20390000Y-9160000D02*
X20410000Y-9180000D01*
X20410000Y-9160000D02*
X20390000Y-9180000D01*
X20390000Y-11840000D02*
X20410000Y-11860000D01*
X20410000Y-11840000D02*
X20390000Y-11860000D01*
X20390000Y-11920000D02*
X20410000Y-11940000D01*
X20410000Y-11920000D02*
X20390000Y-11940000D01*
X20390000Y-12000000D02*
X20410000Y-12020000D01*
X20410000Y-12000000D02*
X20390000Y-12020000D01*
X20390000Y-12080000D02*
X20410000Y-12100000D01*
X20410000Y-12080000D02*
X20390000Y-12100000D01*
X20390000Y-12200000D02*
X20410000Y-12220000D01*
X20410000Y-12200000D02*
X20390000Y-12220000D01*
X20390000Y-12640000D02*
X20410000Y-12660000D01*
X20410000Y-12640000D02*
X20390000Y-12660000D01*
X20395000Y-10625000D02*
X20415000Y-10645000D01*
X20415000Y-10625000D02*
X20395000Y-10645000D01*
X20395000Y-13110000D02*
X20415000Y-13130000D01*
X20415000Y-13110000D02*
X20395000Y-13130000D01*
X20399554Y-11305000D02*
X20419554Y-11325000D01*
X20419554Y-11305000D02*
X20399554Y-11325000D01*
X20405000Y-10915000D02*
X20425000Y-10935000D01*
X20425000Y-10915000D02*
X20405000Y-10935000D01*
X20470000Y-11920000D02*
X20490000Y-11940000D01*
X20490000Y-11920000D02*
X20470000Y-11940000D01*
X20470000Y-12080000D02*
X20490000Y-12100000D01*
X20490000Y-12080000D02*
X20470000Y-12100000D01*
X20470000Y-12200000D02*
X20490000Y-12220000D01*
X20490000Y-12200000D02*
X20470000Y-12220000D01*
X20470000Y-12360000D02*
X20490000Y-12380000D01*
X20490000Y-12360000D02*
X20470000Y-12380000D01*
X20470000Y-12640000D02*
X20490000Y-12660000D01*
X20490000Y-12640000D02*
X20470000Y-12660000D01*
X20475000Y-9705000D02*
X20495000Y-9725000D01*
X20495000Y-9705000D02*
X20475000Y-9725000D01*
X20475794Y-12557600D02*
X20495794Y-12577600D01*
X20495794Y-12557600D02*
X20475794Y-12577600D01*
X20480000Y-11260000D02*
X20500000Y-11280000D01*
X20500000Y-11260000D02*
X20480000Y-11280000D01*
X20495000Y-8470000D02*
X20515000Y-8490000D01*
X20515000Y-8470000D02*
X20495000Y-8490000D01*
X20510000Y-11485000D02*
X20530000Y-11505000D01*
X20530000Y-11485000D02*
X20510000Y-11505000D01*
X20510000Y-11760000D02*
X20530000Y-11780000D01*
X20530000Y-11760000D02*
X20510000Y-11780000D01*
X20530000Y-10625000D02*
X20550000Y-10645000D01*
X20550000Y-10625000D02*
X20530000Y-10645000D01*
X20535000Y-10915000D02*
X20555000Y-10935000D01*
X20555000Y-10915000D02*
X20535000Y-10935000D01*
X20545000Y-10350000D02*
X20565000Y-10370000D01*
X20565000Y-10350000D02*
X20545000Y-10370000D01*
X20550000Y-12800000D02*
X20570000Y-12820000D01*
X20570000Y-12800000D02*
X20550000Y-12820000D01*
X20580000Y-12200000D02*
X20600000Y-12220000D01*
X20600000Y-12200000D02*
X20580000Y-12220000D01*
X20590000Y-12600000D02*
X20610000Y-12620000D01*
X20610000Y-12600000D02*
X20590000Y-12620000D01*
X20590000Y-12680000D02*
X20610000Y-12700000D01*
X20610000Y-12680000D02*
X20590000Y-12700000D01*
X20630000Y-12055000D02*
X20650000Y-12075000D01*
X20650000Y-12055000D02*
X20630000Y-12075000D01*
X20635000Y-12350000D02*
X20655000Y-12370000D01*
X20655000Y-12350000D02*
X20635000Y-12370000D01*
X20635000Y-12440000D02*
X20655000Y-12460000D01*
X20655000Y-12440000D02*
X20635000Y-12460000D01*
X20645000Y-10350000D02*
X20665000Y-10370000D01*
X20665000Y-10350000D02*
X20645000Y-10370000D01*
X20670000Y-13010000D02*
X20690000Y-13030000D01*
X20690000Y-13010000D02*
X20670000Y-13030000D01*
X20690000Y-12200000D02*
X20710000Y-12220000D01*
X20710000Y-12200000D02*
X20690000Y-12220000D01*
X20720000Y-11880000D02*
X20740000Y-11900000D01*
X20740000Y-11880000D02*
X20720000Y-11900000D01*
X20745000Y-12055000D02*
X20765000Y-12075000D01*
X20765000Y-12055000D02*
X20745000Y-12075000D01*
X20750000Y-12350000D02*
X20770000Y-12370000D01*
X20770000Y-12350000D02*
X20750000Y-12370000D01*
X20785000Y-12915000D02*
X20805000Y-12935000D01*
X20805000Y-12915000D02*
X20785000Y-12935000D01*
X20790000Y-8150000D02*
X20810000Y-8170000D01*
X20810000Y-8150000D02*
X20790000Y-8170000D01*
X20800000Y-12200000D02*
X20820000Y-12220000D01*
X20820000Y-12200000D02*
X20800000Y-12220000D01*
X20825000Y-12680000D02*
X20845000Y-12700000D01*
X20845000Y-12680000D02*
X20825000Y-12700000D01*
X20870000Y-12120000D02*
X20890000Y-12140000D01*
X20890000Y-12120000D02*
X20870000Y-12140000D01*
X20875000Y-12015000D02*
X20895000Y-12035000D01*
X20895000Y-12015000D02*
X20875000Y-12035000D01*
X20965000Y-9485000D02*
X20985000Y-9505000D01*
X20985000Y-9485000D02*
X20965000Y-9505000D01*
X21045000Y-12035000D02*
X21065000Y-12055000D01*
X21065000Y-12035000D02*
X21045000Y-12055000D01*
X21070000Y-9485000D02*
X21090000Y-9505000D01*
X21090000Y-9485000D02*
X21070000Y-9505000D01*
X21105100Y-12679900D02*
X21125100Y-12699900D01*
X21125100Y-12679900D02*
X21105100Y-12699900D01*
X21112600Y-12772400D02*
X21132600Y-12792400D01*
X21132600Y-12772400D02*
X21112600Y-12792400D01*
X21112600Y-12882400D02*
X21132600Y-12902400D01*
X21132600Y-12882400D02*
X21112600Y-12902400D01*
X21112600Y-12952400D02*
X21132600Y-12972400D01*
X21132600Y-12952400D02*
X21112600Y-12972400D01*
X21200000Y-12600000D02*
X21220000Y-12620000D01*
X21220000Y-12600000D02*
X21200000Y-12620000D01*
X21230000Y-12265000D02*
X21250000Y-12285000D01*
X21250000Y-12265000D02*
X21230000Y-12285000D01*
X21247500Y-12535000D02*
X21267500Y-12555000D01*
X21267500Y-12535000D02*
X21247500Y-12555000D01*
X21290000Y-11835000D02*
X21310000Y-11855000D01*
X21310000Y-11835000D02*
X21290000Y-11855000D01*
X21305000Y-12265000D02*
X21325000Y-12285000D01*
X21325000Y-12265000D02*
X21305000Y-12285000D01*
X21320000Y-12600000D02*
X21340000Y-12620000D01*
X21340000Y-12600000D02*
X21320000Y-12620000D01*
X21350000Y-8580000D02*
X21370000Y-8600000D01*
X21370000Y-8580000D02*
X21350000Y-8600000D01*
X21390000Y-12400000D02*
X21410000Y-12420000D01*
X21410000Y-12400000D02*
X21390000Y-12420000D01*
X21500000Y-8505000D02*
X21520000Y-8525000D01*
X21520000Y-8505000D02*
X21500000Y-8525000D01*
X21505000Y-8605000D02*
X21525000Y-8625000D01*
X21525000Y-8605000D02*
X21505000Y-8625000D01*
X21580000Y-11910000D02*
X21600000Y-11930000D01*
X21600000Y-11910000D02*
X21580000Y-11930000D01*
X21632716Y-12737284D02*
X21652716Y-12757284D01*
X21652716Y-12737284D02*
X21632716Y-12757284D01*
X21655000Y-11440000D02*
X21675000Y-11460000D01*
X21675000Y-11440000D02*
X21655000Y-11460000D01*
X21810000Y-12135000D02*
X21830000Y-12155000D01*
X21830000Y-12135000D02*
X21810000Y-12155000D01*
X22865000Y-12410000D02*
X22885000Y-12430000D01*
X22885000Y-12410000D02*
X22865000Y-12430000D01*
X22865000Y-12664000D02*
X22885000Y-12684000D01*
X22885000Y-12664000D02*
X22865000Y-12684000D01*
X15605000Y-14610000D02*
G75*
G02*
X15575000Y-14610000I-15000J0D01*
G01*
X15575000Y-14610000D02*
G75*
G02*
X15605000Y-14610000I15000J0D01*
G01*
X15610000Y-9655000D02*
G75*
G02*
X15580000Y-9655000I-15000J0D01*
G01*
X15580000Y-9655000D02*
G75*
G02*
X15610000Y-9655000I15000J0D01*
G01*
X17225000Y-10285000D02*
G75*
G02*
X17195000Y-10285000I-15000J0D01*
G01*
X17195000Y-10285000D02*
G75*
G02*
X17225000Y-10285000I15000J0D01*
G01*
X18450000Y-10300000D02*
G75*
G02*
X18420000Y-10300000I-15000J0D01*
G01*
X18420000Y-10300000D02*
G75*
G02*
X18450000Y-10300000I15000J0D01*
G01*
X18475000Y-9185000D02*
G75*
G02*
X18445000Y-9185000I-15000J0D01*
G01*
X18445000Y-9185000D02*
G75*
G02*
X18475000Y-9185000I15000J0D01*
G01*
X19785000Y-9225000D02*
G75*
G02*
X19755000Y-9225000I-15000J0D01*
G01*
X19755000Y-9225000D02*
G75*
G02*
X19785000Y-9225000I15000J0D01*
G01*
X22085000Y-14610000D02*
G75*
G02*
X22055000Y-14610000I-15000J0D01*
G01*
X22055000Y-14610000D02*
G75*
G02*
X22085000Y-14610000I15000J0D01*
G01*
X22115000Y-9655000D02*
G75*
G02*
X22085000Y-9655000I-15000J0D01*
G01*
X22085000Y-9655000D02*
G75*
G02*
X22115000Y-9655000I15000J0D01*
G01*
X18593000Y-15114500D02*
X18593000Y-15174500D01*
X18563000Y-15144500D02*
X18623000Y-15144500D01*
X18563000Y-15089500D02*
X18563000Y-15199500D01*
X18623000Y-15199500D02*
G75*
G02*
X18563000Y-15199500I-30000J0D01*
G01*
X18623000Y-15199500D02*
X18623000Y-15089500D01*
X18623000Y-15089500D02*
G75*
G03*
X18563000Y-15089500I-30000J0D01*
G01*
X18593000Y-15532500D02*
X18593000Y-15592500D01*
X18563000Y-15562500D02*
X18623000Y-15562500D01*
X18563000Y-15522500D02*
X18563000Y-15602500D01*
X18623000Y-15602500D02*
G75*
G02*
X18563000Y-15602500I-30000J0D01*
G01*
X18623000Y-15602500D02*
X18623000Y-15522500D01*
X18623000Y-15522500D02*
G75*
G03*
X18563000Y-15522500I-30000J0D01*
G01*
X19457000Y-15114500D02*
X19457000Y-15174500D01*
X19427000Y-15144500D02*
X19487000Y-15144500D01*
X19427000Y-15089500D02*
X19427000Y-15199500D01*
X19487000Y-15199500D02*
G75*
G02*
X19427000Y-15199500I-30000J0D01*
G01*
X19487000Y-15199500D02*
X19487000Y-15089500D01*
X19487000Y-15089500D02*
G75*
G03*
X19427000Y-15089500I-30000J0D01*
G01*
X19457000Y-15532500D02*
X19457000Y-15592500D01*
X19427000Y-15562500D02*
X19487000Y-15562500D01*
X19427000Y-15522500D02*
X19427000Y-15602500D01*
X19487000Y-15602500D02*
G75*
G02*
X19427000Y-15602500I-30000J0D01*
G01*
X19487000Y-15602500D02*
X19487000Y-15522500D01*
X19487000Y-15522500D02*
G75*
G03*
X19427000Y-15522500I-30000J0D01*
G01*
X15535356Y-10035356D02*
X15535356Y-9964644D01*
X15464644Y-9964644D01*
X15464644Y-10035356D01*
X15535356Y-10035356D01*
X15535356Y-10289356D02*
X15535356Y-10218644D01*
X15464644Y-10218644D01*
X15464644Y-10289356D01*
X15535356Y-10289356D01*
X15535356Y-10543356D02*
X15535356Y-10472644D01*
X15464644Y-10472644D01*
X15464644Y-10543356D01*
X15535356Y-10543356D01*
X15535356Y-10797356D02*
X15535356Y-10726644D01*
X15464644Y-10726644D01*
X15464644Y-10797356D01*
X15535356Y-10797356D01*
X15535356Y-11051356D02*
X15535356Y-10980644D01*
X15464644Y-10980644D01*
X15464644Y-11051356D01*
X15535356Y-11051356D01*
X15535356Y-11305356D02*
X15535356Y-11234644D01*
X15464644Y-11234644D01*
X15464644Y-11305356D01*
X15535356Y-11305356D01*
X15535356Y-11559356D02*
X15535356Y-11488644D01*
X15464644Y-11488644D01*
X15464644Y-11559356D01*
X15535356Y-11559356D01*
X15535356Y-11813356D02*
X15535356Y-11742644D01*
X15464644Y-11742644D01*
X15464644Y-11813356D01*
X15535356Y-11813356D01*
X15535356Y-12067356D02*
X15535356Y-11996644D01*
X15464644Y-11996644D01*
X15464644Y-12067356D01*
X15535356Y-12067356D01*
X15535356Y-12321356D02*
X15535356Y-12250644D01*
X15464644Y-12250644D01*
X15464644Y-12321356D01*
X15535356Y-12321356D01*
X15535356Y-12575356D02*
X15535356Y-12504644D01*
X15464644Y-12504644D01*
X15464644Y-12575356D01*
X15535356Y-12575356D01*
X15535356Y-12829356D02*
X15535356Y-12758644D01*
X15464644Y-12758644D01*
X15464644Y-12829356D01*
X15535356Y-12829356D01*
X15535356Y-13083356D02*
X15535356Y-13012644D01*
X15464644Y-13012644D01*
X15464644Y-13083356D01*
X15535356Y-13083356D01*
X15535356Y-13337356D02*
X15535356Y-13266644D01*
X15464644Y-13266644D01*
X15464644Y-13337356D01*
X15535356Y-13337356D01*
X15535356Y-13591356D02*
X15535356Y-13520644D01*
X15464644Y-13520644D01*
X15464644Y-13591356D01*
X15535356Y-13591356D01*
X15535356Y-13845356D02*
X15535356Y-13774644D01*
X15464644Y-13774644D01*
X15464644Y-13845356D01*
X15535356Y-13845356D01*
X15535356Y-14099356D02*
X15535356Y-14028644D01*
X15464644Y-14028644D01*
X15464644Y-14099356D01*
X15535356Y-14099356D01*
X15535356Y-14353356D02*
X15535356Y-14282644D01*
X15464644Y-14282644D01*
X15464644Y-14353356D01*
X15535356Y-14353356D01*
X16035356Y-10035356D02*
X16035356Y-9964644D01*
X15964644Y-9964644D01*
X15964644Y-10035356D01*
X16035356Y-10035356D01*
X16035356Y-10289356D02*
X16035356Y-10218644D01*
X15964644Y-10218644D01*
X15964644Y-10289356D01*
X16035356Y-10289356D01*
X16035356Y-10543356D02*
X16035356Y-10472644D01*
X15964644Y-10472644D01*
X15964644Y-10543356D01*
X16035356Y-10543356D01*
X16035356Y-10797356D02*
X16035356Y-10726644D01*
X15964644Y-10726644D01*
X15964644Y-10797356D01*
X16035356Y-10797356D01*
X16035356Y-11051356D02*
X16035356Y-10980644D01*
X15964644Y-10980644D01*
X15964644Y-11051356D01*
X16035356Y-11051356D01*
X16035356Y-11305356D02*
X16035356Y-11234644D01*
X15964644Y-11234644D01*
X15964644Y-11305356D01*
X16035356Y-11305356D01*
X16035356Y-11559356D02*
X16035356Y-11488644D01*
X15964644Y-11488644D01*
X15964644Y-11559356D01*
X16035356Y-11559356D01*
X16035356Y-11813356D02*
X16035356Y-11742644D01*
X15964644Y-11742644D01*
X15964644Y-11813356D01*
X16035356Y-11813356D01*
X16035356Y-12067356D02*
X16035356Y-11996644D01*
X15964644Y-11996644D01*
X15964644Y-12067356D01*
X16035356Y-12067356D01*
X16035356Y-12321356D02*
X16035356Y-12250644D01*
X15964644Y-12250644D01*
X15964644Y-12321356D01*
X16035356Y-12321356D01*
X16035356Y-12575356D02*
X16035356Y-12504644D01*
X15964644Y-12504644D01*
X15964644Y-12575356D01*
X16035356Y-12575356D01*
X16035356Y-12829356D02*
X16035356Y-12758644D01*
X15964644Y-12758644D01*
X15964644Y-12829356D01*
X16035356Y-12829356D01*
X16035356Y-13083356D02*
X16035356Y-13012644D01*
X15964644Y-13012644D01*
X15964644Y-13083356D01*
X16035356Y-13083356D01*
X16035356Y-13337356D02*
X16035356Y-13266644D01*
X15964644Y-13266644D01*
X15964644Y-13337356D01*
X16035356Y-13337356D01*
X16035356Y-13591356D02*
X16035356Y-13520644D01*
X15964644Y-13520644D01*
X15964644Y-13591356D01*
X16035356Y-13591356D01*
X16035356Y-13845356D02*
X16035356Y-13774644D01*
X15964644Y-13774644D01*
X15964644Y-13845356D01*
X16035356Y-13845356D01*
X16035356Y-14099356D02*
X16035356Y-14028644D01*
X15964644Y-14028644D01*
X15964644Y-14099356D01*
X16035356Y-14099356D01*
X16035356Y-14353356D02*
X16035356Y-14282644D01*
X15964644Y-14282644D01*
X15964644Y-14353356D01*
X16035356Y-14353356D01*
X16870356Y-12572356D02*
X16870356Y-12501644D01*
X16799644Y-12501644D01*
X16799644Y-12572356D01*
X16870356Y-12572356D01*
X16870356Y-12826356D02*
X16870356Y-12755644D01*
X16799644Y-12755644D01*
X16799644Y-12826356D01*
X16870356Y-12826356D01*
X16870356Y-13080356D02*
X16870356Y-13009644D01*
X16799644Y-13009644D01*
X16799644Y-13080356D01*
X16870356Y-13080356D01*
X16870356Y-13334356D02*
X16870356Y-13263644D01*
X16799644Y-13263644D01*
X16799644Y-13334356D01*
X16870356Y-13334356D01*
X16870356Y-13588356D02*
X16870356Y-13517644D01*
X16799644Y-13517644D01*
X16799644Y-13588356D01*
X16870356Y-13588356D01*
X16870356Y-13842356D02*
X16870356Y-13771644D01*
X16799644Y-13771644D01*
X16799644Y-13842356D01*
X16870356Y-13842356D01*
X16870356Y-14096356D02*
X16870356Y-14025644D01*
X16799644Y-14025644D01*
X16799644Y-14096356D01*
X16870356Y-14096356D01*
X16870356Y-14350356D02*
X16870356Y-14279644D01*
X16799644Y-14279644D01*
X16799644Y-14350356D01*
X16870356Y-14350356D01*
X18727356Y-10626356D02*
X18727356Y-10555644D01*
X18656644Y-10555644D01*
X18656644Y-10626356D01*
X18727356Y-10626356D01*
X18727356Y-11085356D02*
X18727356Y-11014644D01*
X18656644Y-11014644D01*
X18656644Y-11085356D01*
X18727356Y-11085356D01*
X18981356Y-10626356D02*
X18981356Y-10555644D01*
X18910644Y-10555644D01*
X18910644Y-10626356D01*
X18981356Y-10626356D01*
X18981356Y-11085356D02*
X18981356Y-11014644D01*
X18910644Y-11014644D01*
X18910644Y-11085356D01*
X18981356Y-11085356D01*
X19235356Y-10626356D02*
X19235356Y-10555644D01*
X19164644Y-10555644D01*
X19164644Y-10626356D01*
X19235356Y-10626356D01*
X19235356Y-11085356D02*
X19235356Y-11014644D01*
X19164644Y-11014644D01*
X19164644Y-11085356D01*
X19235356Y-11085356D01*
X21021356Y-11635356D02*
X21021356Y-11564644D01*
X20950644Y-11564644D01*
X20950644Y-11635356D01*
X21021356Y-11635356D01*
X21275356Y-11635356D02*
X21275356Y-11564644D01*
X21204644Y-11564644D01*
X21204644Y-11635356D01*
X21275356Y-11635356D01*
X21535356Y-10035356D02*
X21535356Y-9964644D01*
X21464644Y-9964644D01*
X21464644Y-10035356D01*
X21535356Y-10035356D01*
X21535356Y-10289356D02*
X21535356Y-10218644D01*
X21464644Y-10218644D01*
X21464644Y-10289356D01*
X21535356Y-10289356D01*
X21535356Y-10543356D02*
X21535356Y-10472644D01*
X21464644Y-10472644D01*
X21464644Y-10543356D01*
X21535356Y-10543356D01*
X21535356Y-10797356D02*
X21535356Y-10726644D01*
X21464644Y-10726644D01*
X21464644Y-10797356D01*
X21535356Y-10797356D01*
X21535356Y-11051356D02*
X21535356Y-10980644D01*
X21464644Y-10980644D01*
X21464644Y-11051356D01*
X21535356Y-11051356D01*
X22035356Y-10035356D02*
X22035356Y-9964644D01*
X21964644Y-9964644D01*
X21964644Y-10035356D01*
X22035356Y-10035356D01*
X22035356Y-10289356D02*
X22035356Y-10218644D01*
X21964644Y-10218644D01*
X21964644Y-10289356D01*
X22035356Y-10289356D01*
X22035356Y-10543356D02*
X22035356Y-10472644D01*
X21964644Y-10472644D01*
X21964644Y-10543356D01*
X22035356Y-10543356D01*
X22035356Y-10797356D02*
X22035356Y-10726644D01*
X21964644Y-10726644D01*
X21964644Y-10797356D01*
X22035356Y-10797356D01*
X22035356Y-11051356D02*
X22035356Y-10980644D01*
X21964644Y-10980644D01*
X21964644Y-11051356D01*
X22035356Y-11051356D01*
X22035356Y-11305356D02*
X22035356Y-11234644D01*
X21964644Y-11234644D01*
X21964644Y-11305356D01*
X22035356Y-11305356D01*
X22035356Y-11559356D02*
X22035356Y-11488644D01*
X21964644Y-11488644D01*
X21964644Y-11559356D01*
X22035356Y-11559356D01*
X22035356Y-11813356D02*
X22035356Y-11742644D01*
X21964644Y-11742644D01*
X21964644Y-11813356D01*
X22035356Y-11813356D01*
X22035356Y-12067356D02*
X22035356Y-11996644D01*
X21964644Y-11996644D01*
X21964644Y-12067356D01*
X22035356Y-12067356D01*
X22035356Y-12321356D02*
X22035356Y-12250644D01*
X21964644Y-12250644D01*
X21964644Y-12321356D01*
X22035356Y-12321356D01*
X22035356Y-12575356D02*
X22035356Y-12504644D01*
X21964644Y-12504644D01*
X21964644Y-12575356D01*
X22035356Y-12575356D01*
X22035356Y-12829356D02*
X22035356Y-12758644D01*
X21964644Y-12758644D01*
X21964644Y-12829356D01*
X22035356Y-12829356D01*
X22035356Y-13083356D02*
X22035356Y-13012644D01*
X21964644Y-13012644D01*
X21964644Y-13083356D01*
X22035356Y-13083356D01*
X22035356Y-13337356D02*
X22035356Y-13266644D01*
X21964644Y-13266644D01*
X21964644Y-13337356D01*
X22035356Y-13337356D01*
X22035356Y-13591356D02*
X22035356Y-13520644D01*
X21964644Y-13520644D01*
X21964644Y-13591356D01*
X22035356Y-13591356D01*
X22035356Y-13845356D02*
X22035356Y-13774644D01*
X21964644Y-13774644D01*
X21964644Y-13845356D01*
X22035356Y-13845356D01*
X22035356Y-14099356D02*
X22035356Y-14028644D01*
X21964644Y-14028644D01*
X21964644Y-14099356D01*
X22035356Y-14099356D01*
X22035356Y-14353356D02*
X22035356Y-14282644D01*
X21964644Y-14282644D01*
X21964644Y-14353356D01*
X22035356Y-14353356D01*
X22535356Y-10035356D02*
X22535356Y-9964644D01*
X22464644Y-9964644D01*
X22464644Y-10035356D01*
X22535356Y-10035356D01*
X22535356Y-10289356D02*
X22535356Y-10218644D01*
X22464644Y-10218644D01*
X22464644Y-10289356D01*
X22535356Y-10289356D01*
X22535356Y-10543356D02*
X22535356Y-10472644D01*
X22464644Y-10472644D01*
X22464644Y-10543356D01*
X22535356Y-10543356D01*
X22535356Y-10797356D02*
X22535356Y-10726644D01*
X22464644Y-10726644D01*
X22464644Y-10797356D01*
X22535356Y-10797356D01*
X22535356Y-11051356D02*
X22535356Y-10980644D01*
X22464644Y-10980644D01*
X22464644Y-11051356D01*
X22535356Y-11051356D01*
X22535356Y-11305356D02*
X22535356Y-11234644D01*
X22464644Y-11234644D01*
X22464644Y-11305356D01*
X22535356Y-11305356D01*
X22535356Y-11559356D02*
X22535356Y-11488644D01*
X22464644Y-11488644D01*
X22464644Y-11559356D01*
X22535356Y-11559356D01*
X22535356Y-11813356D02*
X22535356Y-11742644D01*
X22464644Y-11742644D01*
X22464644Y-11813356D01*
X22535356Y-11813356D01*
X22535356Y-12067356D02*
X22535356Y-11996644D01*
X22464644Y-11996644D01*
X22464644Y-12067356D01*
X22535356Y-12067356D01*
X22535356Y-12321356D02*
X22535356Y-12250644D01*
X22464644Y-12250644D01*
X22464644Y-12321356D01*
X22535356Y-12321356D01*
X22535356Y-12575356D02*
X22535356Y-12504644D01*
X22464644Y-12504644D01*
X22464644Y-12575356D01*
X22535356Y-12575356D01*
X22535356Y-12829356D02*
X22535356Y-12758644D01*
X22464644Y-12758644D01*
X22464644Y-12829356D01*
X22535356Y-12829356D01*
X22535356Y-13083356D02*
X22535356Y-13012644D01*
X22464644Y-13012644D01*
X22464644Y-13083356D01*
X22535356Y-13083356D01*
X22535356Y-13337356D02*
X22535356Y-13266644D01*
X22464644Y-13266644D01*
X22464644Y-13337356D01*
X22535356Y-13337356D01*
X22535356Y-13591356D02*
X22535356Y-13520644D01*
X22464644Y-13520644D01*
X22464644Y-13591356D01*
X22535356Y-13591356D01*
X22535356Y-13845356D02*
X22535356Y-13774644D01*
X22464644Y-13774644D01*
X22464644Y-13845356D01*
X22535356Y-13845356D01*
X22535356Y-14099356D02*
X22535356Y-14028644D01*
X22464644Y-14028644D01*
X22464644Y-14099356D01*
X22535356Y-14099356D01*
X22535356Y-14353356D02*
X22535356Y-14282644D01*
X22464644Y-14282644D01*
X22464644Y-14353356D01*
X22535356Y-14353356D01*
D13*
X15284400Y-8399000D02*
X15409400Y-8274000D01*
X15284400Y-8149000D01*
X15159400Y-8274000D01*
X15284400Y-8399000D01*
X15284400Y-15473000D02*
X15409400Y-15348000D01*
X15284400Y-15223000D01*
X15159400Y-15348000D01*
X15284400Y-15473000D01*
X22688600Y-8399000D02*
X22813600Y-8274000D01*
X22688600Y-8149000D01*
X22563600Y-8274000D01*
X22688600Y-8399000D01*
X22688600Y-15473000D02*
X22813600Y-15348000D01*
X22688600Y-15223000D01*
X22563600Y-15348000D01*
X22688600Y-15473000D01*
D11*
X15142677Y-16061984D02*
X15142677Y-15861984D01*
X15142677Y-15861984D02*
X15190296Y-15861984D01*
X15190296Y-15861984D02*
X15218867Y-15871508D01*
X15218867Y-15871508D02*
X15237915Y-15890555D01*
X15237915Y-15890555D02*
X15247439Y-15909603D01*
X15247439Y-15909603D02*
X15256962Y-15947698D01*
X15256962Y-15947698D02*
X15256962Y-15976269D01*
X15256962Y-15976269D02*
X15247439Y-16014365D01*
X15247439Y-16014365D02*
X15237915Y-16033412D01*
X15237915Y-16033412D02*
X15218867Y-16052460D01*
X15218867Y-16052460D02*
X15190296Y-16061984D01*
X15190296Y-16061984D02*
X15142677Y-16061984D01*
X15342677Y-16061984D02*
X15342677Y-15928650D01*
X15342677Y-15966746D02*
X15352201Y-15947698D01*
X15352201Y-15947698D02*
X15361724Y-15938174D01*
X15361724Y-15938174D02*
X15380772Y-15928650D01*
X15380772Y-15928650D02*
X15399820Y-15928650D01*
X15466486Y-16061984D02*
X15466486Y-15928650D01*
X15466486Y-15861984D02*
X15456962Y-15871508D01*
X15456962Y-15871508D02*
X15466486Y-15881031D01*
X15466486Y-15881031D02*
X15476010Y-15871508D01*
X15476010Y-15871508D02*
X15466486Y-15861984D01*
X15466486Y-15861984D02*
X15466486Y-15881031D01*
X15590296Y-16061984D02*
X15571248Y-16052460D01*
X15571248Y-16052460D02*
X15561724Y-16033412D01*
X15561724Y-16033412D02*
X15561724Y-15861984D01*
X15695058Y-16061984D02*
X15676010Y-16052460D01*
X15676010Y-16052460D02*
X15666486Y-16033412D01*
X15666486Y-16033412D02*
X15666486Y-15861984D01*
X15923629Y-16061984D02*
X15923629Y-15861984D01*
X15923629Y-15861984D02*
X15990296Y-16004841D01*
X15990296Y-16004841D02*
X16056962Y-15861984D01*
X16056962Y-15861984D02*
X16056962Y-16061984D01*
X16237915Y-16061984D02*
X16237915Y-15957222D01*
X16237915Y-15957222D02*
X16228391Y-15938174D01*
X16228391Y-15938174D02*
X16209343Y-15928650D01*
X16209343Y-15928650D02*
X16171248Y-15928650D01*
X16171248Y-15928650D02*
X16152201Y-15938174D01*
X16237915Y-16052460D02*
X16218867Y-16061984D01*
X16218867Y-16061984D02*
X16171248Y-16061984D01*
X16171248Y-16061984D02*
X16152201Y-16052460D01*
X16152201Y-16052460D02*
X16142677Y-16033412D01*
X16142677Y-16033412D02*
X16142677Y-16014365D01*
X16142677Y-16014365D02*
X16152201Y-15995317D01*
X16152201Y-15995317D02*
X16171248Y-15985793D01*
X16171248Y-15985793D02*
X16218867Y-15985793D01*
X16218867Y-15985793D02*
X16237915Y-15976269D01*
X16333153Y-15928650D02*
X16333153Y-16128650D01*
X16333153Y-15938174D02*
X16352201Y-15928650D01*
X16352201Y-15928650D02*
X16390296Y-15928650D01*
X16390296Y-15928650D02*
X16409343Y-15938174D01*
X16409343Y-15938174D02*
X16418867Y-15947698D01*
X16418867Y-15947698D02*
X16428391Y-15966746D01*
X16428391Y-15966746D02*
X16428391Y-16023888D01*
X16428391Y-16023888D02*
X16418867Y-16042936D01*
X16418867Y-16042936D02*
X16409343Y-16052460D01*
X16409343Y-16052460D02*
X16390296Y-16061984D01*
X16390296Y-16061984D02*
X16352201Y-16061984D01*
X16352201Y-16061984D02*
X16333153Y-16052460D01*
X16514105Y-16042936D02*
X16523629Y-16052460D01*
X16523629Y-16052460D02*
X16514105Y-16061984D01*
X16514105Y-16061984D02*
X16504582Y-16052460D01*
X16504582Y-16052460D02*
X16514105Y-16042936D01*
X16514105Y-16042936D02*
X16514105Y-16061984D01*
X16514105Y-15938174D02*
X16523629Y-15947698D01*
X16523629Y-15947698D02*
X16514105Y-15957222D01*
X16514105Y-15957222D02*
X16504582Y-15947698D01*
X16504582Y-15947698D02*
X16514105Y-15938174D01*
X16514105Y-15938174D02*
X16514105Y-15957222D01*
D12*
X14861900Y-16380500D02*
X14881900Y-16400500D01*
X14881900Y-16380500D02*
X14861900Y-16400500D01*
D11*
X15180772Y-16281984D02*
X15199820Y-16281984D01*
X15199820Y-16281984D02*
X15218867Y-16291508D01*
X15218867Y-16291508D02*
X15228391Y-16301031D01*
X15228391Y-16301031D02*
X15237915Y-16320079D01*
X15237915Y-16320079D02*
X15247439Y-16358174D01*
X15247439Y-16358174D02*
X15247439Y-16405793D01*
X15247439Y-16405793D02*
X15237915Y-16443888D01*
X15237915Y-16443888D02*
X15228391Y-16462936D01*
X15228391Y-16462936D02*
X15218867Y-16472460D01*
X15218867Y-16472460D02*
X15199820Y-16481984D01*
X15199820Y-16481984D02*
X15180772Y-16481984D01*
X15180772Y-16481984D02*
X15161724Y-16472460D01*
X15161724Y-16472460D02*
X15152201Y-16462936D01*
X15152201Y-16462936D02*
X15142677Y-16443888D01*
X15142677Y-16443888D02*
X15133153Y-16405793D01*
X15133153Y-16405793D02*
X15133153Y-16358174D01*
X15133153Y-16358174D02*
X15142677Y-16320079D01*
X15142677Y-16320079D02*
X15152201Y-16301031D01*
X15152201Y-16301031D02*
X15161724Y-16291508D01*
X15161724Y-16291508D02*
X15180772Y-16281984D01*
X15333153Y-16462936D02*
X15342677Y-16472460D01*
X15342677Y-16472460D02*
X15333153Y-16481984D01*
X15333153Y-16481984D02*
X15323629Y-16472460D01*
X15323629Y-16472460D02*
X15333153Y-16462936D01*
X15333153Y-16462936D02*
X15333153Y-16481984D01*
X15418867Y-16301031D02*
X15428391Y-16291508D01*
X15428391Y-16291508D02*
X15447439Y-16281984D01*
X15447439Y-16281984D02*
X15495058Y-16281984D01*
X15495058Y-16281984D02*
X15514105Y-16291508D01*
X15514105Y-16291508D02*
X15523629Y-16301031D01*
X15523629Y-16301031D02*
X15533153Y-16320079D01*
X15533153Y-16320079D02*
X15533153Y-16339127D01*
X15533153Y-16339127D02*
X15523629Y-16367698D01*
X15523629Y-16367698D02*
X15409343Y-16481984D01*
X15409343Y-16481984D02*
X15533153Y-16481984D01*
X15656962Y-16281984D02*
X15676010Y-16281984D01*
X15676010Y-16281984D02*
X15695058Y-16291508D01*
X15695058Y-16291508D02*
X15704582Y-16301031D01*
X15704582Y-16301031D02*
X15714105Y-16320079D01*
X15714105Y-16320079D02*
X15723629Y-16358174D01*
X15723629Y-16358174D02*
X15723629Y-16405793D01*
X15723629Y-16405793D02*
X15714105Y-16443888D01*
X15714105Y-16443888D02*
X15704582Y-16462936D01*
X15704582Y-16462936D02*
X15695058Y-16472460D01*
X15695058Y-16472460D02*
X15676010Y-16481984D01*
X15676010Y-16481984D02*
X15656962Y-16481984D01*
X15656962Y-16481984D02*
X15637915Y-16472460D01*
X15637915Y-16472460D02*
X15628391Y-16462936D01*
X15628391Y-16462936D02*
X15618867Y-16443888D01*
X15618867Y-16443888D02*
X15609343Y-16405793D01*
X15609343Y-16405793D02*
X15609343Y-16358174D01*
X15609343Y-16358174D02*
X15618867Y-16320079D01*
X15618867Y-16320079D02*
X15628391Y-16301031D01*
X15628391Y-16301031D02*
X15637915Y-16291508D01*
X15637915Y-16291508D02*
X15656962Y-16281984D01*
X15847439Y-16281984D02*
X15866486Y-16281984D01*
X15866486Y-16281984D02*
X15885534Y-16291508D01*
X15885534Y-16291508D02*
X15895058Y-16301031D01*
X15895058Y-16301031D02*
X15904582Y-16320079D01*
X15904582Y-16320079D02*
X15914105Y-16358174D01*
X15914105Y-16358174D02*
X15914105Y-16405793D01*
X15914105Y-16405793D02*
X15904582Y-16443888D01*
X15904582Y-16443888D02*
X15895058Y-16462936D01*
X15895058Y-16462936D02*
X15885534Y-16472460D01*
X15885534Y-16472460D02*
X15866486Y-16481984D01*
X15866486Y-16481984D02*
X15847439Y-16481984D01*
X15847439Y-16481984D02*
X15828391Y-16472460D01*
X15828391Y-16472460D02*
X15818867Y-16462936D01*
X15818867Y-16462936D02*
X15809343Y-16443888D01*
X15809343Y-16443888D02*
X15799820Y-16405793D01*
X15799820Y-16405793D02*
X15799820Y-16358174D01*
X15799820Y-16358174D02*
X15809343Y-16320079D01*
X15809343Y-16320079D02*
X15818867Y-16301031D01*
X15818867Y-16301031D02*
X15828391Y-16291508D01*
X15828391Y-16291508D02*
X15847439Y-16281984D01*
X15999820Y-16481984D02*
X15999820Y-16348650D01*
X15999820Y-16367698D02*
X16009343Y-16358174D01*
X16009343Y-16358174D02*
X16028391Y-16348650D01*
X16028391Y-16348650D02*
X16056963Y-16348650D01*
X16056963Y-16348650D02*
X16076010Y-16358174D01*
X16076010Y-16358174D02*
X16085534Y-16377222D01*
X16085534Y-16377222D02*
X16085534Y-16481984D01*
X16085534Y-16377222D02*
X16095058Y-16358174D01*
X16095058Y-16358174D02*
X16114105Y-16348650D01*
X16114105Y-16348650D02*
X16142677Y-16348650D01*
X16142677Y-16348650D02*
X16161724Y-16358174D01*
X16161724Y-16358174D02*
X16171248Y-16377222D01*
X16171248Y-16377222D02*
X16171248Y-16481984D01*
X16266486Y-16481984D02*
X16266486Y-16348650D01*
X16266486Y-16367698D02*
X16276010Y-16358174D01*
X16276010Y-16358174D02*
X16295058Y-16348650D01*
X16295058Y-16348650D02*
X16323629Y-16348650D01*
X16323629Y-16348650D02*
X16342677Y-16358174D01*
X16342677Y-16358174D02*
X16352201Y-16377222D01*
X16352201Y-16377222D02*
X16352201Y-16481984D01*
X16352201Y-16377222D02*
X16361724Y-16358174D01*
X16361724Y-16358174D02*
X16380772Y-16348650D01*
X16380772Y-16348650D02*
X16409343Y-16348650D01*
X16409343Y-16348650D02*
X16428391Y-16358174D01*
X16428391Y-16358174D02*
X16437915Y-16377222D01*
X16437915Y-16377222D02*
X16437915Y-16481984D01*
X16828391Y-16272460D02*
X16656963Y-16529603D01*
X17085534Y-16281984D02*
X17104582Y-16281984D01*
X17104582Y-16281984D02*
X17123629Y-16291508D01*
X17123629Y-16291508D02*
X17133153Y-16301031D01*
X17133153Y-16301031D02*
X17142677Y-16320079D01*
X17142677Y-16320079D02*
X17152201Y-16358174D01*
X17152201Y-16358174D02*
X17152201Y-16405793D01*
X17152201Y-16405793D02*
X17142677Y-16443888D01*
X17142677Y-16443888D02*
X17133153Y-16462936D01*
X17133153Y-16462936D02*
X17123629Y-16472460D01*
X17123629Y-16472460D02*
X17104582Y-16481984D01*
X17104582Y-16481984D02*
X17085534Y-16481984D01*
X17085534Y-16481984D02*
X17066487Y-16472460D01*
X17066487Y-16472460D02*
X17056963Y-16462936D01*
X17056963Y-16462936D02*
X17047439Y-16443888D01*
X17047439Y-16443888D02*
X17037915Y-16405793D01*
X17037915Y-16405793D02*
X17037915Y-16358174D01*
X17037915Y-16358174D02*
X17047439Y-16320079D01*
X17047439Y-16320079D02*
X17056963Y-16301031D01*
X17056963Y-16301031D02*
X17066487Y-16291508D01*
X17066487Y-16291508D02*
X17085534Y-16281984D01*
X17237915Y-16462936D02*
X17247439Y-16472460D01*
X17247439Y-16472460D02*
X17237915Y-16481984D01*
X17237915Y-16481984D02*
X17228391Y-16472460D01*
X17228391Y-16472460D02*
X17237915Y-16462936D01*
X17237915Y-16462936D02*
X17237915Y-16481984D01*
X17371248Y-16281984D02*
X17390296Y-16281984D01*
X17390296Y-16281984D02*
X17409344Y-16291508D01*
X17409344Y-16291508D02*
X17418868Y-16301031D01*
X17418868Y-16301031D02*
X17428391Y-16320079D01*
X17428391Y-16320079D02*
X17437915Y-16358174D01*
X17437915Y-16358174D02*
X17437915Y-16405793D01*
X17437915Y-16405793D02*
X17428391Y-16443888D01*
X17428391Y-16443888D02*
X17418868Y-16462936D01*
X17418868Y-16462936D02*
X17409344Y-16472460D01*
X17409344Y-16472460D02*
X17390296Y-16481984D01*
X17390296Y-16481984D02*
X17371248Y-16481984D01*
X17371248Y-16481984D02*
X17352201Y-16472460D01*
X17352201Y-16472460D02*
X17342677Y-16462936D01*
X17342677Y-16462936D02*
X17333153Y-16443888D01*
X17333153Y-16443888D02*
X17323629Y-16405793D01*
X17323629Y-16405793D02*
X17323629Y-16358174D01*
X17323629Y-16358174D02*
X17333153Y-16320079D01*
X17333153Y-16320079D02*
X17342677Y-16301031D01*
X17342677Y-16301031D02*
X17352201Y-16291508D01*
X17352201Y-16291508D02*
X17371248Y-16281984D01*
X17561725Y-16281984D02*
X17580772Y-16281984D01*
X17580772Y-16281984D02*
X17599820Y-16291508D01*
X17599820Y-16291508D02*
X17609344Y-16301031D01*
X17609344Y-16301031D02*
X17618868Y-16320079D01*
X17618868Y-16320079D02*
X17628391Y-16358174D01*
X17628391Y-16358174D02*
X17628391Y-16405793D01*
X17628391Y-16405793D02*
X17618868Y-16443888D01*
X17618868Y-16443888D02*
X17609344Y-16462936D01*
X17609344Y-16462936D02*
X17599820Y-16472460D01*
X17599820Y-16472460D02*
X17580772Y-16481984D01*
X17580772Y-16481984D02*
X17561725Y-16481984D01*
X17561725Y-16481984D02*
X17542677Y-16472460D01*
X17542677Y-16472460D02*
X17533153Y-16462936D01*
X17533153Y-16462936D02*
X17523629Y-16443888D01*
X17523629Y-16443888D02*
X17514106Y-16405793D01*
X17514106Y-16405793D02*
X17514106Y-16358174D01*
X17514106Y-16358174D02*
X17523629Y-16320079D01*
X17523629Y-16320079D02*
X17533153Y-16301031D01*
X17533153Y-16301031D02*
X17542677Y-16291508D01*
X17542677Y-16291508D02*
X17561725Y-16281984D01*
X17695058Y-16281984D02*
X17828391Y-16281984D01*
X17828391Y-16281984D02*
X17742677Y-16481984D01*
X17914106Y-16481984D02*
X17952201Y-16481984D01*
X17952201Y-16481984D02*
X17971249Y-16472460D01*
X17971249Y-16472460D02*
X17980772Y-16462936D01*
X17980772Y-16462936D02*
X17999820Y-16434365D01*
X17999820Y-16434365D02*
X18009344Y-16396269D01*
X18009344Y-16396269D02*
X18009344Y-16320079D01*
X18009344Y-16320079D02*
X17999820Y-16301031D01*
X17999820Y-16301031D02*
X17990296Y-16291508D01*
X17990296Y-16291508D02*
X17971249Y-16281984D01*
X17971249Y-16281984D02*
X17933153Y-16281984D01*
X17933153Y-16281984D02*
X17914106Y-16291508D01*
X17914106Y-16291508D02*
X17904582Y-16301031D01*
X17904582Y-16301031D02*
X17895058Y-16320079D01*
X17895058Y-16320079D02*
X17895058Y-16367698D01*
X17895058Y-16367698D02*
X17904582Y-16386746D01*
X17904582Y-16386746D02*
X17914106Y-16396269D01*
X17914106Y-16396269D02*
X17933153Y-16405793D01*
X17933153Y-16405793D02*
X17971249Y-16405793D01*
X17971249Y-16405793D02*
X17990296Y-16396269D01*
X17990296Y-16396269D02*
X17999820Y-16386746D01*
X17999820Y-16386746D02*
X18009344Y-16367698D01*
X18085534Y-16281984D02*
X18085534Y-16320079D01*
X18161725Y-16281984D02*
X18161725Y-16320079D01*
X18456963Y-16558174D02*
X18447439Y-16548650D01*
X18447439Y-16548650D02*
X18428391Y-16520079D01*
X18428391Y-16520079D02*
X18418868Y-16501031D01*
X18418868Y-16501031D02*
X18409344Y-16472460D01*
X18409344Y-16472460D02*
X18399820Y-16424841D01*
X18399820Y-16424841D02*
X18399820Y-16386746D01*
X18399820Y-16386746D02*
X18409344Y-16339127D01*
X18409344Y-16339127D02*
X18418868Y-16310555D01*
X18418868Y-16310555D02*
X18428391Y-16291508D01*
X18428391Y-16291508D02*
X18447439Y-16262936D01*
X18447439Y-16262936D02*
X18456963Y-16253412D01*
X18514106Y-16281984D02*
X18637915Y-16281984D01*
X18637915Y-16281984D02*
X18571249Y-16358174D01*
X18571249Y-16358174D02*
X18599820Y-16358174D01*
X18599820Y-16358174D02*
X18618868Y-16367698D01*
X18618868Y-16367698D02*
X18628391Y-16377222D01*
X18628391Y-16377222D02*
X18637915Y-16396269D01*
X18637915Y-16396269D02*
X18637915Y-16443888D01*
X18637915Y-16443888D02*
X18628391Y-16462936D01*
X18628391Y-16462936D02*
X18618868Y-16472460D01*
X18618868Y-16472460D02*
X18599820Y-16481984D01*
X18599820Y-16481984D02*
X18542677Y-16481984D01*
X18542677Y-16481984D02*
X18523630Y-16472460D01*
X18523630Y-16472460D02*
X18514106Y-16462936D01*
X18818868Y-16281984D02*
X18723630Y-16281984D01*
X18723630Y-16281984D02*
X18714106Y-16377222D01*
X18714106Y-16377222D02*
X18723630Y-16367698D01*
X18723630Y-16367698D02*
X18742677Y-16358174D01*
X18742677Y-16358174D02*
X18790296Y-16358174D01*
X18790296Y-16358174D02*
X18809344Y-16367698D01*
X18809344Y-16367698D02*
X18818868Y-16377222D01*
X18818868Y-16377222D02*
X18828391Y-16396269D01*
X18828391Y-16396269D02*
X18828391Y-16443888D01*
X18828391Y-16443888D02*
X18818868Y-16462936D01*
X18818868Y-16462936D02*
X18809344Y-16472460D01*
X18809344Y-16472460D02*
X18790296Y-16481984D01*
X18790296Y-16481984D02*
X18742677Y-16481984D01*
X18742677Y-16481984D02*
X18723630Y-16472460D01*
X18723630Y-16472460D02*
X18714106Y-16462936D01*
X18895058Y-16281984D02*
X19028391Y-16281984D01*
X19028391Y-16281984D02*
X18942677Y-16481984D01*
X19256963Y-16481984D02*
X19256963Y-16281984D01*
X19342677Y-16481984D02*
X19342677Y-16377222D01*
X19342677Y-16377222D02*
X19333153Y-16358174D01*
X19333153Y-16358174D02*
X19314106Y-16348650D01*
X19314106Y-16348650D02*
X19285534Y-16348650D01*
X19285534Y-16348650D02*
X19266487Y-16358174D01*
X19266487Y-16358174D02*
X19256963Y-16367698D01*
X19466487Y-16481984D02*
X19447439Y-16472460D01*
X19447439Y-16472460D02*
X19437915Y-16462936D01*
X19437915Y-16462936D02*
X19428392Y-16443888D01*
X19428392Y-16443888D02*
X19428392Y-16386746D01*
X19428392Y-16386746D02*
X19437915Y-16367698D01*
X19437915Y-16367698D02*
X19447439Y-16358174D01*
X19447439Y-16358174D02*
X19466487Y-16348650D01*
X19466487Y-16348650D02*
X19495058Y-16348650D01*
X19495058Y-16348650D02*
X19514106Y-16358174D01*
X19514106Y-16358174D02*
X19523630Y-16367698D01*
X19523630Y-16367698D02*
X19533153Y-16386746D01*
X19533153Y-16386746D02*
X19533153Y-16443888D01*
X19533153Y-16443888D02*
X19523630Y-16462936D01*
X19523630Y-16462936D02*
X19514106Y-16472460D01*
X19514106Y-16472460D02*
X19495058Y-16481984D01*
X19495058Y-16481984D02*
X19466487Y-16481984D01*
X19647439Y-16481984D02*
X19628392Y-16472460D01*
X19628392Y-16472460D02*
X19618868Y-16453412D01*
X19618868Y-16453412D02*
X19618868Y-16281984D01*
X19799820Y-16472460D02*
X19780773Y-16481984D01*
X19780773Y-16481984D02*
X19742677Y-16481984D01*
X19742677Y-16481984D02*
X19723630Y-16472460D01*
X19723630Y-16472460D02*
X19714106Y-16453412D01*
X19714106Y-16453412D02*
X19714106Y-16377222D01*
X19714106Y-16377222D02*
X19723630Y-16358174D01*
X19723630Y-16358174D02*
X19742677Y-16348650D01*
X19742677Y-16348650D02*
X19780773Y-16348650D01*
X19780773Y-16348650D02*
X19799820Y-16358174D01*
X19799820Y-16358174D02*
X19809344Y-16377222D01*
X19809344Y-16377222D02*
X19809344Y-16396269D01*
X19809344Y-16396269D02*
X19714106Y-16415317D01*
X19885534Y-16472460D02*
X19904582Y-16481984D01*
X19904582Y-16481984D02*
X19942677Y-16481984D01*
X19942677Y-16481984D02*
X19961725Y-16472460D01*
X19961725Y-16472460D02*
X19971249Y-16453412D01*
X19971249Y-16453412D02*
X19971249Y-16443888D01*
X19971249Y-16443888D02*
X19961725Y-16424841D01*
X19961725Y-16424841D02*
X19942677Y-16415317D01*
X19942677Y-16415317D02*
X19914106Y-16415317D01*
X19914106Y-16415317D02*
X19895058Y-16405793D01*
X19895058Y-16405793D02*
X19885534Y-16386746D01*
X19885534Y-16386746D02*
X19885534Y-16377222D01*
X19885534Y-16377222D02*
X19895058Y-16358174D01*
X19895058Y-16358174D02*
X19914106Y-16348650D01*
X19914106Y-16348650D02*
X19942677Y-16348650D01*
X19942677Y-16348650D02*
X19961725Y-16358174D01*
X20037915Y-16558174D02*
X20047439Y-16548650D01*
X20047439Y-16548650D02*
X20066487Y-16520079D01*
X20066487Y-16520079D02*
X20076011Y-16501031D01*
X20076011Y-16501031D02*
X20085534Y-16472460D01*
X20085534Y-16472460D02*
X20095058Y-16424841D01*
X20095058Y-16424841D02*
X20095058Y-16386746D01*
X20095058Y-16386746D02*
X20085534Y-16339127D01*
X20085534Y-16339127D02*
X20076011Y-16310555D01*
X20076011Y-16310555D02*
X20066487Y-16291508D01*
X20066487Y-16291508D02*
X20047439Y-16262936D01*
X20047439Y-16262936D02*
X20037915Y-16253412D01*
D12*
X14881900Y-16654500D02*
G75*
G02*
X14851900Y-16654500I-15000J0D01*
G01*
X14851900Y-16654500D02*
G75*
G02*
X14881900Y-16654500I15000J0D01*
G01*
D11*
X15180772Y-16545984D02*
X15199820Y-16545984D01*
X15199820Y-16545984D02*
X15218867Y-16555508D01*
X15218867Y-16555508D02*
X15228391Y-16565031D01*
X15228391Y-16565031D02*
X15237915Y-16584079D01*
X15237915Y-16584079D02*
X15247439Y-16622174D01*
X15247439Y-16622174D02*
X15247439Y-16669793D01*
X15247439Y-16669793D02*
X15237915Y-16707888D01*
X15237915Y-16707888D02*
X15228391Y-16726936D01*
X15228391Y-16726936D02*
X15218867Y-16736460D01*
X15218867Y-16736460D02*
X15199820Y-16745984D01*
X15199820Y-16745984D02*
X15180772Y-16745984D01*
X15180772Y-16745984D02*
X15161724Y-16736460D01*
X15161724Y-16736460D02*
X15152201Y-16726936D01*
X15152201Y-16726936D02*
X15142677Y-16707888D01*
X15142677Y-16707888D02*
X15133153Y-16669793D01*
X15133153Y-16669793D02*
X15133153Y-16622174D01*
X15133153Y-16622174D02*
X15142677Y-16584079D01*
X15142677Y-16584079D02*
X15152201Y-16565031D01*
X15152201Y-16565031D02*
X15161724Y-16555508D01*
X15161724Y-16555508D02*
X15180772Y-16545984D01*
X15333153Y-16726936D02*
X15342677Y-16736460D01*
X15342677Y-16736460D02*
X15333153Y-16745984D01*
X15333153Y-16745984D02*
X15323629Y-16736460D01*
X15323629Y-16736460D02*
X15333153Y-16726936D01*
X15333153Y-16726936D02*
X15333153Y-16745984D01*
X15409343Y-16545984D02*
X15533153Y-16545984D01*
X15533153Y-16545984D02*
X15466486Y-16622174D01*
X15466486Y-16622174D02*
X15495058Y-16622174D01*
X15495058Y-16622174D02*
X15514105Y-16631698D01*
X15514105Y-16631698D02*
X15523629Y-16641222D01*
X15523629Y-16641222D02*
X15533153Y-16660269D01*
X15533153Y-16660269D02*
X15533153Y-16707888D01*
X15533153Y-16707888D02*
X15523629Y-16726936D01*
X15523629Y-16726936D02*
X15514105Y-16736460D01*
X15514105Y-16736460D02*
X15495058Y-16745984D01*
X15495058Y-16745984D02*
X15437915Y-16745984D01*
X15437915Y-16745984D02*
X15418867Y-16736460D01*
X15418867Y-16736460D02*
X15409343Y-16726936D01*
X15656962Y-16545984D02*
X15676010Y-16545984D01*
X15676010Y-16545984D02*
X15695058Y-16555508D01*
X15695058Y-16555508D02*
X15704582Y-16565031D01*
X15704582Y-16565031D02*
X15714105Y-16584079D01*
X15714105Y-16584079D02*
X15723629Y-16622174D01*
X15723629Y-16622174D02*
X15723629Y-16669793D01*
X15723629Y-16669793D02*
X15714105Y-16707888D01*
X15714105Y-16707888D02*
X15704582Y-16726936D01*
X15704582Y-16726936D02*
X15695058Y-16736460D01*
X15695058Y-16736460D02*
X15676010Y-16745984D01*
X15676010Y-16745984D02*
X15656962Y-16745984D01*
X15656962Y-16745984D02*
X15637915Y-16736460D01*
X15637915Y-16736460D02*
X15628391Y-16726936D01*
X15628391Y-16726936D02*
X15618867Y-16707888D01*
X15618867Y-16707888D02*
X15609343Y-16669793D01*
X15609343Y-16669793D02*
X15609343Y-16622174D01*
X15609343Y-16622174D02*
X15618867Y-16584079D01*
X15618867Y-16584079D02*
X15628391Y-16565031D01*
X15628391Y-16565031D02*
X15637915Y-16555508D01*
X15637915Y-16555508D02*
X15656962Y-16545984D01*
X15847439Y-16545984D02*
X15866486Y-16545984D01*
X15866486Y-16545984D02*
X15885534Y-16555508D01*
X15885534Y-16555508D02*
X15895058Y-16565031D01*
X15895058Y-16565031D02*
X15904582Y-16584079D01*
X15904582Y-16584079D02*
X15914105Y-16622174D01*
X15914105Y-16622174D02*
X15914105Y-16669793D01*
X15914105Y-16669793D02*
X15904582Y-16707888D01*
X15904582Y-16707888D02*
X15895058Y-16726936D01*
X15895058Y-16726936D02*
X15885534Y-16736460D01*
X15885534Y-16736460D02*
X15866486Y-16745984D01*
X15866486Y-16745984D02*
X15847439Y-16745984D01*
X15847439Y-16745984D02*
X15828391Y-16736460D01*
X15828391Y-16736460D02*
X15818867Y-16726936D01*
X15818867Y-16726936D02*
X15809343Y-16707888D01*
X15809343Y-16707888D02*
X15799820Y-16669793D01*
X15799820Y-16669793D02*
X15799820Y-16622174D01*
X15799820Y-16622174D02*
X15809343Y-16584079D01*
X15809343Y-16584079D02*
X15818867Y-16565031D01*
X15818867Y-16565031D02*
X15828391Y-16555508D01*
X15828391Y-16555508D02*
X15847439Y-16545984D01*
X15999820Y-16745984D02*
X15999820Y-16612650D01*
X15999820Y-16631698D02*
X16009343Y-16622174D01*
X16009343Y-16622174D02*
X16028391Y-16612650D01*
X16028391Y-16612650D02*
X16056963Y-16612650D01*
X16056963Y-16612650D02*
X16076010Y-16622174D01*
X16076010Y-16622174D02*
X16085534Y-16641222D01*
X16085534Y-16641222D02*
X16085534Y-16745984D01*
X16085534Y-16641222D02*
X16095058Y-16622174D01*
X16095058Y-16622174D02*
X16114105Y-16612650D01*
X16114105Y-16612650D02*
X16142677Y-16612650D01*
X16142677Y-16612650D02*
X16161724Y-16622174D01*
X16161724Y-16622174D02*
X16171248Y-16641222D01*
X16171248Y-16641222D02*
X16171248Y-16745984D01*
X16266486Y-16745984D02*
X16266486Y-16612650D01*
X16266486Y-16631698D02*
X16276010Y-16622174D01*
X16276010Y-16622174D02*
X16295058Y-16612650D01*
X16295058Y-16612650D02*
X16323629Y-16612650D01*
X16323629Y-16612650D02*
X16342677Y-16622174D01*
X16342677Y-16622174D02*
X16352201Y-16641222D01*
X16352201Y-16641222D02*
X16352201Y-16745984D01*
X16352201Y-16641222D02*
X16361724Y-16622174D01*
X16361724Y-16622174D02*
X16380772Y-16612650D01*
X16380772Y-16612650D02*
X16409343Y-16612650D01*
X16409343Y-16612650D02*
X16428391Y-16622174D01*
X16428391Y-16622174D02*
X16437915Y-16641222D01*
X16437915Y-16641222D02*
X16437915Y-16745984D01*
X16828391Y-16536460D02*
X16656963Y-16793603D01*
X17085534Y-16545984D02*
X17104582Y-16545984D01*
X17104582Y-16545984D02*
X17123629Y-16555508D01*
X17123629Y-16555508D02*
X17133153Y-16565031D01*
X17133153Y-16565031D02*
X17142677Y-16584079D01*
X17142677Y-16584079D02*
X17152201Y-16622174D01*
X17152201Y-16622174D02*
X17152201Y-16669793D01*
X17152201Y-16669793D02*
X17142677Y-16707888D01*
X17142677Y-16707888D02*
X17133153Y-16726936D01*
X17133153Y-16726936D02*
X17123629Y-16736460D01*
X17123629Y-16736460D02*
X17104582Y-16745984D01*
X17104582Y-16745984D02*
X17085534Y-16745984D01*
X17085534Y-16745984D02*
X17066487Y-16736460D01*
X17066487Y-16736460D02*
X17056963Y-16726936D01*
X17056963Y-16726936D02*
X17047439Y-16707888D01*
X17047439Y-16707888D02*
X17037915Y-16669793D01*
X17037915Y-16669793D02*
X17037915Y-16622174D01*
X17037915Y-16622174D02*
X17047439Y-16584079D01*
X17047439Y-16584079D02*
X17056963Y-16565031D01*
X17056963Y-16565031D02*
X17066487Y-16555508D01*
X17066487Y-16555508D02*
X17085534Y-16545984D01*
X17237915Y-16726936D02*
X17247439Y-16736460D01*
X17247439Y-16736460D02*
X17237915Y-16745984D01*
X17237915Y-16745984D02*
X17228391Y-16736460D01*
X17228391Y-16736460D02*
X17237915Y-16726936D01*
X17237915Y-16726936D02*
X17237915Y-16745984D01*
X17371248Y-16545984D02*
X17390296Y-16545984D01*
X17390296Y-16545984D02*
X17409344Y-16555508D01*
X17409344Y-16555508D02*
X17418868Y-16565031D01*
X17418868Y-16565031D02*
X17428391Y-16584079D01*
X17428391Y-16584079D02*
X17437915Y-16622174D01*
X17437915Y-16622174D02*
X17437915Y-16669793D01*
X17437915Y-16669793D02*
X17428391Y-16707888D01*
X17428391Y-16707888D02*
X17418868Y-16726936D01*
X17418868Y-16726936D02*
X17409344Y-16736460D01*
X17409344Y-16736460D02*
X17390296Y-16745984D01*
X17390296Y-16745984D02*
X17371248Y-16745984D01*
X17371248Y-16745984D02*
X17352201Y-16736460D01*
X17352201Y-16736460D02*
X17342677Y-16726936D01*
X17342677Y-16726936D02*
X17333153Y-16707888D01*
X17333153Y-16707888D02*
X17323629Y-16669793D01*
X17323629Y-16669793D02*
X17323629Y-16622174D01*
X17323629Y-16622174D02*
X17333153Y-16584079D01*
X17333153Y-16584079D02*
X17342677Y-16565031D01*
X17342677Y-16565031D02*
X17352201Y-16555508D01*
X17352201Y-16555508D02*
X17371248Y-16545984D01*
X17628391Y-16745984D02*
X17514106Y-16745984D01*
X17571248Y-16745984D02*
X17571248Y-16545984D01*
X17571248Y-16545984D02*
X17552201Y-16574555D01*
X17552201Y-16574555D02*
X17533153Y-16593603D01*
X17533153Y-16593603D02*
X17514106Y-16603127D01*
X17818868Y-16745984D02*
X17704582Y-16745984D01*
X17761725Y-16745984D02*
X17761725Y-16545984D01*
X17761725Y-16545984D02*
X17742677Y-16574555D01*
X17742677Y-16574555D02*
X17723629Y-16593603D01*
X17723629Y-16593603D02*
X17704582Y-16603127D01*
X17933153Y-16631698D02*
X17914106Y-16622174D01*
X17914106Y-16622174D02*
X17904582Y-16612650D01*
X17904582Y-16612650D02*
X17895058Y-16593603D01*
X17895058Y-16593603D02*
X17895058Y-16584079D01*
X17895058Y-16584079D02*
X17904582Y-16565031D01*
X17904582Y-16565031D02*
X17914106Y-16555508D01*
X17914106Y-16555508D02*
X17933153Y-16545984D01*
X17933153Y-16545984D02*
X17971249Y-16545984D01*
X17971249Y-16545984D02*
X17990296Y-16555508D01*
X17990296Y-16555508D02*
X17999820Y-16565031D01*
X17999820Y-16565031D02*
X18009344Y-16584079D01*
X18009344Y-16584079D02*
X18009344Y-16593603D01*
X18009344Y-16593603D02*
X17999820Y-16612650D01*
X17999820Y-16612650D02*
X17990296Y-16622174D01*
X17990296Y-16622174D02*
X17971249Y-16631698D01*
X17971249Y-16631698D02*
X17933153Y-16631698D01*
X17933153Y-16631698D02*
X17914106Y-16641222D01*
X17914106Y-16641222D02*
X17904582Y-16650746D01*
X17904582Y-16650746D02*
X17895058Y-16669793D01*
X17895058Y-16669793D02*
X17895058Y-16707888D01*
X17895058Y-16707888D02*
X17904582Y-16726936D01*
X17904582Y-16726936D02*
X17914106Y-16736460D01*
X17914106Y-16736460D02*
X17933153Y-16745984D01*
X17933153Y-16745984D02*
X17971249Y-16745984D01*
X17971249Y-16745984D02*
X17990296Y-16736460D01*
X17990296Y-16736460D02*
X17999820Y-16726936D01*
X17999820Y-16726936D02*
X18009344Y-16707888D01*
X18009344Y-16707888D02*
X18009344Y-16669793D01*
X18009344Y-16669793D02*
X17999820Y-16650746D01*
X17999820Y-16650746D02*
X17990296Y-16641222D01*
X17990296Y-16641222D02*
X17971249Y-16631698D01*
X18085534Y-16545984D02*
X18085534Y-16584079D01*
X18161725Y-16545984D02*
X18161725Y-16584079D01*
X18456963Y-16822174D02*
X18447439Y-16812650D01*
X18447439Y-16812650D02*
X18428391Y-16784079D01*
X18428391Y-16784079D02*
X18418868Y-16765031D01*
X18418868Y-16765031D02*
X18409344Y-16736460D01*
X18409344Y-16736460D02*
X18399820Y-16688841D01*
X18399820Y-16688841D02*
X18399820Y-16650746D01*
X18399820Y-16650746D02*
X18409344Y-16603127D01*
X18409344Y-16603127D02*
X18418868Y-16574555D01*
X18418868Y-16574555D02*
X18428391Y-16555508D01*
X18428391Y-16555508D02*
X18447439Y-16526936D01*
X18447439Y-16526936D02*
X18456963Y-16517412D01*
X18561725Y-16631698D02*
X18542677Y-16622174D01*
X18542677Y-16622174D02*
X18533153Y-16612650D01*
X18533153Y-16612650D02*
X18523630Y-16593603D01*
X18523630Y-16593603D02*
X18523630Y-16584079D01*
X18523630Y-16584079D02*
X18533153Y-16565031D01*
X18533153Y-16565031D02*
X18542677Y-16555508D01*
X18542677Y-16555508D02*
X18561725Y-16545984D01*
X18561725Y-16545984D02*
X18599820Y-16545984D01*
X18599820Y-16545984D02*
X18618868Y-16555508D01*
X18618868Y-16555508D02*
X18628391Y-16565031D01*
X18628391Y-16565031D02*
X18637915Y-16584079D01*
X18637915Y-16584079D02*
X18637915Y-16593603D01*
X18637915Y-16593603D02*
X18628391Y-16612650D01*
X18628391Y-16612650D02*
X18618868Y-16622174D01*
X18618868Y-16622174D02*
X18599820Y-16631698D01*
X18599820Y-16631698D02*
X18561725Y-16631698D01*
X18561725Y-16631698D02*
X18542677Y-16641222D01*
X18542677Y-16641222D02*
X18533153Y-16650746D01*
X18533153Y-16650746D02*
X18523630Y-16669793D01*
X18523630Y-16669793D02*
X18523630Y-16707888D01*
X18523630Y-16707888D02*
X18533153Y-16726936D01*
X18533153Y-16726936D02*
X18542677Y-16736460D01*
X18542677Y-16736460D02*
X18561725Y-16745984D01*
X18561725Y-16745984D02*
X18599820Y-16745984D01*
X18599820Y-16745984D02*
X18618868Y-16736460D01*
X18618868Y-16736460D02*
X18628391Y-16726936D01*
X18628391Y-16726936D02*
X18637915Y-16707888D01*
X18637915Y-16707888D02*
X18637915Y-16669793D01*
X18637915Y-16669793D02*
X18628391Y-16650746D01*
X18628391Y-16650746D02*
X18618868Y-16641222D01*
X18618868Y-16641222D02*
X18599820Y-16631698D01*
X18876011Y-16745984D02*
X18876011Y-16545984D01*
X18961725Y-16745984D02*
X18961725Y-16641222D01*
X18961725Y-16641222D02*
X18952201Y-16622174D01*
X18952201Y-16622174D02*
X18933153Y-16612650D01*
X18933153Y-16612650D02*
X18904582Y-16612650D01*
X18904582Y-16612650D02*
X18885534Y-16622174D01*
X18885534Y-16622174D02*
X18876011Y-16631698D01*
X19085534Y-16745984D02*
X19066487Y-16736460D01*
X19066487Y-16736460D02*
X19056963Y-16726936D01*
X19056963Y-16726936D02*
X19047439Y-16707888D01*
X19047439Y-16707888D02*
X19047439Y-16650746D01*
X19047439Y-16650746D02*
X19056963Y-16631698D01*
X19056963Y-16631698D02*
X19066487Y-16622174D01*
X19066487Y-16622174D02*
X19085534Y-16612650D01*
X19085534Y-16612650D02*
X19114106Y-16612650D01*
X19114106Y-16612650D02*
X19133153Y-16622174D01*
X19133153Y-16622174D02*
X19142677Y-16631698D01*
X19142677Y-16631698D02*
X19152201Y-16650746D01*
X19152201Y-16650746D02*
X19152201Y-16707888D01*
X19152201Y-16707888D02*
X19142677Y-16726936D01*
X19142677Y-16726936D02*
X19133153Y-16736460D01*
X19133153Y-16736460D02*
X19114106Y-16745984D01*
X19114106Y-16745984D02*
X19085534Y-16745984D01*
X19266487Y-16745984D02*
X19247439Y-16736460D01*
X19247439Y-16736460D02*
X19237915Y-16717412D01*
X19237915Y-16717412D02*
X19237915Y-16545984D01*
X19418868Y-16736460D02*
X19399820Y-16745984D01*
X19399820Y-16745984D02*
X19361725Y-16745984D01*
X19361725Y-16745984D02*
X19342677Y-16736460D01*
X19342677Y-16736460D02*
X19333153Y-16717412D01*
X19333153Y-16717412D02*
X19333153Y-16641222D01*
X19333153Y-16641222D02*
X19342677Y-16622174D01*
X19342677Y-16622174D02*
X19361725Y-16612650D01*
X19361725Y-16612650D02*
X19399820Y-16612650D01*
X19399820Y-16612650D02*
X19418868Y-16622174D01*
X19418868Y-16622174D02*
X19428392Y-16641222D01*
X19428392Y-16641222D02*
X19428392Y-16660269D01*
X19428392Y-16660269D02*
X19333153Y-16679317D01*
X19504582Y-16736460D02*
X19523630Y-16745984D01*
X19523630Y-16745984D02*
X19561725Y-16745984D01*
X19561725Y-16745984D02*
X19580773Y-16736460D01*
X19580773Y-16736460D02*
X19590296Y-16717412D01*
X19590296Y-16717412D02*
X19590296Y-16707888D01*
X19590296Y-16707888D02*
X19580773Y-16688841D01*
X19580773Y-16688841D02*
X19561725Y-16679317D01*
X19561725Y-16679317D02*
X19533153Y-16679317D01*
X19533153Y-16679317D02*
X19514106Y-16669793D01*
X19514106Y-16669793D02*
X19504582Y-16650746D01*
X19504582Y-16650746D02*
X19504582Y-16641222D01*
X19504582Y-16641222D02*
X19514106Y-16622174D01*
X19514106Y-16622174D02*
X19533153Y-16612650D01*
X19533153Y-16612650D02*
X19561725Y-16612650D01*
X19561725Y-16612650D02*
X19580773Y-16622174D01*
X19656963Y-16822174D02*
X19666487Y-16812650D01*
X19666487Y-16812650D02*
X19685534Y-16784079D01*
X19685534Y-16784079D02*
X19695058Y-16765031D01*
X19695058Y-16765031D02*
X19704582Y-16736460D01*
X19704582Y-16736460D02*
X19714106Y-16688841D01*
X19714106Y-16688841D02*
X19714106Y-16650746D01*
X19714106Y-16650746D02*
X19704582Y-16603127D01*
X19704582Y-16603127D02*
X19695058Y-16574555D01*
X19695058Y-16574555D02*
X19685534Y-16555508D01*
X19685534Y-16555508D02*
X19666487Y-16526936D01*
X19666487Y-16526936D02*
X19656963Y-16517412D01*
D12*
X14851900Y-16888500D02*
X14851900Y-16948500D01*
X14821900Y-16918500D02*
X14881900Y-16918500D01*
D11*
X15180772Y-16809984D02*
X15199820Y-16809984D01*
X15199820Y-16809984D02*
X15218867Y-16819508D01*
X15218867Y-16819508D02*
X15228391Y-16829031D01*
X15228391Y-16829031D02*
X15237915Y-16848079D01*
X15237915Y-16848079D02*
X15247439Y-16886174D01*
X15247439Y-16886174D02*
X15247439Y-16933793D01*
X15247439Y-16933793D02*
X15237915Y-16971889D01*
X15237915Y-16971889D02*
X15228391Y-16990936D01*
X15228391Y-16990936D02*
X15218867Y-17000460D01*
X15218867Y-17000460D02*
X15199820Y-17009984D01*
X15199820Y-17009984D02*
X15180772Y-17009984D01*
X15180772Y-17009984D02*
X15161724Y-17000460D01*
X15161724Y-17000460D02*
X15152201Y-16990936D01*
X15152201Y-16990936D02*
X15142677Y-16971889D01*
X15142677Y-16971889D02*
X15133153Y-16933793D01*
X15133153Y-16933793D02*
X15133153Y-16886174D01*
X15133153Y-16886174D02*
X15142677Y-16848079D01*
X15142677Y-16848079D02*
X15152201Y-16829031D01*
X15152201Y-16829031D02*
X15161724Y-16819508D01*
X15161724Y-16819508D02*
X15180772Y-16809984D01*
X15333153Y-16990936D02*
X15342677Y-17000460D01*
X15342677Y-17000460D02*
X15333153Y-17009984D01*
X15333153Y-17009984D02*
X15323629Y-17000460D01*
X15323629Y-17000460D02*
X15333153Y-16990936D01*
X15333153Y-16990936D02*
X15333153Y-17009984D01*
X15514105Y-16809984D02*
X15476010Y-16809984D01*
X15476010Y-16809984D02*
X15456962Y-16819508D01*
X15456962Y-16819508D02*
X15447439Y-16829031D01*
X15447439Y-16829031D02*
X15428391Y-16857603D01*
X15428391Y-16857603D02*
X15418867Y-16895698D01*
X15418867Y-16895698D02*
X15418867Y-16971889D01*
X15418867Y-16971889D02*
X15428391Y-16990936D01*
X15428391Y-16990936D02*
X15437915Y-17000460D01*
X15437915Y-17000460D02*
X15456962Y-17009984D01*
X15456962Y-17009984D02*
X15495058Y-17009984D01*
X15495058Y-17009984D02*
X15514105Y-17000460D01*
X15514105Y-17000460D02*
X15523629Y-16990936D01*
X15523629Y-16990936D02*
X15533153Y-16971889D01*
X15533153Y-16971889D02*
X15533153Y-16924270D01*
X15533153Y-16924270D02*
X15523629Y-16905222D01*
X15523629Y-16905222D02*
X15514105Y-16895698D01*
X15514105Y-16895698D02*
X15495058Y-16886174D01*
X15495058Y-16886174D02*
X15456962Y-16886174D01*
X15456962Y-16886174D02*
X15437915Y-16895698D01*
X15437915Y-16895698D02*
X15428391Y-16905222D01*
X15428391Y-16905222D02*
X15418867Y-16924270D01*
X15656962Y-16809984D02*
X15676010Y-16809984D01*
X15676010Y-16809984D02*
X15695058Y-16819508D01*
X15695058Y-16819508D02*
X15704582Y-16829031D01*
X15704582Y-16829031D02*
X15714105Y-16848079D01*
X15714105Y-16848079D02*
X15723629Y-16886174D01*
X15723629Y-16886174D02*
X15723629Y-16933793D01*
X15723629Y-16933793D02*
X15714105Y-16971889D01*
X15714105Y-16971889D02*
X15704582Y-16990936D01*
X15704582Y-16990936D02*
X15695058Y-17000460D01*
X15695058Y-17000460D02*
X15676010Y-17009984D01*
X15676010Y-17009984D02*
X15656962Y-17009984D01*
X15656962Y-17009984D02*
X15637915Y-17000460D01*
X15637915Y-17000460D02*
X15628391Y-16990936D01*
X15628391Y-16990936D02*
X15618867Y-16971889D01*
X15618867Y-16971889D02*
X15609343Y-16933793D01*
X15609343Y-16933793D02*
X15609343Y-16886174D01*
X15609343Y-16886174D02*
X15618867Y-16848079D01*
X15618867Y-16848079D02*
X15628391Y-16829031D01*
X15628391Y-16829031D02*
X15637915Y-16819508D01*
X15637915Y-16819508D02*
X15656962Y-16809984D01*
X15847439Y-16809984D02*
X15866486Y-16809984D01*
X15866486Y-16809984D02*
X15885534Y-16819508D01*
X15885534Y-16819508D02*
X15895058Y-16829031D01*
X15895058Y-16829031D02*
X15904582Y-16848079D01*
X15904582Y-16848079D02*
X15914105Y-16886174D01*
X15914105Y-16886174D02*
X15914105Y-16933793D01*
X15914105Y-16933793D02*
X15904582Y-16971889D01*
X15904582Y-16971889D02*
X15895058Y-16990936D01*
X15895058Y-16990936D02*
X15885534Y-17000460D01*
X15885534Y-17000460D02*
X15866486Y-17009984D01*
X15866486Y-17009984D02*
X15847439Y-17009984D01*
X15847439Y-17009984D02*
X15828391Y-17000460D01*
X15828391Y-17000460D02*
X15818867Y-16990936D01*
X15818867Y-16990936D02*
X15809343Y-16971889D01*
X15809343Y-16971889D02*
X15799820Y-16933793D01*
X15799820Y-16933793D02*
X15799820Y-16886174D01*
X15799820Y-16886174D02*
X15809343Y-16848079D01*
X15809343Y-16848079D02*
X15818867Y-16829031D01*
X15818867Y-16829031D02*
X15828391Y-16819508D01*
X15828391Y-16819508D02*
X15847439Y-16809984D01*
X15999820Y-17009984D02*
X15999820Y-16876650D01*
X15999820Y-16895698D02*
X16009343Y-16886174D01*
X16009343Y-16886174D02*
X16028391Y-16876650D01*
X16028391Y-16876650D02*
X16056963Y-16876650D01*
X16056963Y-16876650D02*
X16076010Y-16886174D01*
X16076010Y-16886174D02*
X16085534Y-16905222D01*
X16085534Y-16905222D02*
X16085534Y-17009984D01*
X16085534Y-16905222D02*
X16095058Y-16886174D01*
X16095058Y-16886174D02*
X16114105Y-16876650D01*
X16114105Y-16876650D02*
X16142677Y-16876650D01*
X16142677Y-16876650D02*
X16161724Y-16886174D01*
X16161724Y-16886174D02*
X16171248Y-16905222D01*
X16171248Y-16905222D02*
X16171248Y-17009984D01*
X16266486Y-17009984D02*
X16266486Y-16876650D01*
X16266486Y-16895698D02*
X16276010Y-16886174D01*
X16276010Y-16886174D02*
X16295058Y-16876650D01*
X16295058Y-16876650D02*
X16323629Y-16876650D01*
X16323629Y-16876650D02*
X16342677Y-16886174D01*
X16342677Y-16886174D02*
X16352201Y-16905222D01*
X16352201Y-16905222D02*
X16352201Y-17009984D01*
X16352201Y-16905222D02*
X16361724Y-16886174D01*
X16361724Y-16886174D02*
X16380772Y-16876650D01*
X16380772Y-16876650D02*
X16409343Y-16876650D01*
X16409343Y-16876650D02*
X16428391Y-16886174D01*
X16428391Y-16886174D02*
X16437915Y-16905222D01*
X16437915Y-16905222D02*
X16437915Y-17009984D01*
X16828391Y-16800460D02*
X16656963Y-17057603D01*
X17085534Y-16809984D02*
X17104582Y-16809984D01*
X17104582Y-16809984D02*
X17123629Y-16819508D01*
X17123629Y-16819508D02*
X17133153Y-16829031D01*
X17133153Y-16829031D02*
X17142677Y-16848079D01*
X17142677Y-16848079D02*
X17152201Y-16886174D01*
X17152201Y-16886174D02*
X17152201Y-16933793D01*
X17152201Y-16933793D02*
X17142677Y-16971889D01*
X17142677Y-16971889D02*
X17133153Y-16990936D01*
X17133153Y-16990936D02*
X17123629Y-17000460D01*
X17123629Y-17000460D02*
X17104582Y-17009984D01*
X17104582Y-17009984D02*
X17085534Y-17009984D01*
X17085534Y-17009984D02*
X17066487Y-17000460D01*
X17066487Y-17000460D02*
X17056963Y-16990936D01*
X17056963Y-16990936D02*
X17047439Y-16971889D01*
X17047439Y-16971889D02*
X17037915Y-16933793D01*
X17037915Y-16933793D02*
X17037915Y-16886174D01*
X17037915Y-16886174D02*
X17047439Y-16848079D01*
X17047439Y-16848079D02*
X17056963Y-16829031D01*
X17056963Y-16829031D02*
X17066487Y-16819508D01*
X17066487Y-16819508D02*
X17085534Y-16809984D01*
X17237915Y-16990936D02*
X17247439Y-17000460D01*
X17247439Y-17000460D02*
X17237915Y-17009984D01*
X17237915Y-17009984D02*
X17228391Y-17000460D01*
X17228391Y-17000460D02*
X17237915Y-16990936D01*
X17237915Y-16990936D02*
X17237915Y-17009984D01*
X17371248Y-16809984D02*
X17390296Y-16809984D01*
X17390296Y-16809984D02*
X17409344Y-16819508D01*
X17409344Y-16819508D02*
X17418868Y-16829031D01*
X17418868Y-16829031D02*
X17428391Y-16848079D01*
X17428391Y-16848079D02*
X17437915Y-16886174D01*
X17437915Y-16886174D02*
X17437915Y-16933793D01*
X17437915Y-16933793D02*
X17428391Y-16971889D01*
X17428391Y-16971889D02*
X17418868Y-16990936D01*
X17418868Y-16990936D02*
X17409344Y-17000460D01*
X17409344Y-17000460D02*
X17390296Y-17009984D01*
X17390296Y-17009984D02*
X17371248Y-17009984D01*
X17371248Y-17009984D02*
X17352201Y-17000460D01*
X17352201Y-17000460D02*
X17342677Y-16990936D01*
X17342677Y-16990936D02*
X17333153Y-16971889D01*
X17333153Y-16971889D02*
X17323629Y-16933793D01*
X17323629Y-16933793D02*
X17323629Y-16886174D01*
X17323629Y-16886174D02*
X17333153Y-16848079D01*
X17333153Y-16848079D02*
X17342677Y-16829031D01*
X17342677Y-16829031D02*
X17352201Y-16819508D01*
X17352201Y-16819508D02*
X17371248Y-16809984D01*
X17514106Y-16829031D02*
X17523629Y-16819508D01*
X17523629Y-16819508D02*
X17542677Y-16809984D01*
X17542677Y-16809984D02*
X17590296Y-16809984D01*
X17590296Y-16809984D02*
X17609344Y-16819508D01*
X17609344Y-16819508D02*
X17618868Y-16829031D01*
X17618868Y-16829031D02*
X17628391Y-16848079D01*
X17628391Y-16848079D02*
X17628391Y-16867127D01*
X17628391Y-16867127D02*
X17618868Y-16895698D01*
X17618868Y-16895698D02*
X17504582Y-17009984D01*
X17504582Y-17009984D02*
X17628391Y-17009984D01*
X17695058Y-16809984D02*
X17818868Y-16809984D01*
X17818868Y-16809984D02*
X17752201Y-16886174D01*
X17752201Y-16886174D02*
X17780772Y-16886174D01*
X17780772Y-16886174D02*
X17799820Y-16895698D01*
X17799820Y-16895698D02*
X17809344Y-16905222D01*
X17809344Y-16905222D02*
X17818868Y-16924270D01*
X17818868Y-16924270D02*
X17818868Y-16971889D01*
X17818868Y-16971889D02*
X17809344Y-16990936D01*
X17809344Y-16990936D02*
X17799820Y-17000460D01*
X17799820Y-17000460D02*
X17780772Y-17009984D01*
X17780772Y-17009984D02*
X17723629Y-17009984D01*
X17723629Y-17009984D02*
X17704582Y-17000460D01*
X17704582Y-17000460D02*
X17695058Y-16990936D01*
X17990296Y-16809984D02*
X17952201Y-16809984D01*
X17952201Y-16809984D02*
X17933153Y-16819508D01*
X17933153Y-16819508D02*
X17923629Y-16829031D01*
X17923629Y-16829031D02*
X17904582Y-16857603D01*
X17904582Y-16857603D02*
X17895058Y-16895698D01*
X17895058Y-16895698D02*
X17895058Y-16971889D01*
X17895058Y-16971889D02*
X17904582Y-16990936D01*
X17904582Y-16990936D02*
X17914106Y-17000460D01*
X17914106Y-17000460D02*
X17933153Y-17009984D01*
X17933153Y-17009984D02*
X17971249Y-17009984D01*
X17971249Y-17009984D02*
X17990296Y-17000460D01*
X17990296Y-17000460D02*
X17999820Y-16990936D01*
X17999820Y-16990936D02*
X18009344Y-16971889D01*
X18009344Y-16971889D02*
X18009344Y-16924270D01*
X18009344Y-16924270D02*
X17999820Y-16905222D01*
X17999820Y-16905222D02*
X17990296Y-16895698D01*
X17990296Y-16895698D02*
X17971249Y-16886174D01*
X17971249Y-16886174D02*
X17933153Y-16886174D01*
X17933153Y-16886174D02*
X17914106Y-16895698D01*
X17914106Y-16895698D02*
X17904582Y-16905222D01*
X17904582Y-16905222D02*
X17895058Y-16924270D01*
X18085534Y-16809984D02*
X18085534Y-16848079D01*
X18161725Y-16809984D02*
X18161725Y-16848079D01*
X18456963Y-17086174D02*
X18447439Y-17076650D01*
X18447439Y-17076650D02*
X18428391Y-17048079D01*
X18428391Y-17048079D02*
X18418868Y-17029031D01*
X18418868Y-17029031D02*
X18409344Y-17000460D01*
X18409344Y-17000460D02*
X18399820Y-16952841D01*
X18399820Y-16952841D02*
X18399820Y-16914746D01*
X18399820Y-16914746D02*
X18409344Y-16867127D01*
X18409344Y-16867127D02*
X18418868Y-16838555D01*
X18418868Y-16838555D02*
X18428391Y-16819508D01*
X18428391Y-16819508D02*
X18447439Y-16790936D01*
X18447439Y-16790936D02*
X18456963Y-16781412D01*
X18571249Y-16809984D02*
X18590296Y-16809984D01*
X18590296Y-16809984D02*
X18609344Y-16819508D01*
X18609344Y-16819508D02*
X18618868Y-16829031D01*
X18618868Y-16829031D02*
X18628391Y-16848079D01*
X18628391Y-16848079D02*
X18637915Y-16886174D01*
X18637915Y-16886174D02*
X18637915Y-16933793D01*
X18637915Y-16933793D02*
X18628391Y-16971889D01*
X18628391Y-16971889D02*
X18618868Y-16990936D01*
X18618868Y-16990936D02*
X18609344Y-17000460D01*
X18609344Y-17000460D02*
X18590296Y-17009984D01*
X18590296Y-17009984D02*
X18571249Y-17009984D01*
X18571249Y-17009984D02*
X18552201Y-17000460D01*
X18552201Y-17000460D02*
X18542677Y-16990936D01*
X18542677Y-16990936D02*
X18533153Y-16971889D01*
X18533153Y-16971889D02*
X18523630Y-16933793D01*
X18523630Y-16933793D02*
X18523630Y-16886174D01*
X18523630Y-16886174D02*
X18533153Y-16848079D01*
X18533153Y-16848079D02*
X18542677Y-16829031D01*
X18542677Y-16829031D02*
X18552201Y-16819508D01*
X18552201Y-16819508D02*
X18571249Y-16809984D01*
X18876011Y-17009984D02*
X18876011Y-16809984D01*
X18961725Y-17009984D02*
X18961725Y-16905222D01*
X18961725Y-16905222D02*
X18952201Y-16886174D01*
X18952201Y-16886174D02*
X18933153Y-16876650D01*
X18933153Y-16876650D02*
X18904582Y-16876650D01*
X18904582Y-16876650D02*
X18885534Y-16886174D01*
X18885534Y-16886174D02*
X18876011Y-16895698D01*
X19085534Y-17009984D02*
X19066487Y-17000460D01*
X19066487Y-17000460D02*
X19056963Y-16990936D01*
X19056963Y-16990936D02*
X19047439Y-16971889D01*
X19047439Y-16971889D02*
X19047439Y-16914746D01*
X19047439Y-16914746D02*
X19056963Y-16895698D01*
X19056963Y-16895698D02*
X19066487Y-16886174D01*
X19066487Y-16886174D02*
X19085534Y-16876650D01*
X19085534Y-16876650D02*
X19114106Y-16876650D01*
X19114106Y-16876650D02*
X19133153Y-16886174D01*
X19133153Y-16886174D02*
X19142677Y-16895698D01*
X19142677Y-16895698D02*
X19152201Y-16914746D01*
X19152201Y-16914746D02*
X19152201Y-16971889D01*
X19152201Y-16971889D02*
X19142677Y-16990936D01*
X19142677Y-16990936D02*
X19133153Y-17000460D01*
X19133153Y-17000460D02*
X19114106Y-17009984D01*
X19114106Y-17009984D02*
X19085534Y-17009984D01*
X19266487Y-17009984D02*
X19247439Y-17000460D01*
X19247439Y-17000460D02*
X19237915Y-16981412D01*
X19237915Y-16981412D02*
X19237915Y-16809984D01*
X19418868Y-17000460D02*
X19399820Y-17009984D01*
X19399820Y-17009984D02*
X19361725Y-17009984D01*
X19361725Y-17009984D02*
X19342677Y-17000460D01*
X19342677Y-17000460D02*
X19333153Y-16981412D01*
X19333153Y-16981412D02*
X19333153Y-16905222D01*
X19333153Y-16905222D02*
X19342677Y-16886174D01*
X19342677Y-16886174D02*
X19361725Y-16876650D01*
X19361725Y-16876650D02*
X19399820Y-16876650D01*
X19399820Y-16876650D02*
X19418868Y-16886174D01*
X19418868Y-16886174D02*
X19428392Y-16905222D01*
X19428392Y-16905222D02*
X19428392Y-16924270D01*
X19428392Y-16924270D02*
X19333153Y-16943317D01*
X19504582Y-17000460D02*
X19523630Y-17009984D01*
X19523630Y-17009984D02*
X19561725Y-17009984D01*
X19561725Y-17009984D02*
X19580773Y-17000460D01*
X19580773Y-17000460D02*
X19590296Y-16981412D01*
X19590296Y-16981412D02*
X19590296Y-16971889D01*
X19590296Y-16971889D02*
X19580773Y-16952841D01*
X19580773Y-16952841D02*
X19561725Y-16943317D01*
X19561725Y-16943317D02*
X19533153Y-16943317D01*
X19533153Y-16943317D02*
X19514106Y-16933793D01*
X19514106Y-16933793D02*
X19504582Y-16914746D01*
X19504582Y-16914746D02*
X19504582Y-16905222D01*
X19504582Y-16905222D02*
X19514106Y-16886174D01*
X19514106Y-16886174D02*
X19533153Y-16876650D01*
X19533153Y-16876650D02*
X19561725Y-16876650D01*
X19561725Y-16876650D02*
X19580773Y-16886174D01*
X19828392Y-16933793D02*
X19980773Y-16933793D01*
X19904582Y-17009984D02*
X19904582Y-16857603D01*
X20314106Y-16876650D02*
X20314106Y-17009984D01*
X20266487Y-16800460D02*
X20218868Y-16943317D01*
X20218868Y-16943317D02*
X20342677Y-16943317D01*
X20561725Y-17000460D02*
X20580773Y-17009984D01*
X20580773Y-17009984D02*
X20618868Y-17009984D01*
X20618868Y-17009984D02*
X20637916Y-17000460D01*
X20637916Y-17000460D02*
X20647439Y-16981412D01*
X20647439Y-16981412D02*
X20647439Y-16971889D01*
X20647439Y-16971889D02*
X20637916Y-16952841D01*
X20637916Y-16952841D02*
X20618868Y-16943317D01*
X20618868Y-16943317D02*
X20590296Y-16943317D01*
X20590296Y-16943317D02*
X20571249Y-16933793D01*
X20571249Y-16933793D02*
X20561725Y-16914746D01*
X20561725Y-16914746D02*
X20561725Y-16905222D01*
X20561725Y-16905222D02*
X20571249Y-16886174D01*
X20571249Y-16886174D02*
X20590296Y-16876650D01*
X20590296Y-16876650D02*
X20618868Y-16876650D01*
X20618868Y-16876650D02*
X20637916Y-16886174D01*
X20761725Y-17009984D02*
X20742677Y-17000460D01*
X20742677Y-17000460D02*
X20733154Y-16981412D01*
X20733154Y-16981412D02*
X20733154Y-16809984D01*
X20866487Y-17009984D02*
X20847439Y-17000460D01*
X20847439Y-17000460D02*
X20837916Y-16990936D01*
X20837916Y-16990936D02*
X20828392Y-16971889D01*
X20828392Y-16971889D02*
X20828392Y-16914746D01*
X20828392Y-16914746D02*
X20837916Y-16895698D01*
X20837916Y-16895698D02*
X20847439Y-16886174D01*
X20847439Y-16886174D02*
X20866487Y-16876650D01*
X20866487Y-16876650D02*
X20895058Y-16876650D01*
X20895058Y-16876650D02*
X20914106Y-16886174D01*
X20914106Y-16886174D02*
X20923630Y-16895698D01*
X20923630Y-16895698D02*
X20933154Y-16914746D01*
X20933154Y-16914746D02*
X20933154Y-16971889D01*
X20933154Y-16971889D02*
X20923630Y-16990936D01*
X20923630Y-16990936D02*
X20914106Y-17000460D01*
X20914106Y-17000460D02*
X20895058Y-17009984D01*
X20895058Y-17009984D02*
X20866487Y-17009984D01*
X20990297Y-16876650D02*
X21066487Y-16876650D01*
X21018868Y-16809984D02*
X21018868Y-16981412D01*
X21018868Y-16981412D02*
X21028392Y-17000460D01*
X21028392Y-17000460D02*
X21047439Y-17009984D01*
X21047439Y-17009984D02*
X21066487Y-17009984D01*
X21123630Y-17000460D02*
X21142677Y-17009984D01*
X21142677Y-17009984D02*
X21180773Y-17009984D01*
X21180773Y-17009984D02*
X21199820Y-17000460D01*
X21199820Y-17000460D02*
X21209344Y-16981412D01*
X21209344Y-16981412D02*
X21209344Y-16971889D01*
X21209344Y-16971889D02*
X21199820Y-16952841D01*
X21199820Y-16952841D02*
X21180773Y-16943317D01*
X21180773Y-16943317D02*
X21152201Y-16943317D01*
X21152201Y-16943317D02*
X21133154Y-16933793D01*
X21133154Y-16933793D02*
X21123630Y-16914746D01*
X21123630Y-16914746D02*
X21123630Y-16905222D01*
X21123630Y-16905222D02*
X21133154Y-16886174D01*
X21133154Y-16886174D02*
X21152201Y-16876650D01*
X21152201Y-16876650D02*
X21180773Y-16876650D01*
X21180773Y-16876650D02*
X21199820Y-16886174D01*
X21276011Y-17086174D02*
X21285535Y-17076650D01*
X21285535Y-17076650D02*
X21304582Y-17048079D01*
X21304582Y-17048079D02*
X21314106Y-17029031D01*
X21314106Y-17029031D02*
X21323630Y-17000460D01*
X21323630Y-17000460D02*
X21333154Y-16952841D01*
X21333154Y-16952841D02*
X21333154Y-16914746D01*
X21333154Y-16914746D02*
X21323630Y-16867127D01*
X21323630Y-16867127D02*
X21314106Y-16838555D01*
X21314106Y-16838555D02*
X21304582Y-16819508D01*
X21304582Y-16819508D02*
X21285535Y-16790936D01*
X21285535Y-16790936D02*
X21276011Y-16781412D01*
D12*
X14867256Y-17217856D02*
X14867256Y-17147144D01*
X14796544Y-17147144D01*
X14796544Y-17217856D01*
X14867256Y-17217856D01*
D11*
X15247439Y-17273984D02*
X15133153Y-17273984D01*
X15190296Y-17273984D02*
X15190296Y-17073984D01*
X15190296Y-17073984D02*
X15171248Y-17102555D01*
X15171248Y-17102555D02*
X15152201Y-17121603D01*
X15152201Y-17121603D02*
X15133153Y-17131127D01*
X15333153Y-17254936D02*
X15342677Y-17264460D01*
X15342677Y-17264460D02*
X15333153Y-17273984D01*
X15333153Y-17273984D02*
X15323629Y-17264460D01*
X15323629Y-17264460D02*
X15333153Y-17254936D01*
X15333153Y-17254936D02*
X15333153Y-17273984D01*
X15466486Y-17073984D02*
X15485534Y-17073984D01*
X15485534Y-17073984D02*
X15504582Y-17083508D01*
X15504582Y-17083508D02*
X15514105Y-17093031D01*
X15514105Y-17093031D02*
X15523629Y-17112079D01*
X15523629Y-17112079D02*
X15533153Y-17150174D01*
X15533153Y-17150174D02*
X15533153Y-17197793D01*
X15533153Y-17197793D02*
X15523629Y-17235889D01*
X15523629Y-17235889D02*
X15514105Y-17254936D01*
X15514105Y-17254936D02*
X15504582Y-17264460D01*
X15504582Y-17264460D02*
X15485534Y-17273984D01*
X15485534Y-17273984D02*
X15466486Y-17273984D01*
X15466486Y-17273984D02*
X15447439Y-17264460D01*
X15447439Y-17264460D02*
X15437915Y-17254936D01*
X15437915Y-17254936D02*
X15428391Y-17235889D01*
X15428391Y-17235889D02*
X15418867Y-17197793D01*
X15418867Y-17197793D02*
X15418867Y-17150174D01*
X15418867Y-17150174D02*
X15428391Y-17112079D01*
X15428391Y-17112079D02*
X15437915Y-17093031D01*
X15437915Y-17093031D02*
X15447439Y-17083508D01*
X15447439Y-17083508D02*
X15466486Y-17073984D01*
X15656962Y-17073984D02*
X15676010Y-17073984D01*
X15676010Y-17073984D02*
X15695058Y-17083508D01*
X15695058Y-17083508D02*
X15704582Y-17093031D01*
X15704582Y-17093031D02*
X15714105Y-17112079D01*
X15714105Y-17112079D02*
X15723629Y-17150174D01*
X15723629Y-17150174D02*
X15723629Y-17197793D01*
X15723629Y-17197793D02*
X15714105Y-17235889D01*
X15714105Y-17235889D02*
X15704582Y-17254936D01*
X15704582Y-17254936D02*
X15695058Y-17264460D01*
X15695058Y-17264460D02*
X15676010Y-17273984D01*
X15676010Y-17273984D02*
X15656962Y-17273984D01*
X15656962Y-17273984D02*
X15637915Y-17264460D01*
X15637915Y-17264460D02*
X15628391Y-17254936D01*
X15628391Y-17254936D02*
X15618867Y-17235889D01*
X15618867Y-17235889D02*
X15609343Y-17197793D01*
X15609343Y-17197793D02*
X15609343Y-17150174D01*
X15609343Y-17150174D02*
X15618867Y-17112079D01*
X15618867Y-17112079D02*
X15628391Y-17093031D01*
X15628391Y-17093031D02*
X15637915Y-17083508D01*
X15637915Y-17083508D02*
X15656962Y-17073984D01*
X15847439Y-17073984D02*
X15866486Y-17073984D01*
X15866486Y-17073984D02*
X15885534Y-17083508D01*
X15885534Y-17083508D02*
X15895058Y-17093031D01*
X15895058Y-17093031D02*
X15904582Y-17112079D01*
X15904582Y-17112079D02*
X15914105Y-17150174D01*
X15914105Y-17150174D02*
X15914105Y-17197793D01*
X15914105Y-17197793D02*
X15904582Y-17235889D01*
X15904582Y-17235889D02*
X15895058Y-17254936D01*
X15895058Y-17254936D02*
X15885534Y-17264460D01*
X15885534Y-17264460D02*
X15866486Y-17273984D01*
X15866486Y-17273984D02*
X15847439Y-17273984D01*
X15847439Y-17273984D02*
X15828391Y-17264460D01*
X15828391Y-17264460D02*
X15818867Y-17254936D01*
X15818867Y-17254936D02*
X15809343Y-17235889D01*
X15809343Y-17235889D02*
X15799820Y-17197793D01*
X15799820Y-17197793D02*
X15799820Y-17150174D01*
X15799820Y-17150174D02*
X15809343Y-17112079D01*
X15809343Y-17112079D02*
X15818867Y-17093031D01*
X15818867Y-17093031D02*
X15828391Y-17083508D01*
X15828391Y-17083508D02*
X15847439Y-17073984D01*
X15999820Y-17273984D02*
X15999820Y-17140650D01*
X15999820Y-17159698D02*
X16009343Y-17150174D01*
X16009343Y-17150174D02*
X16028391Y-17140650D01*
X16028391Y-17140650D02*
X16056963Y-17140650D01*
X16056963Y-17140650D02*
X16076010Y-17150174D01*
X16076010Y-17150174D02*
X16085534Y-17169222D01*
X16085534Y-17169222D02*
X16085534Y-17273984D01*
X16085534Y-17169222D02*
X16095058Y-17150174D01*
X16095058Y-17150174D02*
X16114105Y-17140650D01*
X16114105Y-17140650D02*
X16142677Y-17140650D01*
X16142677Y-17140650D02*
X16161724Y-17150174D01*
X16161724Y-17150174D02*
X16171248Y-17169222D01*
X16171248Y-17169222D02*
X16171248Y-17273984D01*
X16266486Y-17273984D02*
X16266486Y-17140650D01*
X16266486Y-17159698D02*
X16276010Y-17150174D01*
X16276010Y-17150174D02*
X16295058Y-17140650D01*
X16295058Y-17140650D02*
X16323629Y-17140650D01*
X16323629Y-17140650D02*
X16342677Y-17150174D01*
X16342677Y-17150174D02*
X16352201Y-17169222D01*
X16352201Y-17169222D02*
X16352201Y-17273984D01*
X16352201Y-17169222D02*
X16361724Y-17150174D01*
X16361724Y-17150174D02*
X16380772Y-17140650D01*
X16380772Y-17140650D02*
X16409343Y-17140650D01*
X16409343Y-17140650D02*
X16428391Y-17150174D01*
X16428391Y-17150174D02*
X16437915Y-17169222D01*
X16437915Y-17169222D02*
X16437915Y-17273984D01*
X16828391Y-17064460D02*
X16656963Y-17321603D01*
X17085534Y-17073984D02*
X17104582Y-17073984D01*
X17104582Y-17073984D02*
X17123629Y-17083508D01*
X17123629Y-17083508D02*
X17133153Y-17093031D01*
X17133153Y-17093031D02*
X17142677Y-17112079D01*
X17142677Y-17112079D02*
X17152201Y-17150174D01*
X17152201Y-17150174D02*
X17152201Y-17197793D01*
X17152201Y-17197793D02*
X17142677Y-17235889D01*
X17142677Y-17235889D02*
X17133153Y-17254936D01*
X17133153Y-17254936D02*
X17123629Y-17264460D01*
X17123629Y-17264460D02*
X17104582Y-17273984D01*
X17104582Y-17273984D02*
X17085534Y-17273984D01*
X17085534Y-17273984D02*
X17066487Y-17264460D01*
X17066487Y-17264460D02*
X17056963Y-17254936D01*
X17056963Y-17254936D02*
X17047439Y-17235889D01*
X17047439Y-17235889D02*
X17037915Y-17197793D01*
X17037915Y-17197793D02*
X17037915Y-17150174D01*
X17037915Y-17150174D02*
X17047439Y-17112079D01*
X17047439Y-17112079D02*
X17056963Y-17093031D01*
X17056963Y-17093031D02*
X17066487Y-17083508D01*
X17066487Y-17083508D02*
X17085534Y-17073984D01*
X17237915Y-17254936D02*
X17247439Y-17264460D01*
X17247439Y-17264460D02*
X17237915Y-17273984D01*
X17237915Y-17273984D02*
X17228391Y-17264460D01*
X17228391Y-17264460D02*
X17237915Y-17254936D01*
X17237915Y-17254936D02*
X17237915Y-17273984D01*
X17371248Y-17073984D02*
X17390296Y-17073984D01*
X17390296Y-17073984D02*
X17409344Y-17083508D01*
X17409344Y-17083508D02*
X17418868Y-17093031D01*
X17418868Y-17093031D02*
X17428391Y-17112079D01*
X17428391Y-17112079D02*
X17437915Y-17150174D01*
X17437915Y-17150174D02*
X17437915Y-17197793D01*
X17437915Y-17197793D02*
X17428391Y-17235889D01*
X17428391Y-17235889D02*
X17418868Y-17254936D01*
X17418868Y-17254936D02*
X17409344Y-17264460D01*
X17409344Y-17264460D02*
X17390296Y-17273984D01*
X17390296Y-17273984D02*
X17371248Y-17273984D01*
X17371248Y-17273984D02*
X17352201Y-17264460D01*
X17352201Y-17264460D02*
X17342677Y-17254936D01*
X17342677Y-17254936D02*
X17333153Y-17235889D01*
X17333153Y-17235889D02*
X17323629Y-17197793D01*
X17323629Y-17197793D02*
X17323629Y-17150174D01*
X17323629Y-17150174D02*
X17333153Y-17112079D01*
X17333153Y-17112079D02*
X17342677Y-17093031D01*
X17342677Y-17093031D02*
X17352201Y-17083508D01*
X17352201Y-17083508D02*
X17371248Y-17073984D01*
X17504582Y-17073984D02*
X17628391Y-17073984D01*
X17628391Y-17073984D02*
X17561725Y-17150174D01*
X17561725Y-17150174D02*
X17590296Y-17150174D01*
X17590296Y-17150174D02*
X17609344Y-17159698D01*
X17609344Y-17159698D02*
X17618868Y-17169222D01*
X17618868Y-17169222D02*
X17628391Y-17188270D01*
X17628391Y-17188270D02*
X17628391Y-17235889D01*
X17628391Y-17235889D02*
X17618868Y-17254936D01*
X17618868Y-17254936D02*
X17609344Y-17264460D01*
X17609344Y-17264460D02*
X17590296Y-17273984D01*
X17590296Y-17273984D02*
X17533153Y-17273984D01*
X17533153Y-17273984D02*
X17514106Y-17264460D01*
X17514106Y-17264460D02*
X17504582Y-17254936D01*
X17723629Y-17273984D02*
X17761725Y-17273984D01*
X17761725Y-17273984D02*
X17780772Y-17264460D01*
X17780772Y-17264460D02*
X17790296Y-17254936D01*
X17790296Y-17254936D02*
X17809344Y-17226365D01*
X17809344Y-17226365D02*
X17818868Y-17188270D01*
X17818868Y-17188270D02*
X17818868Y-17112079D01*
X17818868Y-17112079D02*
X17809344Y-17093031D01*
X17809344Y-17093031D02*
X17799820Y-17083508D01*
X17799820Y-17083508D02*
X17780772Y-17073984D01*
X17780772Y-17073984D02*
X17742677Y-17073984D01*
X17742677Y-17073984D02*
X17723629Y-17083508D01*
X17723629Y-17083508D02*
X17714106Y-17093031D01*
X17714106Y-17093031D02*
X17704582Y-17112079D01*
X17704582Y-17112079D02*
X17704582Y-17159698D01*
X17704582Y-17159698D02*
X17714106Y-17178746D01*
X17714106Y-17178746D02*
X17723629Y-17188270D01*
X17723629Y-17188270D02*
X17742677Y-17197793D01*
X17742677Y-17197793D02*
X17780772Y-17197793D01*
X17780772Y-17197793D02*
X17799820Y-17188270D01*
X17799820Y-17188270D02*
X17809344Y-17178746D01*
X17809344Y-17178746D02*
X17818868Y-17159698D01*
X17990296Y-17140650D02*
X17990296Y-17273984D01*
X17942677Y-17064460D02*
X17895058Y-17207317D01*
X17895058Y-17207317D02*
X18018868Y-17207317D01*
X18085534Y-17073984D02*
X18085534Y-17112079D01*
X18161725Y-17073984D02*
X18161725Y-17112079D01*
X18456963Y-17350174D02*
X18447439Y-17340650D01*
X18447439Y-17340650D02*
X18428391Y-17312079D01*
X18428391Y-17312079D02*
X18418868Y-17293031D01*
X18418868Y-17293031D02*
X18409344Y-17264460D01*
X18409344Y-17264460D02*
X18399820Y-17216841D01*
X18399820Y-17216841D02*
X18399820Y-17178746D01*
X18399820Y-17178746D02*
X18409344Y-17131127D01*
X18409344Y-17131127D02*
X18418868Y-17102555D01*
X18418868Y-17102555D02*
X18428391Y-17083508D01*
X18428391Y-17083508D02*
X18447439Y-17054936D01*
X18447439Y-17054936D02*
X18456963Y-17045412D01*
X18542677Y-17273984D02*
X18580772Y-17273984D01*
X18580772Y-17273984D02*
X18599820Y-17264460D01*
X18599820Y-17264460D02*
X18609344Y-17254936D01*
X18609344Y-17254936D02*
X18628391Y-17226365D01*
X18628391Y-17226365D02*
X18637915Y-17188270D01*
X18637915Y-17188270D02*
X18637915Y-17112079D01*
X18637915Y-17112079D02*
X18628391Y-17093031D01*
X18628391Y-17093031D02*
X18618868Y-17083508D01*
X18618868Y-17083508D02*
X18599820Y-17073984D01*
X18599820Y-17073984D02*
X18561725Y-17073984D01*
X18561725Y-17073984D02*
X18542677Y-17083508D01*
X18542677Y-17083508D02*
X18533153Y-17093031D01*
X18533153Y-17093031D02*
X18523630Y-17112079D01*
X18523630Y-17112079D02*
X18523630Y-17159698D01*
X18523630Y-17159698D02*
X18533153Y-17178746D01*
X18533153Y-17178746D02*
X18542677Y-17188270D01*
X18542677Y-17188270D02*
X18561725Y-17197793D01*
X18561725Y-17197793D02*
X18599820Y-17197793D01*
X18599820Y-17197793D02*
X18618868Y-17188270D01*
X18618868Y-17188270D02*
X18628391Y-17178746D01*
X18628391Y-17178746D02*
X18637915Y-17159698D01*
X18704582Y-17073984D02*
X18828391Y-17073984D01*
X18828391Y-17073984D02*
X18761725Y-17150174D01*
X18761725Y-17150174D02*
X18790296Y-17150174D01*
X18790296Y-17150174D02*
X18809344Y-17159698D01*
X18809344Y-17159698D02*
X18818868Y-17169222D01*
X18818868Y-17169222D02*
X18828391Y-17188270D01*
X18828391Y-17188270D02*
X18828391Y-17235889D01*
X18828391Y-17235889D02*
X18818868Y-17254936D01*
X18818868Y-17254936D02*
X18809344Y-17264460D01*
X18809344Y-17264460D02*
X18790296Y-17273984D01*
X18790296Y-17273984D02*
X18733153Y-17273984D01*
X18733153Y-17273984D02*
X18714106Y-17264460D01*
X18714106Y-17264460D02*
X18704582Y-17254936D01*
X19066487Y-17273984D02*
X19066487Y-17073984D01*
X19152201Y-17273984D02*
X19152201Y-17169222D01*
X19152201Y-17169222D02*
X19142677Y-17150174D01*
X19142677Y-17150174D02*
X19123630Y-17140650D01*
X19123630Y-17140650D02*
X19095058Y-17140650D01*
X19095058Y-17140650D02*
X19076011Y-17150174D01*
X19076011Y-17150174D02*
X19066487Y-17159698D01*
X19276011Y-17273984D02*
X19256963Y-17264460D01*
X19256963Y-17264460D02*
X19247439Y-17254936D01*
X19247439Y-17254936D02*
X19237915Y-17235889D01*
X19237915Y-17235889D02*
X19237915Y-17178746D01*
X19237915Y-17178746D02*
X19247439Y-17159698D01*
X19247439Y-17159698D02*
X19256963Y-17150174D01*
X19256963Y-17150174D02*
X19276011Y-17140650D01*
X19276011Y-17140650D02*
X19304582Y-17140650D01*
X19304582Y-17140650D02*
X19323630Y-17150174D01*
X19323630Y-17150174D02*
X19333153Y-17159698D01*
X19333153Y-17159698D02*
X19342677Y-17178746D01*
X19342677Y-17178746D02*
X19342677Y-17235889D01*
X19342677Y-17235889D02*
X19333153Y-17254936D01*
X19333153Y-17254936D02*
X19323630Y-17264460D01*
X19323630Y-17264460D02*
X19304582Y-17273984D01*
X19304582Y-17273984D02*
X19276011Y-17273984D01*
X19456963Y-17273984D02*
X19437915Y-17264460D01*
X19437915Y-17264460D02*
X19428392Y-17245412D01*
X19428392Y-17245412D02*
X19428392Y-17073984D01*
X19609344Y-17264460D02*
X19590296Y-17273984D01*
X19590296Y-17273984D02*
X19552201Y-17273984D01*
X19552201Y-17273984D02*
X19533153Y-17264460D01*
X19533153Y-17264460D02*
X19523630Y-17245412D01*
X19523630Y-17245412D02*
X19523630Y-17169222D01*
X19523630Y-17169222D02*
X19533153Y-17150174D01*
X19533153Y-17150174D02*
X19552201Y-17140650D01*
X19552201Y-17140650D02*
X19590296Y-17140650D01*
X19590296Y-17140650D02*
X19609344Y-17150174D01*
X19609344Y-17150174D02*
X19618868Y-17169222D01*
X19618868Y-17169222D02*
X19618868Y-17188270D01*
X19618868Y-17188270D02*
X19523630Y-17207317D01*
X19695058Y-17264460D02*
X19714106Y-17273984D01*
X19714106Y-17273984D02*
X19752201Y-17273984D01*
X19752201Y-17273984D02*
X19771249Y-17264460D01*
X19771249Y-17264460D02*
X19780773Y-17245412D01*
X19780773Y-17245412D02*
X19780773Y-17235889D01*
X19780773Y-17235889D02*
X19771249Y-17216841D01*
X19771249Y-17216841D02*
X19752201Y-17207317D01*
X19752201Y-17207317D02*
X19723630Y-17207317D01*
X19723630Y-17207317D02*
X19704582Y-17197793D01*
X19704582Y-17197793D02*
X19695058Y-17178746D01*
X19695058Y-17178746D02*
X19695058Y-17169222D01*
X19695058Y-17169222D02*
X19704582Y-17150174D01*
X19704582Y-17150174D02*
X19723630Y-17140650D01*
X19723630Y-17140650D02*
X19752201Y-17140650D01*
X19752201Y-17140650D02*
X19771249Y-17150174D01*
X19847439Y-17350174D02*
X19856963Y-17340650D01*
X19856963Y-17340650D02*
X19876011Y-17312079D01*
X19876011Y-17312079D02*
X19885534Y-17293031D01*
X19885534Y-17293031D02*
X19895058Y-17264460D01*
X19895058Y-17264460D02*
X19904582Y-17216841D01*
X19904582Y-17216841D02*
X19904582Y-17178746D01*
X19904582Y-17178746D02*
X19895058Y-17131127D01*
X19895058Y-17131127D02*
X19885534Y-17102555D01*
X19885534Y-17102555D02*
X19876011Y-17083508D01*
X19876011Y-17083508D02*
X19856963Y-17054936D01*
X19856963Y-17054936D02*
X19847439Y-17045412D01*
X14781900Y-17546500D02*
X14881900Y-17446500D01*
X14781900Y-17346500D01*
X14681900Y-17446500D01*
X14781900Y-17546500D01*
X15133153Y-17357031D02*
X15142677Y-17347508D01*
X15142677Y-17347508D02*
X15161724Y-17337984D01*
X15161724Y-17337984D02*
X15209343Y-17337984D01*
X15209343Y-17337984D02*
X15228391Y-17347508D01*
X15228391Y-17347508D02*
X15237915Y-17357031D01*
X15237915Y-17357031D02*
X15247439Y-17376079D01*
X15247439Y-17376079D02*
X15247439Y-17395127D01*
X15247439Y-17395127D02*
X15237915Y-17423698D01*
X15237915Y-17423698D02*
X15123629Y-17537984D01*
X15123629Y-17537984D02*
X15247439Y-17537984D01*
X15333153Y-17518936D02*
X15342677Y-17528460D01*
X15342677Y-17528460D02*
X15333153Y-17537984D01*
X15333153Y-17537984D02*
X15323629Y-17528460D01*
X15323629Y-17528460D02*
X15333153Y-17518936D01*
X15333153Y-17518936D02*
X15333153Y-17537984D01*
X15523629Y-17337984D02*
X15428391Y-17337984D01*
X15428391Y-17337984D02*
X15418867Y-17433222D01*
X15418867Y-17433222D02*
X15428391Y-17423698D01*
X15428391Y-17423698D02*
X15447439Y-17414174D01*
X15447439Y-17414174D02*
X15495058Y-17414174D01*
X15495058Y-17414174D02*
X15514105Y-17423698D01*
X15514105Y-17423698D02*
X15523629Y-17433222D01*
X15523629Y-17433222D02*
X15533153Y-17452270D01*
X15533153Y-17452270D02*
X15533153Y-17499889D01*
X15533153Y-17499889D02*
X15523629Y-17518936D01*
X15523629Y-17518936D02*
X15514105Y-17528460D01*
X15514105Y-17528460D02*
X15495058Y-17537984D01*
X15495058Y-17537984D02*
X15447439Y-17537984D01*
X15447439Y-17537984D02*
X15428391Y-17528460D01*
X15428391Y-17528460D02*
X15418867Y-17518936D01*
X15656962Y-17337984D02*
X15676010Y-17337984D01*
X15676010Y-17337984D02*
X15695058Y-17347508D01*
X15695058Y-17347508D02*
X15704582Y-17357031D01*
X15704582Y-17357031D02*
X15714105Y-17376079D01*
X15714105Y-17376079D02*
X15723629Y-17414174D01*
X15723629Y-17414174D02*
X15723629Y-17461793D01*
X15723629Y-17461793D02*
X15714105Y-17499889D01*
X15714105Y-17499889D02*
X15704582Y-17518936D01*
X15704582Y-17518936D02*
X15695058Y-17528460D01*
X15695058Y-17528460D02*
X15676010Y-17537984D01*
X15676010Y-17537984D02*
X15656962Y-17537984D01*
X15656962Y-17537984D02*
X15637915Y-17528460D01*
X15637915Y-17528460D02*
X15628391Y-17518936D01*
X15628391Y-17518936D02*
X15618867Y-17499889D01*
X15618867Y-17499889D02*
X15609343Y-17461793D01*
X15609343Y-17461793D02*
X15609343Y-17414174D01*
X15609343Y-17414174D02*
X15618867Y-17376079D01*
X15618867Y-17376079D02*
X15628391Y-17357031D01*
X15628391Y-17357031D02*
X15637915Y-17347508D01*
X15637915Y-17347508D02*
X15656962Y-17337984D01*
X15847439Y-17337984D02*
X15866486Y-17337984D01*
X15866486Y-17337984D02*
X15885534Y-17347508D01*
X15885534Y-17347508D02*
X15895058Y-17357031D01*
X15895058Y-17357031D02*
X15904582Y-17376079D01*
X15904582Y-17376079D02*
X15914105Y-17414174D01*
X15914105Y-17414174D02*
X15914105Y-17461793D01*
X15914105Y-17461793D02*
X15904582Y-17499889D01*
X15904582Y-17499889D02*
X15895058Y-17518936D01*
X15895058Y-17518936D02*
X15885534Y-17528460D01*
X15885534Y-17528460D02*
X15866486Y-17537984D01*
X15866486Y-17537984D02*
X15847439Y-17537984D01*
X15847439Y-17537984D02*
X15828391Y-17528460D01*
X15828391Y-17528460D02*
X15818867Y-17518936D01*
X15818867Y-17518936D02*
X15809343Y-17499889D01*
X15809343Y-17499889D02*
X15799820Y-17461793D01*
X15799820Y-17461793D02*
X15799820Y-17414174D01*
X15799820Y-17414174D02*
X15809343Y-17376079D01*
X15809343Y-17376079D02*
X15818867Y-17357031D01*
X15818867Y-17357031D02*
X15828391Y-17347508D01*
X15828391Y-17347508D02*
X15847439Y-17337984D01*
X15999820Y-17537984D02*
X15999820Y-17404650D01*
X15999820Y-17423698D02*
X16009343Y-17414174D01*
X16009343Y-17414174D02*
X16028391Y-17404650D01*
X16028391Y-17404650D02*
X16056963Y-17404650D01*
X16056963Y-17404650D02*
X16076010Y-17414174D01*
X16076010Y-17414174D02*
X16085534Y-17433222D01*
X16085534Y-17433222D02*
X16085534Y-17537984D01*
X16085534Y-17433222D02*
X16095058Y-17414174D01*
X16095058Y-17414174D02*
X16114105Y-17404650D01*
X16114105Y-17404650D02*
X16142677Y-17404650D01*
X16142677Y-17404650D02*
X16161724Y-17414174D01*
X16161724Y-17414174D02*
X16171248Y-17433222D01*
X16171248Y-17433222D02*
X16171248Y-17537984D01*
X16266486Y-17537984D02*
X16266486Y-17404650D01*
X16266486Y-17423698D02*
X16276010Y-17414174D01*
X16276010Y-17414174D02*
X16295058Y-17404650D01*
X16295058Y-17404650D02*
X16323629Y-17404650D01*
X16323629Y-17404650D02*
X16342677Y-17414174D01*
X16342677Y-17414174D02*
X16352201Y-17433222D01*
X16352201Y-17433222D02*
X16352201Y-17537984D01*
X16352201Y-17433222D02*
X16361724Y-17414174D01*
X16361724Y-17414174D02*
X16380772Y-17404650D01*
X16380772Y-17404650D02*
X16409343Y-17404650D01*
X16409343Y-17404650D02*
X16428391Y-17414174D01*
X16428391Y-17414174D02*
X16437915Y-17433222D01*
X16437915Y-17433222D02*
X16437915Y-17537984D01*
X16828391Y-17328460D02*
X16656963Y-17585603D01*
X17085534Y-17337984D02*
X17104582Y-17337984D01*
X17104582Y-17337984D02*
X17123629Y-17347508D01*
X17123629Y-17347508D02*
X17133153Y-17357031D01*
X17133153Y-17357031D02*
X17142677Y-17376079D01*
X17142677Y-17376079D02*
X17152201Y-17414174D01*
X17152201Y-17414174D02*
X17152201Y-17461793D01*
X17152201Y-17461793D02*
X17142677Y-17499889D01*
X17142677Y-17499889D02*
X17133153Y-17518936D01*
X17133153Y-17518936D02*
X17123629Y-17528460D01*
X17123629Y-17528460D02*
X17104582Y-17537984D01*
X17104582Y-17537984D02*
X17085534Y-17537984D01*
X17085534Y-17537984D02*
X17066487Y-17528460D01*
X17066487Y-17528460D02*
X17056963Y-17518936D01*
X17056963Y-17518936D02*
X17047439Y-17499889D01*
X17047439Y-17499889D02*
X17037915Y-17461793D01*
X17037915Y-17461793D02*
X17037915Y-17414174D01*
X17037915Y-17414174D02*
X17047439Y-17376079D01*
X17047439Y-17376079D02*
X17056963Y-17357031D01*
X17056963Y-17357031D02*
X17066487Y-17347508D01*
X17066487Y-17347508D02*
X17085534Y-17337984D01*
X17237915Y-17518936D02*
X17247439Y-17528460D01*
X17247439Y-17528460D02*
X17237915Y-17537984D01*
X17237915Y-17537984D02*
X17228391Y-17528460D01*
X17228391Y-17528460D02*
X17237915Y-17518936D01*
X17237915Y-17518936D02*
X17237915Y-17537984D01*
X17371248Y-17337984D02*
X17390296Y-17337984D01*
X17390296Y-17337984D02*
X17409344Y-17347508D01*
X17409344Y-17347508D02*
X17418868Y-17357031D01*
X17418868Y-17357031D02*
X17428391Y-17376079D01*
X17428391Y-17376079D02*
X17437915Y-17414174D01*
X17437915Y-17414174D02*
X17437915Y-17461793D01*
X17437915Y-17461793D02*
X17428391Y-17499889D01*
X17428391Y-17499889D02*
X17418868Y-17518936D01*
X17418868Y-17518936D02*
X17409344Y-17528460D01*
X17409344Y-17528460D02*
X17390296Y-17537984D01*
X17390296Y-17537984D02*
X17371248Y-17537984D01*
X17371248Y-17537984D02*
X17352201Y-17528460D01*
X17352201Y-17528460D02*
X17342677Y-17518936D01*
X17342677Y-17518936D02*
X17333153Y-17499889D01*
X17333153Y-17499889D02*
X17323629Y-17461793D01*
X17323629Y-17461793D02*
X17323629Y-17414174D01*
X17323629Y-17414174D02*
X17333153Y-17376079D01*
X17333153Y-17376079D02*
X17342677Y-17357031D01*
X17342677Y-17357031D02*
X17352201Y-17347508D01*
X17352201Y-17347508D02*
X17371248Y-17337984D01*
X17533153Y-17537984D02*
X17571248Y-17537984D01*
X17571248Y-17537984D02*
X17590296Y-17528460D01*
X17590296Y-17528460D02*
X17599820Y-17518936D01*
X17599820Y-17518936D02*
X17618868Y-17490365D01*
X17618868Y-17490365D02*
X17628391Y-17452270D01*
X17628391Y-17452270D02*
X17628391Y-17376079D01*
X17628391Y-17376079D02*
X17618868Y-17357031D01*
X17618868Y-17357031D02*
X17609344Y-17347508D01*
X17609344Y-17347508D02*
X17590296Y-17337984D01*
X17590296Y-17337984D02*
X17552201Y-17337984D01*
X17552201Y-17337984D02*
X17533153Y-17347508D01*
X17533153Y-17347508D02*
X17523629Y-17357031D01*
X17523629Y-17357031D02*
X17514106Y-17376079D01*
X17514106Y-17376079D02*
X17514106Y-17423698D01*
X17514106Y-17423698D02*
X17523629Y-17442746D01*
X17523629Y-17442746D02*
X17533153Y-17452270D01*
X17533153Y-17452270D02*
X17552201Y-17461793D01*
X17552201Y-17461793D02*
X17590296Y-17461793D01*
X17590296Y-17461793D02*
X17609344Y-17452270D01*
X17609344Y-17452270D02*
X17618868Y-17442746D01*
X17618868Y-17442746D02*
X17628391Y-17423698D01*
X17742677Y-17423698D02*
X17723629Y-17414174D01*
X17723629Y-17414174D02*
X17714106Y-17404650D01*
X17714106Y-17404650D02*
X17704582Y-17385603D01*
X17704582Y-17385603D02*
X17704582Y-17376079D01*
X17704582Y-17376079D02*
X17714106Y-17357031D01*
X17714106Y-17357031D02*
X17723629Y-17347508D01*
X17723629Y-17347508D02*
X17742677Y-17337984D01*
X17742677Y-17337984D02*
X17780772Y-17337984D01*
X17780772Y-17337984D02*
X17799820Y-17347508D01*
X17799820Y-17347508D02*
X17809344Y-17357031D01*
X17809344Y-17357031D02*
X17818868Y-17376079D01*
X17818868Y-17376079D02*
X17818868Y-17385603D01*
X17818868Y-17385603D02*
X17809344Y-17404650D01*
X17809344Y-17404650D02*
X17799820Y-17414174D01*
X17799820Y-17414174D02*
X17780772Y-17423698D01*
X17780772Y-17423698D02*
X17742677Y-17423698D01*
X17742677Y-17423698D02*
X17723629Y-17433222D01*
X17723629Y-17433222D02*
X17714106Y-17442746D01*
X17714106Y-17442746D02*
X17704582Y-17461793D01*
X17704582Y-17461793D02*
X17704582Y-17499889D01*
X17704582Y-17499889D02*
X17714106Y-17518936D01*
X17714106Y-17518936D02*
X17723629Y-17528460D01*
X17723629Y-17528460D02*
X17742677Y-17537984D01*
X17742677Y-17537984D02*
X17780772Y-17537984D01*
X17780772Y-17537984D02*
X17799820Y-17528460D01*
X17799820Y-17528460D02*
X17809344Y-17518936D01*
X17809344Y-17518936D02*
X17818868Y-17499889D01*
X17818868Y-17499889D02*
X17818868Y-17461793D01*
X17818868Y-17461793D02*
X17809344Y-17442746D01*
X17809344Y-17442746D02*
X17799820Y-17433222D01*
X17799820Y-17433222D02*
X17780772Y-17423698D01*
X17990296Y-17404650D02*
X17990296Y-17537984D01*
X17942677Y-17328460D02*
X17895058Y-17471317D01*
X17895058Y-17471317D02*
X18018868Y-17471317D01*
X18085534Y-17337984D02*
X18085534Y-17376079D01*
X18161725Y-17337984D02*
X18161725Y-17376079D01*
X18456963Y-17614174D02*
X18447439Y-17604650D01*
X18447439Y-17604650D02*
X18428391Y-17576079D01*
X18428391Y-17576079D02*
X18418868Y-17557031D01*
X18418868Y-17557031D02*
X18409344Y-17528460D01*
X18409344Y-17528460D02*
X18399820Y-17480841D01*
X18399820Y-17480841D02*
X18399820Y-17442746D01*
X18399820Y-17442746D02*
X18409344Y-17395127D01*
X18409344Y-17395127D02*
X18418868Y-17366555D01*
X18418868Y-17366555D02*
X18428391Y-17347508D01*
X18428391Y-17347508D02*
X18447439Y-17318936D01*
X18447439Y-17318936D02*
X18456963Y-17309412D01*
X18618868Y-17404650D02*
X18618868Y-17537984D01*
X18571249Y-17328460D02*
X18523630Y-17471317D01*
X18523630Y-17471317D02*
X18647439Y-17471317D01*
X18876011Y-17537984D02*
X18876011Y-17337984D01*
X18961725Y-17537984D02*
X18961725Y-17433222D01*
X18961725Y-17433222D02*
X18952201Y-17414174D01*
X18952201Y-17414174D02*
X18933153Y-17404650D01*
X18933153Y-17404650D02*
X18904582Y-17404650D01*
X18904582Y-17404650D02*
X18885534Y-17414174D01*
X18885534Y-17414174D02*
X18876011Y-17423698D01*
X19085534Y-17537984D02*
X19066487Y-17528460D01*
X19066487Y-17528460D02*
X19056963Y-17518936D01*
X19056963Y-17518936D02*
X19047439Y-17499889D01*
X19047439Y-17499889D02*
X19047439Y-17442746D01*
X19047439Y-17442746D02*
X19056963Y-17423698D01*
X19056963Y-17423698D02*
X19066487Y-17414174D01*
X19066487Y-17414174D02*
X19085534Y-17404650D01*
X19085534Y-17404650D02*
X19114106Y-17404650D01*
X19114106Y-17404650D02*
X19133153Y-17414174D01*
X19133153Y-17414174D02*
X19142677Y-17423698D01*
X19142677Y-17423698D02*
X19152201Y-17442746D01*
X19152201Y-17442746D02*
X19152201Y-17499889D01*
X19152201Y-17499889D02*
X19142677Y-17518936D01*
X19142677Y-17518936D02*
X19133153Y-17528460D01*
X19133153Y-17528460D02*
X19114106Y-17537984D01*
X19114106Y-17537984D02*
X19085534Y-17537984D01*
X19266487Y-17537984D02*
X19247439Y-17528460D01*
X19247439Y-17528460D02*
X19237915Y-17509412D01*
X19237915Y-17509412D02*
X19237915Y-17337984D01*
X19418868Y-17528460D02*
X19399820Y-17537984D01*
X19399820Y-17537984D02*
X19361725Y-17537984D01*
X19361725Y-17537984D02*
X19342677Y-17528460D01*
X19342677Y-17528460D02*
X19333153Y-17509412D01*
X19333153Y-17509412D02*
X19333153Y-17433222D01*
X19333153Y-17433222D02*
X19342677Y-17414174D01*
X19342677Y-17414174D02*
X19361725Y-17404650D01*
X19361725Y-17404650D02*
X19399820Y-17404650D01*
X19399820Y-17404650D02*
X19418868Y-17414174D01*
X19418868Y-17414174D02*
X19428392Y-17433222D01*
X19428392Y-17433222D02*
X19428392Y-17452270D01*
X19428392Y-17452270D02*
X19333153Y-17471317D01*
X19504582Y-17528460D02*
X19523630Y-17537984D01*
X19523630Y-17537984D02*
X19561725Y-17537984D01*
X19561725Y-17537984D02*
X19580773Y-17528460D01*
X19580773Y-17528460D02*
X19590296Y-17509412D01*
X19590296Y-17509412D02*
X19590296Y-17499889D01*
X19590296Y-17499889D02*
X19580773Y-17480841D01*
X19580773Y-17480841D02*
X19561725Y-17471317D01*
X19561725Y-17471317D02*
X19533153Y-17471317D01*
X19533153Y-17471317D02*
X19514106Y-17461793D01*
X19514106Y-17461793D02*
X19504582Y-17442746D01*
X19504582Y-17442746D02*
X19504582Y-17433222D01*
X19504582Y-17433222D02*
X19514106Y-17414174D01*
X19514106Y-17414174D02*
X19533153Y-17404650D01*
X19533153Y-17404650D02*
X19561725Y-17404650D01*
X19561725Y-17404650D02*
X19580773Y-17414174D01*
X19656963Y-17614174D02*
X19666487Y-17604650D01*
X19666487Y-17604650D02*
X19685534Y-17576079D01*
X19685534Y-17576079D02*
X19695058Y-17557031D01*
X19695058Y-17557031D02*
X19704582Y-17528460D01*
X19704582Y-17528460D02*
X19714106Y-17480841D01*
X19714106Y-17480841D02*
X19714106Y-17442746D01*
X19714106Y-17442746D02*
X19704582Y-17395127D01*
X19704582Y-17395127D02*
X19695058Y-17366555D01*
X19695058Y-17366555D02*
X19685534Y-17347508D01*
X19685534Y-17347508D02*
X19666487Y-17318936D01*
X19666487Y-17318936D02*
X19656963Y-17309412D01*
M02*
