G04 #@! TF.GenerationSoftware,KiCad,Pcbnew,9.0.2+dfsg-1*
G04 #@! TF.CreationDate,2026-03-26T03:42:34-04:00*
G04 #@! TF.ProjectId,UWB_CarrierBoard,5557425f-4361-4727-9269-6572426f6172,rev?*
G04 #@! TF.SameCoordinates,Original*
G04 #@! TF.FileFunction,Copper,L2,Bot*
G04 #@! TF.FilePolarity,Positive*
%FSLAX46Y46*%
G04 Gerber Fmt 4.6, Leading zero omitted, Abs format (unit mm)*
G04 Created by KiCad (PCBNEW 9.0.2+dfsg-1) date 2026-03-26 03:42:34*
%MOMM*%
%LPD*%
G01*
G04 APERTURE LIST*
G04 Aperture macros list*
%AMRoundRect*
0 Rectangle with rounded corners*
0 $1 Rounding radius*
0 $2 $3 $4 $5 $6 $7 $8 $9 X,Y pos of 4 corners*
0 Add a 4 corners polygon primitive as box body*
4,1,4,$2,$3,$4,$5,$6,$7,$8,$9,$2,$3,0*
0 Add four circle primitives for the rounded corners*
1,1,$1+$1,$2,$3*
1,1,$1+$1,$4,$5*
1,1,$1+$1,$6,$7*
1,1,$1+$1,$8,$9*
0 Add four rect primitives between the rounded corners*
20,1,$1+$1,$2,$3,$4,$5,0*
20,1,$1+$1,$4,$5,$6,$7,0*
20,1,$1+$1,$6,$7,$8,$9,0*
20,1,$1+$1,$8,$9,$2,$3,0*%
G04 Aperture macros list end*
G04 #@! TA.AperFunction,ComponentPad*
%ADD10R,1.700000X1.700000*%
G04 #@! TD*
G04 #@! TA.AperFunction,ComponentPad*
%ADD11C,1.700000*%
G04 #@! TD*
G04 #@! TA.AperFunction,ComponentPad*
%ADD12C,5.000000*%
G04 #@! TD*
G04 #@! TA.AperFunction,SMDPad,CuDef*
%ADD13RoundRect,0.140000X-0.170000X0.140000X-0.170000X-0.140000X0.170000X-0.140000X0.170000X0.140000X0*%
G04 #@! TD*
G04 #@! TA.AperFunction,ViaPad*
%ADD14C,0.600000*%
G04 #@! TD*
G04 #@! TA.AperFunction,Conductor*
%ADD15C,0.300000*%
G04 #@! TD*
G04 APERTURE END LIST*
D10*
X159900000Y-51200000D03*
D11*
X159900000Y-53740000D03*
X159900000Y-56280000D03*
X159900000Y-58820000D03*
X159900000Y-61360000D03*
X159900000Y-63900000D03*
X159900000Y-66440000D03*
X159900000Y-68980000D03*
X159900000Y-71520000D03*
D12*
X155950000Y-76700000D03*
X191750000Y-76700000D03*
X191750000Y-47200000D03*
D10*
X187900000Y-51200000D03*
D11*
X187900000Y-53740000D03*
X187900000Y-56280000D03*
X187900000Y-58820000D03*
X187900000Y-61360000D03*
X187900000Y-63900000D03*
X187900000Y-66440000D03*
X187900000Y-68980000D03*
X187900000Y-71520000D03*
D12*
X155950000Y-47200000D03*
D13*
X168250000Y-52440000D03*
X168250000Y-53400000D03*
D14*
X177350000Y-49950000D03*
X177350000Y-45750000D03*
X180400000Y-59100000D03*
X170100000Y-55550000D03*
X177350000Y-47200000D03*
X165700000Y-52050000D03*
X165700000Y-54600000D03*
X169100000Y-68000000D03*
X161700000Y-57300000D03*
X168300000Y-67600000D03*
X165700000Y-53350000D03*
X168200000Y-68450000D03*
D15*
X165700000Y-52050000D02*
X165700000Y-57300000D01*
X161700000Y-57300000D02*
X165700000Y-57300000D01*
X165700000Y-65000000D02*
X168300000Y-67600000D01*
X165700000Y-57300000D02*
X165700000Y-65000000D01*
G04 #@! TA.AperFunction,Conductor*
G36*
X192753736Y-43700726D02*
G01*
X193043796Y-43718271D01*
X193058659Y-43720076D01*
X193340798Y-43771780D01*
X193355335Y-43775363D01*
X193629172Y-43860695D01*
X193643163Y-43866000D01*
X193904743Y-43983727D01*
X193917989Y-43990680D01*
X194163465Y-44139075D01*
X194175776Y-44147573D01*
X194290219Y-44237233D01*
X194401573Y-44324473D01*
X194412781Y-44334403D01*
X194615596Y-44537218D01*
X194625526Y-44548426D01*
X194683811Y-44622821D01*
X194745481Y-44701538D01*
X194802422Y-44774217D01*
X194810928Y-44786540D01*
X194959316Y-45032004D01*
X194966275Y-45045263D01*
X195083997Y-45306831D01*
X195089306Y-45320832D01*
X195174635Y-45594663D01*
X195178219Y-45609201D01*
X195229923Y-45891340D01*
X195231728Y-45906205D01*
X195249274Y-46196263D01*
X195249500Y-46203750D01*
X195249500Y-77696249D01*
X195249274Y-77703736D01*
X195231728Y-77993794D01*
X195229923Y-78008659D01*
X195178219Y-78290798D01*
X195174635Y-78305336D01*
X195089306Y-78579167D01*
X195083997Y-78593168D01*
X194966275Y-78854736D01*
X194959316Y-78867995D01*
X194810928Y-79113459D01*
X194802422Y-79125782D01*
X194625526Y-79351573D01*
X194615596Y-79362781D01*
X194412781Y-79565596D01*
X194401573Y-79575526D01*
X194175782Y-79752422D01*
X194163459Y-79760928D01*
X193917995Y-79909316D01*
X193904736Y-79916275D01*
X193643168Y-80033997D01*
X193629167Y-80039306D01*
X193355336Y-80124635D01*
X193340798Y-80128219D01*
X193058659Y-80179923D01*
X193043794Y-80181728D01*
X192753736Y-80199274D01*
X192746249Y-80199500D01*
X154953751Y-80199500D01*
X154946264Y-80199274D01*
X154656205Y-80181728D01*
X154641340Y-80179923D01*
X154359201Y-80128219D01*
X154344663Y-80124635D01*
X154070832Y-80039306D01*
X154056831Y-80033997D01*
X153795263Y-79916275D01*
X153782004Y-79909316D01*
X153536540Y-79760928D01*
X153524217Y-79752422D01*
X153457943Y-79700500D01*
X153298426Y-79575526D01*
X153287218Y-79565596D01*
X153084403Y-79362781D01*
X153074473Y-79351573D01*
X153057764Y-79330246D01*
X152897573Y-79125776D01*
X152889075Y-79113465D01*
X152740680Y-78867989D01*
X152733727Y-78854743D01*
X152616000Y-78593163D01*
X152610693Y-78579167D01*
X152567027Y-78439039D01*
X152525363Y-78305335D01*
X152521780Y-78290798D01*
X152470076Y-78008659D01*
X152468271Y-77993794D01*
X152459576Y-77850054D01*
X152450726Y-77703736D01*
X152450500Y-77696249D01*
X152450500Y-76531491D01*
X152949500Y-76531491D01*
X152949500Y-76868508D01*
X152987231Y-77203381D01*
X152987233Y-77203397D01*
X153062223Y-77531953D01*
X153062227Y-77531965D01*
X153173532Y-77850054D01*
X153319752Y-78153683D01*
X153319754Y-78153686D01*
X153499054Y-78439039D01*
X153709175Y-78702523D01*
X153947477Y-78940825D01*
X154210961Y-79150946D01*
X154496314Y-79330246D01*
X154799949Y-79476469D01*
X155038848Y-79560063D01*
X155118034Y-79587772D01*
X155118046Y-79587776D01*
X155446606Y-79662767D01*
X155781492Y-79700499D01*
X155781493Y-79700500D01*
X155781496Y-79700500D01*
X156118507Y-79700500D01*
X156118507Y-79700499D01*
X156453394Y-79662767D01*
X156781954Y-79587776D01*
X157100051Y-79476469D01*
X157403686Y-79330246D01*
X157689039Y-79150946D01*
X157952523Y-78940825D01*
X158190825Y-78702523D01*
X158400946Y-78439039D01*
X158580246Y-78153686D01*
X158726469Y-77850051D01*
X158837776Y-77531954D01*
X158912767Y-77203394D01*
X158950500Y-76868504D01*
X158950500Y-76531496D01*
X158950499Y-76531491D01*
X188749500Y-76531491D01*
X188749500Y-76868508D01*
X188787231Y-77203381D01*
X188787233Y-77203397D01*
X188862223Y-77531953D01*
X188862227Y-77531965D01*
X188973532Y-77850054D01*
X189119752Y-78153683D01*
X189119754Y-78153686D01*
X189299054Y-78439039D01*
X189509175Y-78702523D01*
X189747477Y-78940825D01*
X190010961Y-79150946D01*
X190296314Y-79330246D01*
X190599949Y-79476469D01*
X190838848Y-79560063D01*
X190918034Y-79587772D01*
X190918046Y-79587776D01*
X191246606Y-79662767D01*
X191581492Y-79700499D01*
X191581493Y-79700500D01*
X191581496Y-79700500D01*
X191918507Y-79700500D01*
X191918507Y-79700499D01*
X192253394Y-79662767D01*
X192581954Y-79587776D01*
X192900051Y-79476469D01*
X193203686Y-79330246D01*
X193489039Y-79150946D01*
X193752523Y-78940825D01*
X193990825Y-78702523D01*
X194200946Y-78439039D01*
X194380246Y-78153686D01*
X194526469Y-77850051D01*
X194637776Y-77531954D01*
X194712767Y-77203394D01*
X194750500Y-76868504D01*
X194750500Y-76531496D01*
X194712767Y-76196606D01*
X194637776Y-75868046D01*
X194526469Y-75549949D01*
X194380246Y-75246314D01*
X194200946Y-74960961D01*
X193990825Y-74697477D01*
X193752523Y-74459175D01*
X193489039Y-74249054D01*
X193203686Y-74069754D01*
X193203683Y-74069752D01*
X192900054Y-73923532D01*
X192581965Y-73812227D01*
X192581953Y-73812223D01*
X192253397Y-73737233D01*
X192253381Y-73737231D01*
X191918508Y-73699500D01*
X191918504Y-73699500D01*
X191581496Y-73699500D01*
X191581491Y-73699500D01*
X191246618Y-73737231D01*
X191246602Y-73737233D01*
X190918046Y-73812223D01*
X190918034Y-73812227D01*
X190599945Y-73923532D01*
X190296316Y-74069752D01*
X190010962Y-74249053D01*
X189747477Y-74459174D01*
X189509174Y-74697477D01*
X189299053Y-74960962D01*
X189119752Y-75246316D01*
X188973532Y-75549945D01*
X188862227Y-75868034D01*
X188862223Y-75868046D01*
X188787233Y-76196602D01*
X188787231Y-76196618D01*
X188749500Y-76531491D01*
X158950499Y-76531491D01*
X158912767Y-76196606D01*
X158837776Y-75868046D01*
X158726469Y-75549949D01*
X158580246Y-75246314D01*
X158400946Y-74960961D01*
X158190825Y-74697477D01*
X157952523Y-74459175D01*
X157689039Y-74249054D01*
X157403686Y-74069754D01*
X157403683Y-74069752D01*
X157100054Y-73923532D01*
X156781965Y-73812227D01*
X156781953Y-73812223D01*
X156453397Y-73737233D01*
X156453381Y-73737231D01*
X156118508Y-73699500D01*
X156118504Y-73699500D01*
X155781496Y-73699500D01*
X155781491Y-73699500D01*
X155446618Y-73737231D01*
X155446602Y-73737233D01*
X155118046Y-73812223D01*
X155118034Y-73812227D01*
X154799945Y-73923532D01*
X154496316Y-74069752D01*
X154210962Y-74249053D01*
X153947477Y-74459174D01*
X153709174Y-74697477D01*
X153499053Y-74960962D01*
X153319752Y-75246316D01*
X153173532Y-75549945D01*
X153062227Y-75868034D01*
X153062223Y-75868046D01*
X152987233Y-76196602D01*
X152987231Y-76196618D01*
X152949500Y-76531491D01*
X152450500Y-76531491D01*
X152450500Y-50302135D01*
X158549500Y-50302135D01*
X158549500Y-52097870D01*
X158549501Y-52097876D01*
X158555908Y-52157483D01*
X158606202Y-52292328D01*
X158606206Y-52292335D01*
X158692452Y-52407544D01*
X158692455Y-52407547D01*
X158807664Y-52493793D01*
X158807671Y-52493797D01*
X158939082Y-52542810D01*
X158995016Y-52584681D01*
X159019433Y-52650145D01*
X159004582Y-52718418D01*
X158983431Y-52746673D01*
X158869889Y-52860215D01*
X158744951Y-53032179D01*
X158648444Y-53221585D01*
X158582753Y-53423760D01*
X158549500Y-53633713D01*
X158549500Y-53846286D01*
X158582753Y-54056239D01*
X158648444Y-54258414D01*
X158744951Y-54447820D01*
X158869890Y-54619786D01*
X159020213Y-54770109D01*
X159192182Y-54895050D01*
X159200946Y-54899516D01*
X159251742Y-54947491D01*
X159268536Y-55015312D01*
X159245998Y-55081447D01*
X159200946Y-55120484D01*
X159192182Y-55124949D01*
X159020213Y-55249890D01*
X158869890Y-55400213D01*
X158744951Y-55572179D01*
X158648444Y-55761585D01*
X158582753Y-55963760D01*
X158549500Y-56173713D01*
X158549500Y-56386286D01*
X158581860Y-56590602D01*
X158582754Y-56596243D01*
X158600058Y-56649500D01*
X158648444Y-56798414D01*
X158744951Y-56987820D01*
X158869890Y-57159786D01*
X159020213Y-57310109D01*
X159192182Y-57435050D01*
X159200946Y-57439516D01*
X159251742Y-57487491D01*
X159268536Y-57555312D01*
X159245998Y-57621447D01*
X159200946Y-57660484D01*
X159192182Y-57664949D01*
X159020213Y-57789890D01*
X158869890Y-57940213D01*
X158744951Y-58112179D01*
X158648444Y-58301585D01*
X158582753Y-58503760D01*
X158549500Y-58713713D01*
X158549500Y-58926286D01*
X158582753Y-59136239D01*
X158648444Y-59338414D01*
X158744951Y-59527820D01*
X158869890Y-59699786D01*
X159020213Y-59850109D01*
X159192182Y-59975050D01*
X159200946Y-59979516D01*
X159251742Y-60027491D01*
X159268536Y-60095312D01*
X159245998Y-60161447D01*
X159200946Y-60200484D01*
X159192182Y-60204949D01*
X159020213Y-60329890D01*
X158869890Y-60480213D01*
X158744951Y-60652179D01*
X158648444Y-60841585D01*
X158582753Y-61043760D01*
X158549500Y-61253713D01*
X158549500Y-61466286D01*
X158582753Y-61676239D01*
X158648444Y-61878414D01*
X158744951Y-62067820D01*
X158869890Y-62239786D01*
X159020213Y-62390109D01*
X159192182Y-62515050D01*
X159200946Y-62519516D01*
X159251742Y-62567491D01*
X159268536Y-62635312D01*
X159245998Y-62701447D01*
X159200946Y-62740484D01*
X159192182Y-62744949D01*
X159020213Y-62869890D01*
X158869890Y-63020213D01*
X158744951Y-63192179D01*
X158648444Y-63381585D01*
X158582753Y-63583760D01*
X158549500Y-63793713D01*
X158549500Y-64006286D01*
X158582753Y-64216239D01*
X158648444Y-64418414D01*
X158744951Y-64607820D01*
X158869890Y-64779786D01*
X159020213Y-64930109D01*
X159192182Y-65055050D01*
X159200946Y-65059516D01*
X159251742Y-65107491D01*
X159268536Y-65175312D01*
X159245998Y-65241447D01*
X159200946Y-65280484D01*
X159192182Y-65284949D01*
X159020213Y-65409890D01*
X158869890Y-65560213D01*
X158744951Y-65732179D01*
X158648444Y-65921585D01*
X158582753Y-66123760D01*
X158549500Y-66333713D01*
X158549500Y-66546287D01*
X158582754Y-66756243D01*
X158594197Y-66791462D01*
X158648444Y-66958414D01*
X158744951Y-67147820D01*
X158869890Y-67319786D01*
X159020213Y-67470109D01*
X159192182Y-67595050D01*
X159200946Y-67599516D01*
X159251742Y-67647491D01*
X159268536Y-67715312D01*
X159245998Y-67781447D01*
X159200946Y-67820484D01*
X159192182Y-67824949D01*
X159020213Y-67949890D01*
X158869890Y-68100213D01*
X158744951Y-68272179D01*
X158648444Y-68461585D01*
X158582753Y-68663760D01*
X158549500Y-68873713D01*
X158549500Y-69086287D01*
X158582754Y-69296243D01*
X158643585Y-69483462D01*
X158648444Y-69498414D01*
X158744951Y-69687820D01*
X158869890Y-69859786D01*
X159020213Y-70010109D01*
X159192182Y-70135050D01*
X159200946Y-70139516D01*
X159251742Y-70187491D01*
X159268536Y-70255312D01*
X159245998Y-70321447D01*
X159200946Y-70360484D01*
X159192182Y-70364949D01*
X159020213Y-70489890D01*
X158869890Y-70640213D01*
X158744951Y-70812179D01*
X158648444Y-71001585D01*
X158582753Y-71203760D01*
X158549500Y-71413713D01*
X158549500Y-71626286D01*
X158582753Y-71836239D01*
X158648444Y-72038414D01*
X158744951Y-72227820D01*
X158869890Y-72399786D01*
X159020213Y-72550109D01*
X159192179Y-72675048D01*
X159192181Y-72675049D01*
X159192184Y-72675051D01*
X159381588Y-72771557D01*
X159583757Y-72837246D01*
X159793713Y-72870500D01*
X159793714Y-72870500D01*
X160006286Y-72870500D01*
X160006287Y-72870500D01*
X160216243Y-72837246D01*
X160418412Y-72771557D01*
X160607816Y-72675051D01*
X160662572Y-72635269D01*
X160779786Y-72550109D01*
X160779788Y-72550106D01*
X160779792Y-72550104D01*
X160930104Y-72399792D01*
X160930106Y-72399788D01*
X160930109Y-72399786D01*
X161055048Y-72227820D01*
X161055047Y-72227820D01*
X161055051Y-72227816D01*
X161151557Y-72038412D01*
X161217246Y-71836243D01*
X161250500Y-71626287D01*
X161250500Y-71413713D01*
X161217246Y-71203757D01*
X161151557Y-71001588D01*
X161055051Y-70812184D01*
X161055049Y-70812181D01*
X161055048Y-70812179D01*
X160930109Y-70640213D01*
X160779786Y-70489890D01*
X160607820Y-70364951D01*
X160599600Y-70360763D01*
X160599054Y-70360485D01*
X160548259Y-70312512D01*
X160531463Y-70244692D01*
X160553999Y-70178556D01*
X160599054Y-70139515D01*
X160607816Y-70135051D01*
X160629789Y-70119086D01*
X160779786Y-70010109D01*
X160779788Y-70010106D01*
X160779792Y-70010104D01*
X160930104Y-69859792D01*
X160930106Y-69859788D01*
X160930109Y-69859786D01*
X161055048Y-69687820D01*
X161055047Y-69687820D01*
X161055051Y-69687816D01*
X161151557Y-69498412D01*
X161217246Y-69296243D01*
X161250500Y-69086287D01*
X161250500Y-68873713D01*
X161217246Y-68663757D01*
X161151557Y-68461588D01*
X161055051Y-68272184D01*
X161055049Y-68272181D01*
X161055048Y-68272179D01*
X160930109Y-68100213D01*
X160779786Y-67949890D01*
X160607820Y-67824951D01*
X160607115Y-67824591D01*
X160599054Y-67820485D01*
X160548259Y-67772512D01*
X160531463Y-67704692D01*
X160553999Y-67638556D01*
X160599054Y-67599515D01*
X160607816Y-67595051D01*
X160629789Y-67579086D01*
X160779786Y-67470109D01*
X160779788Y-67470106D01*
X160779792Y-67470104D01*
X160930104Y-67319792D01*
X160930106Y-67319788D01*
X160930109Y-67319786D01*
X161055048Y-67147820D01*
X161055047Y-67147820D01*
X161055051Y-67147816D01*
X161151557Y-66958412D01*
X161217246Y-66756243D01*
X161250500Y-66546287D01*
X161250500Y-66333713D01*
X161217246Y-66123757D01*
X161151557Y-65921588D01*
X161055051Y-65732184D01*
X161055049Y-65732181D01*
X161055048Y-65732179D01*
X160930109Y-65560213D01*
X160779786Y-65409890D01*
X160607820Y-65284951D01*
X160607115Y-65284591D01*
X160599054Y-65280485D01*
X160548259Y-65232512D01*
X160531463Y-65164692D01*
X160553999Y-65098556D01*
X160599054Y-65059515D01*
X160607816Y-65055051D01*
X160629789Y-65039086D01*
X160779786Y-64930109D01*
X160779788Y-64930106D01*
X160779792Y-64930104D01*
X160930104Y-64779792D01*
X160930106Y-64779788D01*
X160930109Y-64779786D01*
X161055048Y-64607820D01*
X161055047Y-64607820D01*
X161055051Y-64607816D01*
X161151557Y-64418412D01*
X161217246Y-64216243D01*
X161250500Y-64006287D01*
X161250500Y-63793713D01*
X161217246Y-63583757D01*
X161151557Y-63381588D01*
X161055051Y-63192184D01*
X161055049Y-63192181D01*
X161055048Y-63192179D01*
X160930109Y-63020213D01*
X160779786Y-62869890D01*
X160607820Y-62744951D01*
X160607115Y-62744591D01*
X160599054Y-62740485D01*
X160548259Y-62692512D01*
X160531463Y-62624692D01*
X160553999Y-62558556D01*
X160599054Y-62519515D01*
X160607816Y-62515051D01*
X160629789Y-62499086D01*
X160779786Y-62390109D01*
X160779788Y-62390106D01*
X160779792Y-62390104D01*
X160930104Y-62239792D01*
X160930106Y-62239788D01*
X160930109Y-62239786D01*
X161055048Y-62067820D01*
X161055047Y-62067820D01*
X161055051Y-62067816D01*
X161151557Y-61878412D01*
X161217246Y-61676243D01*
X161250500Y-61466287D01*
X161250500Y-61253713D01*
X161217246Y-61043757D01*
X161151557Y-60841588D01*
X161055051Y-60652184D01*
X161055049Y-60652181D01*
X161055048Y-60652179D01*
X160930109Y-60480213D01*
X160779786Y-60329890D01*
X160607820Y-60204951D01*
X160607115Y-60204591D01*
X160599054Y-60200485D01*
X160548259Y-60152512D01*
X160531463Y-60084692D01*
X160553999Y-60018556D01*
X160599054Y-59979515D01*
X160607816Y-59975051D01*
X160629789Y-59959086D01*
X160779786Y-59850109D01*
X160779788Y-59850106D01*
X160779792Y-59850104D01*
X160930104Y-59699792D01*
X160930106Y-59699788D01*
X160930109Y-59699786D01*
X161055048Y-59527820D01*
X161055047Y-59527820D01*
X161055051Y-59527816D01*
X161151557Y-59338412D01*
X161217246Y-59136243D01*
X161250500Y-58926287D01*
X161250500Y-58713713D01*
X161217246Y-58503757D01*
X161151557Y-58301588D01*
X161055051Y-58112184D01*
X161054186Y-58110486D01*
X161041290Y-58041817D01*
X161067566Y-57977076D01*
X161124673Y-57936819D01*
X161194478Y-57933827D01*
X161233558Y-57951087D01*
X161320821Y-58009394D01*
X161320823Y-58009395D01*
X161320827Y-58009397D01*
X161466498Y-58069735D01*
X161466503Y-58069737D01*
X161621153Y-58100499D01*
X161621156Y-58100500D01*
X161621158Y-58100500D01*
X161778844Y-58100500D01*
X161778845Y-58100499D01*
X161933497Y-58069737D01*
X162079179Y-58009394D01*
X162136044Y-57971397D01*
X162202721Y-57950520D01*
X162204935Y-57950500D01*
X164925500Y-57950500D01*
X164992539Y-57970185D01*
X165038294Y-58022989D01*
X165049500Y-58074500D01*
X165049500Y-65064070D01*
X165066903Y-65151556D01*
X165066903Y-65151558D01*
X165074497Y-65189736D01*
X165074499Y-65189744D01*
X165123534Y-65308125D01*
X165194726Y-65414673D01*
X165194727Y-65414674D01*
X167158181Y-67378127D01*
X167191666Y-67439450D01*
X167194500Y-67465808D01*
X167194500Y-69376000D01*
X167194501Y-69376009D01*
X167206052Y-69483450D01*
X167206054Y-69483462D01*
X167217260Y-69534972D01*
X167251383Y-69637497D01*
X167251386Y-69637503D01*
X167329171Y-69758537D01*
X167329179Y-69758548D01*
X167374923Y-69811340D01*
X167374926Y-69811343D01*
X167374930Y-69811347D01*
X167483664Y-69905567D01*
X167483667Y-69905568D01*
X167483668Y-69905569D01*
X167577925Y-69948616D01*
X167614541Y-69965338D01*
X167681580Y-69985023D01*
X167681584Y-69985024D01*
X167824000Y-70005500D01*
X167824003Y-70005500D01*
X169375990Y-70005500D01*
X169376000Y-70005500D01*
X169483456Y-69993947D01*
X169534967Y-69982741D01*
X169569197Y-69971347D01*
X169637497Y-69948616D01*
X169637501Y-69948613D01*
X169637504Y-69948613D01*
X169758543Y-69870825D01*
X169811347Y-69825070D01*
X169905567Y-69716336D01*
X169965338Y-69585459D01*
X169985023Y-69518420D01*
X169985024Y-69518416D01*
X170005500Y-69376000D01*
X170005500Y-67174000D01*
X169993947Y-67066544D01*
X169982741Y-67015033D01*
X169982637Y-67014722D01*
X169948616Y-66912502D01*
X169948613Y-66912496D01*
X169870828Y-66791462D01*
X169870825Y-66791457D01*
X169840312Y-66756243D01*
X169825076Y-66738659D01*
X169825072Y-66738656D01*
X169825070Y-66738653D01*
X169716336Y-66644433D01*
X169716333Y-66644431D01*
X169716331Y-66644430D01*
X169585465Y-66584664D01*
X169585460Y-66584662D01*
X169585459Y-66584662D01*
X169518420Y-66564977D01*
X169518422Y-66564977D01*
X169518417Y-66564976D01*
X169470944Y-66558150D01*
X169376000Y-66544500D01*
X169375998Y-66544500D01*
X168215808Y-66544500D01*
X168148769Y-66524815D01*
X168128127Y-66508181D01*
X166386819Y-64766873D01*
X166353334Y-64705550D01*
X166350500Y-64679192D01*
X166350500Y-56119623D01*
X166370185Y-56052584D01*
X166422989Y-56006829D01*
X166461239Y-55996335D01*
X166483456Y-55993947D01*
X166534967Y-55982741D01*
X166582609Y-55966884D01*
X166637497Y-55948616D01*
X166637501Y-55948613D01*
X166637504Y-55948613D01*
X166758543Y-55870825D01*
X166811347Y-55825070D01*
X166905567Y-55716336D01*
X166965338Y-55585459D01*
X166985023Y-55518420D01*
X166985024Y-55518416D01*
X167005500Y-55376000D01*
X167005500Y-53972718D01*
X167025185Y-53905679D01*
X167044691Y-53882256D01*
X167083059Y-53846286D01*
X167265247Y-53675484D01*
X167327615Y-53643995D01*
X167397109Y-53651224D01*
X167451664Y-53694876D01*
X167469129Y-53731353D01*
X167487966Y-53796189D01*
X167487968Y-53796195D01*
X167570278Y-53935374D01*
X167570285Y-53935383D01*
X167684616Y-54049714D01*
X167684625Y-54049721D01*
X167823804Y-54132031D01*
X167979089Y-54177145D01*
X168000000Y-54178789D01*
X168500000Y-54178789D01*
X168520910Y-54177145D01*
X168676195Y-54132031D01*
X168815374Y-54049721D01*
X168815383Y-54049714D01*
X168929714Y-53935383D01*
X168929721Y-53935374D01*
X169012031Y-53796195D01*
X169054504Y-53650000D01*
X168500000Y-53650000D01*
X168500000Y-54178789D01*
X168000000Y-54178789D01*
X168000000Y-53524000D01*
X168019685Y-53456961D01*
X168072489Y-53411206D01*
X168124000Y-53400000D01*
X168250000Y-53400000D01*
X168250000Y-53344500D01*
X168269685Y-53277461D01*
X168322489Y-53231706D01*
X168374000Y-53220500D01*
X168484682Y-53220500D01*
X168484690Y-53220500D01*
X168520993Y-53217643D01*
X168644103Y-53181874D01*
X168665222Y-53177686D01*
X168671945Y-53176951D01*
X168780297Y-53176951D01*
X168849455Y-53167007D01*
X168900805Y-53151929D01*
X168911727Y-53150735D01*
X168915458Y-53151401D01*
X168925204Y-53150000D01*
X169054505Y-53150000D01*
X169064054Y-53137279D01*
X169064125Y-53112566D01*
X169102066Y-53053895D01*
X169108424Y-53048787D01*
X169161340Y-53002935D01*
X169161339Y-53002935D01*
X169161347Y-53002929D01*
X169255567Y-52894195D01*
X169315338Y-52763318D01*
X169335023Y-52696279D01*
X169335024Y-52696275D01*
X169355500Y-52553859D01*
X169355500Y-51624000D01*
X169343947Y-51516544D01*
X169332741Y-51465033D01*
X169332637Y-51464722D01*
X169298616Y-51362502D01*
X169298613Y-51362496D01*
X169220828Y-51241462D01*
X169220825Y-51241457D01*
X169220820Y-51241451D01*
X169175076Y-51188659D01*
X169175072Y-51188656D01*
X169175070Y-51188653D01*
X169066336Y-51094433D01*
X169066333Y-51094431D01*
X169066331Y-51094430D01*
X168935465Y-51034664D01*
X168935460Y-51034662D01*
X168935459Y-51034662D01*
X168868420Y-51014977D01*
X168868422Y-51014977D01*
X168868417Y-51014976D01*
X168806347Y-51006052D01*
X168726000Y-50994500D01*
X165174000Y-50994500D01*
X165173991Y-50994500D01*
X165173990Y-50994501D01*
X165066549Y-51006052D01*
X165066537Y-51006054D01*
X165015027Y-51017260D01*
X164912502Y-51051383D01*
X164912496Y-51051386D01*
X164791462Y-51129171D01*
X164791451Y-51129179D01*
X164738659Y-51174923D01*
X164644433Y-51283664D01*
X164644430Y-51283668D01*
X164584664Y-51414534D01*
X164564976Y-51481582D01*
X164559949Y-51516549D01*
X164544500Y-51624000D01*
X164544500Y-55376000D01*
X164544501Y-55376009D01*
X164556052Y-55483450D01*
X164556054Y-55483462D01*
X164567260Y-55534972D01*
X164601383Y-55637497D01*
X164601386Y-55637503D01*
X164679171Y-55758537D01*
X164679179Y-55758548D01*
X164724923Y-55811340D01*
X164724926Y-55811343D01*
X164724930Y-55811347D01*
X164833664Y-55905567D01*
X164833667Y-55905568D01*
X164833668Y-55905569D01*
X164964542Y-55965339D01*
X164968685Y-55966884D01*
X164967901Y-55968985D01*
X165019066Y-56001737D01*
X165048206Y-56065240D01*
X165049500Y-56083109D01*
X165049500Y-56525500D01*
X165029815Y-56592539D01*
X164977011Y-56638294D01*
X164925500Y-56649500D01*
X162204935Y-56649500D01*
X162137896Y-56629815D01*
X162136090Y-56628633D01*
X162079179Y-56590606D01*
X162079172Y-56590602D01*
X161933501Y-56530264D01*
X161933489Y-56530261D01*
X161778845Y-56499500D01*
X161778842Y-56499500D01*
X161621158Y-56499500D01*
X161621155Y-56499500D01*
X161466510Y-56530261D01*
X161466507Y-56530262D01*
X161466506Y-56530262D01*
X161466503Y-56530263D01*
X161415490Y-56551393D01*
X161346021Y-56558861D01*
X161283542Y-56527585D01*
X161247890Y-56467496D01*
X161245566Y-56417436D01*
X161250500Y-56386287D01*
X161250500Y-56173713D01*
X161217246Y-55963757D01*
X161151557Y-55761588D01*
X161055051Y-55572184D01*
X161055049Y-55572181D01*
X161055048Y-55572179D01*
X160930109Y-55400213D01*
X160779786Y-55249890D01*
X160607820Y-55124951D01*
X160607115Y-55124591D01*
X160599054Y-55120485D01*
X160548259Y-55072512D01*
X160531463Y-55004692D01*
X160553999Y-54938556D01*
X160599054Y-54899515D01*
X160607816Y-54895051D01*
X160629789Y-54879086D01*
X160779786Y-54770109D01*
X160779788Y-54770106D01*
X160779792Y-54770104D01*
X160930104Y-54619792D01*
X160930106Y-54619788D01*
X160930109Y-54619786D01*
X161055048Y-54447820D01*
X161055047Y-54447820D01*
X161055051Y-54447816D01*
X161151557Y-54258412D01*
X161217246Y-54056243D01*
X161250500Y-53846287D01*
X161250500Y-53633713D01*
X161217246Y-53423757D01*
X161151557Y-53221588D01*
X161055051Y-53032184D01*
X161055049Y-53032181D01*
X161055048Y-53032179D01*
X160930109Y-52860213D01*
X160816569Y-52746673D01*
X160783084Y-52685350D01*
X160788068Y-52615658D01*
X160829940Y-52559725D01*
X160860915Y-52542810D01*
X160992331Y-52493796D01*
X161107546Y-52407546D01*
X161193796Y-52292331D01*
X161244091Y-52157483D01*
X161250500Y-52097873D01*
X161250499Y-50302135D01*
X186549500Y-50302135D01*
X186549500Y-52097870D01*
X186549501Y-52097876D01*
X186555908Y-52157483D01*
X186606202Y-52292328D01*
X186606206Y-52292335D01*
X186692452Y-52407544D01*
X186692455Y-52407547D01*
X186807664Y-52493793D01*
X186807671Y-52493797D01*
X186939082Y-52542810D01*
X186995016Y-52584681D01*
X187019433Y-52650145D01*
X187004582Y-52718418D01*
X186983431Y-52746673D01*
X186869889Y-52860215D01*
X186744951Y-53032179D01*
X186648444Y-53221585D01*
X186582753Y-53423760D01*
X186549500Y-53633713D01*
X186549500Y-53846286D01*
X186582753Y-54056239D01*
X186648444Y-54258414D01*
X186744951Y-54447820D01*
X186869890Y-54619786D01*
X187020213Y-54770109D01*
X187192182Y-54895050D01*
X187200946Y-54899516D01*
X187251742Y-54947491D01*
X187268536Y-55015312D01*
X187245998Y-55081447D01*
X187200946Y-55120484D01*
X187192182Y-55124949D01*
X187020213Y-55249890D01*
X186869890Y-55400213D01*
X186744951Y-55572179D01*
X186648444Y-55761585D01*
X186582753Y-55963760D01*
X186549500Y-56173713D01*
X186549500Y-56386286D01*
X186581860Y-56590602D01*
X186582754Y-56596243D01*
X186600058Y-56649500D01*
X186648444Y-56798414D01*
X186744951Y-56987820D01*
X186869890Y-57159786D01*
X187020213Y-57310109D01*
X187192182Y-57435050D01*
X187200946Y-57439516D01*
X187251742Y-57487491D01*
X187268536Y-57555312D01*
X187245998Y-57621447D01*
X187200946Y-57660484D01*
X187192182Y-57664949D01*
X187020213Y-57789890D01*
X186869890Y-57940213D01*
X186744951Y-58112179D01*
X186648444Y-58301585D01*
X186582753Y-58503760D01*
X186549500Y-58713713D01*
X186549500Y-58926286D01*
X186582753Y-59136239D01*
X186648444Y-59338414D01*
X186744951Y-59527820D01*
X186869890Y-59699786D01*
X187020213Y-59850109D01*
X187192182Y-59975050D01*
X187200946Y-59979516D01*
X187251742Y-60027491D01*
X187268536Y-60095312D01*
X187245998Y-60161447D01*
X187200946Y-60200484D01*
X187192182Y-60204949D01*
X187020213Y-60329890D01*
X186869890Y-60480213D01*
X186744951Y-60652179D01*
X186648444Y-60841585D01*
X186582753Y-61043760D01*
X186549500Y-61253713D01*
X186549500Y-61466286D01*
X186582753Y-61676239D01*
X186648444Y-61878414D01*
X186744951Y-62067820D01*
X186869890Y-62239786D01*
X187020213Y-62390109D01*
X187192182Y-62515050D01*
X187200946Y-62519516D01*
X187251742Y-62567491D01*
X187268536Y-62635312D01*
X187245998Y-62701447D01*
X187200946Y-62740484D01*
X187192182Y-62744949D01*
X187020213Y-62869890D01*
X186869890Y-63020213D01*
X186744951Y-63192179D01*
X186648444Y-63381585D01*
X186582753Y-63583760D01*
X186549500Y-63793713D01*
X186549500Y-64006286D01*
X186582753Y-64216239D01*
X186648444Y-64418414D01*
X186744951Y-64607820D01*
X186869890Y-64779786D01*
X187020213Y-64930109D01*
X187192182Y-65055050D01*
X187200946Y-65059516D01*
X187251742Y-65107491D01*
X187268536Y-65175312D01*
X187245998Y-65241447D01*
X187200946Y-65280484D01*
X187192182Y-65284949D01*
X187020213Y-65409890D01*
X186869890Y-65560213D01*
X186744951Y-65732179D01*
X186648444Y-65921585D01*
X186582753Y-66123760D01*
X186549500Y-66333713D01*
X186549500Y-66546287D01*
X186582754Y-66756243D01*
X186594197Y-66791462D01*
X186648444Y-66958414D01*
X186744951Y-67147820D01*
X186869890Y-67319786D01*
X187020213Y-67470109D01*
X187192182Y-67595050D01*
X187200946Y-67599516D01*
X187251742Y-67647491D01*
X187268536Y-67715312D01*
X187245998Y-67781447D01*
X187200946Y-67820484D01*
X187192182Y-67824949D01*
X187020213Y-67949890D01*
X186869890Y-68100213D01*
X186744951Y-68272179D01*
X186648444Y-68461585D01*
X186582753Y-68663760D01*
X186549500Y-68873713D01*
X186549500Y-69086287D01*
X186582754Y-69296243D01*
X186643585Y-69483462D01*
X186648444Y-69498414D01*
X186744951Y-69687820D01*
X186869890Y-69859786D01*
X187020213Y-70010109D01*
X187192179Y-70135048D01*
X187192181Y-70135049D01*
X187192184Y-70135051D01*
X187201493Y-70139794D01*
X187252290Y-70187766D01*
X187269087Y-70255587D01*
X187246552Y-70321722D01*
X187201505Y-70360760D01*
X187192446Y-70365376D01*
X187192440Y-70365380D01*
X187138282Y-70404727D01*
X187138282Y-70404728D01*
X187770591Y-71037037D01*
X187707007Y-71054075D01*
X187592993Y-71119901D01*
X187499901Y-71212993D01*
X187434075Y-71327007D01*
X187417037Y-71390591D01*
X186784728Y-70758282D01*
X186784727Y-70758282D01*
X186745380Y-70812439D01*
X186648904Y-71001782D01*
X186583242Y-71203869D01*
X186583242Y-71203872D01*
X186550000Y-71413753D01*
X186550000Y-71626246D01*
X186583242Y-71836127D01*
X186583242Y-71836130D01*
X186648904Y-72038217D01*
X186745375Y-72227550D01*
X186784728Y-72281716D01*
X187417037Y-71649408D01*
X187434075Y-71712993D01*
X187499901Y-71827007D01*
X187592993Y-71920099D01*
X187707007Y-71985925D01*
X187770590Y-72002962D01*
X187138282Y-72635269D01*
X187138282Y-72635270D01*
X187192449Y-72674624D01*
X187381782Y-72771095D01*
X187583870Y-72836757D01*
X187793754Y-72870000D01*
X188006246Y-72870000D01*
X188216127Y-72836757D01*
X188216130Y-72836757D01*
X188418217Y-72771095D01*
X188607554Y-72674622D01*
X188661716Y-72635270D01*
X188661717Y-72635270D01*
X188029408Y-72002962D01*
X188092993Y-71985925D01*
X188207007Y-71920099D01*
X188300099Y-71827007D01*
X188365925Y-71712993D01*
X188382962Y-71649409D01*
X189015270Y-72281717D01*
X189015270Y-72281716D01*
X189054622Y-72227554D01*
X189151095Y-72038217D01*
X189216757Y-71836130D01*
X189216757Y-71836127D01*
X189250000Y-71626246D01*
X189250000Y-71413753D01*
X189216757Y-71203872D01*
X189216757Y-71203869D01*
X189151095Y-71001782D01*
X189054624Y-70812449D01*
X189015270Y-70758282D01*
X189015269Y-70758282D01*
X188382962Y-71390590D01*
X188365925Y-71327007D01*
X188300099Y-71212993D01*
X188207007Y-71119901D01*
X188092993Y-71054075D01*
X188029409Y-71037037D01*
X188661716Y-70404728D01*
X188607547Y-70365373D01*
X188607547Y-70365372D01*
X188598500Y-70360763D01*
X188547706Y-70312788D01*
X188530912Y-70244966D01*
X188553451Y-70178832D01*
X188598508Y-70139793D01*
X188607816Y-70135051D01*
X188687007Y-70077515D01*
X188779786Y-70010109D01*
X188779788Y-70010106D01*
X188779792Y-70010104D01*
X188930104Y-69859792D01*
X188930106Y-69859788D01*
X188930109Y-69859786D01*
X189055048Y-69687820D01*
X189055047Y-69687820D01*
X189055051Y-69687816D01*
X189151557Y-69498412D01*
X189217246Y-69296243D01*
X189250500Y-69086287D01*
X189250500Y-68873713D01*
X189217246Y-68663757D01*
X189151557Y-68461588D01*
X189055051Y-68272184D01*
X189055049Y-68272181D01*
X189055048Y-68272179D01*
X188930109Y-68100213D01*
X188779786Y-67949890D01*
X188607820Y-67824951D01*
X188607115Y-67824591D01*
X188599054Y-67820485D01*
X188548259Y-67772512D01*
X188531463Y-67704692D01*
X188553999Y-67638556D01*
X188599054Y-67599515D01*
X188607816Y-67595051D01*
X188629789Y-67579086D01*
X188779786Y-67470109D01*
X188779788Y-67470106D01*
X188779792Y-67470104D01*
X188930104Y-67319792D01*
X188930106Y-67319788D01*
X188930109Y-67319786D01*
X189055048Y-67147820D01*
X189055047Y-67147820D01*
X189055051Y-67147816D01*
X189151557Y-66958412D01*
X189217246Y-66756243D01*
X189250500Y-66546287D01*
X189250500Y-66333713D01*
X189217246Y-66123757D01*
X189151557Y-65921588D01*
X189055051Y-65732184D01*
X189055049Y-65732181D01*
X189055048Y-65732179D01*
X188930109Y-65560213D01*
X188779786Y-65409890D01*
X188607820Y-65284951D01*
X188607115Y-65284591D01*
X188599054Y-65280485D01*
X188548259Y-65232512D01*
X188531463Y-65164692D01*
X188553999Y-65098556D01*
X188599054Y-65059515D01*
X188607816Y-65055051D01*
X188629789Y-65039086D01*
X188779786Y-64930109D01*
X188779788Y-64930106D01*
X188779792Y-64930104D01*
X188930104Y-64779792D01*
X188930106Y-64779788D01*
X188930109Y-64779786D01*
X189055048Y-64607820D01*
X189055047Y-64607820D01*
X189055051Y-64607816D01*
X189151557Y-64418412D01*
X189217246Y-64216243D01*
X189250500Y-64006287D01*
X189250500Y-63793713D01*
X189217246Y-63583757D01*
X189151557Y-63381588D01*
X189055051Y-63192184D01*
X189055049Y-63192181D01*
X189055048Y-63192179D01*
X188930109Y-63020213D01*
X188779786Y-62869890D01*
X188607820Y-62744951D01*
X188607115Y-62744591D01*
X188599054Y-62740485D01*
X188548259Y-62692512D01*
X188531463Y-62624692D01*
X188553999Y-62558556D01*
X188599054Y-62519515D01*
X188607816Y-62515051D01*
X188629789Y-62499086D01*
X188779786Y-62390109D01*
X188779788Y-62390106D01*
X188779792Y-62390104D01*
X188930104Y-62239792D01*
X188930106Y-62239788D01*
X188930109Y-62239786D01*
X189055048Y-62067820D01*
X189055047Y-62067820D01*
X189055051Y-62067816D01*
X189151557Y-61878412D01*
X189217246Y-61676243D01*
X189250500Y-61466287D01*
X189250500Y-61253713D01*
X189217246Y-61043757D01*
X189151557Y-60841588D01*
X189055051Y-60652184D01*
X189055049Y-60652181D01*
X189055048Y-60652179D01*
X188930109Y-60480213D01*
X188779786Y-60329890D01*
X188607820Y-60204951D01*
X188607115Y-60204591D01*
X188599054Y-60200485D01*
X188548259Y-60152512D01*
X188531463Y-60084692D01*
X188553999Y-60018556D01*
X188599054Y-59979515D01*
X188607816Y-59975051D01*
X188629789Y-59959086D01*
X188779786Y-59850109D01*
X188779788Y-59850106D01*
X188779792Y-59850104D01*
X188930104Y-59699792D01*
X188930106Y-59699788D01*
X188930109Y-59699786D01*
X189055048Y-59527820D01*
X189055047Y-59527820D01*
X189055051Y-59527816D01*
X189151557Y-59338412D01*
X189217246Y-59136243D01*
X189250500Y-58926287D01*
X189250500Y-58713713D01*
X189217246Y-58503757D01*
X189151557Y-58301588D01*
X189055051Y-58112184D01*
X189055049Y-58112181D01*
X189055048Y-58112179D01*
X188930109Y-57940213D01*
X188779786Y-57789890D01*
X188607820Y-57664951D01*
X188607115Y-57664591D01*
X188599054Y-57660485D01*
X188548259Y-57612512D01*
X188531463Y-57544692D01*
X188553999Y-57478556D01*
X188599054Y-57439515D01*
X188607816Y-57435051D01*
X188685182Y-57378842D01*
X188779786Y-57310109D01*
X188779788Y-57310106D01*
X188779792Y-57310104D01*
X188930104Y-57159792D01*
X188930106Y-57159788D01*
X188930109Y-57159786D01*
X189055048Y-56987820D01*
X189055047Y-56987820D01*
X189055051Y-56987816D01*
X189151557Y-56798412D01*
X189217246Y-56596243D01*
X189250500Y-56386287D01*
X189250500Y-56173713D01*
X189217246Y-55963757D01*
X189151557Y-55761588D01*
X189055051Y-55572184D01*
X189055049Y-55572181D01*
X189055048Y-55572179D01*
X188930109Y-55400213D01*
X188779786Y-55249890D01*
X188607820Y-55124951D01*
X188607115Y-55124591D01*
X188599054Y-55120485D01*
X188548259Y-55072512D01*
X188531463Y-55004692D01*
X188553999Y-54938556D01*
X188599054Y-54899515D01*
X188607816Y-54895051D01*
X188629789Y-54879086D01*
X188779786Y-54770109D01*
X188779788Y-54770106D01*
X188779792Y-54770104D01*
X188930104Y-54619792D01*
X188930106Y-54619788D01*
X188930109Y-54619786D01*
X189055048Y-54447820D01*
X189055047Y-54447820D01*
X189055051Y-54447816D01*
X189151557Y-54258412D01*
X189217246Y-54056243D01*
X189250500Y-53846287D01*
X189250500Y-53633713D01*
X189217246Y-53423757D01*
X189151557Y-53221588D01*
X189055051Y-53032184D01*
X189055049Y-53032181D01*
X189055048Y-53032179D01*
X188930109Y-52860213D01*
X188816569Y-52746673D01*
X188783084Y-52685350D01*
X188788068Y-52615658D01*
X188829940Y-52559725D01*
X188860915Y-52542810D01*
X188992331Y-52493796D01*
X189107546Y-52407546D01*
X189193796Y-52292331D01*
X189244091Y-52157483D01*
X189250500Y-52097873D01*
X189250499Y-50302128D01*
X189244091Y-50242517D01*
X189228419Y-50200499D01*
X189193797Y-50107671D01*
X189193793Y-50107664D01*
X189107547Y-49992455D01*
X189107544Y-49992452D01*
X188992335Y-49906206D01*
X188992328Y-49906202D01*
X188857482Y-49855908D01*
X188857483Y-49855908D01*
X188797883Y-49849501D01*
X188797881Y-49849500D01*
X188797873Y-49849500D01*
X188797864Y-49849500D01*
X187002129Y-49849500D01*
X187002123Y-49849501D01*
X186942516Y-49855908D01*
X186807671Y-49906202D01*
X186807664Y-49906206D01*
X186692455Y-49992452D01*
X186692452Y-49992455D01*
X186606206Y-50107664D01*
X186606202Y-50107671D01*
X186555908Y-50242517D01*
X186549501Y-50302116D01*
X186549501Y-50302123D01*
X186549500Y-50302135D01*
X161250499Y-50302135D01*
X161250499Y-50302128D01*
X161244091Y-50242517D01*
X161228419Y-50200499D01*
X161193797Y-50107671D01*
X161193793Y-50107664D01*
X161107547Y-49992455D01*
X161107544Y-49992452D01*
X160992335Y-49906206D01*
X160992328Y-49906202D01*
X160857482Y-49855908D01*
X160857483Y-49855908D01*
X160797883Y-49849501D01*
X160797881Y-49849500D01*
X160797873Y-49849500D01*
X160797864Y-49849500D01*
X159002129Y-49849500D01*
X159002123Y-49849501D01*
X158942516Y-49855908D01*
X158807671Y-49906202D01*
X158807664Y-49906206D01*
X158692455Y-49992452D01*
X158692452Y-49992455D01*
X158606206Y-50107664D01*
X158606202Y-50107671D01*
X158555908Y-50242517D01*
X158549501Y-50302116D01*
X158549501Y-50302123D01*
X158549500Y-50302135D01*
X152450500Y-50302135D01*
X152450500Y-47031491D01*
X152949500Y-47031491D01*
X152949500Y-47368508D01*
X152987231Y-47703381D01*
X152987233Y-47703397D01*
X153062223Y-48031953D01*
X153062227Y-48031965D01*
X153173532Y-48350054D01*
X153319752Y-48653683D01*
X153319754Y-48653686D01*
X153499054Y-48939039D01*
X153709175Y-49202523D01*
X153947477Y-49440825D01*
X154210961Y-49650946D01*
X154496314Y-49830246D01*
X154799949Y-49976469D01*
X155038848Y-50060063D01*
X155118034Y-50087772D01*
X155118046Y-50087776D01*
X155446606Y-50162767D01*
X155781492Y-50200499D01*
X155781493Y-50200500D01*
X155781496Y-50200500D01*
X156118507Y-50200500D01*
X156118507Y-50200499D01*
X156241425Y-50186650D01*
X156339626Y-50175586D01*
X156394873Y-50169360D01*
X156453394Y-50162767D01*
X156781954Y-50087776D01*
X157100051Y-49976469D01*
X157403686Y-49830246D01*
X157689039Y-49650946D01*
X157952523Y-49440825D01*
X158190825Y-49202523D01*
X158400946Y-48939039D01*
X158580246Y-48653686D01*
X158726469Y-48350051D01*
X158837776Y-48031954D01*
X158912767Y-47703394D01*
X158950500Y-47368504D01*
X158950500Y-47031496D01*
X158950499Y-47031491D01*
X188749500Y-47031491D01*
X188749500Y-47368508D01*
X188787231Y-47703381D01*
X188787233Y-47703397D01*
X188862223Y-48031953D01*
X188862227Y-48031965D01*
X188973532Y-48350054D01*
X189119752Y-48653683D01*
X189119754Y-48653686D01*
X189299054Y-48939039D01*
X189509175Y-49202523D01*
X189747477Y-49440825D01*
X190010961Y-49650946D01*
X190296314Y-49830246D01*
X190599949Y-49976469D01*
X190838848Y-50060063D01*
X190918034Y-50087772D01*
X190918046Y-50087776D01*
X191246606Y-50162767D01*
X191581492Y-50200499D01*
X191581493Y-50200500D01*
X191581496Y-50200500D01*
X191918507Y-50200500D01*
X191918507Y-50200499D01*
X192253394Y-50162767D01*
X192581954Y-50087776D01*
X192900051Y-49976469D01*
X193203686Y-49830246D01*
X193489039Y-49650946D01*
X193752523Y-49440825D01*
X193990825Y-49202523D01*
X194200946Y-48939039D01*
X194380246Y-48653686D01*
X194526469Y-48350051D01*
X194637776Y-48031954D01*
X194712767Y-47703394D01*
X194750500Y-47368504D01*
X194750500Y-47031496D01*
X194712767Y-46696606D01*
X194637776Y-46368046D01*
X194526469Y-46049949D01*
X194380246Y-45746314D01*
X194200946Y-45460961D01*
X193990825Y-45197477D01*
X193752523Y-44959175D01*
X193489039Y-44749054D01*
X193203686Y-44569754D01*
X193203683Y-44569752D01*
X192900054Y-44423532D01*
X192581965Y-44312227D01*
X192581953Y-44312223D01*
X192253397Y-44237233D01*
X192253381Y-44237231D01*
X191918508Y-44199500D01*
X191918504Y-44199500D01*
X191581496Y-44199500D01*
X191581491Y-44199500D01*
X191246618Y-44237231D01*
X191246602Y-44237233D01*
X190918046Y-44312223D01*
X190918034Y-44312227D01*
X190599945Y-44423532D01*
X190296316Y-44569752D01*
X190010962Y-44749053D01*
X189747477Y-44959174D01*
X189509174Y-45197477D01*
X189299053Y-45460962D01*
X189119752Y-45746316D01*
X188973532Y-46049945D01*
X188862227Y-46368034D01*
X188862223Y-46368046D01*
X188787233Y-46696602D01*
X188787231Y-46696618D01*
X188749500Y-47031491D01*
X158950499Y-47031491D01*
X158912767Y-46696606D01*
X158837776Y-46368046D01*
X158726469Y-46049949D01*
X158580246Y-45746314D01*
X158400946Y-45460961D01*
X158190825Y-45197477D01*
X157952523Y-44959175D01*
X157689039Y-44749054D01*
X157403686Y-44569754D01*
X157403683Y-44569752D01*
X157100054Y-44423532D01*
X156781965Y-44312227D01*
X156781953Y-44312223D01*
X156453397Y-44237233D01*
X156453381Y-44237231D01*
X156118508Y-44199500D01*
X156118504Y-44199500D01*
X155781496Y-44199500D01*
X155781491Y-44199500D01*
X155446618Y-44237231D01*
X155446602Y-44237233D01*
X155118046Y-44312223D01*
X155118034Y-44312227D01*
X154799945Y-44423532D01*
X154496316Y-44569752D01*
X154210962Y-44749053D01*
X153947477Y-44959174D01*
X153709174Y-45197477D01*
X153499053Y-45460962D01*
X153319752Y-45746316D01*
X153173532Y-46049945D01*
X153062227Y-46368034D01*
X153062223Y-46368046D01*
X152987233Y-46696602D01*
X152987231Y-46696618D01*
X152949500Y-47031491D01*
X152450500Y-47031491D01*
X152450500Y-46203750D01*
X152450726Y-46196263D01*
X152459576Y-46049949D01*
X152468271Y-45906201D01*
X152470076Y-45891340D01*
X152521780Y-45609201D01*
X152525364Y-45594663D01*
X152567027Y-45460962D01*
X152610696Y-45320822D01*
X152615998Y-45306841D01*
X152733731Y-45045249D01*
X152740676Y-45032016D01*
X152889080Y-44786526D01*
X152897567Y-44774230D01*
X153074480Y-44548417D01*
X153084395Y-44537226D01*
X153287226Y-44334395D01*
X153298417Y-44324480D01*
X153524230Y-44147567D01*
X153536526Y-44139080D01*
X153782016Y-43990676D01*
X153795249Y-43983731D01*
X154056841Y-43865998D01*
X154070822Y-43860696D01*
X154344668Y-43775362D01*
X154359197Y-43771780D01*
X154641344Y-43720075D01*
X154656201Y-43718271D01*
X154946264Y-43700726D01*
X154953751Y-43700500D01*
X155015892Y-43700500D01*
X192684108Y-43700500D01*
X192746249Y-43700500D01*
X192753736Y-43700726D01*
G37*
G04 #@! TD.AperFunction*
G04 #@! TA.AperFunction,Conductor*
G36*
X168793039Y-51519685D02*
G01*
X168838794Y-51572489D01*
X168850000Y-51624000D01*
X168850000Y-52553859D01*
X168830315Y-52620898D01*
X168777511Y-52666653D01*
X168708353Y-52676597D01*
X168683888Y-52669678D01*
X168683887Y-52669682D01*
X168683378Y-52669534D01*
X168676758Y-52667662D01*
X168676397Y-52667506D01*
X168520997Y-52622357D01*
X168520991Y-52622356D01*
X168484697Y-52619500D01*
X168484690Y-52619500D01*
X168015310Y-52619500D01*
X168015302Y-52619500D01*
X167979008Y-52622356D01*
X167979002Y-52622357D01*
X167823609Y-52667504D01*
X167823606Y-52667505D01*
X167684315Y-52749881D01*
X167684307Y-52749887D01*
X167569887Y-52864307D01*
X167569878Y-52864318D01*
X167555210Y-52889122D01*
X167504141Y-52936805D01*
X167448479Y-52950000D01*
X167300000Y-52950000D01*
X166500000Y-53700000D01*
X166500000Y-53700001D01*
X166500000Y-55376000D01*
X166480315Y-55443039D01*
X166427511Y-55488794D01*
X166376000Y-55500000D01*
X165174000Y-55500000D01*
X165106961Y-55480315D01*
X165061206Y-55427511D01*
X165050000Y-55376000D01*
X165050000Y-51624000D01*
X165069685Y-51556961D01*
X165122489Y-51511206D01*
X165174000Y-51500000D01*
X168726000Y-51500000D01*
X168793039Y-51519685D01*
G37*
G04 #@! TD.AperFunction*
G04 #@! TA.AperFunction,Conductor*
G36*
X169443039Y-67069685D02*
G01*
X169488794Y-67122489D01*
X169500000Y-67174000D01*
X169500000Y-69376000D01*
X169480315Y-69443039D01*
X169427511Y-69488794D01*
X169376000Y-69500000D01*
X167824000Y-69500000D01*
X167756961Y-69480315D01*
X167711206Y-69427511D01*
X167700000Y-69376000D01*
X167700000Y-67174000D01*
X167719685Y-67106961D01*
X167772489Y-67061206D01*
X167824000Y-67050000D01*
X169376000Y-67050000D01*
X169443039Y-67069685D01*
G37*
G04 #@! TD.AperFunction*
M02*
