G04 #@! TF.GenerationSoftware,KiCad,Pcbnew,9.0.2*
G04 #@! TF.CreationDate,2026-03-21T00:01:54-04:00*
G04 #@! TF.ProjectId,UWB_CarrierBoard,5557425f-4361-4727-9269-6572426f6172,rev?*
G04 #@! TF.SameCoordinates,Original*
G04 #@! TF.FileFunction,Copper,L1,Top*
G04 #@! TF.FilePolarity,Positive*
%FSLAX46Y46*%
G04 Gerber Fmt 4.6, Leading zero omitted, Abs format (unit mm)*
G04 Created by KiCad (PCBNEW 9.0.2) date 2026-03-21 00:01:54*
%MOMM*%
%LPD*%
G01*
G04 APERTURE LIST*
G04 Aperture macros list*
%AMRoundRect*
0 Rectangle with rounded corners*
0 $1 Rounding radius*
0 $2 $3 $4 $5 $6 $7 $8 $9 X,Y pos of 4 corners*
0 Add a 4 corners polygon primitive as box body*
4,1,4,$2,$3,$4,$5,$6,$7,$8,$9,$2,$3,0*
0 Add four circle primitives for the rounded corners*
1,1,$1+$1,$2,$3*
1,1,$1+$1,$4,$5*
1,1,$1+$1,$6,$7*
1,1,$1+$1,$8,$9*
0 Add four rect primitives between the rounded corners*
20,1,$1+$1,$2,$3,$4,$5,0*
20,1,$1+$1,$4,$5,$6,$7,0*
20,1,$1+$1,$6,$7,$8,$9,0*
20,1,$1+$1,$8,$9,$2,$3,0*%
G04 Aperture macros list end*
G04 #@! TA.AperFunction,SMDPad,CuDef*
%ADD10RoundRect,0.100000X-0.100000X0.125000X-0.100000X-0.125000X0.100000X-0.125000X0.100000X0.125000X0*%
G04 #@! TD*
G04 #@! TA.AperFunction,ComponentPad*
%ADD11R,1.700000X1.700000*%
G04 #@! TD*
G04 #@! TA.AperFunction,ComponentPad*
%ADD12C,1.700000*%
G04 #@! TD*
G04 #@! TA.AperFunction,SMDPad,CuDef*
%ADD13RoundRect,0.135000X-0.135000X-0.185000X0.135000X-0.185000X0.135000X0.185000X-0.135000X0.185000X0*%
G04 #@! TD*
G04 #@! TA.AperFunction,SMDPad,CuDef*
%ADD14RoundRect,0.100000X-0.900000X-0.400000X0.900000X-0.400000X0.900000X0.400000X-0.900000X0.400000X0*%
G04 #@! TD*
G04 #@! TA.AperFunction,SMDPad,CuDef*
%ADD15RoundRect,0.100000X0.400000X-0.900000X0.400000X0.900000X-0.400000X0.900000X-0.400000X-0.900000X0*%
G04 #@! TD*
G04 #@! TA.AperFunction,ComponentPad*
%ADD16C,5.000000*%
G04 #@! TD*
G04 #@! TA.AperFunction,SMDPad,CuDef*
%ADD17RoundRect,0.135000X-0.185000X0.135000X-0.185000X-0.135000X0.185000X-0.135000X0.185000X0.135000X0*%
G04 #@! TD*
G04 #@! TA.AperFunction,SMDPad,CuDef*
%ADD18RoundRect,0.140000X-0.170000X0.140000X-0.170000X-0.140000X0.170000X-0.140000X0.170000X0.140000X0*%
G04 #@! TD*
G04 #@! TA.AperFunction,SMDPad,CuDef*
%ADD19RoundRect,0.150000X0.150000X-0.512500X0.150000X0.512500X-0.150000X0.512500X-0.150000X-0.512500X0*%
G04 #@! TD*
G04 #@! TA.AperFunction,ViaPad*
%ADD20C,0.600000*%
G04 #@! TD*
G04 #@! TA.AperFunction,Conductor*
%ADD21C,0.300000*%
G04 #@! TD*
G04 #@! TA.AperFunction,Conductor*
%ADD22C,0.200000*%
G04 #@! TD*
G04 APERTURE END LIST*
D10*
X164750000Y-74350000D03*
X163950000Y-74350000D03*
X164350000Y-75500000D03*
D11*
X159900000Y-51200000D03*
D12*
X159900000Y-53740000D03*
X159900000Y-56280000D03*
X159900000Y-58820000D03*
X159900000Y-61360000D03*
X159900000Y-63900000D03*
X159900000Y-66440000D03*
X159900000Y-68980000D03*
X159900000Y-71520000D03*
D13*
X172580000Y-67950000D03*
X173600000Y-67950000D03*
D14*
X167650000Y-45750000D03*
X167650000Y-47150000D03*
X167650000Y-48550000D03*
X167650000Y-49950000D03*
X167650000Y-51350000D03*
X167650000Y-52750000D03*
X167650000Y-54150000D03*
X167650000Y-55550000D03*
D15*
X168950000Y-57800000D03*
X170350000Y-57800000D03*
X171750000Y-57800000D03*
X173150000Y-57800000D03*
X174550000Y-57800000D03*
X175950000Y-57800000D03*
X177350000Y-57800000D03*
X178750000Y-57800000D03*
D14*
X180050000Y-55550000D03*
X180050000Y-54150000D03*
X180050000Y-52750000D03*
X180050000Y-51350000D03*
X180050000Y-49950000D03*
X180050000Y-48550000D03*
X180050000Y-47150000D03*
X180050000Y-45750000D03*
D16*
X155950000Y-76700000D03*
D13*
X170080000Y-67950000D03*
X171100000Y-67950000D03*
D16*
X191750000Y-76700000D03*
X191750000Y-47200000D03*
D17*
X162500000Y-56280000D03*
X162500000Y-57300000D03*
D11*
X187900000Y-51200000D03*
D12*
X187900000Y-53740000D03*
X187900000Y-56280000D03*
X187900000Y-58820000D03*
X187900000Y-61360000D03*
X187900000Y-63900000D03*
X187900000Y-66440000D03*
X187900000Y-68980000D03*
X187900000Y-71520000D03*
D18*
X166500000Y-74340000D03*
X166500000Y-75300000D03*
D19*
X170750000Y-73687500D03*
X171700000Y-73687500D03*
X172650000Y-73687500D03*
X172650000Y-71412500D03*
X170750000Y-71412500D03*
D16*
X155950000Y-47200000D03*
D20*
X177350000Y-49950000D03*
X177350000Y-45750000D03*
X180400000Y-59100000D03*
X170100000Y-55550000D03*
X177350000Y-47200000D03*
X165700000Y-52050000D03*
X165700000Y-54600000D03*
X169100000Y-68000000D03*
X161700000Y-57300000D03*
X168300000Y-67600000D03*
X165700000Y-53350000D03*
X168200000Y-68450000D03*
D21*
X164350000Y-75500000D02*
X164350000Y-76800000D01*
X180050000Y-49950000D02*
X177350000Y-49950000D01*
X178750000Y-57800000D02*
X179100000Y-57800000D01*
X171700000Y-73687500D02*
X171700000Y-75800000D01*
X177400000Y-47150000D02*
X177350000Y-47200000D01*
X180050000Y-47150000D02*
X177400000Y-47150000D01*
X167650000Y-55550000D02*
X170100000Y-55550000D01*
X180050000Y-45750000D02*
X177350000Y-45750000D01*
X173600000Y-67950000D02*
X175450000Y-67950000D01*
X166500000Y-75300000D02*
X166500000Y-76450000D01*
X179100000Y-57800000D02*
X180400000Y-59100000D01*
X167650000Y-51350000D02*
X166400000Y-51350000D01*
X166300000Y-52750000D02*
X165700000Y-53350000D01*
X166400000Y-51350000D02*
X165700000Y-52050000D01*
X167650000Y-54150000D02*
X166150000Y-54150000D01*
X166150000Y-54150000D02*
X165700000Y-54600000D01*
X167650000Y-52750000D02*
X166300000Y-52750000D01*
X162500000Y-57300000D02*
X161700000Y-57300000D01*
X170750000Y-73687500D02*
X170750000Y-73262322D01*
X171338322Y-72674000D02*
X172074000Y-72674000D01*
X170750000Y-73262322D02*
X171338322Y-72674000D01*
X172074000Y-72674000D02*
X172650000Y-73250000D01*
X172650000Y-73250000D02*
X172650000Y-73687500D01*
D22*
X180050000Y-52750000D02*
X184370000Y-52750000D01*
X184370000Y-52750000D02*
X187900000Y-56280000D01*
X184730001Y-68980000D02*
X187900000Y-68980000D01*
X174550000Y-57800000D02*
X174550000Y-58799999D01*
X174550000Y-58799999D02*
X184730001Y-68980000D01*
X185510000Y-51350000D02*
X187900000Y-53740000D01*
X180050000Y-51350000D02*
X185510000Y-51350000D01*
X185250000Y-48550000D02*
X187900000Y-51200000D01*
X180050000Y-48550000D02*
X185250000Y-48550000D01*
X183230000Y-54150000D02*
X187900000Y-58820000D01*
X180050000Y-54150000D02*
X183230000Y-54150000D01*
X182090000Y-55550000D02*
X187900000Y-61360000D01*
X180050000Y-55550000D02*
X182090000Y-55550000D01*
X175950000Y-57800000D02*
X175950000Y-58799999D01*
X175950000Y-58799999D02*
X183590001Y-66440000D01*
X183590001Y-66440000D02*
X187900000Y-66440000D01*
X177350000Y-57800000D02*
X177350000Y-58799999D01*
X177350000Y-58799999D02*
X182450001Y-63900000D01*
X182450001Y-63900000D02*
X187900000Y-63900000D01*
X167650000Y-45750000D02*
X165350000Y-45750000D01*
X165350000Y-45750000D02*
X159900000Y-51200000D01*
X167650000Y-47150000D02*
X166490000Y-47150000D01*
X166490000Y-47150000D02*
X159900000Y-53740000D01*
X162969999Y-68980000D02*
X159900000Y-68980000D01*
X173150000Y-58799999D02*
X162969999Y-68980000D01*
X173150000Y-57800000D02*
X173150000Y-58799999D01*
X170350000Y-58799999D02*
X165249999Y-63900000D01*
X170350000Y-57800000D02*
X170350000Y-58799999D01*
X165249999Y-63900000D02*
X159900000Y-63900000D01*
X161920340Y-58820000D02*
X159900000Y-58820000D01*
X167650000Y-49950000D02*
X166650001Y-49950000D01*
X166650001Y-49950000D02*
X163250000Y-53350001D01*
X163250000Y-57490340D02*
X161920340Y-58820000D01*
X163250000Y-53350001D02*
X163250000Y-57490340D01*
X168950000Y-57800000D02*
X165390000Y-61360000D01*
X165390000Y-61360000D02*
X159900000Y-61360000D01*
X164109999Y-66440000D02*
X159900000Y-66440000D01*
X171750000Y-57800000D02*
X171750000Y-58799999D01*
X171750000Y-58799999D02*
X164109999Y-66440000D01*
X159900000Y-56280000D02*
X162500000Y-56280000D01*
X166717760Y-48550000D02*
X159900000Y-55367760D01*
X159900000Y-55367760D02*
X159900000Y-56280000D01*
X167650000Y-48550000D02*
X166717760Y-48550000D01*
G04 #@! TA.AperFunction,Conductor*
G36*
X170304052Y-67069685D02*
G01*
X170349807Y-67122489D01*
X170359751Y-67191647D01*
X170349660Y-67225833D01*
X170317869Y-67294921D01*
X170296985Y-67437280D01*
X170296786Y-67506971D01*
X170296786Y-67507148D01*
X170296786Y-67507153D01*
X170316856Y-67649626D01*
X170316857Y-67649629D01*
X170324576Y-67676197D01*
X170329500Y-67710794D01*
X170329500Y-68164911D01*
X170315627Y-68221902D01*
X170308016Y-68236607D01*
X170263315Y-68373380D01*
X170251285Y-68442190D01*
X170251283Y-68442210D01*
X170246926Y-68586009D01*
X170246927Y-68586019D01*
X170283262Y-68725225D01*
X170283262Y-68725227D01*
X170310346Y-68789626D01*
X170310348Y-68789629D01*
X170310350Y-68789634D01*
X170384436Y-68912973D01*
X170384439Y-68912976D01*
X170384441Y-68912980D01*
X170833511Y-69464111D01*
X171516629Y-70302483D01*
X171543716Y-70366887D01*
X171544500Y-70380809D01*
X171544500Y-71899500D01*
X171524815Y-71966539D01*
X171472011Y-72012294D01*
X171420500Y-72023500D01*
X171274251Y-72023500D01*
X171148583Y-72048497D01*
X171148577Y-72048499D01*
X171030196Y-72097534D01*
X170923648Y-72168726D01*
X170923647Y-72168727D01*
X170603091Y-72489284D01*
X170587321Y-72497894D01*
X170574586Y-72510572D01*
X170551673Y-72517360D01*
X170541768Y-72522769D01*
X170541489Y-72522830D01*
X170533391Y-72524571D01*
X170497431Y-72527402D01*
X170432367Y-72546304D01*
X170428081Y-72547227D01*
X170423738Y-72546906D01*
X170402002Y-72550000D01*
X169766970Y-72550000D01*
X169699931Y-72530315D01*
X169663276Y-72493996D01*
X167720306Y-69530966D01*
X167700005Y-69464111D01*
X167700000Y-69462970D01*
X167700000Y-67174000D01*
X167719685Y-67106961D01*
X167772489Y-67061206D01*
X167824000Y-67050000D01*
X170237013Y-67050000D01*
X170304052Y-67069685D01*
G37*
G04 #@! TD.AperFunction*
G04 #@! TA.AperFunction,Conductor*
G36*
X167442793Y-66469685D02*
G01*
X167488548Y-66522489D01*
X167498492Y-66591647D01*
X167469467Y-66655203D01*
X167444951Y-66676445D01*
X167445006Y-66676518D01*
X167443988Y-66677280D01*
X167442796Y-66678313D01*
X167441470Y-66679164D01*
X167441451Y-66679179D01*
X167388659Y-66724923D01*
X167294433Y-66833664D01*
X167294430Y-66833668D01*
X167234664Y-66964534D01*
X167214976Y-67031582D01*
X167213959Y-67038656D01*
X167197497Y-67153159D01*
X167194500Y-67174001D01*
X167194500Y-69462811D01*
X167194505Y-69465068D01*
X167194511Y-69466475D01*
X167194525Y-69468761D01*
X167194526Y-69468766D01*
X167216311Y-69610978D01*
X167216312Y-69610982D01*
X167216313Y-69610987D01*
X167236614Y-69677842D01*
X167255912Y-69719090D01*
X167297585Y-69808164D01*
X169240552Y-72771188D01*
X169240557Y-72771195D01*
X169307480Y-72853077D01*
X169307482Y-72853079D01*
X169307483Y-72853080D01*
X169344138Y-72889399D01*
X169426634Y-72955567D01*
X169557511Y-73015338D01*
X169624550Y-73035023D01*
X169624554Y-73035024D01*
X169766970Y-73055500D01*
X169766973Y-73055500D01*
X170402004Y-73055500D01*
X170416249Y-73054491D01*
X170473239Y-73050455D01*
X170494975Y-73047361D01*
X170494974Y-73047360D01*
X170532212Y-73042060D01*
X170532694Y-73041908D01*
X170535310Y-73041223D01*
X170538788Y-73040475D01*
X170573391Y-73031734D01*
X170589440Y-73027071D01*
X170591071Y-73026645D01*
X170591835Y-73026667D01*
X170604496Y-73023916D01*
X170639641Y-73018779D01*
X170647739Y-73017038D01*
X170648438Y-73016886D01*
X170649614Y-73016632D01*
X170649729Y-73016607D01*
X170649729Y-73016606D01*
X170649739Y-73016604D01*
X170659705Y-73012880D01*
X170665030Y-73011029D01*
X170695056Y-73001355D01*
X170695259Y-73002038D01*
X170718172Y-72995250D01*
X170732730Y-72989218D01*
X170737521Y-72987675D01*
X170767614Y-72986890D01*
X170797548Y-72983669D01*
X170802184Y-72985989D01*
X170807367Y-72985854D01*
X170833111Y-73001465D01*
X170860031Y-73014937D01*
X170862676Y-73019394D01*
X170867110Y-73022083D01*
X170880326Y-73049134D01*
X170895690Y-73075022D01*
X170896444Y-73082124D01*
X170897781Y-73084861D01*
X170897231Y-73089544D01*
X170899071Y-73106871D01*
X170899500Y-73106871D01*
X170899500Y-74265701D01*
X170902401Y-74302567D01*
X170902402Y-74302573D01*
X170948254Y-74460393D01*
X170948255Y-74460396D01*
X171032232Y-74602394D01*
X171036582Y-74618295D01*
X171044477Y-74630580D01*
X171049500Y-74665515D01*
X171049500Y-74676000D01*
X171029815Y-74743039D01*
X170977011Y-74788794D01*
X170925500Y-74800000D01*
X167267167Y-74800000D01*
X167200128Y-74780315D01*
X167179486Y-74763681D01*
X167065692Y-74649887D01*
X167065684Y-74649881D01*
X166926393Y-74567505D01*
X166926390Y-74567504D01*
X166770997Y-74522357D01*
X166770991Y-74522356D01*
X166734697Y-74519500D01*
X166734690Y-74519500D01*
X166265310Y-74519500D01*
X166265302Y-74519500D01*
X166229008Y-74522356D01*
X166229002Y-74522357D01*
X166073609Y-74567504D01*
X166073606Y-74567505D01*
X165934315Y-74649881D01*
X165934307Y-74649887D01*
X165820514Y-74763681D01*
X165759191Y-74797166D01*
X165732833Y-74800000D01*
X164655675Y-74800000D01*
X164614670Y-74791843D01*
X164614613Y-74792060D01*
X164611311Y-74791175D01*
X164608223Y-74790561D01*
X164606765Y-74789957D01*
X164606760Y-74789955D01*
X164489361Y-74774500D01*
X164210636Y-74774500D01*
X164093246Y-74789953D01*
X164093234Y-74789957D01*
X164091777Y-74790561D01*
X164088691Y-74791174D01*
X164085392Y-74792059D01*
X164085334Y-74791842D01*
X164044325Y-74800000D01*
X163169026Y-74800000D01*
X163131848Y-74794295D01*
X161449910Y-74265686D01*
X157986821Y-73177286D01*
X157928768Y-73138407D01*
X157900950Y-73074314D01*
X157900000Y-73058991D01*
X157900000Y-70422301D01*
X157919685Y-70355262D01*
X157972489Y-70309507D01*
X158022288Y-70298313D01*
X159502813Y-70277892D01*
X159542825Y-70283946D01*
X159583757Y-70297246D01*
X159793713Y-70330500D01*
X159793714Y-70330500D01*
X160006286Y-70330500D01*
X160006287Y-70330500D01*
X160216243Y-70297246D01*
X160292236Y-70272554D01*
X160328835Y-70266498D01*
X163114415Y-70228077D01*
X165963088Y-66836799D01*
X165970306Y-66828927D01*
X166312914Y-66486318D01*
X166374237Y-66452834D01*
X166400595Y-66450000D01*
X167375754Y-66450000D01*
X167442793Y-66469685D01*
G37*
G04 #@! TD.AperFunction*
G04 #@! TA.AperFunction,Conductor*
G36*
X174593039Y-68620185D02*
G01*
X174638794Y-68672989D01*
X174650000Y-68724500D01*
X174650000Y-74676000D01*
X174630315Y-74743039D01*
X174577511Y-74788794D01*
X174526000Y-74800000D01*
X172474500Y-74800000D01*
X172465814Y-74797449D01*
X172456853Y-74798738D01*
X172432812Y-74787759D01*
X172407461Y-74780315D01*
X172401533Y-74773474D01*
X172393297Y-74769713D01*
X172379007Y-74747478D01*
X172361706Y-74727511D01*
X172359418Y-74716996D01*
X172355523Y-74710935D01*
X172350500Y-74676000D01*
X172350500Y-74665515D01*
X172367768Y-74602394D01*
X172368081Y-74601865D01*
X172451744Y-74460398D01*
X172497598Y-74302569D01*
X172500500Y-74265694D01*
X172500500Y-73109306D01*
X172500478Y-73109031D01*
X172500487Y-73108988D01*
X172500404Y-73106868D01*
X172500936Y-73106847D01*
X172507254Y-73076728D01*
X172512985Y-73044215D01*
X172514396Y-73042687D01*
X172514823Y-73040652D01*
X172537994Y-73017133D01*
X172560388Y-72992886D01*
X172562400Y-72992363D01*
X172563861Y-72990881D01*
X172596069Y-72983624D01*
X172628016Y-72975332D01*
X172630586Y-72975847D01*
X172632022Y-72975524D01*
X172662775Y-72981458D01*
X172665533Y-72982363D01*
X172708181Y-72998620D01*
X172708189Y-72998623D01*
X172730010Y-73003533D01*
X172733624Y-73004720D01*
X172761537Y-73012829D01*
X172761537Y-73012830D01*
X172793385Y-73022083D01*
X172822366Y-73030503D01*
X172822368Y-73030503D01*
X172822370Y-73030504D01*
X172892155Y-73045528D01*
X172892161Y-73045530D01*
X172892166Y-73045530D01*
X172892172Y-73045532D01*
X172926767Y-73050456D01*
X172987139Y-73054731D01*
X172997996Y-73055500D01*
X172997998Y-73055500D01*
X173076000Y-73055500D01*
X173147942Y-73050355D01*
X173182877Y-73045332D01*
X173253398Y-73029987D01*
X173280680Y-73017524D01*
X173337510Y-72998610D01*
X173375416Y-72974248D01*
X173384270Y-72970204D01*
X173390331Y-72966308D01*
X173390330Y-72966307D01*
X173420764Y-72946751D01*
X173442999Y-72932462D01*
X173443037Y-72932437D01*
X173443681Y-72931878D01*
X173457862Y-72921262D01*
X173458549Y-72920821D01*
X173478516Y-72903519D01*
X173478515Y-72903518D01*
X173504482Y-72881018D01*
X173511323Y-72875091D01*
X173511347Y-72875070D01*
X173513344Y-72872765D01*
X173514794Y-72871205D01*
X173515609Y-72870720D01*
X173524420Y-72861908D01*
X173534610Y-72853077D01*
X173551768Y-72838208D01*
X173576097Y-72800345D01*
X173605569Y-72766333D01*
X173624281Y-72725356D01*
X173629072Y-72717901D01*
X173629074Y-72717898D01*
X173629081Y-72717887D01*
X173629547Y-72717162D01*
X173633308Y-72708925D01*
X173633567Y-72708358D01*
X173633571Y-72708349D01*
X173647575Y-72677683D01*
X173647576Y-72677684D01*
X173658555Y-72653644D01*
X173658568Y-72653616D01*
X173660027Y-72648644D01*
X173661526Y-72644603D01*
X173662203Y-72643694D01*
X173664996Y-72636204D01*
X173665339Y-72635454D01*
X173672783Y-72610102D01*
X173672782Y-72610101D01*
X173682577Y-72576747D01*
X173683602Y-72573256D01*
X173685011Y-72568460D01*
X173685013Y-72568455D01*
X173685015Y-72568455D01*
X173685020Y-72568427D01*
X173685024Y-72568416D01*
X173685146Y-72567564D01*
X173688908Y-72550265D01*
X173699096Y-72515562D01*
X173699095Y-72506241D01*
X173699093Y-72479425D01*
X173700356Y-72461773D01*
X173705499Y-72426005D01*
X173705500Y-72426000D01*
X173705500Y-70306402D01*
X173705500Y-70306398D01*
X173704829Y-70280365D01*
X173704171Y-70267605D01*
X173702159Y-70241622D01*
X173564121Y-68907258D01*
X173576803Y-68838549D01*
X173624619Y-68787604D01*
X173687463Y-68770499D01*
X173799168Y-68770499D01*
X173799180Y-68770499D01*
X173835204Y-68767665D01*
X173989393Y-68722869D01*
X174127598Y-68641135D01*
X174127603Y-68641130D01*
X174131915Y-68636819D01*
X174193238Y-68603334D01*
X174219596Y-68600500D01*
X174526000Y-68600500D01*
X174593039Y-68620185D01*
G37*
G04 #@! TD.AperFunction*
G04 #@! TA.AperFunction,Conductor*
G36*
X172825678Y-67369685D02*
G01*
X172871433Y-67422489D01*
X172881377Y-67491647D01*
X172877715Y-67508595D01*
X172832335Y-67664791D01*
X172832334Y-67664797D01*
X172829500Y-67700811D01*
X172829500Y-68199169D01*
X172829501Y-68199191D01*
X172832335Y-68235205D01*
X172877129Y-68389388D01*
X172877131Y-68389393D01*
X172958865Y-68527598D01*
X173013682Y-68582415D01*
X173047166Y-68643736D01*
X173050000Y-68670095D01*
X173050000Y-68850004D01*
X173199342Y-70293638D01*
X173200000Y-70306398D01*
X173200000Y-72426000D01*
X173197449Y-72434685D01*
X173198738Y-72443647D01*
X173187759Y-72467687D01*
X173180315Y-72493039D01*
X173173474Y-72498966D01*
X173169713Y-72507203D01*
X173147478Y-72521492D01*
X173127511Y-72538794D01*
X173116996Y-72541081D01*
X173110935Y-72544977D01*
X173076000Y-72550000D01*
X172997998Y-72550000D01*
X172963403Y-72545076D01*
X172937781Y-72537632D01*
X172902570Y-72527402D01*
X172902559Y-72527400D01*
X172888230Y-72526272D01*
X172822943Y-72501386D01*
X172810283Y-72490336D01*
X172488673Y-72168726D01*
X172488669Y-72168723D01*
X172382127Y-72097535D01*
X172263744Y-72048499D01*
X172263739Y-72048498D01*
X172149807Y-72025834D01*
X172087897Y-71993448D01*
X172053323Y-71932732D01*
X172050000Y-71904217D01*
X172050000Y-70156819D01*
X170985188Y-68850004D01*
X170776317Y-68593662D01*
X170749231Y-68529259D01*
X170761264Y-68460433D01*
X170765701Y-68452240D01*
X170802869Y-68389393D01*
X170802869Y-68389389D01*
X170802871Y-68389388D01*
X170847664Y-68235208D01*
X170847664Y-68235206D01*
X170847665Y-68235204D01*
X170850500Y-68199181D01*
X170850499Y-67700820D01*
X170847665Y-67664796D01*
X170802869Y-67510607D01*
X170802868Y-67510605D01*
X170802284Y-67508595D01*
X170802484Y-67438725D01*
X170840426Y-67380055D01*
X170904065Y-67351212D01*
X170921361Y-67350000D01*
X172758639Y-67350000D01*
X172825678Y-67369685D01*
G37*
G04 #@! TD.AperFunction*
G04 #@! TA.AperFunction,Conductor*
G36*
X181856942Y-56170185D02*
G01*
X181877584Y-56186819D01*
X186566241Y-60875476D01*
X186599726Y-60936799D01*
X186596492Y-61001473D01*
X186582753Y-61043757D01*
X186549500Y-61253713D01*
X186549500Y-61466287D01*
X186582754Y-61676243D01*
X186596486Y-61718507D01*
X186648444Y-61878414D01*
X186744951Y-62067820D01*
X186869890Y-62239786D01*
X187020213Y-62390109D01*
X187192182Y-62515050D01*
X187200946Y-62519516D01*
X187251742Y-62567491D01*
X187268536Y-62635312D01*
X187245998Y-62701447D01*
X187200946Y-62740484D01*
X187192182Y-62744949D01*
X187020213Y-62869890D01*
X186869890Y-63020213D01*
X186744948Y-63192184D01*
X186744947Y-63192185D01*
X186724765Y-63231795D01*
X186676791Y-63282591D01*
X186614281Y-63299500D01*
X182750099Y-63299500D01*
X182683060Y-63279815D01*
X182662418Y-63263181D01*
X180865523Y-61466286D01*
X178910915Y-59511679D01*
X178877431Y-59450357D01*
X178882415Y-59380665D01*
X178924287Y-59324732D01*
X178989751Y-59300315D01*
X178998597Y-59299999D01*
X179189324Y-59299999D01*
X179306628Y-59284557D01*
X179306633Y-59284555D01*
X179452587Y-59224100D01*
X179452589Y-59224098D01*
X179577923Y-59127926D01*
X179641508Y-59045059D01*
X178660905Y-58064456D01*
X178627420Y-58003133D01*
X178632404Y-57933441D01*
X178660905Y-57889093D01*
X178749999Y-57799999D01*
X179103552Y-57799999D01*
X179103552Y-57800001D01*
X179749998Y-58446447D01*
X179749999Y-58446446D01*
X179749999Y-57153552D01*
X179749998Y-57153551D01*
X179103552Y-57799999D01*
X178749999Y-57799999D01*
X178660904Y-57710904D01*
X178627419Y-57649581D01*
X178632403Y-57579889D01*
X178660904Y-57535542D01*
X179641508Y-56554938D01*
X179577924Y-56472073D01*
X179572179Y-56466328D01*
X179573338Y-56465168D01*
X179537763Y-56416439D01*
X179533613Y-56346693D01*
X179567830Y-56285775D01*
X179629549Y-56253026D01*
X179654448Y-56250499D01*
X180994864Y-56250499D01*
X180994879Y-56250497D01*
X180994882Y-56250497D01*
X181019987Y-56247586D01*
X181019988Y-56247585D01*
X181019991Y-56247585D01*
X181122765Y-56202206D01*
X181138152Y-56186819D01*
X181199475Y-56153334D01*
X181225833Y-56150500D01*
X181789903Y-56150500D01*
X181856942Y-56170185D01*
G37*
G04 #@! TD.AperFunction*
G04 #@! TA.AperFunction,Conductor*
G36*
X165001077Y-52522709D02*
G01*
X165027172Y-52524576D01*
X165035158Y-52530281D01*
X165043745Y-52532189D01*
X165071906Y-52553465D01*
X165077261Y-52558868D01*
X165078211Y-52560289D01*
X165130401Y-52612479D01*
X165130627Y-52612707D01*
X165147139Y-52643267D01*
X165163725Y-52673642D01*
X165163704Y-52673926D01*
X165163840Y-52674177D01*
X165161220Y-52708660D01*
X165158741Y-52743334D01*
X165158569Y-52743563D01*
X165158548Y-52743846D01*
X165130240Y-52787681D01*
X165078213Y-52839707D01*
X165078210Y-52839711D01*
X164990609Y-52970814D01*
X164990602Y-52970827D01*
X164930264Y-53116498D01*
X164930261Y-53116510D01*
X164899500Y-53271153D01*
X164899500Y-53428846D01*
X164930261Y-53583489D01*
X164930264Y-53583501D01*
X164990602Y-53729172D01*
X164990609Y-53729185D01*
X165078210Y-53860288D01*
X165078213Y-53860292D01*
X165105240Y-53887319D01*
X165138725Y-53948642D01*
X165133741Y-54018334D01*
X165105240Y-54062681D01*
X165078213Y-54089707D01*
X165078210Y-54089711D01*
X164990609Y-54220814D01*
X164990602Y-54220827D01*
X164930264Y-54366498D01*
X164930261Y-54366510D01*
X164899500Y-54521153D01*
X164899500Y-54678846D01*
X164930261Y-54833489D01*
X164930264Y-54833501D01*
X164990602Y-54979172D01*
X164990609Y-54979185D01*
X165078210Y-55110288D01*
X165078213Y-55110292D01*
X165189707Y-55221786D01*
X165189711Y-55221789D01*
X165320814Y-55309390D01*
X165320827Y-55309397D01*
X165421451Y-55351076D01*
X165466503Y-55369737D01*
X165619690Y-55400208D01*
X165621153Y-55400499D01*
X165621156Y-55400500D01*
X165621158Y-55400500D01*
X165778844Y-55400500D01*
X165778845Y-55400499D01*
X165933497Y-55369737D01*
X165978550Y-55351075D01*
X166048016Y-55343607D01*
X166110495Y-55374881D01*
X166146148Y-55434970D01*
X166150000Y-55465637D01*
X166150000Y-55989324D01*
X166165442Y-56106628D01*
X166165444Y-56106633D01*
X166225899Y-56252587D01*
X166225901Y-56252589D01*
X166322075Y-56377925D01*
X166404938Y-56441507D01*
X167385542Y-55460904D01*
X167446865Y-55427419D01*
X167516557Y-55432403D01*
X167560904Y-55460904D01*
X167739094Y-55639094D01*
X167772579Y-55700417D01*
X167767595Y-55770109D01*
X167739094Y-55814456D01*
X167003551Y-56549998D01*
X167003552Y-56549999D01*
X168185751Y-56549999D01*
X168252790Y-56569684D01*
X168298545Y-56622488D01*
X168308489Y-56691646D01*
X168299185Y-56724086D01*
X168297794Y-56727234D01*
X168297794Y-56727235D01*
X168284850Y-56756548D01*
X168252415Y-56830006D01*
X168252415Y-56830008D01*
X168249500Y-56855131D01*
X168249500Y-57599902D01*
X168229815Y-57666941D01*
X168213181Y-57687583D01*
X165177584Y-60723181D01*
X165116261Y-60756666D01*
X165089903Y-60759500D01*
X161185719Y-60759500D01*
X161118680Y-60739815D01*
X161075235Y-60691795D01*
X161055052Y-60652185D01*
X161055051Y-60652184D01*
X160930109Y-60480213D01*
X160779786Y-60329890D01*
X160607820Y-60204951D01*
X160607115Y-60204591D01*
X160599054Y-60200485D01*
X160548259Y-60152512D01*
X160531463Y-60084692D01*
X160553999Y-60018556D01*
X160599054Y-59979515D01*
X160607816Y-59975051D01*
X160629789Y-59959086D01*
X160779786Y-59850109D01*
X160779788Y-59850106D01*
X160779792Y-59850104D01*
X160930104Y-59699792D01*
X160930106Y-59699788D01*
X160930109Y-59699786D01*
X160988661Y-59619193D01*
X161055051Y-59527816D01*
X161063273Y-59511680D01*
X161075235Y-59488205D01*
X161123209Y-59437409D01*
X161185719Y-59420500D01*
X161833671Y-59420500D01*
X161833687Y-59420501D01*
X161841283Y-59420501D01*
X161999394Y-59420501D01*
X161999397Y-59420501D01*
X162152125Y-59379577D01*
X162202244Y-59350639D01*
X162289056Y-59300520D01*
X162400860Y-59188716D01*
X162400860Y-59188714D01*
X162411068Y-59178507D01*
X162411070Y-59178504D01*
X163618713Y-57970861D01*
X163618716Y-57970860D01*
X163730520Y-57859056D01*
X163780639Y-57772244D01*
X163809577Y-57722125D01*
X163850500Y-57569398D01*
X163850500Y-57411283D01*
X163850500Y-53650097D01*
X163870185Y-53583058D01*
X163886814Y-53562420D01*
X164896159Y-52553075D01*
X164904344Y-52548606D01*
X164909967Y-52541164D01*
X164934519Y-52532129D01*
X164957480Y-52519592D01*
X164966783Y-52520257D01*
X164975538Y-52517036D01*
X165001077Y-52522709D01*
G37*
G04 #@! TD.AperFunction*
G04 #@! TA.AperFunction,Conductor*
G36*
X192753736Y-43700726D02*
G01*
X193043796Y-43718271D01*
X193058659Y-43720076D01*
X193340798Y-43771780D01*
X193355335Y-43775363D01*
X193629172Y-43860695D01*
X193643163Y-43866000D01*
X193904743Y-43983727D01*
X193917989Y-43990680D01*
X194163465Y-44139075D01*
X194175776Y-44147573D01*
X194290219Y-44237233D01*
X194401573Y-44324473D01*
X194412781Y-44334403D01*
X194615596Y-44537218D01*
X194625526Y-44548426D01*
X194683811Y-44622821D01*
X194745481Y-44701538D01*
X194802422Y-44774217D01*
X194810928Y-44786540D01*
X194959316Y-45032004D01*
X194966275Y-45045263D01*
X195083997Y-45306831D01*
X195089306Y-45320832D01*
X195174635Y-45594663D01*
X195178219Y-45609201D01*
X195229923Y-45891340D01*
X195231728Y-45906205D01*
X195249274Y-46196263D01*
X195249500Y-46203750D01*
X195249500Y-77696249D01*
X195249274Y-77703736D01*
X195231728Y-77993794D01*
X195229923Y-78008659D01*
X195178219Y-78290798D01*
X195174635Y-78305336D01*
X195089306Y-78579167D01*
X195083997Y-78593168D01*
X194966275Y-78854736D01*
X194959316Y-78867995D01*
X194810928Y-79113459D01*
X194802422Y-79125782D01*
X194625526Y-79351573D01*
X194615596Y-79362781D01*
X194412781Y-79565596D01*
X194401573Y-79575526D01*
X194175782Y-79752422D01*
X194163459Y-79760928D01*
X193917995Y-79909316D01*
X193904736Y-79916275D01*
X193643168Y-80033997D01*
X193629167Y-80039306D01*
X193355336Y-80124635D01*
X193340798Y-80128219D01*
X193058659Y-80179923D01*
X193043794Y-80181728D01*
X192753736Y-80199274D01*
X192746249Y-80199500D01*
X154953751Y-80199500D01*
X154946264Y-80199274D01*
X154656205Y-80181728D01*
X154641340Y-80179923D01*
X154359201Y-80128219D01*
X154344663Y-80124635D01*
X154070832Y-80039306D01*
X154056831Y-80033997D01*
X153795263Y-79916275D01*
X153782004Y-79909316D01*
X153536540Y-79760928D01*
X153524217Y-79752422D01*
X153457943Y-79700500D01*
X153298426Y-79575526D01*
X153287218Y-79565596D01*
X153084403Y-79362781D01*
X153074473Y-79351573D01*
X153057764Y-79330246D01*
X152897573Y-79125776D01*
X152889075Y-79113465D01*
X152740680Y-78867989D01*
X152733727Y-78854743D01*
X152616000Y-78593163D01*
X152610693Y-78579167D01*
X152567027Y-78439039D01*
X152525363Y-78305335D01*
X152521780Y-78290798D01*
X152470076Y-78008659D01*
X152468271Y-77993794D01*
X152459576Y-77850054D01*
X152450726Y-77703736D01*
X152450500Y-77696249D01*
X152450500Y-76531491D01*
X152949500Y-76531491D01*
X152949500Y-76868508D01*
X152987231Y-77203381D01*
X152987233Y-77203397D01*
X153062223Y-77531953D01*
X153062227Y-77531965D01*
X153173532Y-77850054D01*
X153319752Y-78153683D01*
X153319754Y-78153686D01*
X153499054Y-78439039D01*
X153709175Y-78702523D01*
X153947477Y-78940825D01*
X154210961Y-79150946D01*
X154496314Y-79330246D01*
X154799949Y-79476469D01*
X155038848Y-79560063D01*
X155118034Y-79587772D01*
X155118046Y-79587776D01*
X155446606Y-79662767D01*
X155781492Y-79700499D01*
X155781493Y-79700500D01*
X155781496Y-79700500D01*
X156118507Y-79700500D01*
X156118507Y-79700499D01*
X156453394Y-79662767D01*
X156781954Y-79587776D01*
X157100051Y-79476469D01*
X157403686Y-79330246D01*
X157689039Y-79150946D01*
X157952523Y-78940825D01*
X158190825Y-78702523D01*
X158400946Y-78439039D01*
X158580246Y-78153686D01*
X158726469Y-77850051D01*
X158837776Y-77531954D01*
X158912767Y-77203394D01*
X158950500Y-76868504D01*
X158950500Y-76531496D01*
X158950499Y-76531491D01*
X188749500Y-76531491D01*
X188749500Y-76868508D01*
X188787231Y-77203381D01*
X188787233Y-77203397D01*
X188862223Y-77531953D01*
X188862227Y-77531965D01*
X188973532Y-77850054D01*
X189119752Y-78153683D01*
X189119754Y-78153686D01*
X189299054Y-78439039D01*
X189509175Y-78702523D01*
X189747477Y-78940825D01*
X190010961Y-79150946D01*
X190296314Y-79330246D01*
X190599949Y-79476469D01*
X190838848Y-79560063D01*
X190918034Y-79587772D01*
X190918046Y-79587776D01*
X191246606Y-79662767D01*
X191581492Y-79700499D01*
X191581493Y-79700500D01*
X191581496Y-79700500D01*
X191918507Y-79700500D01*
X191918507Y-79700499D01*
X192253394Y-79662767D01*
X192581954Y-79587776D01*
X192900051Y-79476469D01*
X193203686Y-79330246D01*
X193489039Y-79150946D01*
X193752523Y-78940825D01*
X193990825Y-78702523D01*
X194200946Y-78439039D01*
X194380246Y-78153686D01*
X194526469Y-77850051D01*
X194637776Y-77531954D01*
X194712767Y-77203394D01*
X194750500Y-76868504D01*
X194750500Y-76531496D01*
X194712767Y-76196606D01*
X194637776Y-75868046D01*
X194526469Y-75549949D01*
X194411496Y-75311206D01*
X194380247Y-75246316D01*
X194372067Y-75233298D01*
X194200946Y-74960961D01*
X193990825Y-74697477D01*
X193752523Y-74459175D01*
X193736117Y-74446092D01*
X193673304Y-74396000D01*
X193489039Y-74249054D01*
X193203686Y-74069754D01*
X193203683Y-74069752D01*
X192900054Y-73923532D01*
X192581965Y-73812227D01*
X192581953Y-73812223D01*
X192253397Y-73737233D01*
X192253381Y-73737231D01*
X191918508Y-73699500D01*
X191918504Y-73699500D01*
X191581496Y-73699500D01*
X191581491Y-73699500D01*
X191246618Y-73737231D01*
X191246602Y-73737233D01*
X190918046Y-73812223D01*
X190918034Y-73812227D01*
X190599945Y-73923532D01*
X190296316Y-74069752D01*
X190010962Y-74249053D01*
X189747477Y-74459174D01*
X189509174Y-74697477D01*
X189299053Y-74960962D01*
X189119752Y-75246316D01*
X188973532Y-75549945D01*
X188862227Y-75868034D01*
X188862223Y-75868046D01*
X188787233Y-76196602D01*
X188787231Y-76196618D01*
X188749500Y-76531491D01*
X158950499Y-76531491D01*
X158912767Y-76196606D01*
X158837776Y-75868046D01*
X158778974Y-75700001D01*
X163654697Y-75700001D01*
X163665442Y-75781627D01*
X163665444Y-75781633D01*
X163725899Y-75927585D01*
X163822075Y-76052924D01*
X163947414Y-76149100D01*
X164093366Y-76209555D01*
X164093372Y-76209557D01*
X164149998Y-76217011D01*
X164150000Y-76217010D01*
X164550000Y-76217010D01*
X164550001Y-76217011D01*
X164606627Y-76209557D01*
X164606633Y-76209555D01*
X164752585Y-76149100D01*
X164877924Y-76052924D01*
X164974100Y-75927586D01*
X165034554Y-75781634D01*
X165034555Y-75781630D01*
X165045303Y-75700000D01*
X164550000Y-75700000D01*
X164550000Y-76217010D01*
X164150000Y-76217010D01*
X164150000Y-75700000D01*
X163654699Y-75700000D01*
X163654697Y-75700001D01*
X158778974Y-75700001D01*
X158758785Y-75642303D01*
X158726469Y-75549949D01*
X158611496Y-75311206D01*
X158580247Y-75246316D01*
X158572067Y-75233298D01*
X158400946Y-74960961D01*
X158190825Y-74697477D01*
X157952523Y-74459175D01*
X157936117Y-74446092D01*
X157873304Y-74396000D01*
X157689039Y-74249054D01*
X157403686Y-74069754D01*
X157403683Y-74069752D01*
X157100054Y-73923532D01*
X156781965Y-73812227D01*
X156781953Y-73812223D01*
X156453397Y-73737233D01*
X156453381Y-73737231D01*
X156118508Y-73699500D01*
X156118504Y-73699500D01*
X155781496Y-73699500D01*
X155781491Y-73699500D01*
X155446618Y-73737231D01*
X155446602Y-73737233D01*
X155118046Y-73812223D01*
X155118034Y-73812227D01*
X154799945Y-73923532D01*
X154496316Y-74069752D01*
X154210962Y-74249053D01*
X153947477Y-74459174D01*
X153709174Y-74697477D01*
X153499053Y-74960962D01*
X153319752Y-75246316D01*
X153173532Y-75549945D01*
X153062227Y-75868034D01*
X153062223Y-75868046D01*
X152987233Y-76196602D01*
X152987231Y-76196618D01*
X152949500Y-76531491D01*
X152450500Y-76531491D01*
X152450500Y-70422302D01*
X157394500Y-70422302D01*
X157394500Y-73058975D01*
X157395470Y-73090293D01*
X157396419Y-73105595D01*
X157399324Y-73136777D01*
X157399326Y-73136786D01*
X157437240Y-73275564D01*
X157437246Y-73275583D01*
X157465057Y-73339660D01*
X157465066Y-73339677D01*
X157540542Y-73462152D01*
X157540544Y-73462154D01*
X157540545Y-73462155D01*
X157647481Y-73558416D01*
X157705534Y-73597295D01*
X157835259Y-73659530D01*
X162980286Y-75276539D01*
X162980290Y-75276540D01*
X162980289Y-75276540D01*
X163016789Y-75285024D01*
X163055176Y-75293947D01*
X163092354Y-75299652D01*
X163169026Y-75305500D01*
X163169036Y-75305500D01*
X164044323Y-75305500D01*
X164044325Y-75305500D01*
X164072113Y-75302762D01*
X164094102Y-75300597D01*
X164106256Y-75300000D01*
X164593742Y-75300000D01*
X164605894Y-75300596D01*
X164655675Y-75305500D01*
X164655678Y-75305500D01*
X165566001Y-75305500D01*
X165633040Y-75325185D01*
X165678795Y-75377989D01*
X165690001Y-75429500D01*
X165690001Y-75504649D01*
X165692854Y-75540910D01*
X165737969Y-75696196D01*
X165820278Y-75835374D01*
X165820285Y-75835383D01*
X165934616Y-75949714D01*
X165934625Y-75949721D01*
X166073804Y-76032031D01*
X166229089Y-76077145D01*
X166250000Y-76078789D01*
X166250000Y-75424000D01*
X166269685Y-75356961D01*
X166322489Y-75311206D01*
X166374000Y-75300000D01*
X166626000Y-75300000D01*
X166693039Y-75319685D01*
X166738794Y-75372489D01*
X166750000Y-75424000D01*
X166750000Y-76078789D01*
X166770910Y-76077145D01*
X166926195Y-76032031D01*
X167065374Y-75949721D01*
X167065383Y-75949714D01*
X167179714Y-75835383D01*
X167179721Y-75835374D01*
X167262030Y-75696196D01*
X167307145Y-75540910D01*
X167307145Y-75540907D01*
X167309999Y-75504644D01*
X167310000Y-75504629D01*
X167310000Y-75429500D01*
X167329685Y-75362461D01*
X167382489Y-75316706D01*
X167434000Y-75305500D01*
X170925490Y-75305500D01*
X170925500Y-75305500D01*
X171032956Y-75293947D01*
X171084467Y-75282741D01*
X171118697Y-75271347D01*
X171186997Y-75248616D01*
X171187001Y-75248613D01*
X171187004Y-75248613D01*
X171308043Y-75170825D01*
X171360847Y-75125070D01*
X171455067Y-75016336D01*
X171514838Y-74885459D01*
X171534523Y-74818420D01*
X171534524Y-74818416D01*
X171555000Y-74676000D01*
X171555000Y-74665515D01*
X171549855Y-74593573D01*
X171544832Y-74558638D01*
X171529501Y-74488167D01*
X171526734Y-74482110D01*
X171526512Y-74480566D01*
X171525520Y-74479363D01*
X171521555Y-74446092D01*
X171516790Y-74412952D01*
X171517437Y-74411533D01*
X171517253Y-74409984D01*
X171520447Y-74396019D01*
X171547598Y-74302569D01*
X171550500Y-74265694D01*
X171550500Y-73811500D01*
X171553050Y-73802814D01*
X171551762Y-73793853D01*
X171562740Y-73769812D01*
X171570185Y-73744461D01*
X171577025Y-73738533D01*
X171580787Y-73730297D01*
X171603021Y-73716007D01*
X171622989Y-73698706D01*
X171633503Y-73696418D01*
X171639565Y-73692523D01*
X171674500Y-73687500D01*
X171725500Y-73687500D01*
X171792539Y-73707185D01*
X171838294Y-73759989D01*
X171849500Y-73811500D01*
X171849500Y-74265701D01*
X171852401Y-74302567D01*
X171852402Y-74302573D01*
X171880403Y-74398951D01*
X171880642Y-74429318D01*
X171883602Y-74454159D01*
X171880881Y-74459753D01*
X171880933Y-74466264D01*
X171862915Y-74532128D01*
X171845000Y-74665509D01*
X171845000Y-74676001D01*
X171850145Y-74747943D01*
X171855167Y-74782877D01*
X171862900Y-74818420D01*
X171870497Y-74853341D01*
X171882947Y-74880604D01*
X171901884Y-74937497D01*
X171926220Y-74975366D01*
X171929906Y-74983437D01*
X171929908Y-74983441D01*
X171930268Y-74984231D01*
X171930270Y-74984234D01*
X171964746Y-75037879D01*
X171964756Y-75037893D01*
X171968047Y-75043013D01*
X171968050Y-75043018D01*
X171971662Y-75047186D01*
X171974432Y-75050914D01*
X171974815Y-75051953D01*
X171979219Y-75057836D01*
X171979667Y-75058534D01*
X171979672Y-75058541D01*
X171985882Y-75065707D01*
X171985884Y-75065710D01*
X171993822Y-75074872D01*
X171996185Y-75077599D01*
X171996190Y-75077604D01*
X172025430Y-75111349D01*
X172025433Y-75111351D01*
X172025436Y-75111355D01*
X172026078Y-75111911D01*
X172038591Y-75124423D01*
X172062275Y-75151753D01*
X172092682Y-75171293D01*
X172106839Y-75181890D01*
X172134163Y-75205566D01*
X172165422Y-75219841D01*
X172167057Y-75220588D01*
X172178892Y-75226784D01*
X172180751Y-75227888D01*
X172183316Y-75229537D01*
X172191552Y-75233298D01*
X172222822Y-75247578D01*
X172222822Y-75247579D01*
X172246691Y-75258479D01*
X172246881Y-75258567D01*
X172246894Y-75258572D01*
X172247698Y-75258808D01*
X172264306Y-75265002D01*
X172265040Y-75265337D01*
X172290391Y-75272781D01*
X172290391Y-75272780D01*
X172323369Y-75282463D01*
X172323369Y-75282464D01*
X172331213Y-75284767D01*
X172332039Y-75285017D01*
X172332080Y-75285023D01*
X172332084Y-75285024D01*
X172332948Y-75285148D01*
X172350235Y-75288907D01*
X172384946Y-75299097D01*
X172421077Y-75299094D01*
X172438716Y-75300355D01*
X172474500Y-75305500D01*
X172474503Y-75305500D01*
X174525990Y-75305500D01*
X174526000Y-75305500D01*
X174633456Y-75293947D01*
X174684967Y-75282741D01*
X174719197Y-75271347D01*
X174787497Y-75248616D01*
X174787501Y-75248613D01*
X174787504Y-75248613D01*
X174908543Y-75170825D01*
X174961347Y-75125070D01*
X175055567Y-75016336D01*
X175115338Y-74885459D01*
X175135023Y-74818420D01*
X175135024Y-74818416D01*
X175155500Y-74676000D01*
X175155500Y-68724500D01*
X175143947Y-68617044D01*
X175132741Y-68565533D01*
X175132637Y-68565222D01*
X175098616Y-68463002D01*
X175098613Y-68462996D01*
X175032302Y-68359815D01*
X175020825Y-68341957D01*
X175020820Y-68341951D01*
X174975076Y-68289159D01*
X174975072Y-68289156D01*
X174975070Y-68289153D01*
X174866336Y-68194933D01*
X174866333Y-68194931D01*
X174866331Y-68194930D01*
X174735465Y-68135164D01*
X174735460Y-68135162D01*
X174735459Y-68135162D01*
X174668420Y-68115477D01*
X174668422Y-68115477D01*
X174668417Y-68115476D01*
X174620944Y-68108650D01*
X174526000Y-68095000D01*
X174219596Y-68095000D01*
X174219594Y-68095000D01*
X174165545Y-68097897D01*
X174165544Y-68097897D01*
X174139211Y-68100729D01*
X174139184Y-68100732D01*
X174085788Y-68109385D01*
X174085786Y-68109385D01*
X173950981Y-68159666D01*
X173904891Y-68184833D01*
X173890448Y-68188518D01*
X173880400Y-68194977D01*
X173845465Y-68200000D01*
X173724000Y-68200000D01*
X173656961Y-68180315D01*
X173611206Y-68127511D01*
X173600000Y-68076000D01*
X173600000Y-67824000D01*
X173619685Y-67756961D01*
X173672489Y-67711206D01*
X173724000Y-67700000D01*
X173841189Y-67700000D01*
X173892701Y-67711206D01*
X173992889Y-67756961D01*
X174010137Y-67764838D01*
X174077176Y-67784523D01*
X174077180Y-67784524D01*
X174219596Y-67805000D01*
X174219599Y-67805000D01*
X174525990Y-67805000D01*
X174526000Y-67805000D01*
X174633456Y-67793447D01*
X174684967Y-67782241D01*
X174719197Y-67770847D01*
X174787497Y-67748116D01*
X174787501Y-67748113D01*
X174787504Y-67748113D01*
X174908543Y-67670325D01*
X174961347Y-67624570D01*
X175055567Y-67515836D01*
X175115338Y-67384959D01*
X175135023Y-67317920D01*
X175135024Y-67317916D01*
X175155500Y-67175500D01*
X175155500Y-66574000D01*
X175143947Y-66466544D01*
X175132741Y-66415033D01*
X175132637Y-66414722D01*
X175098616Y-66312502D01*
X175098613Y-66312496D01*
X175030802Y-66206982D01*
X175020825Y-66191457D01*
X175003573Y-66171547D01*
X174975076Y-66138659D01*
X174975072Y-66138656D01*
X174975070Y-66138653D01*
X174866336Y-66044433D01*
X174866333Y-66044431D01*
X174866331Y-66044430D01*
X174735465Y-65984664D01*
X174735460Y-65984662D01*
X174735459Y-65984662D01*
X174680258Y-65968453D01*
X174668417Y-65964976D01*
X174620944Y-65958150D01*
X174526000Y-65944500D01*
X170685418Y-65944500D01*
X170685417Y-65944500D01*
X170650128Y-65945760D01*
X170650124Y-65945760D01*
X170649375Y-65945787D01*
X170643333Y-65946218D01*
X170641134Y-65946060D01*
X170638955Y-65946531D01*
X170631669Y-65947053D01*
X170631627Y-65947057D01*
X170631620Y-65947058D01*
X170595846Y-65950905D01*
X170536075Y-65968453D01*
X170536074Y-65968452D01*
X170531737Y-65969725D01*
X170500507Y-65976482D01*
X170499455Y-65976873D01*
X170500235Y-65978974D01*
X170465420Y-65989196D01*
X170465411Y-65989200D01*
X170457794Y-65991436D01*
X170457791Y-65991437D01*
X170450433Y-65994798D01*
X170442225Y-65998196D01*
X170434653Y-66001017D01*
X170434651Y-66001018D01*
X170427466Y-66004937D01*
X170419629Y-66008859D01*
X170394141Y-66020504D01*
X170371060Y-66035339D01*
X170363395Y-66039885D01*
X170308432Y-66069865D01*
X170301744Y-66076545D01*
X170281171Y-66093116D01*
X170273200Y-66098239D01*
X170273199Y-66098241D01*
X170232144Y-66145615D01*
X170232143Y-66145614D01*
X170229208Y-66149000D01*
X170206638Y-66171547D01*
X170203886Y-66175219D01*
X170205464Y-66176401D01*
X170184347Y-66200771D01*
X170184341Y-66200779D01*
X170178975Y-66206972D01*
X170178967Y-66206982D01*
X170174586Y-66213798D01*
X170172181Y-66217538D01*
X170164682Y-66227551D01*
X170158643Y-66238597D01*
X170156275Y-66242282D01*
X170156270Y-66242291D01*
X170141139Y-66265844D01*
X170129752Y-66290782D01*
X170125763Y-66298747D01*
X170095722Y-66353706D01*
X170095722Y-66353707D01*
X170093707Y-66362944D01*
X170093235Y-66365025D01*
X170090427Y-66376906D01*
X170081422Y-66396632D01*
X170074662Y-66443635D01*
X170073392Y-66449012D01*
X170058730Y-66474761D01*
X170046424Y-66501706D01*
X170041636Y-66504782D01*
X170038820Y-66509729D01*
X170012564Y-66523463D01*
X169987644Y-66539478D01*
X169979795Y-66540606D01*
X169976910Y-66542116D01*
X169972215Y-66541696D01*
X169952714Y-66544500D01*
X168109266Y-66544500D01*
X168042227Y-66524815D01*
X167996472Y-66472011D01*
X167990694Y-66454634D01*
X167990150Y-66454794D01*
X167963180Y-66362944D01*
X167948367Y-66312496D01*
X167870579Y-66191457D01*
X167853327Y-66171547D01*
X167824830Y-66138659D01*
X167824826Y-66138656D01*
X167824824Y-66138653D01*
X167716090Y-66044433D01*
X167716087Y-66044431D01*
X167716085Y-66044430D01*
X167585219Y-65984664D01*
X167585214Y-65984662D01*
X167585213Y-65984662D01*
X167530012Y-65968453D01*
X167518171Y-65964976D01*
X167470698Y-65958150D01*
X167375754Y-65944500D01*
X167375752Y-65944500D01*
X167154096Y-65944500D01*
X167087057Y-65924815D01*
X167041302Y-65872011D01*
X167031358Y-65802853D01*
X167060383Y-65739297D01*
X167066415Y-65732819D01*
X168582995Y-64216239D01*
X173508506Y-59290726D01*
X173508511Y-59290723D01*
X173518714Y-59280519D01*
X173518716Y-59280519D01*
X173630520Y-59168715D01*
X173709577Y-59031783D01*
X173725276Y-58973187D01*
X173733296Y-58959299D01*
X173736225Y-58945843D01*
X173757379Y-58917591D01*
X173762328Y-58912643D01*
X173823654Y-58879164D01*
X173893345Y-58884156D01*
X173937681Y-58912652D01*
X173942627Y-58917598D01*
X173946143Y-58923688D01*
X173949275Y-58926033D01*
X173952516Y-58934727D01*
X173974720Y-58973184D01*
X173990422Y-59031782D01*
X173990423Y-59031785D01*
X174001969Y-59051782D01*
X174001970Y-59051784D01*
X174069477Y-59168711D01*
X174069481Y-59168716D01*
X174188349Y-59287584D01*
X174188355Y-59287589D01*
X184245140Y-69344374D01*
X184245150Y-69344385D01*
X184249480Y-69348715D01*
X184249481Y-69348716D01*
X184361285Y-69460520D01*
X184361287Y-69460521D01*
X184361291Y-69460524D01*
X184498210Y-69539573D01*
X184498217Y-69539577D01*
X184610020Y-69569534D01*
X184650943Y-69580500D01*
X184650944Y-69580500D01*
X186614281Y-69580500D01*
X186681320Y-69600185D01*
X186724765Y-69648205D01*
X186744947Y-69687814D01*
X186744948Y-69687815D01*
X186869890Y-69859786D01*
X187020213Y-70010109D01*
X187192179Y-70135048D01*
X187192181Y-70135049D01*
X187192184Y-70135051D01*
X187201493Y-70139794D01*
X187252290Y-70187766D01*
X187269087Y-70255587D01*
X187246552Y-70321722D01*
X187201505Y-70360760D01*
X187192446Y-70365376D01*
X187192440Y-70365380D01*
X187138282Y-70404727D01*
X187138282Y-70404728D01*
X187770591Y-71037037D01*
X187707007Y-71054075D01*
X187592993Y-71119901D01*
X187499901Y-71212993D01*
X187434075Y-71327007D01*
X187417037Y-71390591D01*
X186784728Y-70758282D01*
X186784727Y-70758282D01*
X186745380Y-70812439D01*
X186648904Y-71001782D01*
X186583242Y-71203869D01*
X186583242Y-71203872D01*
X186550000Y-71413753D01*
X186550000Y-71626246D01*
X186583242Y-71836127D01*
X186583242Y-71836130D01*
X186648904Y-72038217D01*
X186745375Y-72227550D01*
X186784728Y-72281716D01*
X187417037Y-71649408D01*
X187434075Y-71712993D01*
X187499901Y-71827007D01*
X187592993Y-71920099D01*
X187707007Y-71985925D01*
X187770590Y-72002962D01*
X187138282Y-72635269D01*
X187138282Y-72635270D01*
X187192449Y-72674624D01*
X187381782Y-72771095D01*
X187583870Y-72836757D01*
X187793754Y-72870000D01*
X188006246Y-72870000D01*
X188216127Y-72836757D01*
X188216130Y-72836757D01*
X188418217Y-72771095D01*
X188607554Y-72674622D01*
X188661716Y-72635270D01*
X188661717Y-72635270D01*
X188029408Y-72002962D01*
X188092993Y-71985925D01*
X188207007Y-71920099D01*
X188300099Y-71827007D01*
X188365925Y-71712993D01*
X188382962Y-71649409D01*
X189015270Y-72281717D01*
X189015270Y-72281716D01*
X189054622Y-72227554D01*
X189151095Y-72038217D01*
X189216757Y-71836130D01*
X189216757Y-71836127D01*
X189250000Y-71626246D01*
X189250000Y-71413753D01*
X189216757Y-71203872D01*
X189216757Y-71203869D01*
X189151095Y-71001782D01*
X189054624Y-70812449D01*
X189015270Y-70758282D01*
X189015269Y-70758282D01*
X188382962Y-71390590D01*
X188365925Y-71327007D01*
X188300099Y-71212993D01*
X188207007Y-71119901D01*
X188092993Y-71054075D01*
X188029409Y-71037037D01*
X188661716Y-70404728D01*
X188607547Y-70365373D01*
X188607547Y-70365372D01*
X188598500Y-70360763D01*
X188547706Y-70312788D01*
X188530912Y-70244966D01*
X188553451Y-70178832D01*
X188598508Y-70139793D01*
X188607816Y-70135051D01*
X188687007Y-70077515D01*
X188779786Y-70010109D01*
X188779788Y-70010106D01*
X188779792Y-70010104D01*
X188930104Y-69859792D01*
X188930106Y-69859788D01*
X188930109Y-69859786D01*
X189055048Y-69687820D01*
X189055047Y-69687820D01*
X189055051Y-69687816D01*
X189151557Y-69498412D01*
X189217246Y-69296243D01*
X189250500Y-69086287D01*
X189250500Y-68873713D01*
X189217246Y-68663757D01*
X189151557Y-68461588D01*
X189055051Y-68272184D01*
X189055049Y-68272181D01*
X189055048Y-68272179D01*
X188930109Y-68100213D01*
X188779786Y-67949890D01*
X188607820Y-67824951D01*
X188605953Y-67824000D01*
X188599054Y-67820485D01*
X188548259Y-67772512D01*
X188531463Y-67704692D01*
X188553999Y-67638556D01*
X188599054Y-67599515D01*
X188607816Y-67595051D01*
X188716847Y-67515836D01*
X188779786Y-67470109D01*
X188779788Y-67470106D01*
X188779792Y-67470104D01*
X188930104Y-67319792D01*
X188930106Y-67319788D01*
X188930109Y-67319786D01*
X189055048Y-67147820D01*
X189055047Y-67147820D01*
X189055051Y-67147816D01*
X189151557Y-66958412D01*
X189217246Y-66756243D01*
X189250500Y-66546287D01*
X189250500Y-66333713D01*
X189217246Y-66123757D01*
X189151557Y-65921588D01*
X189055051Y-65732184D01*
X189055049Y-65732181D01*
X189055048Y-65732179D01*
X188930109Y-65560213D01*
X188779786Y-65409890D01*
X188607820Y-65284951D01*
X188607115Y-65284591D01*
X188599054Y-65280485D01*
X188548259Y-65232512D01*
X188531463Y-65164692D01*
X188553999Y-65098556D01*
X188599054Y-65059515D01*
X188607816Y-65055051D01*
X188629789Y-65039086D01*
X188779786Y-64930109D01*
X188779788Y-64930106D01*
X188779792Y-64930104D01*
X188930104Y-64779792D01*
X188930106Y-64779788D01*
X188930109Y-64779786D01*
X189055048Y-64607820D01*
X189055047Y-64607820D01*
X189055051Y-64607816D01*
X189151557Y-64418412D01*
X189217246Y-64216243D01*
X189250500Y-64006287D01*
X189250500Y-63793713D01*
X189217246Y-63583757D01*
X189151557Y-63381588D01*
X189055051Y-63192184D01*
X189055049Y-63192181D01*
X189055048Y-63192179D01*
X188930109Y-63020213D01*
X188779786Y-62869890D01*
X188607820Y-62744951D01*
X188607115Y-62744591D01*
X188599054Y-62740485D01*
X188548259Y-62692512D01*
X188531463Y-62624692D01*
X188553999Y-62558556D01*
X188599054Y-62519515D01*
X188607816Y-62515051D01*
X188629789Y-62499086D01*
X188779786Y-62390109D01*
X188779788Y-62390106D01*
X188779792Y-62390104D01*
X188930104Y-62239792D01*
X188930106Y-62239788D01*
X188930109Y-62239786D01*
X189055048Y-62067820D01*
X189055047Y-62067820D01*
X189055051Y-62067816D01*
X189151557Y-61878412D01*
X189217246Y-61676243D01*
X189250500Y-61466287D01*
X189250500Y-61253713D01*
X189217246Y-61043757D01*
X189151557Y-60841588D01*
X189055051Y-60652184D01*
X189055049Y-60652181D01*
X189055048Y-60652179D01*
X188930109Y-60480213D01*
X188779786Y-60329890D01*
X188607820Y-60204951D01*
X188607115Y-60204591D01*
X188599054Y-60200485D01*
X188548259Y-60152512D01*
X188531463Y-60084692D01*
X188553999Y-60018556D01*
X188599054Y-59979515D01*
X188607816Y-59975051D01*
X188629789Y-59959086D01*
X188779786Y-59850109D01*
X188779788Y-59850106D01*
X188779792Y-59850104D01*
X188930104Y-59699792D01*
X188930106Y-59699788D01*
X188930109Y-59699786D01*
X189055048Y-59527820D01*
X189055047Y-59527820D01*
X189055051Y-59527816D01*
X189151557Y-59338412D01*
X189217246Y-59136243D01*
X189250500Y-58926287D01*
X189250500Y-58713713D01*
X189217246Y-58503757D01*
X189151557Y-58301588D01*
X189055051Y-58112184D01*
X189055049Y-58112181D01*
X189055048Y-58112179D01*
X188930109Y-57940213D01*
X188779786Y-57789890D01*
X188607820Y-57664951D01*
X188607115Y-57664591D01*
X188599054Y-57660485D01*
X188548259Y-57612512D01*
X188531463Y-57544692D01*
X188553999Y-57478556D01*
X188599054Y-57439515D01*
X188607816Y-57435051D01*
X188685182Y-57378842D01*
X188779786Y-57310109D01*
X188779788Y-57310106D01*
X188779792Y-57310104D01*
X188930104Y-57159792D01*
X188930106Y-57159788D01*
X188930109Y-57159786D01*
X189055048Y-56987820D01*
X189055047Y-56987820D01*
X189055051Y-56987816D01*
X189151557Y-56798412D01*
X189217246Y-56596243D01*
X189250500Y-56386287D01*
X189250500Y-56173713D01*
X189217246Y-55963757D01*
X189151557Y-55761588D01*
X189055051Y-55572184D01*
X189055049Y-55572181D01*
X189055048Y-55572179D01*
X188930109Y-55400213D01*
X188779786Y-55249890D01*
X188607820Y-55124951D01*
X188607115Y-55124591D01*
X188599054Y-55120485D01*
X188548259Y-55072512D01*
X188531463Y-55004692D01*
X188553999Y-54938556D01*
X188599054Y-54899515D01*
X188607816Y-54895051D01*
X188673383Y-54847414D01*
X188779786Y-54770109D01*
X188779788Y-54770106D01*
X188779792Y-54770104D01*
X188930104Y-54619792D01*
X188930106Y-54619788D01*
X188930109Y-54619786D01*
X189055048Y-54447820D01*
X189055047Y-54447820D01*
X189055051Y-54447816D01*
X189151557Y-54258412D01*
X189217246Y-54056243D01*
X189250500Y-53846287D01*
X189250500Y-53633713D01*
X189217246Y-53423757D01*
X189151557Y-53221588D01*
X189055051Y-53032184D01*
X189055049Y-53032181D01*
X189055048Y-53032179D01*
X188930109Y-52860213D01*
X188816569Y-52746673D01*
X188783084Y-52685350D01*
X188788068Y-52615658D01*
X188829940Y-52559725D01*
X188860915Y-52542810D01*
X188992331Y-52493796D01*
X189107546Y-52407546D01*
X189193796Y-52292331D01*
X189244091Y-52157483D01*
X189250500Y-52097873D01*
X189250499Y-50302128D01*
X189244091Y-50242517D01*
X189228419Y-50200499D01*
X189193797Y-50107671D01*
X189193793Y-50107664D01*
X189107547Y-49992455D01*
X189107544Y-49992452D01*
X188992335Y-49906206D01*
X188992328Y-49906202D01*
X188857482Y-49855908D01*
X188857483Y-49855908D01*
X188797883Y-49849501D01*
X188797881Y-49849500D01*
X188797873Y-49849500D01*
X188797865Y-49849500D01*
X187450097Y-49849500D01*
X187383058Y-49829815D01*
X187362416Y-49813181D01*
X185737590Y-48188355D01*
X185737588Y-48188352D01*
X185618717Y-48069481D01*
X185618716Y-48069480D01*
X185531904Y-48019360D01*
X185531904Y-48019359D01*
X185531900Y-48019358D01*
X185481785Y-47990423D01*
X185329057Y-47949499D01*
X185170943Y-47949499D01*
X185163347Y-47949499D01*
X185163331Y-47949500D01*
X181619536Y-47949500D01*
X181552497Y-47929815D01*
X181506742Y-47877011D01*
X181496798Y-47807853D01*
X181504975Y-47778048D01*
X181534554Y-47706634D01*
X181534555Y-47706630D01*
X181549999Y-47589330D01*
X181549999Y-47031491D01*
X188749500Y-47031491D01*
X188749500Y-47368508D01*
X188787231Y-47703381D01*
X188787233Y-47703397D01*
X188862223Y-48031953D01*
X188862227Y-48031965D01*
X188973532Y-48350054D01*
X189119752Y-48653683D01*
X189119754Y-48653686D01*
X189299054Y-48939039D01*
X189343573Y-48994864D01*
X189496651Y-49186819D01*
X189509175Y-49202523D01*
X189747477Y-49440825D01*
X190010961Y-49650946D01*
X190296314Y-49830246D01*
X190599949Y-49976469D01*
X190838848Y-50060063D01*
X190918034Y-50087772D01*
X190918046Y-50087776D01*
X191246606Y-50162767D01*
X191581492Y-50200499D01*
X191581493Y-50200500D01*
X191581496Y-50200500D01*
X191918507Y-50200500D01*
X191918507Y-50200499D01*
X192253394Y-50162767D01*
X192581954Y-50087776D01*
X192900051Y-49976469D01*
X193203686Y-49830246D01*
X193489039Y-49650946D01*
X193752523Y-49440825D01*
X193990825Y-49202523D01*
X194200946Y-48939039D01*
X194380246Y-48653686D01*
X194526469Y-48350051D01*
X194637776Y-48031954D01*
X194712767Y-47703394D01*
X194750500Y-47368504D01*
X194750500Y-47031496D01*
X194712767Y-46696606D01*
X194637776Y-46368046D01*
X194631636Y-46350500D01*
X194578974Y-46200000D01*
X194526469Y-46049949D01*
X194380246Y-45746314D01*
X194200946Y-45460961D01*
X193990825Y-45197477D01*
X193752523Y-44959175D01*
X193705998Y-44922073D01*
X193685606Y-44905811D01*
X193489039Y-44749054D01*
X193203686Y-44569754D01*
X193203683Y-44569752D01*
X192900054Y-44423532D01*
X192581965Y-44312227D01*
X192581953Y-44312223D01*
X192253397Y-44237233D01*
X192253381Y-44237231D01*
X191918508Y-44199500D01*
X191918504Y-44199500D01*
X191581496Y-44199500D01*
X191581491Y-44199500D01*
X191246618Y-44237231D01*
X191246602Y-44237233D01*
X190918046Y-44312223D01*
X190918034Y-44312227D01*
X190599945Y-44423532D01*
X190296316Y-44569752D01*
X190010962Y-44749053D01*
X189747477Y-44959174D01*
X189509174Y-45197477D01*
X189299053Y-45460962D01*
X189119752Y-45746316D01*
X188973532Y-46049945D01*
X188862227Y-46368034D01*
X188862223Y-46368046D01*
X188787233Y-46696602D01*
X188787231Y-46696618D01*
X188749500Y-47031491D01*
X181549999Y-47031491D01*
X181549999Y-46710675D01*
X181534557Y-46593377D01*
X181534555Y-46593368D01*
X181494826Y-46497453D01*
X181487357Y-46427983D01*
X181494826Y-46402547D01*
X181534555Y-46306631D01*
X181534555Y-46306630D01*
X181549999Y-46189330D01*
X181549999Y-45310675D01*
X181534557Y-45193371D01*
X181534555Y-45193366D01*
X181474100Y-45047412D01*
X181474098Y-45047410D01*
X181377926Y-44922076D01*
X181295059Y-44858490D01*
X180314456Y-45839094D01*
X180253133Y-45872579D01*
X180183441Y-45867595D01*
X180139094Y-45839094D01*
X180050000Y-45750000D01*
X179960905Y-45839095D01*
X179899582Y-45872580D01*
X179829890Y-45867596D01*
X179785543Y-45839095D01*
X178804938Y-44858490D01*
X178722077Y-44922073D01*
X178625899Y-45047413D01*
X178565445Y-45193365D01*
X178565444Y-45193369D01*
X178550000Y-45310669D01*
X178550000Y-46189324D01*
X178565442Y-46306628D01*
X178565444Y-46306633D01*
X178605173Y-46402548D01*
X178612642Y-46472017D01*
X178605174Y-46497451D01*
X178565443Y-46593370D01*
X178550000Y-46710669D01*
X178550000Y-47589324D01*
X178565442Y-47706628D01*
X178565444Y-47706633D01*
X178625899Y-47852585D01*
X178722077Y-47977926D01*
X178800987Y-48038477D01*
X178842189Y-48094905D01*
X178849500Y-48136852D01*
X178849500Y-48963147D01*
X178829815Y-49030186D01*
X178800988Y-49061522D01*
X178722076Y-49122074D01*
X178625899Y-49247413D01*
X178565445Y-49393365D01*
X178565444Y-49393369D01*
X178550000Y-49510669D01*
X178550000Y-50389324D01*
X178565442Y-50506628D01*
X178565444Y-50506633D01*
X178625899Y-50652585D01*
X178722077Y-50777926D01*
X178800987Y-50838477D01*
X178842189Y-50894905D01*
X178849500Y-50936852D01*
X178849500Y-51794856D01*
X178849502Y-51794882D01*
X178852413Y-51819987D01*
X178852415Y-51819991D01*
X178897793Y-51922764D01*
X178937348Y-51962319D01*
X178970833Y-52023642D01*
X178965849Y-52093334D01*
X178937348Y-52137681D01*
X178897794Y-52177234D01*
X178852415Y-52280006D01*
X178852415Y-52280008D01*
X178849500Y-52305131D01*
X178849500Y-53194856D01*
X178849502Y-53194882D01*
X178852413Y-53219987D01*
X178852415Y-53219991D01*
X178897793Y-53322764D01*
X178937348Y-53362319D01*
X178970833Y-53423642D01*
X178965849Y-53493334D01*
X178937348Y-53537681D01*
X178897794Y-53577234D01*
X178852415Y-53680006D01*
X178852415Y-53680008D01*
X178849500Y-53705131D01*
X178849500Y-54594856D01*
X178849502Y-54594882D01*
X178852413Y-54619987D01*
X178852415Y-54619991D01*
X178897793Y-54722764D01*
X178937348Y-54762319D01*
X178970833Y-54823642D01*
X178965849Y-54893334D01*
X178937348Y-54937681D01*
X178897794Y-54977234D01*
X178852415Y-55080006D01*
X178852415Y-55080008D01*
X178849500Y-55105131D01*
X178849500Y-55994856D01*
X178849502Y-55994882D01*
X178852413Y-56019986D01*
X178852414Y-56019990D01*
X178852415Y-56019991D01*
X178897794Y-56122765D01*
X178897795Y-56122766D01*
X178899185Y-56125914D01*
X178908256Y-56195192D01*
X178878432Y-56258377D01*
X178819183Y-56295408D01*
X178785750Y-56300000D01*
X178310675Y-56300000D01*
X178193371Y-56315442D01*
X178193366Y-56315444D01*
X178047414Y-56375899D01*
X177922073Y-56472077D01*
X177861523Y-56550987D01*
X177805095Y-56592189D01*
X177763148Y-56599500D01*
X176905143Y-56599500D01*
X176905117Y-56599502D01*
X176880012Y-56602413D01*
X176880008Y-56602415D01*
X176777235Y-56647793D01*
X176777234Y-56647794D01*
X176737681Y-56687348D01*
X176676358Y-56720833D01*
X176606666Y-56715849D01*
X176562319Y-56687348D01*
X176522765Y-56647794D01*
X176419992Y-56602415D01*
X176394865Y-56599500D01*
X175505143Y-56599500D01*
X175505117Y-56599502D01*
X175480012Y-56602413D01*
X175480008Y-56602415D01*
X175377235Y-56647793D01*
X175377234Y-56647794D01*
X175337681Y-56687348D01*
X175276358Y-56720833D01*
X175206666Y-56715849D01*
X175162319Y-56687348D01*
X175122765Y-56647794D01*
X175019992Y-56602415D01*
X174994865Y-56599500D01*
X174105143Y-56599500D01*
X174105117Y-56599502D01*
X174080012Y-56602413D01*
X174080008Y-56602415D01*
X173977235Y-56647793D01*
X173977234Y-56647794D01*
X173937681Y-56687348D01*
X173876358Y-56720833D01*
X173806666Y-56715849D01*
X173762319Y-56687348D01*
X173722765Y-56647794D01*
X173619992Y-56602415D01*
X173594865Y-56599500D01*
X172705143Y-56599500D01*
X172705117Y-56599502D01*
X172680012Y-56602413D01*
X172680008Y-56602415D01*
X172577235Y-56647793D01*
X172577234Y-56647794D01*
X172537681Y-56687348D01*
X172476358Y-56720833D01*
X172406666Y-56715849D01*
X172362319Y-56687348D01*
X172322765Y-56647794D01*
X172219992Y-56602415D01*
X172194865Y-56599500D01*
X171305143Y-56599500D01*
X171305117Y-56599502D01*
X171280012Y-56602413D01*
X171280008Y-56602415D01*
X171177235Y-56647793D01*
X171177234Y-56647794D01*
X171137681Y-56687348D01*
X171076358Y-56720833D01*
X171006666Y-56715849D01*
X170962319Y-56687348D01*
X170922765Y-56647794D01*
X170819992Y-56602415D01*
X170794865Y-56599500D01*
X169905143Y-56599500D01*
X169905117Y-56599502D01*
X169880012Y-56602413D01*
X169880008Y-56602415D01*
X169777235Y-56647793D01*
X169777234Y-56647794D01*
X169737681Y-56687348D01*
X169676358Y-56720833D01*
X169606666Y-56715849D01*
X169562319Y-56687348D01*
X169522765Y-56647794D01*
X169419992Y-56602415D01*
X169394868Y-56599500D01*
X169054454Y-56599500D01*
X168987415Y-56579815D01*
X168941660Y-56527011D01*
X168931716Y-56457853D01*
X168960741Y-56394297D01*
X168974772Y-56381077D01*
X168977920Y-56377929D01*
X169074100Y-56252586D01*
X169134554Y-56106634D01*
X169134555Y-56106630D01*
X169149999Y-55989330D01*
X169149999Y-55110675D01*
X169134557Y-54993371D01*
X169134555Y-54993366D01*
X169074100Y-54847414D01*
X168977923Y-54722073D01*
X168899013Y-54661524D01*
X168857810Y-54605096D01*
X168850499Y-54563153D01*
X168850499Y-53705136D01*
X168849039Y-53692546D01*
X168847586Y-53680012D01*
X168847585Y-53680010D01*
X168847585Y-53680009D01*
X168802206Y-53577235D01*
X168762652Y-53537681D01*
X168729167Y-53476358D01*
X168734151Y-53406666D01*
X168762652Y-53362319D01*
X168774471Y-53350500D01*
X168802206Y-53322765D01*
X168847585Y-53219991D01*
X168850500Y-53194865D01*
X168850499Y-52305136D01*
X168850497Y-52305117D01*
X168847586Y-52280012D01*
X168847585Y-52280010D01*
X168847585Y-52280009D01*
X168802206Y-52177235D01*
X168762652Y-52137681D01*
X168729167Y-52076358D01*
X168734151Y-52006666D01*
X168762652Y-51962319D01*
X168774471Y-51950500D01*
X168802206Y-51922765D01*
X168847585Y-51819991D01*
X168850500Y-51794865D01*
X168850499Y-50905136D01*
X168849313Y-50894905D01*
X168847586Y-50880012D01*
X168847585Y-50880010D01*
X168847585Y-50880009D01*
X168802206Y-50777235D01*
X168762652Y-50737681D01*
X168729167Y-50676358D01*
X168734151Y-50606666D01*
X168762652Y-50562319D01*
X168802206Y-50522765D01*
X168847585Y-50419991D01*
X168850500Y-50394865D01*
X168850499Y-49505136D01*
X168850497Y-49505117D01*
X168847586Y-49480012D01*
X168847585Y-49480010D01*
X168847585Y-49480009D01*
X168802206Y-49377235D01*
X168762652Y-49337681D01*
X168729167Y-49276358D01*
X168734151Y-49206666D01*
X168762652Y-49162319D01*
X168774471Y-49150500D01*
X168802206Y-49122765D01*
X168847585Y-49019991D01*
X168850500Y-48994865D01*
X168850499Y-48105136D01*
X168849313Y-48094905D01*
X168847586Y-48080012D01*
X168847585Y-48080010D01*
X168847585Y-48080009D01*
X168802206Y-47977235D01*
X168762652Y-47937681D01*
X168729167Y-47876358D01*
X168734151Y-47806666D01*
X168762652Y-47762319D01*
X168802206Y-47722765D01*
X168847585Y-47619991D01*
X168850500Y-47594865D01*
X168850499Y-46705136D01*
X168850497Y-46705117D01*
X168847586Y-46680012D01*
X168847585Y-46680010D01*
X168847585Y-46680009D01*
X168802206Y-46577235D01*
X168762652Y-46537681D01*
X168729167Y-46476358D01*
X168734151Y-46406666D01*
X168762652Y-46362319D01*
X168774471Y-46350500D01*
X168802206Y-46322765D01*
X168847585Y-46219991D01*
X168850500Y-46194865D01*
X168850499Y-45305136D01*
X168850497Y-45305117D01*
X168847586Y-45280012D01*
X168847585Y-45280010D01*
X168847585Y-45280009D01*
X168802206Y-45177235D01*
X168722765Y-45097794D01*
X168722763Y-45097793D01*
X168619992Y-45052415D01*
X168594865Y-45049500D01*
X166705143Y-45049500D01*
X166705117Y-45049502D01*
X166680012Y-45052413D01*
X166680008Y-45052415D01*
X166577235Y-45097793D01*
X166577234Y-45097794D01*
X166561848Y-45113181D01*
X166500525Y-45146666D01*
X166474167Y-45149500D01*
X165436669Y-45149500D01*
X165436653Y-45149499D01*
X165429057Y-45149499D01*
X165270943Y-45149499D01*
X165163587Y-45178265D01*
X165118210Y-45190424D01*
X165118209Y-45190425D01*
X165068096Y-45219359D01*
X165068095Y-45219360D01*
X165024689Y-45244420D01*
X164981285Y-45269479D01*
X164981282Y-45269481D01*
X164869478Y-45381286D01*
X160437582Y-49813181D01*
X160376259Y-49846666D01*
X160349901Y-49849500D01*
X159002129Y-49849500D01*
X159002123Y-49849501D01*
X158942516Y-49855908D01*
X158807671Y-49906202D01*
X158807664Y-49906206D01*
X158692455Y-49992452D01*
X158692452Y-49992455D01*
X158606206Y-50107664D01*
X158606202Y-50107671D01*
X158555908Y-50242517D01*
X158549501Y-50302116D01*
X158549501Y-50302123D01*
X158549500Y-50302135D01*
X158549500Y-52097870D01*
X158549501Y-52097876D01*
X158555908Y-52157483D01*
X158606202Y-52292328D01*
X158606206Y-52292335D01*
X158692452Y-52407544D01*
X158692455Y-52407547D01*
X158807664Y-52493793D01*
X158807671Y-52493797D01*
X158939082Y-52542810D01*
X158995016Y-52584681D01*
X159019433Y-52650145D01*
X159004582Y-52718418D01*
X158983431Y-52746673D01*
X158869889Y-52860215D01*
X158744951Y-53032179D01*
X158648444Y-53221585D01*
X158582753Y-53423760D01*
X158549500Y-53633713D01*
X158549500Y-53846286D01*
X158576749Y-54018334D01*
X158582754Y-54056243D01*
X158610321Y-54141086D01*
X158648444Y-54258414D01*
X158744951Y-54447820D01*
X158869890Y-54619786D01*
X159020213Y-54770109D01*
X159192179Y-54895048D01*
X159192181Y-54895049D01*
X159192184Y-54895051D01*
X159200941Y-54899512D01*
X159251738Y-54947483D01*
X159268536Y-55015303D01*
X159246002Y-55081440D01*
X159200953Y-55120480D01*
X159192181Y-55124950D01*
X159020213Y-55249890D01*
X158869890Y-55400213D01*
X158744951Y-55572179D01*
X158648444Y-55761585D01*
X158582753Y-55963760D01*
X158549500Y-56173713D01*
X158549500Y-56386286D01*
X158575429Y-56549999D01*
X158582754Y-56596243D01*
X158613752Y-56691646D01*
X158648444Y-56798414D01*
X158744951Y-56987820D01*
X158869890Y-57159786D01*
X159020213Y-57310109D01*
X159192182Y-57435050D01*
X159200946Y-57439516D01*
X159251742Y-57487491D01*
X159268536Y-57555312D01*
X159245998Y-57621447D01*
X159200946Y-57660484D01*
X159192182Y-57664949D01*
X159020213Y-57789890D01*
X158869890Y-57940213D01*
X158744951Y-58112179D01*
X158648444Y-58301585D01*
X158582753Y-58503760D01*
X158549500Y-58713713D01*
X158549500Y-58926286D01*
X158581436Y-59127926D01*
X158582754Y-59136243D01*
X158636064Y-59300315D01*
X158648444Y-59338414D01*
X158744951Y-59527820D01*
X158869890Y-59699786D01*
X159020213Y-59850109D01*
X159192182Y-59975050D01*
X159200946Y-59979516D01*
X159251742Y-60027491D01*
X159268536Y-60095312D01*
X159245998Y-60161447D01*
X159200946Y-60200484D01*
X159192182Y-60204949D01*
X159020213Y-60329890D01*
X158869890Y-60480213D01*
X158744951Y-60652179D01*
X158648444Y-60841585D01*
X158582753Y-61043760D01*
X158549500Y-61253713D01*
X158549500Y-61466287D01*
X158582754Y-61676243D01*
X158596486Y-61718507D01*
X158648444Y-61878414D01*
X158744951Y-62067820D01*
X158869890Y-62239786D01*
X159020213Y-62390109D01*
X159192182Y-62515050D01*
X159200946Y-62519516D01*
X159251742Y-62567491D01*
X159268536Y-62635312D01*
X159245998Y-62701447D01*
X159200946Y-62740484D01*
X159192182Y-62744949D01*
X159020213Y-62869890D01*
X158869890Y-63020213D01*
X158744951Y-63192179D01*
X158648444Y-63381585D01*
X158582753Y-63583760D01*
X158549500Y-63793713D01*
X158549500Y-64006286D01*
X158582753Y-64216239D01*
X158648444Y-64418414D01*
X158744951Y-64607820D01*
X158869890Y-64779786D01*
X159020213Y-64930109D01*
X159192182Y-65055050D01*
X159200946Y-65059516D01*
X159251742Y-65107491D01*
X159268536Y-65175312D01*
X159245998Y-65241447D01*
X159200946Y-65280484D01*
X159192182Y-65284949D01*
X159020213Y-65409890D01*
X158869890Y-65560213D01*
X158744951Y-65732179D01*
X158648444Y-65921585D01*
X158648443Y-65921587D01*
X158648443Y-65921588D01*
X158640169Y-65947053D01*
X158582753Y-66123760D01*
X158549500Y-66333713D01*
X158549500Y-66546286D01*
X158582753Y-66756239D01*
X158648444Y-66958414D01*
X158744951Y-67147820D01*
X158869890Y-67319786D01*
X159020213Y-67470109D01*
X159192182Y-67595050D01*
X159200946Y-67599516D01*
X159251742Y-67647491D01*
X159268536Y-67715312D01*
X159245998Y-67781447D01*
X159200946Y-67820484D01*
X159192182Y-67824949D01*
X159020213Y-67949890D01*
X158869890Y-68100213D01*
X158744951Y-68272179D01*
X158648444Y-68461585D01*
X158582753Y-68663760D01*
X158549500Y-68873713D01*
X158549500Y-69086287D01*
X158582754Y-69296243D01*
X158636132Y-69460524D01*
X158648444Y-69498414D01*
X158702547Y-69604598D01*
X158715443Y-69673268D01*
X158689166Y-69738008D01*
X158632060Y-69778265D01*
X158593772Y-69784881D01*
X158015325Y-69792860D01*
X158015316Y-69792860D01*
X158015316Y-69792861D01*
X157999857Y-69794684D01*
X157911423Y-69805119D01*
X157911420Y-69805120D01*
X157861633Y-69816311D01*
X157861607Y-69816319D01*
X157762496Y-69849687D01*
X157641462Y-69927471D01*
X157641451Y-69927480D01*
X157588659Y-69973224D01*
X157494433Y-70081965D01*
X157494430Y-70081969D01*
X157434664Y-70212835D01*
X157414976Y-70279883D01*
X157394500Y-70422302D01*
X152450500Y-70422302D01*
X152450500Y-47031491D01*
X152949500Y-47031491D01*
X152949500Y-47368508D01*
X152987231Y-47703381D01*
X152987233Y-47703397D01*
X153062223Y-48031953D01*
X153062227Y-48031965D01*
X153173532Y-48350054D01*
X153319752Y-48653683D01*
X153319754Y-48653686D01*
X153499054Y-48939039D01*
X153543573Y-48994864D01*
X153696651Y-49186819D01*
X153709175Y-49202523D01*
X153947477Y-49440825D01*
X154210961Y-49650946D01*
X154496314Y-49830246D01*
X154799949Y-49976469D01*
X155038848Y-50060063D01*
X155118034Y-50087772D01*
X155118046Y-50087776D01*
X155446606Y-50162767D01*
X155781492Y-50200499D01*
X155781493Y-50200500D01*
X155781496Y-50200500D01*
X156118507Y-50200500D01*
X156118507Y-50200499D01*
X156453394Y-50162767D01*
X156781954Y-50087776D01*
X157100051Y-49976469D01*
X157403686Y-49830246D01*
X157689039Y-49650946D01*
X157952523Y-49440825D01*
X158190825Y-49202523D01*
X158400946Y-48939039D01*
X158580246Y-48653686D01*
X158726469Y-48350051D01*
X158837776Y-48031954D01*
X158912767Y-47703394D01*
X158950500Y-47368504D01*
X158950500Y-47031496D01*
X158912767Y-46696606D01*
X158837776Y-46368046D01*
X158831636Y-46350500D01*
X158778974Y-46200000D01*
X158726469Y-46049949D01*
X158580246Y-45746314D01*
X158400946Y-45460961D01*
X158190825Y-45197477D01*
X157952523Y-44959175D01*
X157905998Y-44922073D01*
X157885606Y-44905811D01*
X157690225Y-44750000D01*
X179403551Y-44750000D01*
X180050000Y-45396448D01*
X180050001Y-45396448D01*
X180696447Y-44750000D01*
X179403551Y-44750000D01*
X157690225Y-44750000D01*
X157689039Y-44749054D01*
X157403686Y-44569754D01*
X157403683Y-44569752D01*
X157100054Y-44423532D01*
X156781965Y-44312227D01*
X156781953Y-44312223D01*
X156453397Y-44237233D01*
X156453381Y-44237231D01*
X156118508Y-44199500D01*
X156118504Y-44199500D01*
X155781496Y-44199500D01*
X155781491Y-44199500D01*
X155446618Y-44237231D01*
X155446602Y-44237233D01*
X155118046Y-44312223D01*
X155118034Y-44312227D01*
X154799945Y-44423532D01*
X154496316Y-44569752D01*
X154210962Y-44749053D01*
X153947477Y-44959174D01*
X153709174Y-45197477D01*
X153499053Y-45460962D01*
X153319752Y-45746316D01*
X153173532Y-46049945D01*
X153062227Y-46368034D01*
X153062223Y-46368046D01*
X152987233Y-46696602D01*
X152987231Y-46696618D01*
X152949500Y-47031491D01*
X152450500Y-47031491D01*
X152450500Y-46203750D01*
X152450726Y-46196263D01*
X152459576Y-46049949D01*
X152468271Y-45906201D01*
X152470076Y-45891340D01*
X152474428Y-45867596D01*
X152521780Y-45609197D01*
X152525364Y-45594663D01*
X152567027Y-45460962D01*
X152610696Y-45320822D01*
X152615998Y-45306841D01*
X152733731Y-45045249D01*
X152740676Y-45032016D01*
X152889080Y-44786526D01*
X152897567Y-44774230D01*
X153074480Y-44548417D01*
X153084395Y-44537226D01*
X153287226Y-44334395D01*
X153298417Y-44324480D01*
X153524230Y-44147567D01*
X153536526Y-44139080D01*
X153782016Y-43990676D01*
X153795249Y-43983731D01*
X154056841Y-43865998D01*
X154070822Y-43860696D01*
X154344668Y-43775362D01*
X154359197Y-43771780D01*
X154641344Y-43720075D01*
X154656201Y-43718271D01*
X154946264Y-43700726D01*
X154953751Y-43700500D01*
X155015892Y-43700500D01*
X192684108Y-43700500D01*
X192746249Y-43700500D01*
X192753736Y-43700726D01*
G37*
G04 #@! TD.AperFunction*
M02*
