G04 #@! TF.GenerationSoftware,KiCad,Pcbnew,9.0.2+dfsg-1*
G04 #@! TF.CreationDate,2026-03-26T03:42:34-04:00*
G04 #@! TF.ProjectId,UWB_CarrierBoard,5557425f-4361-4727-9269-6572426f6172,rev?*
G04 #@! TF.SameCoordinates,Original*
G04 #@! TF.FileFunction,Legend,Bot*
G04 #@! TF.FilePolarity,Positive*
%FSLAX46Y46*%
G04 Gerber Fmt 4.6, Leading zero omitted, Abs format (unit mm)*
G04 Created by KiCad (PCBNEW 9.0.2+dfsg-1) date 2026-03-26 03:42:34*
%MOMM*%
%LPD*%
G01*
G04 APERTURE LIST*
%ADD10C,0.150000*%
%ADD11C,0.120000*%
G04 APERTURE END LIST*
D10*
X167449580Y-52753333D02*
X167497200Y-52705714D01*
X167497200Y-52705714D02*
X167544819Y-52562857D01*
X167544819Y-52562857D02*
X167544819Y-52467619D01*
X167544819Y-52467619D02*
X167497200Y-52324762D01*
X167497200Y-52324762D02*
X167401961Y-52229524D01*
X167401961Y-52229524D02*
X167306723Y-52181905D01*
X167306723Y-52181905D02*
X167116247Y-52134286D01*
X167116247Y-52134286D02*
X166973390Y-52134286D01*
X166973390Y-52134286D02*
X166782914Y-52181905D01*
X166782914Y-52181905D02*
X166687676Y-52229524D01*
X166687676Y-52229524D02*
X166592438Y-52324762D01*
X166592438Y-52324762D02*
X166544819Y-52467619D01*
X166544819Y-52467619D02*
X166544819Y-52562857D01*
X166544819Y-52562857D02*
X166592438Y-52705714D01*
X166592438Y-52705714D02*
X166640057Y-52753333D01*
X167544819Y-53705714D02*
X167544819Y-53134286D01*
X167544819Y-53420000D02*
X166544819Y-53420000D01*
X166544819Y-53420000D02*
X166687676Y-53324762D01*
X166687676Y-53324762D02*
X166782914Y-53229524D01*
X166782914Y-53229524D02*
X166830533Y-53134286D01*
D11*
X167890000Y-52812164D02*
X167890000Y-53027836D01*
X168610000Y-52812164D02*
X168610000Y-53027836D01*
M02*
