G04 #@! TF.GenerationSoftware,KiCad,Pcbnew,9.0.2*
G04 #@! TF.CreationDate,2026-03-21T00:01:54-04:00*
G04 #@! TF.ProjectId,UWB_CarrierBoard,5557425f-4361-4727-9269-6572426f6172,rev?*
G04 #@! TF.SameCoordinates,Original*
G04 #@! TF.FileFunction,Soldermask,Top*
G04 #@! TF.FilePolarity,Negative*
%FSLAX46Y46*%
G04 Gerber Fmt 4.6, Leading zero omitted, Abs format (unit mm)*
G04 Created by KiCad (PCBNEW 9.0.2) date 2026-03-21 00:01:54*
%MOMM*%
%LPD*%
G01*
G04 APERTURE LIST*
G04 Aperture macros list*
%AMRoundRect*
0 Rectangle with rounded corners*
0 $1 Rounding radius*
0 $2 $3 $4 $5 $6 $7 $8 $9 X,Y pos of 4 corners*
0 Add a 4 corners polygon primitive as box body*
4,1,4,$2,$3,$4,$5,$6,$7,$8,$9,$2,$3,0*
0 Add four circle primitives for the rounded corners*
1,1,$1+$1,$2,$3*
1,1,$1+$1,$4,$5*
1,1,$1+$1,$6,$7*
1,1,$1+$1,$8,$9*
0 Add four rect primitives between the rounded corners*
20,1,$1+$1,$2,$3,$4,$5,0*
20,1,$1+$1,$4,$5,$6,$7,0*
20,1,$1+$1,$6,$7,$8,$9,0*
20,1,$1+$1,$8,$9,$2,$3,0*%
G04 Aperture macros list end*
%ADD10RoundRect,0.100000X-0.100000X0.125000X-0.100000X-0.125000X0.100000X-0.125000X0.100000X0.125000X0*%
%ADD11R,1.700000X1.700000*%
%ADD12C,1.700000*%
%ADD13RoundRect,0.135000X-0.135000X-0.185000X0.135000X-0.185000X0.135000X0.185000X-0.135000X0.185000X0*%
%ADD14RoundRect,0.100000X-0.900000X-0.400000X0.900000X-0.400000X0.900000X0.400000X-0.900000X0.400000X0*%
%ADD15RoundRect,0.100000X0.400000X-0.900000X0.400000X0.900000X-0.400000X0.900000X-0.400000X-0.900000X0*%
%ADD16C,5.000000*%
%ADD17RoundRect,0.135000X-0.185000X0.135000X-0.185000X-0.135000X0.185000X-0.135000X0.185000X0.135000X0*%
%ADD18RoundRect,0.140000X-0.170000X0.140000X-0.170000X-0.140000X0.170000X-0.140000X0.170000X0.140000X0*%
%ADD19RoundRect,0.150000X0.150000X-0.512500X0.150000X0.512500X-0.150000X0.512500X-0.150000X-0.512500X0*%
G04 APERTURE END LIST*
D10*
X164750000Y-74350000D03*
X163950000Y-74350000D03*
X164350000Y-75500000D03*
D11*
X159900000Y-51200000D03*
D12*
X159900000Y-53740000D03*
X159900000Y-56280000D03*
X159900000Y-58820000D03*
X159900000Y-61360000D03*
X159900000Y-63900000D03*
X159900000Y-66440000D03*
X159900000Y-68980000D03*
X159900000Y-71520000D03*
D13*
X172580000Y-67950000D03*
X173600000Y-67950000D03*
D14*
X167650000Y-45750000D03*
X167650000Y-47150000D03*
X167650000Y-48550000D03*
X167650000Y-49950000D03*
X167650000Y-51350000D03*
X167650000Y-52750000D03*
X167650000Y-54150000D03*
X167650000Y-55550000D03*
D15*
X168950000Y-57800000D03*
X170350000Y-57800000D03*
X171750000Y-57800000D03*
X173150000Y-57800000D03*
X174550000Y-57800000D03*
X175950000Y-57800000D03*
X177350000Y-57800000D03*
X178750000Y-57800000D03*
D14*
X180050000Y-55550000D03*
X180050000Y-54150000D03*
X180050000Y-52750000D03*
X180050000Y-51350000D03*
X180050000Y-49950000D03*
X180050000Y-48550000D03*
X180050000Y-47150000D03*
X180050000Y-45750000D03*
D16*
X155950000Y-76700000D03*
D13*
X170080000Y-67950000D03*
X171100000Y-67950000D03*
D16*
X191750000Y-76700000D03*
X191750000Y-47200000D03*
D17*
X162500000Y-56280000D03*
X162500000Y-57300000D03*
D11*
X187900000Y-51200000D03*
D12*
X187900000Y-53740000D03*
X187900000Y-56280000D03*
X187900000Y-58820000D03*
X187900000Y-61360000D03*
X187900000Y-63900000D03*
X187900000Y-66440000D03*
X187900000Y-68980000D03*
X187900000Y-71520000D03*
D18*
X166500000Y-74340000D03*
X166500000Y-75300000D03*
D19*
X170750000Y-73687500D03*
X171700000Y-73687500D03*
X172650000Y-73687500D03*
X172650000Y-71412500D03*
X170750000Y-71412500D03*
D16*
X155950000Y-47200000D03*
M02*
