%TF.GenerationSoftware,KiCad,Pcbnew,9.0.2+dfsg-1*%
%TF.CreationDate,2026-03-26T03:42:39-04:00*%
%TF.ProjectId,UWB_CarrierBoard,5557425f-4361-4727-9269-6572426f6172,rev?*%
%TF.SameCoordinates,Original*%
%TF.FileFunction,Drillmap*%
%TF.FilePolarity,Positive*%
%FSLAX45Y45*%
G04 Gerber Fmt 4.5, Leading zero omitted, Abs format (unit mm)*
G04 Created by KiCad (PCBNEW 9.0.2+dfsg-1) date 2026-03-26 03:42:39*
%MOMM*%
%LPD*%
G01*
G04 APERTURE LIST*
%ADD10C,0.050000*%
%ADD11C,0.200000*%
%ADD12C,0.100000*%
%ADD13C,0.250000*%
G04 APERTURE END LIST*
D10*
X19575000Y-4620000D02*
X19575000Y-7770000D01*
X19275000Y-8070000D02*
X15495000Y-8070000D01*
X15495000Y-4320000D02*
X19275000Y-4320000D01*
X15495000Y-8070000D02*
G75*
G02*
X15195000Y-7770000I0J300000D01*
G01*
X15195000Y-4620000D02*
G75*
G02*
X15495000Y-4320000I300000J0D01*
G01*
X19575000Y-7770000D02*
G75*
G02*
X19275000Y-8070000I-300000J0D01*
G01*
X15195000Y-7770000D02*
X15195000Y-4620000D01*
X19275000Y-4320000D02*
G75*
G02*
X19575000Y-4620000I0J-300000D01*
G01*
D11*
D12*
X16155000Y-5715000D02*
X16185000Y-5745000D01*
X16185000Y-5715000D02*
X16155000Y-5745000D01*
X16555000Y-5190000D02*
X16585000Y-5220000D01*
X16585000Y-5190000D02*
X16555000Y-5220000D01*
X16555000Y-5320000D02*
X16585000Y-5350000D01*
X16585000Y-5320000D02*
X16555000Y-5350000D01*
X16555000Y-5445000D02*
X16585000Y-5475000D01*
X16585000Y-5445000D02*
X16555000Y-5475000D01*
X16805000Y-6830000D02*
X16835000Y-6860000D01*
X16835000Y-6830000D02*
X16805000Y-6860000D01*
X16815000Y-6745000D02*
X16845000Y-6775000D01*
X16845000Y-6745000D02*
X16815000Y-6775000D01*
X16895000Y-6785000D02*
X16925000Y-6815000D01*
X16925000Y-6785000D02*
X16895000Y-6815000D01*
X16995000Y-5540000D02*
X17025000Y-5570000D01*
X17025000Y-5540000D02*
X16995000Y-5570000D01*
X17720000Y-4560000D02*
X17750000Y-4590000D01*
X17750000Y-4560000D02*
X17720000Y-4590000D01*
X17720000Y-4705000D02*
X17750000Y-4735000D01*
X17750000Y-4705000D02*
X17720000Y-4735000D01*
X17720000Y-4980000D02*
X17750000Y-5010000D01*
X17750000Y-4980000D02*
X17720000Y-5010000D01*
X18025000Y-5895000D02*
X18055000Y-5925000D01*
X18055000Y-5895000D02*
X18025000Y-5925000D01*
X16040000Y-5120000D02*
G75*
G02*
X15940000Y-5120000I-50000J0D01*
G01*
X15940000Y-5120000D02*
G75*
G02*
X16040000Y-5120000I50000J0D01*
G01*
X16040000Y-5374000D02*
G75*
G02*
X15940000Y-5374000I-50000J0D01*
G01*
X15940000Y-5374000D02*
G75*
G02*
X16040000Y-5374000I50000J0D01*
G01*
X16040000Y-5628000D02*
G75*
G02*
X15940000Y-5628000I-50000J0D01*
G01*
X15940000Y-5628000D02*
G75*
G02*
X16040000Y-5628000I50000J0D01*
G01*
X16040000Y-5882000D02*
G75*
G02*
X15940000Y-5882000I-50000J0D01*
G01*
X15940000Y-5882000D02*
G75*
G02*
X16040000Y-5882000I50000J0D01*
G01*
X16040000Y-6136000D02*
G75*
G02*
X15940000Y-6136000I-50000J0D01*
G01*
X15940000Y-6136000D02*
G75*
G02*
X16040000Y-6136000I50000J0D01*
G01*
X16040000Y-6390000D02*
G75*
G02*
X15940000Y-6390000I-50000J0D01*
G01*
X15940000Y-6390000D02*
G75*
G02*
X16040000Y-6390000I50000J0D01*
G01*
X16040000Y-6644000D02*
G75*
G02*
X15940000Y-6644000I-50000J0D01*
G01*
X15940000Y-6644000D02*
G75*
G02*
X16040000Y-6644000I50000J0D01*
G01*
X16040000Y-6898000D02*
G75*
G02*
X15940000Y-6898000I-50000J0D01*
G01*
X15940000Y-6898000D02*
G75*
G02*
X16040000Y-6898000I50000J0D01*
G01*
X16040000Y-7152000D02*
G75*
G02*
X15940000Y-7152000I-50000J0D01*
G01*
X15940000Y-7152000D02*
G75*
G02*
X16040000Y-7152000I50000J0D01*
G01*
X18840000Y-5120000D02*
G75*
G02*
X18740000Y-5120000I-50000J0D01*
G01*
X18740000Y-5120000D02*
G75*
G02*
X18840000Y-5120000I50000J0D01*
G01*
X18840000Y-5374000D02*
G75*
G02*
X18740000Y-5374000I-50000J0D01*
G01*
X18740000Y-5374000D02*
G75*
G02*
X18840000Y-5374000I50000J0D01*
G01*
X18840000Y-5628000D02*
G75*
G02*
X18740000Y-5628000I-50000J0D01*
G01*
X18740000Y-5628000D02*
G75*
G02*
X18840000Y-5628000I50000J0D01*
G01*
X18840000Y-5882000D02*
G75*
G02*
X18740000Y-5882000I-50000J0D01*
G01*
X18740000Y-5882000D02*
G75*
G02*
X18840000Y-5882000I50000J0D01*
G01*
X18840000Y-6136000D02*
G75*
G02*
X18740000Y-6136000I-50000J0D01*
G01*
X18740000Y-6136000D02*
G75*
G02*
X18840000Y-6136000I50000J0D01*
G01*
X18840000Y-6390000D02*
G75*
G02*
X18740000Y-6390000I-50000J0D01*
G01*
X18740000Y-6390000D02*
G75*
G02*
X18840000Y-6390000I50000J0D01*
G01*
X18840000Y-6644000D02*
G75*
G02*
X18740000Y-6644000I-50000J0D01*
G01*
X18740000Y-6644000D02*
G75*
G02*
X18840000Y-6644000I50000J0D01*
G01*
X18840000Y-6898000D02*
G75*
G02*
X18740000Y-6898000I-50000J0D01*
G01*
X18740000Y-6898000D02*
G75*
G02*
X18840000Y-6898000I50000J0D01*
G01*
X18840000Y-7152000D02*
G75*
G02*
X18740000Y-7152000I-50000J0D01*
G01*
X18740000Y-7152000D02*
G75*
G02*
X18840000Y-7152000I50000J0D01*
G01*
D13*
X15595000Y-4595000D02*
X15595000Y-4845000D01*
X15470000Y-4720000D02*
X15720000Y-4720000D01*
X15595000Y-7545000D02*
X15595000Y-7795000D01*
X15470000Y-7670000D02*
X15720000Y-7670000D01*
X19175000Y-4595000D02*
X19175000Y-4845000D01*
X19050000Y-4720000D02*
X19300000Y-4720000D01*
X19175000Y-7545000D02*
X19175000Y-7795000D01*
X19050000Y-7670000D02*
X19300000Y-7670000D01*
D11*
X15453277Y-8383984D02*
X15453277Y-8183984D01*
X15453277Y-8183984D02*
X15500896Y-8183984D01*
X15500896Y-8183984D02*
X15529467Y-8193508D01*
X15529467Y-8193508D02*
X15548515Y-8212555D01*
X15548515Y-8212555D02*
X15558039Y-8231603D01*
X15558039Y-8231603D02*
X15567562Y-8269698D01*
X15567562Y-8269698D02*
X15567562Y-8298269D01*
X15567562Y-8298269D02*
X15558039Y-8336365D01*
X15558039Y-8336365D02*
X15548515Y-8355412D01*
X15548515Y-8355412D02*
X15529467Y-8374460D01*
X15529467Y-8374460D02*
X15500896Y-8383984D01*
X15500896Y-8383984D02*
X15453277Y-8383984D01*
X15653277Y-8383984D02*
X15653277Y-8250650D01*
X15653277Y-8288746D02*
X15662801Y-8269698D01*
X15662801Y-8269698D02*
X15672324Y-8260174D01*
X15672324Y-8260174D02*
X15691372Y-8250650D01*
X15691372Y-8250650D02*
X15710420Y-8250650D01*
X15777086Y-8383984D02*
X15777086Y-8250650D01*
X15777086Y-8183984D02*
X15767562Y-8193508D01*
X15767562Y-8193508D02*
X15777086Y-8203031D01*
X15777086Y-8203031D02*
X15786610Y-8193508D01*
X15786610Y-8193508D02*
X15777086Y-8183984D01*
X15777086Y-8183984D02*
X15777086Y-8203031D01*
X15900896Y-8383984D02*
X15881848Y-8374460D01*
X15881848Y-8374460D02*
X15872324Y-8355412D01*
X15872324Y-8355412D02*
X15872324Y-8183984D01*
X16005658Y-8383984D02*
X15986610Y-8374460D01*
X15986610Y-8374460D02*
X15977086Y-8355412D01*
X15977086Y-8355412D02*
X15977086Y-8183984D01*
X16234229Y-8383984D02*
X16234229Y-8183984D01*
X16234229Y-8183984D02*
X16300896Y-8326841D01*
X16300896Y-8326841D02*
X16367562Y-8183984D01*
X16367562Y-8183984D02*
X16367562Y-8383984D01*
X16548515Y-8383984D02*
X16548515Y-8279222D01*
X16548515Y-8279222D02*
X16538991Y-8260174D01*
X16538991Y-8260174D02*
X16519943Y-8250650D01*
X16519943Y-8250650D02*
X16481848Y-8250650D01*
X16481848Y-8250650D02*
X16462801Y-8260174D01*
X16548515Y-8374460D02*
X16529467Y-8383984D01*
X16529467Y-8383984D02*
X16481848Y-8383984D01*
X16481848Y-8383984D02*
X16462801Y-8374460D01*
X16462801Y-8374460D02*
X16453277Y-8355412D01*
X16453277Y-8355412D02*
X16453277Y-8336365D01*
X16453277Y-8336365D02*
X16462801Y-8317317D01*
X16462801Y-8317317D02*
X16481848Y-8307793D01*
X16481848Y-8307793D02*
X16529467Y-8307793D01*
X16529467Y-8307793D02*
X16548515Y-8298269D01*
X16643753Y-8250650D02*
X16643753Y-8450650D01*
X16643753Y-8260174D02*
X16662801Y-8250650D01*
X16662801Y-8250650D02*
X16700896Y-8250650D01*
X16700896Y-8250650D02*
X16719943Y-8260174D01*
X16719943Y-8260174D02*
X16729467Y-8269698D01*
X16729467Y-8269698D02*
X16738991Y-8288746D01*
X16738991Y-8288746D02*
X16738991Y-8345888D01*
X16738991Y-8345888D02*
X16729467Y-8364936D01*
X16729467Y-8364936D02*
X16719943Y-8374460D01*
X16719943Y-8374460D02*
X16700896Y-8383984D01*
X16700896Y-8383984D02*
X16662801Y-8383984D01*
X16662801Y-8383984D02*
X16643753Y-8374460D01*
X16824705Y-8364936D02*
X16834229Y-8374460D01*
X16834229Y-8374460D02*
X16824705Y-8383984D01*
X16824705Y-8383984D02*
X16815182Y-8374460D01*
X16815182Y-8374460D02*
X16824705Y-8364936D01*
X16824705Y-8364936D02*
X16824705Y-8383984D01*
X16824705Y-8260174D02*
X16834229Y-8269698D01*
X16834229Y-8269698D02*
X16824705Y-8279222D01*
X16824705Y-8279222D02*
X16815182Y-8269698D01*
X16815182Y-8269698D02*
X16824705Y-8260174D01*
X16824705Y-8260174D02*
X16824705Y-8279222D01*
D12*
X15162500Y-8697500D02*
X15192500Y-8727500D01*
X15192500Y-8697500D02*
X15162500Y-8727500D01*
D11*
X15491372Y-8603984D02*
X15510420Y-8603984D01*
X15510420Y-8603984D02*
X15529467Y-8613508D01*
X15529467Y-8613508D02*
X15538991Y-8623031D01*
X15538991Y-8623031D02*
X15548515Y-8642079D01*
X15548515Y-8642079D02*
X15558039Y-8680174D01*
X15558039Y-8680174D02*
X15558039Y-8727793D01*
X15558039Y-8727793D02*
X15548515Y-8765889D01*
X15548515Y-8765889D02*
X15538991Y-8784936D01*
X15538991Y-8784936D02*
X15529467Y-8794460D01*
X15529467Y-8794460D02*
X15510420Y-8803984D01*
X15510420Y-8803984D02*
X15491372Y-8803984D01*
X15491372Y-8803984D02*
X15472324Y-8794460D01*
X15472324Y-8794460D02*
X15462801Y-8784936D01*
X15462801Y-8784936D02*
X15453277Y-8765889D01*
X15453277Y-8765889D02*
X15443753Y-8727793D01*
X15443753Y-8727793D02*
X15443753Y-8680174D01*
X15443753Y-8680174D02*
X15453277Y-8642079D01*
X15453277Y-8642079D02*
X15462801Y-8623031D01*
X15462801Y-8623031D02*
X15472324Y-8613508D01*
X15472324Y-8613508D02*
X15491372Y-8603984D01*
X15643753Y-8784936D02*
X15653277Y-8794460D01*
X15653277Y-8794460D02*
X15643753Y-8803984D01*
X15643753Y-8803984D02*
X15634229Y-8794460D01*
X15634229Y-8794460D02*
X15643753Y-8784936D01*
X15643753Y-8784936D02*
X15643753Y-8803984D01*
X15719943Y-8603984D02*
X15843753Y-8603984D01*
X15843753Y-8603984D02*
X15777086Y-8680174D01*
X15777086Y-8680174D02*
X15805658Y-8680174D01*
X15805658Y-8680174D02*
X15824705Y-8689698D01*
X15824705Y-8689698D02*
X15834229Y-8699222D01*
X15834229Y-8699222D02*
X15843753Y-8718270D01*
X15843753Y-8718270D02*
X15843753Y-8765889D01*
X15843753Y-8765889D02*
X15834229Y-8784936D01*
X15834229Y-8784936D02*
X15824705Y-8794460D01*
X15824705Y-8794460D02*
X15805658Y-8803984D01*
X15805658Y-8803984D02*
X15748515Y-8803984D01*
X15748515Y-8803984D02*
X15729467Y-8794460D01*
X15729467Y-8794460D02*
X15719943Y-8784936D01*
X15967562Y-8603984D02*
X15986610Y-8603984D01*
X15986610Y-8603984D02*
X16005658Y-8613508D01*
X16005658Y-8613508D02*
X16015182Y-8623031D01*
X16015182Y-8623031D02*
X16024705Y-8642079D01*
X16024705Y-8642079D02*
X16034229Y-8680174D01*
X16034229Y-8680174D02*
X16034229Y-8727793D01*
X16034229Y-8727793D02*
X16024705Y-8765889D01*
X16024705Y-8765889D02*
X16015182Y-8784936D01*
X16015182Y-8784936D02*
X16005658Y-8794460D01*
X16005658Y-8794460D02*
X15986610Y-8803984D01*
X15986610Y-8803984D02*
X15967562Y-8803984D01*
X15967562Y-8803984D02*
X15948515Y-8794460D01*
X15948515Y-8794460D02*
X15938991Y-8784936D01*
X15938991Y-8784936D02*
X15929467Y-8765889D01*
X15929467Y-8765889D02*
X15919943Y-8727793D01*
X15919943Y-8727793D02*
X15919943Y-8680174D01*
X15919943Y-8680174D02*
X15929467Y-8642079D01*
X15929467Y-8642079D02*
X15938991Y-8623031D01*
X15938991Y-8623031D02*
X15948515Y-8613508D01*
X15948515Y-8613508D02*
X15967562Y-8603984D01*
X16158039Y-8603984D02*
X16177086Y-8603984D01*
X16177086Y-8603984D02*
X16196134Y-8613508D01*
X16196134Y-8613508D02*
X16205658Y-8623031D01*
X16205658Y-8623031D02*
X16215182Y-8642079D01*
X16215182Y-8642079D02*
X16224705Y-8680174D01*
X16224705Y-8680174D02*
X16224705Y-8727793D01*
X16224705Y-8727793D02*
X16215182Y-8765889D01*
X16215182Y-8765889D02*
X16205658Y-8784936D01*
X16205658Y-8784936D02*
X16196134Y-8794460D01*
X16196134Y-8794460D02*
X16177086Y-8803984D01*
X16177086Y-8803984D02*
X16158039Y-8803984D01*
X16158039Y-8803984D02*
X16138991Y-8794460D01*
X16138991Y-8794460D02*
X16129467Y-8784936D01*
X16129467Y-8784936D02*
X16119943Y-8765889D01*
X16119943Y-8765889D02*
X16110420Y-8727793D01*
X16110420Y-8727793D02*
X16110420Y-8680174D01*
X16110420Y-8680174D02*
X16119943Y-8642079D01*
X16119943Y-8642079D02*
X16129467Y-8623031D01*
X16129467Y-8623031D02*
X16138991Y-8613508D01*
X16138991Y-8613508D02*
X16158039Y-8603984D01*
X16310420Y-8803984D02*
X16310420Y-8670650D01*
X16310420Y-8689698D02*
X16319943Y-8680174D01*
X16319943Y-8680174D02*
X16338991Y-8670650D01*
X16338991Y-8670650D02*
X16367563Y-8670650D01*
X16367563Y-8670650D02*
X16386610Y-8680174D01*
X16386610Y-8680174D02*
X16396134Y-8699222D01*
X16396134Y-8699222D02*
X16396134Y-8803984D01*
X16396134Y-8699222D02*
X16405658Y-8680174D01*
X16405658Y-8680174D02*
X16424705Y-8670650D01*
X16424705Y-8670650D02*
X16453277Y-8670650D01*
X16453277Y-8670650D02*
X16472324Y-8680174D01*
X16472324Y-8680174D02*
X16481848Y-8699222D01*
X16481848Y-8699222D02*
X16481848Y-8803984D01*
X16577086Y-8803984D02*
X16577086Y-8670650D01*
X16577086Y-8689698D02*
X16586610Y-8680174D01*
X16586610Y-8680174D02*
X16605658Y-8670650D01*
X16605658Y-8670650D02*
X16634229Y-8670650D01*
X16634229Y-8670650D02*
X16653277Y-8680174D01*
X16653277Y-8680174D02*
X16662801Y-8699222D01*
X16662801Y-8699222D02*
X16662801Y-8803984D01*
X16662801Y-8699222D02*
X16672324Y-8680174D01*
X16672324Y-8680174D02*
X16691372Y-8670650D01*
X16691372Y-8670650D02*
X16719943Y-8670650D01*
X16719943Y-8670650D02*
X16738991Y-8680174D01*
X16738991Y-8680174D02*
X16748515Y-8699222D01*
X16748515Y-8699222D02*
X16748515Y-8803984D01*
X17138991Y-8594460D02*
X16967563Y-8851603D01*
X17396134Y-8603984D02*
X17415182Y-8603984D01*
X17415182Y-8603984D02*
X17434229Y-8613508D01*
X17434229Y-8613508D02*
X17443753Y-8623031D01*
X17443753Y-8623031D02*
X17453277Y-8642079D01*
X17453277Y-8642079D02*
X17462801Y-8680174D01*
X17462801Y-8680174D02*
X17462801Y-8727793D01*
X17462801Y-8727793D02*
X17453277Y-8765889D01*
X17453277Y-8765889D02*
X17443753Y-8784936D01*
X17443753Y-8784936D02*
X17434229Y-8794460D01*
X17434229Y-8794460D02*
X17415182Y-8803984D01*
X17415182Y-8803984D02*
X17396134Y-8803984D01*
X17396134Y-8803984D02*
X17377087Y-8794460D01*
X17377087Y-8794460D02*
X17367563Y-8784936D01*
X17367563Y-8784936D02*
X17358039Y-8765889D01*
X17358039Y-8765889D02*
X17348515Y-8727793D01*
X17348515Y-8727793D02*
X17348515Y-8680174D01*
X17348515Y-8680174D02*
X17358039Y-8642079D01*
X17358039Y-8642079D02*
X17367563Y-8623031D01*
X17367563Y-8623031D02*
X17377087Y-8613508D01*
X17377087Y-8613508D02*
X17396134Y-8603984D01*
X17548515Y-8784936D02*
X17558039Y-8794460D01*
X17558039Y-8794460D02*
X17548515Y-8803984D01*
X17548515Y-8803984D02*
X17538991Y-8794460D01*
X17538991Y-8794460D02*
X17548515Y-8784936D01*
X17548515Y-8784936D02*
X17548515Y-8803984D01*
X17681848Y-8603984D02*
X17700896Y-8603984D01*
X17700896Y-8603984D02*
X17719944Y-8613508D01*
X17719944Y-8613508D02*
X17729468Y-8623031D01*
X17729468Y-8623031D02*
X17738991Y-8642079D01*
X17738991Y-8642079D02*
X17748515Y-8680174D01*
X17748515Y-8680174D02*
X17748515Y-8727793D01*
X17748515Y-8727793D02*
X17738991Y-8765889D01*
X17738991Y-8765889D02*
X17729468Y-8784936D01*
X17729468Y-8784936D02*
X17719944Y-8794460D01*
X17719944Y-8794460D02*
X17700896Y-8803984D01*
X17700896Y-8803984D02*
X17681848Y-8803984D01*
X17681848Y-8803984D02*
X17662801Y-8794460D01*
X17662801Y-8794460D02*
X17653277Y-8784936D01*
X17653277Y-8784936D02*
X17643753Y-8765889D01*
X17643753Y-8765889D02*
X17634229Y-8727793D01*
X17634229Y-8727793D02*
X17634229Y-8680174D01*
X17634229Y-8680174D02*
X17643753Y-8642079D01*
X17643753Y-8642079D02*
X17653277Y-8623031D01*
X17653277Y-8623031D02*
X17662801Y-8613508D01*
X17662801Y-8613508D02*
X17681848Y-8603984D01*
X17938991Y-8803984D02*
X17824706Y-8803984D01*
X17881848Y-8803984D02*
X17881848Y-8603984D01*
X17881848Y-8603984D02*
X17862801Y-8632555D01*
X17862801Y-8632555D02*
X17843753Y-8651603D01*
X17843753Y-8651603D02*
X17824706Y-8661127D01*
X18129468Y-8803984D02*
X18015182Y-8803984D01*
X18072325Y-8803984D02*
X18072325Y-8603984D01*
X18072325Y-8603984D02*
X18053277Y-8632555D01*
X18053277Y-8632555D02*
X18034229Y-8651603D01*
X18034229Y-8651603D02*
X18015182Y-8661127D01*
X18243753Y-8689698D02*
X18224706Y-8680174D01*
X18224706Y-8680174D02*
X18215182Y-8670650D01*
X18215182Y-8670650D02*
X18205658Y-8651603D01*
X18205658Y-8651603D02*
X18205658Y-8642079D01*
X18205658Y-8642079D02*
X18215182Y-8623031D01*
X18215182Y-8623031D02*
X18224706Y-8613508D01*
X18224706Y-8613508D02*
X18243753Y-8603984D01*
X18243753Y-8603984D02*
X18281849Y-8603984D01*
X18281849Y-8603984D02*
X18300896Y-8613508D01*
X18300896Y-8613508D02*
X18310420Y-8623031D01*
X18310420Y-8623031D02*
X18319944Y-8642079D01*
X18319944Y-8642079D02*
X18319944Y-8651603D01*
X18319944Y-8651603D02*
X18310420Y-8670650D01*
X18310420Y-8670650D02*
X18300896Y-8680174D01*
X18300896Y-8680174D02*
X18281849Y-8689698D01*
X18281849Y-8689698D02*
X18243753Y-8689698D01*
X18243753Y-8689698D02*
X18224706Y-8699222D01*
X18224706Y-8699222D02*
X18215182Y-8708746D01*
X18215182Y-8708746D02*
X18205658Y-8727793D01*
X18205658Y-8727793D02*
X18205658Y-8765889D01*
X18205658Y-8765889D02*
X18215182Y-8784936D01*
X18215182Y-8784936D02*
X18224706Y-8794460D01*
X18224706Y-8794460D02*
X18243753Y-8803984D01*
X18243753Y-8803984D02*
X18281849Y-8803984D01*
X18281849Y-8803984D02*
X18300896Y-8794460D01*
X18300896Y-8794460D02*
X18310420Y-8784936D01*
X18310420Y-8784936D02*
X18319944Y-8765889D01*
X18319944Y-8765889D02*
X18319944Y-8727793D01*
X18319944Y-8727793D02*
X18310420Y-8708746D01*
X18310420Y-8708746D02*
X18300896Y-8699222D01*
X18300896Y-8699222D02*
X18281849Y-8689698D01*
X18396134Y-8603984D02*
X18396134Y-8642079D01*
X18472325Y-8603984D02*
X18472325Y-8642079D01*
X18767563Y-8880174D02*
X18758039Y-8870650D01*
X18758039Y-8870650D02*
X18738991Y-8842079D01*
X18738991Y-8842079D02*
X18729468Y-8823031D01*
X18729468Y-8823031D02*
X18719944Y-8794460D01*
X18719944Y-8794460D02*
X18710420Y-8746841D01*
X18710420Y-8746841D02*
X18710420Y-8708746D01*
X18710420Y-8708746D02*
X18719944Y-8661127D01*
X18719944Y-8661127D02*
X18729468Y-8632555D01*
X18729468Y-8632555D02*
X18738991Y-8613508D01*
X18738991Y-8613508D02*
X18758039Y-8584936D01*
X18758039Y-8584936D02*
X18767563Y-8575412D01*
X18948515Y-8803984D02*
X18834230Y-8803984D01*
X18891372Y-8803984D02*
X18891372Y-8603984D01*
X18891372Y-8603984D02*
X18872325Y-8632555D01*
X18872325Y-8632555D02*
X18853277Y-8651603D01*
X18853277Y-8651603D02*
X18834230Y-8661127D01*
X19024706Y-8623031D02*
X19034230Y-8613508D01*
X19034230Y-8613508D02*
X19053277Y-8603984D01*
X19053277Y-8603984D02*
X19100896Y-8603984D01*
X19100896Y-8603984D02*
X19119944Y-8613508D01*
X19119944Y-8613508D02*
X19129468Y-8623031D01*
X19129468Y-8623031D02*
X19138991Y-8642079D01*
X19138991Y-8642079D02*
X19138991Y-8661127D01*
X19138991Y-8661127D02*
X19129468Y-8689698D01*
X19129468Y-8689698D02*
X19015182Y-8803984D01*
X19015182Y-8803984D02*
X19138991Y-8803984D01*
X19377087Y-8803984D02*
X19377087Y-8603984D01*
X19462801Y-8803984D02*
X19462801Y-8699222D01*
X19462801Y-8699222D02*
X19453277Y-8680174D01*
X19453277Y-8680174D02*
X19434230Y-8670650D01*
X19434230Y-8670650D02*
X19405658Y-8670650D01*
X19405658Y-8670650D02*
X19386611Y-8680174D01*
X19386611Y-8680174D02*
X19377087Y-8689698D01*
X19586611Y-8803984D02*
X19567563Y-8794460D01*
X19567563Y-8794460D02*
X19558039Y-8784936D01*
X19558039Y-8784936D02*
X19548515Y-8765889D01*
X19548515Y-8765889D02*
X19548515Y-8708746D01*
X19548515Y-8708746D02*
X19558039Y-8689698D01*
X19558039Y-8689698D02*
X19567563Y-8680174D01*
X19567563Y-8680174D02*
X19586611Y-8670650D01*
X19586611Y-8670650D02*
X19615182Y-8670650D01*
X19615182Y-8670650D02*
X19634230Y-8680174D01*
X19634230Y-8680174D02*
X19643753Y-8689698D01*
X19643753Y-8689698D02*
X19653277Y-8708746D01*
X19653277Y-8708746D02*
X19653277Y-8765889D01*
X19653277Y-8765889D02*
X19643753Y-8784936D01*
X19643753Y-8784936D02*
X19634230Y-8794460D01*
X19634230Y-8794460D02*
X19615182Y-8803984D01*
X19615182Y-8803984D02*
X19586611Y-8803984D01*
X19767563Y-8803984D02*
X19748515Y-8794460D01*
X19748515Y-8794460D02*
X19738992Y-8775412D01*
X19738992Y-8775412D02*
X19738992Y-8603984D01*
X19919944Y-8794460D02*
X19900896Y-8803984D01*
X19900896Y-8803984D02*
X19862801Y-8803984D01*
X19862801Y-8803984D02*
X19843753Y-8794460D01*
X19843753Y-8794460D02*
X19834230Y-8775412D01*
X19834230Y-8775412D02*
X19834230Y-8699222D01*
X19834230Y-8699222D02*
X19843753Y-8680174D01*
X19843753Y-8680174D02*
X19862801Y-8670650D01*
X19862801Y-8670650D02*
X19900896Y-8670650D01*
X19900896Y-8670650D02*
X19919944Y-8680174D01*
X19919944Y-8680174D02*
X19929468Y-8699222D01*
X19929468Y-8699222D02*
X19929468Y-8718270D01*
X19929468Y-8718270D02*
X19834230Y-8737317D01*
X20005658Y-8794460D02*
X20024706Y-8803984D01*
X20024706Y-8803984D02*
X20062801Y-8803984D01*
X20062801Y-8803984D02*
X20081849Y-8794460D01*
X20081849Y-8794460D02*
X20091373Y-8775412D01*
X20091373Y-8775412D02*
X20091373Y-8765889D01*
X20091373Y-8765889D02*
X20081849Y-8746841D01*
X20081849Y-8746841D02*
X20062801Y-8737317D01*
X20062801Y-8737317D02*
X20034230Y-8737317D01*
X20034230Y-8737317D02*
X20015182Y-8727793D01*
X20015182Y-8727793D02*
X20005658Y-8708746D01*
X20005658Y-8708746D02*
X20005658Y-8699222D01*
X20005658Y-8699222D02*
X20015182Y-8680174D01*
X20015182Y-8680174D02*
X20034230Y-8670650D01*
X20034230Y-8670650D02*
X20062801Y-8670650D01*
X20062801Y-8670650D02*
X20081849Y-8680174D01*
X20158039Y-8880174D02*
X20167563Y-8870650D01*
X20167563Y-8870650D02*
X20186611Y-8842079D01*
X20186611Y-8842079D02*
X20196134Y-8823031D01*
X20196134Y-8823031D02*
X20205658Y-8794460D01*
X20205658Y-8794460D02*
X20215182Y-8746841D01*
X20215182Y-8746841D02*
X20215182Y-8708746D01*
X20215182Y-8708746D02*
X20205658Y-8661127D01*
X20205658Y-8661127D02*
X20196134Y-8632555D01*
X20196134Y-8632555D02*
X20186611Y-8613508D01*
X20186611Y-8613508D02*
X20167563Y-8584936D01*
X20167563Y-8584936D02*
X20158039Y-8575412D01*
D12*
X15192500Y-8976500D02*
G75*
G02*
X15092500Y-8976500I-50000J0D01*
G01*
X15092500Y-8976500D02*
G75*
G02*
X15192500Y-8976500I50000J0D01*
G01*
D11*
X15558039Y-9067984D02*
X15443753Y-9067984D01*
X15500896Y-9067984D02*
X15500896Y-8867984D01*
X15500896Y-8867984D02*
X15481848Y-8896555D01*
X15481848Y-8896555D02*
X15462801Y-8915603D01*
X15462801Y-8915603D02*
X15443753Y-8925127D01*
X15643753Y-9048936D02*
X15653277Y-9058460D01*
X15653277Y-9058460D02*
X15643753Y-9067984D01*
X15643753Y-9067984D02*
X15634229Y-9058460D01*
X15634229Y-9058460D02*
X15643753Y-9048936D01*
X15643753Y-9048936D02*
X15643753Y-9067984D01*
X15777086Y-8867984D02*
X15796134Y-8867984D01*
X15796134Y-8867984D02*
X15815182Y-8877508D01*
X15815182Y-8877508D02*
X15824705Y-8887031D01*
X15824705Y-8887031D02*
X15834229Y-8906079D01*
X15834229Y-8906079D02*
X15843753Y-8944174D01*
X15843753Y-8944174D02*
X15843753Y-8991793D01*
X15843753Y-8991793D02*
X15834229Y-9029889D01*
X15834229Y-9029889D02*
X15824705Y-9048936D01*
X15824705Y-9048936D02*
X15815182Y-9058460D01*
X15815182Y-9058460D02*
X15796134Y-9067984D01*
X15796134Y-9067984D02*
X15777086Y-9067984D01*
X15777086Y-9067984D02*
X15758039Y-9058460D01*
X15758039Y-9058460D02*
X15748515Y-9048936D01*
X15748515Y-9048936D02*
X15738991Y-9029889D01*
X15738991Y-9029889D02*
X15729467Y-8991793D01*
X15729467Y-8991793D02*
X15729467Y-8944174D01*
X15729467Y-8944174D02*
X15738991Y-8906079D01*
X15738991Y-8906079D02*
X15748515Y-8887031D01*
X15748515Y-8887031D02*
X15758039Y-8877508D01*
X15758039Y-8877508D02*
X15777086Y-8867984D01*
X15967562Y-8867984D02*
X15986610Y-8867984D01*
X15986610Y-8867984D02*
X16005658Y-8877508D01*
X16005658Y-8877508D02*
X16015182Y-8887031D01*
X16015182Y-8887031D02*
X16024705Y-8906079D01*
X16024705Y-8906079D02*
X16034229Y-8944174D01*
X16034229Y-8944174D02*
X16034229Y-8991793D01*
X16034229Y-8991793D02*
X16024705Y-9029889D01*
X16024705Y-9029889D02*
X16015182Y-9048936D01*
X16015182Y-9048936D02*
X16005658Y-9058460D01*
X16005658Y-9058460D02*
X15986610Y-9067984D01*
X15986610Y-9067984D02*
X15967562Y-9067984D01*
X15967562Y-9067984D02*
X15948515Y-9058460D01*
X15948515Y-9058460D02*
X15938991Y-9048936D01*
X15938991Y-9048936D02*
X15929467Y-9029889D01*
X15929467Y-9029889D02*
X15919943Y-8991793D01*
X15919943Y-8991793D02*
X15919943Y-8944174D01*
X15919943Y-8944174D02*
X15929467Y-8906079D01*
X15929467Y-8906079D02*
X15938991Y-8887031D01*
X15938991Y-8887031D02*
X15948515Y-8877508D01*
X15948515Y-8877508D02*
X15967562Y-8867984D01*
X16158039Y-8867984D02*
X16177086Y-8867984D01*
X16177086Y-8867984D02*
X16196134Y-8877508D01*
X16196134Y-8877508D02*
X16205658Y-8887031D01*
X16205658Y-8887031D02*
X16215182Y-8906079D01*
X16215182Y-8906079D02*
X16224705Y-8944174D01*
X16224705Y-8944174D02*
X16224705Y-8991793D01*
X16224705Y-8991793D02*
X16215182Y-9029889D01*
X16215182Y-9029889D02*
X16205658Y-9048936D01*
X16205658Y-9048936D02*
X16196134Y-9058460D01*
X16196134Y-9058460D02*
X16177086Y-9067984D01*
X16177086Y-9067984D02*
X16158039Y-9067984D01*
X16158039Y-9067984D02*
X16138991Y-9058460D01*
X16138991Y-9058460D02*
X16129467Y-9048936D01*
X16129467Y-9048936D02*
X16119943Y-9029889D01*
X16119943Y-9029889D02*
X16110420Y-8991793D01*
X16110420Y-8991793D02*
X16110420Y-8944174D01*
X16110420Y-8944174D02*
X16119943Y-8906079D01*
X16119943Y-8906079D02*
X16129467Y-8887031D01*
X16129467Y-8887031D02*
X16138991Y-8877508D01*
X16138991Y-8877508D02*
X16158039Y-8867984D01*
X16310420Y-9067984D02*
X16310420Y-8934650D01*
X16310420Y-8953698D02*
X16319943Y-8944174D01*
X16319943Y-8944174D02*
X16338991Y-8934650D01*
X16338991Y-8934650D02*
X16367563Y-8934650D01*
X16367563Y-8934650D02*
X16386610Y-8944174D01*
X16386610Y-8944174D02*
X16396134Y-8963222D01*
X16396134Y-8963222D02*
X16396134Y-9067984D01*
X16396134Y-8963222D02*
X16405658Y-8944174D01*
X16405658Y-8944174D02*
X16424705Y-8934650D01*
X16424705Y-8934650D02*
X16453277Y-8934650D01*
X16453277Y-8934650D02*
X16472324Y-8944174D01*
X16472324Y-8944174D02*
X16481848Y-8963222D01*
X16481848Y-8963222D02*
X16481848Y-9067984D01*
X16577086Y-9067984D02*
X16577086Y-8934650D01*
X16577086Y-8953698D02*
X16586610Y-8944174D01*
X16586610Y-8944174D02*
X16605658Y-8934650D01*
X16605658Y-8934650D02*
X16634229Y-8934650D01*
X16634229Y-8934650D02*
X16653277Y-8944174D01*
X16653277Y-8944174D02*
X16662801Y-8963222D01*
X16662801Y-8963222D02*
X16662801Y-9067984D01*
X16662801Y-8963222D02*
X16672324Y-8944174D01*
X16672324Y-8944174D02*
X16691372Y-8934650D01*
X16691372Y-8934650D02*
X16719943Y-8934650D01*
X16719943Y-8934650D02*
X16738991Y-8944174D01*
X16738991Y-8944174D02*
X16748515Y-8963222D01*
X16748515Y-8963222D02*
X16748515Y-9067984D01*
X17138991Y-8858460D02*
X16967563Y-9115603D01*
X17396134Y-8867984D02*
X17415182Y-8867984D01*
X17415182Y-8867984D02*
X17434229Y-8877508D01*
X17434229Y-8877508D02*
X17443753Y-8887031D01*
X17443753Y-8887031D02*
X17453277Y-8906079D01*
X17453277Y-8906079D02*
X17462801Y-8944174D01*
X17462801Y-8944174D02*
X17462801Y-8991793D01*
X17462801Y-8991793D02*
X17453277Y-9029889D01*
X17453277Y-9029889D02*
X17443753Y-9048936D01*
X17443753Y-9048936D02*
X17434229Y-9058460D01*
X17434229Y-9058460D02*
X17415182Y-9067984D01*
X17415182Y-9067984D02*
X17396134Y-9067984D01*
X17396134Y-9067984D02*
X17377087Y-9058460D01*
X17377087Y-9058460D02*
X17367563Y-9048936D01*
X17367563Y-9048936D02*
X17358039Y-9029889D01*
X17358039Y-9029889D02*
X17348515Y-8991793D01*
X17348515Y-8991793D02*
X17348515Y-8944174D01*
X17348515Y-8944174D02*
X17358039Y-8906079D01*
X17358039Y-8906079D02*
X17367563Y-8887031D01*
X17367563Y-8887031D02*
X17377087Y-8877508D01*
X17377087Y-8877508D02*
X17396134Y-8867984D01*
X17548515Y-9048936D02*
X17558039Y-9058460D01*
X17558039Y-9058460D02*
X17548515Y-9067984D01*
X17548515Y-9067984D02*
X17538991Y-9058460D01*
X17538991Y-9058460D02*
X17548515Y-9048936D01*
X17548515Y-9048936D02*
X17548515Y-9067984D01*
X17681848Y-8867984D02*
X17700896Y-8867984D01*
X17700896Y-8867984D02*
X17719944Y-8877508D01*
X17719944Y-8877508D02*
X17729468Y-8887031D01*
X17729468Y-8887031D02*
X17738991Y-8906079D01*
X17738991Y-8906079D02*
X17748515Y-8944174D01*
X17748515Y-8944174D02*
X17748515Y-8991793D01*
X17748515Y-8991793D02*
X17738991Y-9029889D01*
X17738991Y-9029889D02*
X17729468Y-9048936D01*
X17729468Y-9048936D02*
X17719944Y-9058460D01*
X17719944Y-9058460D02*
X17700896Y-9067984D01*
X17700896Y-9067984D02*
X17681848Y-9067984D01*
X17681848Y-9067984D02*
X17662801Y-9058460D01*
X17662801Y-9058460D02*
X17653277Y-9048936D01*
X17653277Y-9048936D02*
X17643753Y-9029889D01*
X17643753Y-9029889D02*
X17634229Y-8991793D01*
X17634229Y-8991793D02*
X17634229Y-8944174D01*
X17634229Y-8944174D02*
X17643753Y-8906079D01*
X17643753Y-8906079D02*
X17653277Y-8887031D01*
X17653277Y-8887031D02*
X17662801Y-8877508D01*
X17662801Y-8877508D02*
X17681848Y-8867984D01*
X17815182Y-8867984D02*
X17938991Y-8867984D01*
X17938991Y-8867984D02*
X17872325Y-8944174D01*
X17872325Y-8944174D02*
X17900896Y-8944174D01*
X17900896Y-8944174D02*
X17919944Y-8953698D01*
X17919944Y-8953698D02*
X17929468Y-8963222D01*
X17929468Y-8963222D02*
X17938991Y-8982270D01*
X17938991Y-8982270D02*
X17938991Y-9029889D01*
X17938991Y-9029889D02*
X17929468Y-9048936D01*
X17929468Y-9048936D02*
X17919944Y-9058460D01*
X17919944Y-9058460D02*
X17900896Y-9067984D01*
X17900896Y-9067984D02*
X17843753Y-9067984D01*
X17843753Y-9067984D02*
X17824706Y-9058460D01*
X17824706Y-9058460D02*
X17815182Y-9048936D01*
X18034229Y-9067984D02*
X18072325Y-9067984D01*
X18072325Y-9067984D02*
X18091372Y-9058460D01*
X18091372Y-9058460D02*
X18100896Y-9048936D01*
X18100896Y-9048936D02*
X18119944Y-9020365D01*
X18119944Y-9020365D02*
X18129468Y-8982270D01*
X18129468Y-8982270D02*
X18129468Y-8906079D01*
X18129468Y-8906079D02*
X18119944Y-8887031D01*
X18119944Y-8887031D02*
X18110420Y-8877508D01*
X18110420Y-8877508D02*
X18091372Y-8867984D01*
X18091372Y-8867984D02*
X18053277Y-8867984D01*
X18053277Y-8867984D02*
X18034229Y-8877508D01*
X18034229Y-8877508D02*
X18024706Y-8887031D01*
X18024706Y-8887031D02*
X18015182Y-8906079D01*
X18015182Y-8906079D02*
X18015182Y-8953698D01*
X18015182Y-8953698D02*
X18024706Y-8972746D01*
X18024706Y-8972746D02*
X18034229Y-8982270D01*
X18034229Y-8982270D02*
X18053277Y-8991793D01*
X18053277Y-8991793D02*
X18091372Y-8991793D01*
X18091372Y-8991793D02*
X18110420Y-8982270D01*
X18110420Y-8982270D02*
X18119944Y-8972746D01*
X18119944Y-8972746D02*
X18129468Y-8953698D01*
X18300896Y-8934650D02*
X18300896Y-9067984D01*
X18253277Y-8858460D02*
X18205658Y-9001317D01*
X18205658Y-9001317D02*
X18329468Y-9001317D01*
X18396134Y-8867984D02*
X18396134Y-8906079D01*
X18472325Y-8867984D02*
X18472325Y-8906079D01*
X18767563Y-9144174D02*
X18758039Y-9134650D01*
X18758039Y-9134650D02*
X18738991Y-9106079D01*
X18738991Y-9106079D02*
X18729468Y-9087031D01*
X18729468Y-9087031D02*
X18719944Y-9058460D01*
X18719944Y-9058460D02*
X18710420Y-9010841D01*
X18710420Y-9010841D02*
X18710420Y-8972746D01*
X18710420Y-8972746D02*
X18719944Y-8925127D01*
X18719944Y-8925127D02*
X18729468Y-8896555D01*
X18729468Y-8896555D02*
X18738991Y-8877508D01*
X18738991Y-8877508D02*
X18758039Y-8848936D01*
X18758039Y-8848936D02*
X18767563Y-8839412D01*
X18948515Y-9067984D02*
X18834230Y-9067984D01*
X18891372Y-9067984D02*
X18891372Y-8867984D01*
X18891372Y-8867984D02*
X18872325Y-8896555D01*
X18872325Y-8896555D02*
X18853277Y-8915603D01*
X18853277Y-8915603D02*
X18834230Y-8925127D01*
X19062801Y-8953698D02*
X19043753Y-8944174D01*
X19043753Y-8944174D02*
X19034230Y-8934650D01*
X19034230Y-8934650D02*
X19024706Y-8915603D01*
X19024706Y-8915603D02*
X19024706Y-8906079D01*
X19024706Y-8906079D02*
X19034230Y-8887031D01*
X19034230Y-8887031D02*
X19043753Y-8877508D01*
X19043753Y-8877508D02*
X19062801Y-8867984D01*
X19062801Y-8867984D02*
X19100896Y-8867984D01*
X19100896Y-8867984D02*
X19119944Y-8877508D01*
X19119944Y-8877508D02*
X19129468Y-8887031D01*
X19129468Y-8887031D02*
X19138991Y-8906079D01*
X19138991Y-8906079D02*
X19138991Y-8915603D01*
X19138991Y-8915603D02*
X19129468Y-8934650D01*
X19129468Y-8934650D02*
X19119944Y-8944174D01*
X19119944Y-8944174D02*
X19100896Y-8953698D01*
X19100896Y-8953698D02*
X19062801Y-8953698D01*
X19062801Y-8953698D02*
X19043753Y-8963222D01*
X19043753Y-8963222D02*
X19034230Y-8972746D01*
X19034230Y-8972746D02*
X19024706Y-8991793D01*
X19024706Y-8991793D02*
X19024706Y-9029889D01*
X19024706Y-9029889D02*
X19034230Y-9048936D01*
X19034230Y-9048936D02*
X19043753Y-9058460D01*
X19043753Y-9058460D02*
X19062801Y-9067984D01*
X19062801Y-9067984D02*
X19100896Y-9067984D01*
X19100896Y-9067984D02*
X19119944Y-9058460D01*
X19119944Y-9058460D02*
X19129468Y-9048936D01*
X19129468Y-9048936D02*
X19138991Y-9029889D01*
X19138991Y-9029889D02*
X19138991Y-8991793D01*
X19138991Y-8991793D02*
X19129468Y-8972746D01*
X19129468Y-8972746D02*
X19119944Y-8963222D01*
X19119944Y-8963222D02*
X19100896Y-8953698D01*
X19377087Y-9067984D02*
X19377087Y-8867984D01*
X19462801Y-9067984D02*
X19462801Y-8963222D01*
X19462801Y-8963222D02*
X19453277Y-8944174D01*
X19453277Y-8944174D02*
X19434230Y-8934650D01*
X19434230Y-8934650D02*
X19405658Y-8934650D01*
X19405658Y-8934650D02*
X19386611Y-8944174D01*
X19386611Y-8944174D02*
X19377087Y-8953698D01*
X19586611Y-9067984D02*
X19567563Y-9058460D01*
X19567563Y-9058460D02*
X19558039Y-9048936D01*
X19558039Y-9048936D02*
X19548515Y-9029889D01*
X19548515Y-9029889D02*
X19548515Y-8972746D01*
X19548515Y-8972746D02*
X19558039Y-8953698D01*
X19558039Y-8953698D02*
X19567563Y-8944174D01*
X19567563Y-8944174D02*
X19586611Y-8934650D01*
X19586611Y-8934650D02*
X19615182Y-8934650D01*
X19615182Y-8934650D02*
X19634230Y-8944174D01*
X19634230Y-8944174D02*
X19643753Y-8953698D01*
X19643753Y-8953698D02*
X19653277Y-8972746D01*
X19653277Y-8972746D02*
X19653277Y-9029889D01*
X19653277Y-9029889D02*
X19643753Y-9048936D01*
X19643753Y-9048936D02*
X19634230Y-9058460D01*
X19634230Y-9058460D02*
X19615182Y-9067984D01*
X19615182Y-9067984D02*
X19586611Y-9067984D01*
X19767563Y-9067984D02*
X19748515Y-9058460D01*
X19748515Y-9058460D02*
X19738992Y-9039412D01*
X19738992Y-9039412D02*
X19738992Y-8867984D01*
X19919944Y-9058460D02*
X19900896Y-9067984D01*
X19900896Y-9067984D02*
X19862801Y-9067984D01*
X19862801Y-9067984D02*
X19843753Y-9058460D01*
X19843753Y-9058460D02*
X19834230Y-9039412D01*
X19834230Y-9039412D02*
X19834230Y-8963222D01*
X19834230Y-8963222D02*
X19843753Y-8944174D01*
X19843753Y-8944174D02*
X19862801Y-8934650D01*
X19862801Y-8934650D02*
X19900896Y-8934650D01*
X19900896Y-8934650D02*
X19919944Y-8944174D01*
X19919944Y-8944174D02*
X19929468Y-8963222D01*
X19929468Y-8963222D02*
X19929468Y-8982270D01*
X19929468Y-8982270D02*
X19834230Y-9001317D01*
X20005658Y-9058460D02*
X20024706Y-9067984D01*
X20024706Y-9067984D02*
X20062801Y-9067984D01*
X20062801Y-9067984D02*
X20081849Y-9058460D01*
X20081849Y-9058460D02*
X20091373Y-9039412D01*
X20091373Y-9039412D02*
X20091373Y-9029889D01*
X20091373Y-9029889D02*
X20081849Y-9010841D01*
X20081849Y-9010841D02*
X20062801Y-9001317D01*
X20062801Y-9001317D02*
X20034230Y-9001317D01*
X20034230Y-9001317D02*
X20015182Y-8991793D01*
X20015182Y-8991793D02*
X20005658Y-8972746D01*
X20005658Y-8972746D02*
X20005658Y-8963222D01*
X20005658Y-8963222D02*
X20015182Y-8944174D01*
X20015182Y-8944174D02*
X20034230Y-8934650D01*
X20034230Y-8934650D02*
X20062801Y-8934650D01*
X20062801Y-8934650D02*
X20081849Y-8944174D01*
X20158039Y-9144174D02*
X20167563Y-9134650D01*
X20167563Y-9134650D02*
X20186611Y-9106079D01*
X20186611Y-9106079D02*
X20196134Y-9087031D01*
X20196134Y-9087031D02*
X20205658Y-9058460D01*
X20205658Y-9058460D02*
X20215182Y-9010841D01*
X20215182Y-9010841D02*
X20215182Y-8972746D01*
X20215182Y-8972746D02*
X20205658Y-8925127D01*
X20205658Y-8925127D02*
X20196134Y-8896555D01*
X20196134Y-8896555D02*
X20186611Y-8877508D01*
X20186611Y-8877508D02*
X20167563Y-8848936D01*
X20167563Y-8848936D02*
X20158039Y-8839412D01*
X15092500Y-9140500D02*
X15092500Y-9340500D01*
X14992500Y-9240500D02*
X15192500Y-9240500D01*
X15443753Y-9151031D02*
X15453277Y-9141508D01*
X15453277Y-9141508D02*
X15472324Y-9131984D01*
X15472324Y-9131984D02*
X15519943Y-9131984D01*
X15519943Y-9131984D02*
X15538991Y-9141508D01*
X15538991Y-9141508D02*
X15548515Y-9151031D01*
X15548515Y-9151031D02*
X15558039Y-9170079D01*
X15558039Y-9170079D02*
X15558039Y-9189127D01*
X15558039Y-9189127D02*
X15548515Y-9217698D01*
X15548515Y-9217698D02*
X15434229Y-9331984D01*
X15434229Y-9331984D02*
X15558039Y-9331984D01*
X15643753Y-9312936D02*
X15653277Y-9322460D01*
X15653277Y-9322460D02*
X15643753Y-9331984D01*
X15643753Y-9331984D02*
X15634229Y-9322460D01*
X15634229Y-9322460D02*
X15643753Y-9312936D01*
X15643753Y-9312936D02*
X15643753Y-9331984D01*
X15834229Y-9131984D02*
X15738991Y-9131984D01*
X15738991Y-9131984D02*
X15729467Y-9227222D01*
X15729467Y-9227222D02*
X15738991Y-9217698D01*
X15738991Y-9217698D02*
X15758039Y-9208174D01*
X15758039Y-9208174D02*
X15805658Y-9208174D01*
X15805658Y-9208174D02*
X15824705Y-9217698D01*
X15824705Y-9217698D02*
X15834229Y-9227222D01*
X15834229Y-9227222D02*
X15843753Y-9246270D01*
X15843753Y-9246270D02*
X15843753Y-9293889D01*
X15843753Y-9293889D02*
X15834229Y-9312936D01*
X15834229Y-9312936D02*
X15824705Y-9322460D01*
X15824705Y-9322460D02*
X15805658Y-9331984D01*
X15805658Y-9331984D02*
X15758039Y-9331984D01*
X15758039Y-9331984D02*
X15738991Y-9322460D01*
X15738991Y-9322460D02*
X15729467Y-9312936D01*
X15967562Y-9131984D02*
X15986610Y-9131984D01*
X15986610Y-9131984D02*
X16005658Y-9141508D01*
X16005658Y-9141508D02*
X16015182Y-9151031D01*
X16015182Y-9151031D02*
X16024705Y-9170079D01*
X16024705Y-9170079D02*
X16034229Y-9208174D01*
X16034229Y-9208174D02*
X16034229Y-9255793D01*
X16034229Y-9255793D02*
X16024705Y-9293889D01*
X16024705Y-9293889D02*
X16015182Y-9312936D01*
X16015182Y-9312936D02*
X16005658Y-9322460D01*
X16005658Y-9322460D02*
X15986610Y-9331984D01*
X15986610Y-9331984D02*
X15967562Y-9331984D01*
X15967562Y-9331984D02*
X15948515Y-9322460D01*
X15948515Y-9322460D02*
X15938991Y-9312936D01*
X15938991Y-9312936D02*
X15929467Y-9293889D01*
X15929467Y-9293889D02*
X15919943Y-9255793D01*
X15919943Y-9255793D02*
X15919943Y-9208174D01*
X15919943Y-9208174D02*
X15929467Y-9170079D01*
X15929467Y-9170079D02*
X15938991Y-9151031D01*
X15938991Y-9151031D02*
X15948515Y-9141508D01*
X15948515Y-9141508D02*
X15967562Y-9131984D01*
X16158039Y-9131984D02*
X16177086Y-9131984D01*
X16177086Y-9131984D02*
X16196134Y-9141508D01*
X16196134Y-9141508D02*
X16205658Y-9151031D01*
X16205658Y-9151031D02*
X16215182Y-9170079D01*
X16215182Y-9170079D02*
X16224705Y-9208174D01*
X16224705Y-9208174D02*
X16224705Y-9255793D01*
X16224705Y-9255793D02*
X16215182Y-9293889D01*
X16215182Y-9293889D02*
X16205658Y-9312936D01*
X16205658Y-9312936D02*
X16196134Y-9322460D01*
X16196134Y-9322460D02*
X16177086Y-9331984D01*
X16177086Y-9331984D02*
X16158039Y-9331984D01*
X16158039Y-9331984D02*
X16138991Y-9322460D01*
X16138991Y-9322460D02*
X16129467Y-9312936D01*
X16129467Y-9312936D02*
X16119943Y-9293889D01*
X16119943Y-9293889D02*
X16110420Y-9255793D01*
X16110420Y-9255793D02*
X16110420Y-9208174D01*
X16110420Y-9208174D02*
X16119943Y-9170079D01*
X16119943Y-9170079D02*
X16129467Y-9151031D01*
X16129467Y-9151031D02*
X16138991Y-9141508D01*
X16138991Y-9141508D02*
X16158039Y-9131984D01*
X16310420Y-9331984D02*
X16310420Y-9198650D01*
X16310420Y-9217698D02*
X16319943Y-9208174D01*
X16319943Y-9208174D02*
X16338991Y-9198650D01*
X16338991Y-9198650D02*
X16367563Y-9198650D01*
X16367563Y-9198650D02*
X16386610Y-9208174D01*
X16386610Y-9208174D02*
X16396134Y-9227222D01*
X16396134Y-9227222D02*
X16396134Y-9331984D01*
X16396134Y-9227222D02*
X16405658Y-9208174D01*
X16405658Y-9208174D02*
X16424705Y-9198650D01*
X16424705Y-9198650D02*
X16453277Y-9198650D01*
X16453277Y-9198650D02*
X16472324Y-9208174D01*
X16472324Y-9208174D02*
X16481848Y-9227222D01*
X16481848Y-9227222D02*
X16481848Y-9331984D01*
X16577086Y-9331984D02*
X16577086Y-9198650D01*
X16577086Y-9217698D02*
X16586610Y-9208174D01*
X16586610Y-9208174D02*
X16605658Y-9198650D01*
X16605658Y-9198650D02*
X16634229Y-9198650D01*
X16634229Y-9198650D02*
X16653277Y-9208174D01*
X16653277Y-9208174D02*
X16662801Y-9227222D01*
X16662801Y-9227222D02*
X16662801Y-9331984D01*
X16662801Y-9227222D02*
X16672324Y-9208174D01*
X16672324Y-9208174D02*
X16691372Y-9198650D01*
X16691372Y-9198650D02*
X16719943Y-9198650D01*
X16719943Y-9198650D02*
X16738991Y-9208174D01*
X16738991Y-9208174D02*
X16748515Y-9227222D01*
X16748515Y-9227222D02*
X16748515Y-9331984D01*
X17138991Y-9122460D02*
X16967563Y-9379603D01*
X17396134Y-9131984D02*
X17415182Y-9131984D01*
X17415182Y-9131984D02*
X17434229Y-9141508D01*
X17434229Y-9141508D02*
X17443753Y-9151031D01*
X17443753Y-9151031D02*
X17453277Y-9170079D01*
X17453277Y-9170079D02*
X17462801Y-9208174D01*
X17462801Y-9208174D02*
X17462801Y-9255793D01*
X17462801Y-9255793D02*
X17453277Y-9293889D01*
X17453277Y-9293889D02*
X17443753Y-9312936D01*
X17443753Y-9312936D02*
X17434229Y-9322460D01*
X17434229Y-9322460D02*
X17415182Y-9331984D01*
X17415182Y-9331984D02*
X17396134Y-9331984D01*
X17396134Y-9331984D02*
X17377087Y-9322460D01*
X17377087Y-9322460D02*
X17367563Y-9312936D01*
X17367563Y-9312936D02*
X17358039Y-9293889D01*
X17358039Y-9293889D02*
X17348515Y-9255793D01*
X17348515Y-9255793D02*
X17348515Y-9208174D01*
X17348515Y-9208174D02*
X17358039Y-9170079D01*
X17358039Y-9170079D02*
X17367563Y-9151031D01*
X17367563Y-9151031D02*
X17377087Y-9141508D01*
X17377087Y-9141508D02*
X17396134Y-9131984D01*
X17548515Y-9312936D02*
X17558039Y-9322460D01*
X17558039Y-9322460D02*
X17548515Y-9331984D01*
X17548515Y-9331984D02*
X17538991Y-9322460D01*
X17538991Y-9322460D02*
X17548515Y-9312936D01*
X17548515Y-9312936D02*
X17548515Y-9331984D01*
X17681848Y-9131984D02*
X17700896Y-9131984D01*
X17700896Y-9131984D02*
X17719944Y-9141508D01*
X17719944Y-9141508D02*
X17729468Y-9151031D01*
X17729468Y-9151031D02*
X17738991Y-9170079D01*
X17738991Y-9170079D02*
X17748515Y-9208174D01*
X17748515Y-9208174D02*
X17748515Y-9255793D01*
X17748515Y-9255793D02*
X17738991Y-9293889D01*
X17738991Y-9293889D02*
X17729468Y-9312936D01*
X17729468Y-9312936D02*
X17719944Y-9322460D01*
X17719944Y-9322460D02*
X17700896Y-9331984D01*
X17700896Y-9331984D02*
X17681848Y-9331984D01*
X17681848Y-9331984D02*
X17662801Y-9322460D01*
X17662801Y-9322460D02*
X17653277Y-9312936D01*
X17653277Y-9312936D02*
X17643753Y-9293889D01*
X17643753Y-9293889D02*
X17634229Y-9255793D01*
X17634229Y-9255793D02*
X17634229Y-9208174D01*
X17634229Y-9208174D02*
X17643753Y-9170079D01*
X17643753Y-9170079D02*
X17653277Y-9151031D01*
X17653277Y-9151031D02*
X17662801Y-9141508D01*
X17662801Y-9141508D02*
X17681848Y-9131984D01*
X17843753Y-9331984D02*
X17881848Y-9331984D01*
X17881848Y-9331984D02*
X17900896Y-9322460D01*
X17900896Y-9322460D02*
X17910420Y-9312936D01*
X17910420Y-9312936D02*
X17929468Y-9284365D01*
X17929468Y-9284365D02*
X17938991Y-9246270D01*
X17938991Y-9246270D02*
X17938991Y-9170079D01*
X17938991Y-9170079D02*
X17929468Y-9151031D01*
X17929468Y-9151031D02*
X17919944Y-9141508D01*
X17919944Y-9141508D02*
X17900896Y-9131984D01*
X17900896Y-9131984D02*
X17862801Y-9131984D01*
X17862801Y-9131984D02*
X17843753Y-9141508D01*
X17843753Y-9141508D02*
X17834229Y-9151031D01*
X17834229Y-9151031D02*
X17824706Y-9170079D01*
X17824706Y-9170079D02*
X17824706Y-9217698D01*
X17824706Y-9217698D02*
X17834229Y-9236746D01*
X17834229Y-9236746D02*
X17843753Y-9246270D01*
X17843753Y-9246270D02*
X17862801Y-9255793D01*
X17862801Y-9255793D02*
X17900896Y-9255793D01*
X17900896Y-9255793D02*
X17919944Y-9246270D01*
X17919944Y-9246270D02*
X17929468Y-9236746D01*
X17929468Y-9236746D02*
X17938991Y-9217698D01*
X18053277Y-9217698D02*
X18034229Y-9208174D01*
X18034229Y-9208174D02*
X18024706Y-9198650D01*
X18024706Y-9198650D02*
X18015182Y-9179603D01*
X18015182Y-9179603D02*
X18015182Y-9170079D01*
X18015182Y-9170079D02*
X18024706Y-9151031D01*
X18024706Y-9151031D02*
X18034229Y-9141508D01*
X18034229Y-9141508D02*
X18053277Y-9131984D01*
X18053277Y-9131984D02*
X18091372Y-9131984D01*
X18091372Y-9131984D02*
X18110420Y-9141508D01*
X18110420Y-9141508D02*
X18119944Y-9151031D01*
X18119944Y-9151031D02*
X18129468Y-9170079D01*
X18129468Y-9170079D02*
X18129468Y-9179603D01*
X18129468Y-9179603D02*
X18119944Y-9198650D01*
X18119944Y-9198650D02*
X18110420Y-9208174D01*
X18110420Y-9208174D02*
X18091372Y-9217698D01*
X18091372Y-9217698D02*
X18053277Y-9217698D01*
X18053277Y-9217698D02*
X18034229Y-9227222D01*
X18034229Y-9227222D02*
X18024706Y-9236746D01*
X18024706Y-9236746D02*
X18015182Y-9255793D01*
X18015182Y-9255793D02*
X18015182Y-9293889D01*
X18015182Y-9293889D02*
X18024706Y-9312936D01*
X18024706Y-9312936D02*
X18034229Y-9322460D01*
X18034229Y-9322460D02*
X18053277Y-9331984D01*
X18053277Y-9331984D02*
X18091372Y-9331984D01*
X18091372Y-9331984D02*
X18110420Y-9322460D01*
X18110420Y-9322460D02*
X18119944Y-9312936D01*
X18119944Y-9312936D02*
X18129468Y-9293889D01*
X18129468Y-9293889D02*
X18129468Y-9255793D01*
X18129468Y-9255793D02*
X18119944Y-9236746D01*
X18119944Y-9236746D02*
X18110420Y-9227222D01*
X18110420Y-9227222D02*
X18091372Y-9217698D01*
X18300896Y-9198650D02*
X18300896Y-9331984D01*
X18253277Y-9122460D02*
X18205658Y-9265317D01*
X18205658Y-9265317D02*
X18329468Y-9265317D01*
X18396134Y-9131984D02*
X18396134Y-9170079D01*
X18472325Y-9131984D02*
X18472325Y-9170079D01*
X18767563Y-9408174D02*
X18758039Y-9398650D01*
X18758039Y-9398650D02*
X18738991Y-9370079D01*
X18738991Y-9370079D02*
X18729468Y-9351031D01*
X18729468Y-9351031D02*
X18719944Y-9322460D01*
X18719944Y-9322460D02*
X18710420Y-9274841D01*
X18710420Y-9274841D02*
X18710420Y-9236746D01*
X18710420Y-9236746D02*
X18719944Y-9189127D01*
X18719944Y-9189127D02*
X18729468Y-9160555D01*
X18729468Y-9160555D02*
X18738991Y-9141508D01*
X18738991Y-9141508D02*
X18758039Y-9112936D01*
X18758039Y-9112936D02*
X18767563Y-9103412D01*
X18929468Y-9198650D02*
X18929468Y-9331984D01*
X18881849Y-9122460D02*
X18834230Y-9265317D01*
X18834230Y-9265317D02*
X18958039Y-9265317D01*
X19186611Y-9331984D02*
X19186611Y-9131984D01*
X19272325Y-9331984D02*
X19272325Y-9227222D01*
X19272325Y-9227222D02*
X19262801Y-9208174D01*
X19262801Y-9208174D02*
X19243753Y-9198650D01*
X19243753Y-9198650D02*
X19215182Y-9198650D01*
X19215182Y-9198650D02*
X19196134Y-9208174D01*
X19196134Y-9208174D02*
X19186611Y-9217698D01*
X19396134Y-9331984D02*
X19377087Y-9322460D01*
X19377087Y-9322460D02*
X19367563Y-9312936D01*
X19367563Y-9312936D02*
X19358039Y-9293889D01*
X19358039Y-9293889D02*
X19358039Y-9236746D01*
X19358039Y-9236746D02*
X19367563Y-9217698D01*
X19367563Y-9217698D02*
X19377087Y-9208174D01*
X19377087Y-9208174D02*
X19396134Y-9198650D01*
X19396134Y-9198650D02*
X19424706Y-9198650D01*
X19424706Y-9198650D02*
X19443753Y-9208174D01*
X19443753Y-9208174D02*
X19453277Y-9217698D01*
X19453277Y-9217698D02*
X19462801Y-9236746D01*
X19462801Y-9236746D02*
X19462801Y-9293889D01*
X19462801Y-9293889D02*
X19453277Y-9312936D01*
X19453277Y-9312936D02*
X19443753Y-9322460D01*
X19443753Y-9322460D02*
X19424706Y-9331984D01*
X19424706Y-9331984D02*
X19396134Y-9331984D01*
X19577087Y-9331984D02*
X19558039Y-9322460D01*
X19558039Y-9322460D02*
X19548515Y-9303412D01*
X19548515Y-9303412D02*
X19548515Y-9131984D01*
X19729468Y-9322460D02*
X19710420Y-9331984D01*
X19710420Y-9331984D02*
X19672325Y-9331984D01*
X19672325Y-9331984D02*
X19653277Y-9322460D01*
X19653277Y-9322460D02*
X19643753Y-9303412D01*
X19643753Y-9303412D02*
X19643753Y-9227222D01*
X19643753Y-9227222D02*
X19653277Y-9208174D01*
X19653277Y-9208174D02*
X19672325Y-9198650D01*
X19672325Y-9198650D02*
X19710420Y-9198650D01*
X19710420Y-9198650D02*
X19729468Y-9208174D01*
X19729468Y-9208174D02*
X19738992Y-9227222D01*
X19738992Y-9227222D02*
X19738992Y-9246270D01*
X19738992Y-9246270D02*
X19643753Y-9265317D01*
X19815182Y-9322460D02*
X19834230Y-9331984D01*
X19834230Y-9331984D02*
X19872325Y-9331984D01*
X19872325Y-9331984D02*
X19891373Y-9322460D01*
X19891373Y-9322460D02*
X19900896Y-9303412D01*
X19900896Y-9303412D02*
X19900896Y-9293889D01*
X19900896Y-9293889D02*
X19891373Y-9274841D01*
X19891373Y-9274841D02*
X19872325Y-9265317D01*
X19872325Y-9265317D02*
X19843753Y-9265317D01*
X19843753Y-9265317D02*
X19824706Y-9255793D01*
X19824706Y-9255793D02*
X19815182Y-9236746D01*
X19815182Y-9236746D02*
X19815182Y-9227222D01*
X19815182Y-9227222D02*
X19824706Y-9208174D01*
X19824706Y-9208174D02*
X19843753Y-9198650D01*
X19843753Y-9198650D02*
X19872325Y-9198650D01*
X19872325Y-9198650D02*
X19891373Y-9208174D01*
X19967563Y-9408174D02*
X19977087Y-9398650D01*
X19977087Y-9398650D02*
X19996134Y-9370079D01*
X19996134Y-9370079D02*
X20005658Y-9351031D01*
X20005658Y-9351031D02*
X20015182Y-9322460D01*
X20015182Y-9322460D02*
X20024706Y-9274841D01*
X20024706Y-9274841D02*
X20024706Y-9236746D01*
X20024706Y-9236746D02*
X20015182Y-9189127D01*
X20015182Y-9189127D02*
X20005658Y-9160555D01*
X20005658Y-9160555D02*
X19996134Y-9141508D01*
X19996134Y-9141508D02*
X19977087Y-9112936D01*
X19977087Y-9112936D02*
X19967563Y-9103412D01*
M02*
