M48
; DRILL file {KiCad 9.0.2+dfsg-1} date 2026-03-26T03:42:39-0400
; FORMAT={-:-/ absolute / metric / decimal}
; #@! TF.CreationDate,2026-03-26T03:42:39-04:00
; #@! TF.GenerationSoftware,Kicad,Pcbnew,9.0.2+dfsg-1
; #@! TF.FileFunction,Plated,1,2,PTH
FMAT,2
METRIC
; #@! TA.AperFunction,Plated,PTH,ViaDrill
T1C0.300
; #@! TA.AperFunction,Plated,PTH,ComponentDrill
T2C1.000
; #@! TA.AperFunction,Plated,PTH,ComponentDrill
T3C2.500
%
G90
G05
T1
X161.7Y-57.3
X165.7Y-52.05
X165.7Y-53.35
X165.7Y-54.6
X168.2Y-68.45
X168.3Y-67.6
X169.1Y-68.0
X170.1Y-55.55
X177.35Y-45.75
X177.35Y-47.2
X177.35Y-49.95
X180.4Y-59.1
T2
X159.9Y-51.2
X159.9Y-53.74
X159.9Y-56.28
X159.9Y-58.82
X159.9Y-61.36
X159.9Y-63.9
X159.9Y-66.44
X159.9Y-68.98
X159.9Y-71.52
X187.9Y-51.2
X187.9Y-53.74
X187.9Y-56.28
X187.9Y-58.82
X187.9Y-61.36
X187.9Y-63.9
X187.9Y-66.44
X187.9Y-68.98
X187.9Y-71.52
T3
X155.95Y-47.2
X155.95Y-76.7
X191.75Y-47.2
X191.75Y-76.7
M30
