%TF.GenerationSoftware,KiCad,Pcbnew,9.0.2+dfsg-1*%
%TF.CreationDate,2026-03-26T03:42:39-04:00*%
%TF.ProjectId,UWB_CarrierBoard,5557425f-4361-4727-9269-6572426f6172,rev?*%
%TF.SameCoordinates,Original*%
%TF.FileFunction,Drillmap*%
%TF.FilePolarity,Positive*%
%FSLAX45Y45*%
G04 Gerber Fmt 4.5, Leading zero omitted, Abs format (unit mm)*
G04 Created by KiCad (PCBNEW 9.0.2+dfsg-1) date 2026-03-26 03:42:39*
%MOMM*%
%LPD*%
G01*
G04 APERTURE LIST*
%ADD10C,0.050000*%
%ADD11C,0.200000*%
G04 APERTURE END LIST*
D10*
X19575000Y-4620000D02*
X19575000Y-7770000D01*
X19275000Y-8070000D02*
X15495000Y-8070000D01*
X15495000Y-4320000D02*
X19275000Y-4320000D01*
X15495000Y-8070000D02*
G75*
G02*
X15195000Y-7770000I0J300000D01*
G01*
X15195000Y-4620000D02*
G75*
G02*
X15495000Y-4320000I300000J0D01*
G01*
X19575000Y-7770000D02*
G75*
G02*
X19275000Y-8070000I-300000J0D01*
G01*
X15195000Y-7770000D02*
X15195000Y-4620000D01*
X19275000Y-4320000D02*
G75*
G02*
X19575000Y-4620000I0J-300000D01*
G01*
D11*
X15453277Y-8383984D02*
X15453277Y-8183984D01*
X15453277Y-8183984D02*
X15500896Y-8183984D01*
X15500896Y-8183984D02*
X15529467Y-8193508D01*
X15529467Y-8193508D02*
X15548515Y-8212555D01*
X15548515Y-8212555D02*
X15558039Y-8231603D01*
X15558039Y-8231603D02*
X15567562Y-8269698D01*
X15567562Y-8269698D02*
X15567562Y-8298269D01*
X15567562Y-8298269D02*
X15558039Y-8336365D01*
X15558039Y-8336365D02*
X15548515Y-8355412D01*
X15548515Y-8355412D02*
X15529467Y-8374460D01*
X15529467Y-8374460D02*
X15500896Y-8383984D01*
X15500896Y-8383984D02*
X15453277Y-8383984D01*
X15653277Y-8383984D02*
X15653277Y-8250650D01*
X15653277Y-8288746D02*
X15662801Y-8269698D01*
X15662801Y-8269698D02*
X15672324Y-8260174D01*
X15672324Y-8260174D02*
X15691372Y-8250650D01*
X15691372Y-8250650D02*
X15710420Y-8250650D01*
X15777086Y-8383984D02*
X15777086Y-8250650D01*
X15777086Y-8183984D02*
X15767562Y-8193508D01*
X15767562Y-8193508D02*
X15777086Y-8203031D01*
X15777086Y-8203031D02*
X15786610Y-8193508D01*
X15786610Y-8193508D02*
X15777086Y-8183984D01*
X15777086Y-8183984D02*
X15777086Y-8203031D01*
X15900896Y-8383984D02*
X15881848Y-8374460D01*
X15881848Y-8374460D02*
X15872324Y-8355412D01*
X15872324Y-8355412D02*
X15872324Y-8183984D01*
X16005658Y-8383984D02*
X15986610Y-8374460D01*
X15986610Y-8374460D02*
X15977086Y-8355412D01*
X15977086Y-8355412D02*
X15977086Y-8183984D01*
X16234229Y-8383984D02*
X16234229Y-8183984D01*
X16234229Y-8183984D02*
X16300896Y-8326841D01*
X16300896Y-8326841D02*
X16367562Y-8183984D01*
X16367562Y-8183984D02*
X16367562Y-8383984D01*
X16548515Y-8383984D02*
X16548515Y-8279222D01*
X16548515Y-8279222D02*
X16538991Y-8260174D01*
X16538991Y-8260174D02*
X16519943Y-8250650D01*
X16519943Y-8250650D02*
X16481848Y-8250650D01*
X16481848Y-8250650D02*
X16462801Y-8260174D01*
X16548515Y-8374460D02*
X16529467Y-8383984D01*
X16529467Y-8383984D02*
X16481848Y-8383984D01*
X16481848Y-8383984D02*
X16462801Y-8374460D01*
X16462801Y-8374460D02*
X16453277Y-8355412D01*
X16453277Y-8355412D02*
X16453277Y-8336365D01*
X16453277Y-8336365D02*
X16462801Y-8317317D01*
X16462801Y-8317317D02*
X16481848Y-8307793D01*
X16481848Y-8307793D02*
X16529467Y-8307793D01*
X16529467Y-8307793D02*
X16548515Y-8298269D01*
X16643753Y-8250650D02*
X16643753Y-8450650D01*
X16643753Y-8260174D02*
X16662801Y-8250650D01*
X16662801Y-8250650D02*
X16700896Y-8250650D01*
X16700896Y-8250650D02*
X16719943Y-8260174D01*
X16719943Y-8260174D02*
X16729467Y-8269698D01*
X16729467Y-8269698D02*
X16738991Y-8288746D01*
X16738991Y-8288746D02*
X16738991Y-8345888D01*
X16738991Y-8345888D02*
X16729467Y-8364936D01*
X16729467Y-8364936D02*
X16719943Y-8374460D01*
X16719943Y-8374460D02*
X16700896Y-8383984D01*
X16700896Y-8383984D02*
X16662801Y-8383984D01*
X16662801Y-8383984D02*
X16643753Y-8374460D01*
X16824705Y-8364936D02*
X16834229Y-8374460D01*
X16834229Y-8374460D02*
X16824705Y-8383984D01*
X16824705Y-8383984D02*
X16815182Y-8374460D01*
X16815182Y-8374460D02*
X16824705Y-8364936D01*
X16824705Y-8364936D02*
X16824705Y-8383984D01*
X16824705Y-8260174D02*
X16834229Y-8269698D01*
X16834229Y-8269698D02*
X16824705Y-8279222D01*
X16824705Y-8279222D02*
X16815182Y-8269698D01*
X16815182Y-8269698D02*
X16824705Y-8260174D01*
X16824705Y-8260174D02*
X16824705Y-8279222D01*
M02*
